<svg width="320" height="280" viewBox="0 0 320 280" fill="none" xmlns="http://www.w3.org/2000/svg">
<path d="M26.0067 261.107C26.0067 261.107 26.0067 261.068 26.0067 261.013C25.9988 261.076 26.0067 261.107 26.0067 261.107Z" fill="#131212"/>
<path d="M44.1111 221.93C26.6763 231.059 26.6606 247.027 26.6606 247.027C26.6606 247.027 26.637 242.439 25.0713 240.243C25.2916 245.027 24.198 247.003 24.198 247.003C24.198 247.003 23.1044 245.027 23.3247 240.243C21.759 242.439 21.7354 247.027 21.7354 247.027C21.7354 247.027 21.7197 231.067 4.28491 221.93C16.4562 232.345 6.9914 236.188 6.9914 236.188C6.9914 236.188 14.568 240.031 11.7828 247.497C22.0187 252.603 22.3806 260.077 22.3885 261.011C22.4042 260.595 22.5615 258.901 24.198 257.732C25.8345 258.901 25.9919 260.587 26.0076 261.011C26.0155 260.077 26.3774 252.603 36.6132 247.497C33.8281 240.031 41.4046 236.188 41.4046 236.188C41.4046 236.188 31.9398 232.345 44.1111 221.93Z" fill="#131212"/>
<path d="M139.64 219.813C139.64 219.813 139.64 219.774 139.64 219.718C139.632 219.781 139.64 219.813 139.64 219.813Z" fill="#131212"/>
<path d="M157.745 180.635C140.31 189.764 140.294 205.732 140.294 205.732C140.294 205.732 140.271 201.144 138.705 198.948C138.925 203.725 137.832 205.709 137.832 205.709C137.832 205.709 136.738 203.732 136.958 198.948C135.393 201.144 135.369 205.732 135.369 205.732C135.369 205.732 135.353 189.772 117.918 180.635C130.09 191.051 120.625 194.894 120.625 194.894C120.625 194.894 128.202 198.737 125.416 206.203C135.652 211.309 136.014 218.783 136.022 219.716C136.038 219.3 136.195 217.606 137.832 216.438C139.468 217.606 139.625 219.293 139.641 219.716C139.649 218.783 140.011 211.309 150.247 206.203C147.462 198.737 155.038 194.894 155.038 194.894C155.038 194.894 145.573 191.043 157.745 180.635Z" fill="#131212"/>
<path d="M67.8467 215.803C67.8467 215.803 67.8546 215.772 67.8704 215.717C67.8546 215.772 67.8467 215.803 67.8467 215.803Z" fill="#131212"/>
<path d="M95.18 185.65C76.927 188.968 72.4109 203.32 72.4109 203.32C72.4109 203.32 73.6776 199.195 72.8909 196.772C71.7422 201.132 70.2001 202.599 70.2001 202.599C70.2001 202.599 69.7753 200.513 71.3252 196.277C69.2954 197.815 67.9814 201.932 67.9814 201.932C67.9814 201.932 72.4739 187.58 59.3742 174.482C67.3756 187.258 57.7849 188.058 57.7849 188.058C57.7849 188.058 63.5126 193.642 58.9021 199.571C66.6597 207.038 64.8816 213.853 64.6219 214.692C64.7557 214.316 65.3694 212.842 67.1711 212.253C68.3119 213.759 67.9736 215.328 67.8713 215.704C68.1388 214.865 70.5778 208.253 81.2149 206.528C80.8215 199.038 88.7128 197.705 88.7128 197.705C88.7128 197.705 81.3014 191.595 95.18 185.65Z" fill="#131212"/>
<path d="M64.5981 214.788C64.5981 214.788 64.606 214.756 64.6297 214.701C64.606 214.756 64.5981 214.788 64.5981 214.788Z" fill="#131212"/>
<path d="M186.753 213.392C169.318 222.521 169.302 238.489 169.302 238.489C169.302 238.489 169.279 233.901 167.713 231.705C167.933 236.481 166.84 238.465 166.84 238.465C166.84 238.465 165.746 236.489 165.967 231.705C164.401 233.901 164.377 238.489 164.377 238.489C164.377 238.489 164.362 222.529 146.927 213.392C159.098 223.807 149.633 227.65 149.633 227.65C149.633 227.65 157.21 231.493 154.425 238.959C164.661 244.065 165.022 251.539 165.03 252.472C165.046 252.057 165.203 250.363 166.84 249.194C168.476 250.363 168.634 252.049 168.649 252.472C168.657 251.539 169.019 244.065 179.255 238.959C176.47 231.493 184.046 227.65 184.046 227.65C184.046 227.65 174.582 223.799 186.753 213.392Z" fill="#131212"/>
<path d="M97.385 254.023C97.385 254.023 97.3929 254 97.4087 253.945C97.3929 253.992 97.385 254.023 97.385 254.023Z" fill="#131212"/>
<path d="M121.004 227.982C105.237 230.853 101.334 243.244 101.334 243.244C101.334 243.244 102.428 239.676 101.751 237.59C100.76 241.354 99.4304 242.625 99.4304 242.625C99.4304 242.625 99.0606 240.821 100.398 237.166C98.6437 238.492 97.5107 242.052 97.5107 242.052C97.5107 242.052 101.389 229.653 90.0758 218.335C96.9915 229.37 88.7068 230.068 88.7068 230.068C88.7068 230.068 93.6555 234.892 89.6745 240.013C96.3778 246.46 94.8436 252.35 94.6154 253.079C94.7255 252.758 95.2606 251.479 96.8184 250.97C97.8018 252.271 97.5186 253.62 97.4242 253.95C97.6523 253.228 99.7609 247.511 108.958 246.021C108.612 239.55 115.441 238.397 115.441 238.397C115.441 238.397 109.013 233.119 121.004 227.982Z" fill="#131212"/>
<path d="M94.5835 253.148C94.5835 253.148 94.5914 253.125 94.6072 253.069C94.5914 253.125 94.5835 253.148 94.5835 253.148Z" fill="#131212"/>
<path d="M118.885 117.42C118.885 117.42 118.885 117.389 118.885 117.334C118.877 117.397 118.885 117.42 118.885 117.42Z" fill="#131212"/>
<path d="M134.141 83.0942C119.082 91.2665 119.271 105.156 119.271 105.156C119.271 105.156 119.192 101.164 117.799 99.274C118.051 103.431 117.131 105.164 117.131 105.164C117.131 105.164 116.155 103.454 116.289 99.2976C114.951 101.235 114.991 105.219 114.991 105.219C114.991 105.219 114.778 91.3214 99.4834 83.5962C110.207 92.5056 102.025 95.9722 102.025 95.9722C102.025 95.9722 108.673 99.2191 106.344 105.76C115.321 110.074 115.73 116.575 115.746 117.391C115.754 117.022 115.864 115.556 117.272 114.521C118.712 115.517 118.869 116.983 118.885 117.352C118.877 116.536 119.098 110.034 127.941 105.454C125.423 98.9917 131.969 95.5487 131.969 95.5487C131.969 95.5487 123.677 92.3096 134.141 83.0942Z" fill="#131212"/>
<path d="M115.739 117.467C115.739 117.467 115.739 117.436 115.739 117.38C115.731 117.436 115.739 117.467 115.739 117.467Z" fill="#131212"/>
<path d="M8.1972 184.049C-8.0181 192.535 -8.02596 207.382 -8.02596 207.382C-8.02596 207.382 -8.04957 203.123 -9.50509 201.076C-9.30054 205.523 -10.3155 207.358 -10.3155 207.358C-10.3155 207.358 -11.3304 205.523 -11.1258 201.076C-12.5814 203.123 -12.605 207.382 -12.605 207.382C-12.605 207.382 -12.6128 192.543 -28.8281 184.049C-17.5144 193.735 -26.3105 197.304 -26.3105 197.304C-26.3105 197.304 -19.2689 200.88 -21.8495 207.821C-12.3375 212.574 -11.9991 219.515 -11.9913 220.385C-11.9755 219.993 -11.8339 218.424 -10.3155 217.342C-8.797 218.424 -8.64751 220.001 -8.63964 220.385C-8.63178 219.515 -8.29347 212.574 1.21856 207.821C-1.36991 200.88 5.67955 197.304 5.67955 197.304C5.67955 197.304 -3.11654 193.727 8.1972 184.049Z" fill="#131212"/>
<path d="M40.0361 103.746C40.0361 103.746 40.0202 103.73 39.9963 103.698C40.0282 103.73 40.0361 103.746 40.0361 103.746Z" fill="#131212"/>
<path d="M34.3952 78.0503C29.2812 88.8813 35.1583 96.6535 35.1583 96.6535C35.1583 96.6535 33.4589 94.434 31.8854 93.9399C33.7579 96.1829 33.9546 97.5476 33.9546 97.5476C33.9546 97.5476 32.6957 96.9908 31.0356 94.583C31.0829 96.23 32.7665 98.4652 32.7665 98.4652C32.7665 98.4652 26.8736 90.7008 15.0249 92.6537C24.7887 93.2576 21.6023 98.5985 21.6023 98.5985C21.6023 98.5985 26.7084 97.6888 28.1089 102.347C34.9695 101.085 37.9041 104.583 38.2503 105.038C38.1008 104.826 37.558 103.947 37.9199 102.779C39.1472 102.747 39.8474 103.508 40.0048 103.712C39.6665 103.257 37.0859 99.4848 40.1779 93.2497C36.071 90.6381 38.3369 85.9872 38.3369 85.9872C38.3369 85.9872 32.3181 87.5715 34.3952 78.0503Z" fill="#131212"/>
<path d="M38.2813 105.069C38.2813 105.069 38.2653 105.053 38.2415 105.021C38.2653 105.053 38.2813 105.069 38.2813 105.069Z" fill="#131212"/>
<path d="M160.34 98.7466C160.34 98.7466 160.348 98.731 160.356 98.7075C160.34 98.731 160.34 98.7466 160.34 98.7466Z" fill="#131212"/>
<path d="M172.89 86.1431C164.857 87.2176 162.591 93.3899 162.591 93.3899C162.591 93.3899 163.228 91.6175 162.937 90.543C162.347 92.4253 161.647 93.0292 161.647 93.0292C161.647 93.0292 161.505 92.1116 162.268 90.292C161.348 90.9194 160.695 92.6919 160.695 92.6919C160.695 92.6919 162.953 86.5196 157.501 80.5355C160.726 86.2765 156.525 86.4255 156.525 86.4255C156.525 86.4255 158.909 88.9823 156.777 91.4763C160.01 94.8958 159.09 97.829 158.964 98.1976C159.027 98.0407 159.326 97.4055 160.128 97.1859C160.593 97.8682 160.419 98.5427 160.364 98.7074C160.498 98.3466 161.702 95.5075 166.375 94.9742C166.36 91.6959 169.829 91.2724 169.829 91.2724C169.829 91.2724 166.706 88.4568 172.89 86.1431Z" fill="#131212"/>
<path d="M158.94 98.2389C158.94 98.2389 158.948 98.2233 158.956 98.1998C158.948 98.2233 158.94 98.2389 158.94 98.2389Z" fill="#131212"/>
<path d="M122.49 55.4889C114.103 60.2024 114.331 67.9982 114.331 67.9982C114.331 67.9982 114.253 65.7552 113.458 64.7042C113.639 67.0336 113.128 68.0218 113.128 68.0218C113.128 68.0218 112.561 67.0728 112.601 64.7356C111.869 65.8336 111.924 68.0688 111.924 68.0688C111.924 68.0688 111.688 60.273 103.033 56.0614C109.131 60.971 104.56 62.9867 104.56 62.9867C104.56 62.9867 108.321 64.7591 107.07 68.4453C112.144 70.7903 112.427 74.4372 112.443 74.8921C112.443 74.6882 112.498 73.8568 113.277 73.2686C114.095 73.8176 114.198 74.6411 114.206 74.845C114.198 74.3901 114.261 70.7354 119.194 68.0923C117.722 64.4846 121.373 62.5004 121.373 62.5004C121.373 62.5004 116.692 60.7514 122.49 55.4889Z" fill="#131212"/>
<path d="M44.6397 185.547C44.6397 185.547 44.6397 185.515 44.6318 185.452C44.6318 185.507 44.6397 185.547 44.6397 185.547Z" fill="#131212"/>
<path d="M59.8639 147.845C43.8768 157.241 44.6006 172.26 44.6006 172.26C44.6006 172.26 44.3646 167.947 42.791 165.955C43.2238 170.441 42.2875 172.354 42.2875 172.354C42.2875 172.354 41.1703 170.543 41.1546 166.033C39.7856 168.174 39.9665 172.488 39.9665 172.488C39.9665 172.488 39.2191 157.469 22.3901 149.681C34.3254 158.92 25.6001 162.974 25.6001 162.974C25.6001 162.974 32.9092 166.245 30.6355 173.397C40.5016 177.735 41.186 184.746 41.2411 185.624C41.2332 185.232 41.304 183.632 42.791 182.456C44.3803 183.475 44.6085 185.06 44.6399 185.452C44.6006 184.574 44.6006 177.531 53.9946 172.252C51.0285 165.359 57.9835 161.39 57.9835 161.39C57.9835 161.39 48.8964 158.206 59.8639 147.845Z" fill="#131212"/>
<path d="M41.242 185.707C41.242 185.707 41.242 185.676 41.242 185.613C41.2341 185.668 41.242 185.707 41.242 185.707Z" fill="#131212"/>
<path d="M114.323 249.361C96.888 258.491 96.8723 274.459 96.8723 274.459C96.8723 274.459 96.8487 269.87 95.283 267.674C95.5033 272.459 94.4097 274.435 94.4097 274.435C94.4097 274.435 93.3161 272.459 93.5364 267.674C91.9707 269.87 91.9471 274.459 91.9471 274.459C91.9471 274.459 91.9314 258.498 74.4966 249.361C86.6679 259.777 77.203 263.62 77.203 263.62C77.203 263.62 84.7796 267.463 81.9945 274.929C92.2303 280.035 92.5922 287.509 92.6001 288.442C92.6158 288.027 92.7732 286.333 94.4097 285.164C96.0462 286.333 96.2035 288.019 96.2192 288.442C96.2271 287.509 96.589 280.035 106.825 274.929C104.04 267.463 111.616 263.62 111.616 263.62C111.616 263.62 102.151 259.777 114.323 249.361Z" fill="#131212"/>
<path d="M4.69472 269.097C-16.076 279.967 -16.0839 298.986 -16.0839 298.986C-16.0839 298.986 -16.1153 293.527 -17.98 290.908C-17.7125 296.602 -19.0185 298.954 -19.0185 298.954C-19.0185 298.954 -20.3245 296.602 -20.057 290.908C-21.9217 293.527 -21.9531 298.986 -21.9531 298.986C-21.9531 298.986 -21.9689 279.975 -42.7317 269.097C-28.2394 281.496 -39.5059 286.077 -39.5059 286.077C-39.5059 286.077 -30.4817 290.657 -33.794 299.551C-21.607 305.637 -21.1742 314.53 -21.1664 315.644C-21.1506 315.142 -20.9618 313.134 -19.0185 311.746C-17.0673 313.134 -16.8864 315.15 -16.8706 315.644C-16.8628 314.53 -16.43 305.637 -4.24298 299.551C-7.55528 290.657 1.46896 286.077 1.46896 286.077C1.46896 286.077 -9.79756 281.504 4.69472 269.097Z" fill="#131212"/>
<path d="M155.431 237.356C137.996 246.485 137.981 262.453 137.981 262.453C137.981 262.453 137.957 257.865 136.391 255.669C136.612 260.453 135.518 262.43 135.518 262.43C135.518 262.43 134.424 260.453 134.645 255.669C133.079 257.865 133.055 262.453 133.055 262.453C133.055 262.453 133.04 246.493 115.605 237.356C127.776 247.771 118.311 251.614 118.311 251.614C118.311 251.614 125.888 255.457 123.103 262.924C133.339 268.029 133.701 275.504 133.709 276.437C133.724 276.021 133.882 274.327 135.518 273.159C137.155 274.327 137.312 276.013 137.328 276.437C137.336 275.504 137.697 268.029 147.933 262.924C145.148 255.457 152.725 251.614 152.725 251.614C152.725 251.614 143.26 247.771 155.431 237.356Z" fill="#131212"/>
<path d="M136.745 261.509C121.961 262.842 117.327 273.956 117.327 273.956C117.327 273.956 118.641 270.756 118.185 268.772C116.957 272.168 115.62 273.226 115.62 273.226C115.62 273.226 115.431 271.532 116.973 268.27C115.242 269.352 113.897 272.536 113.897 272.536C113.897 272.536 118.515 261.423 109.019 250.043C114.471 260.796 106.777 260.748 106.777 260.748C106.777 260.748 110.939 265.603 106.84 270.003C112.481 276.505 110.577 281.814 110.309 282.465C110.443 282.175 111.041 281.046 112.512 280.708C113.315 281.987 112.929 283.21 112.819 283.508C113.094 282.857 115.51 277.767 124.117 277.156C124.345 271.156 130.734 270.662 130.734 270.662C130.734 270.662 125.258 265.25 136.745 261.509Z" fill="#131212"/>
<path d="M155.54 276.216C155.54 276.216 155.548 276.192 155.571 276.145C155.548 276.192 155.54 276.216 155.54 276.216Z" fill="#131212"/>
<path d="M179.498 254.154C164.715 255.487 160.081 266.6 160.081 266.6C160.081 266.6 161.394 263.4 160.938 261.416C159.711 264.812 158.373 265.871 158.373 265.871C158.373 265.871 158.184 264.177 159.727 260.914C157.996 261.996 156.65 265.181 156.65 265.181C156.65 265.181 161.269 254.067 151.772 242.687C157.225 253.44 149.53 253.393 149.53 253.393C149.53 253.393 153.692 258.247 149.593 262.647C155.234 269.149 153.33 274.459 153.063 275.11C153.196 274.819 153.794 273.69 155.266 273.353C156.068 274.631 155.683 275.855 155.572 276.153C155.848 275.502 158.263 270.412 166.87 269.8C167.099 263.8 173.487 263.306 173.487 263.306C173.487 263.306 168.003 257.902 179.498 254.154Z" fill="#131212"/>
<path d="M153.023 275.173C153.023 275.173 153.031 275.15 153.055 275.103C153.031 275.15 153.023 275.173 153.023 275.173Z" fill="#131212"/>
<path d="M25.0962 252.435C7.66145 261.564 7.64572 277.532 7.64572 277.532C7.64572 277.532 7.6221 272.944 6.05643 270.748C6.27673 275.532 5.18313 277.508 5.18313 277.508C5.18313 277.508 4.08951 275.532 4.30981 270.748C2.74414 272.944 2.72054 277.532 2.72054 277.532C2.72054 277.532 2.7048 261.572 -14.73 252.435C-2.55868 262.85 -12.0235 266.693 -12.0235 266.693C-12.0235 266.693 -4.44692 270.536 -7.23208 278.002C3.00377 283.108 3.36568 290.582 3.37355 291.516C3.38929 291.1 3.54666 289.406 5.18313 288.237C6.81961 289.406 6.97696 291.092 6.99269 291.516C7.00056 290.582 7.36248 283.108 17.5983 278.002C14.8132 270.536 22.3898 266.693 22.3898 266.693C22.3898 266.693 12.9249 262.85 25.0962 252.435Z" fill="#131212"/>
<path d="M6.40967 275.112C-8.37371 276.445 -13.0078 287.558 -13.0078 287.558C-13.0078 287.558 -11.6939 284.358 -12.1502 282.374C-13.3776 285.77 -14.7151 286.829 -14.7151 286.829C-14.7151 286.829 -14.9039 285.135 -13.3618 281.872C-15.0927 282.954 -16.4381 286.139 -16.4381 286.139C-16.4381 286.139 -11.8198 275.025 -21.3161 263.645C-15.8637 274.398 -23.5583 274.351 -23.5583 274.351C-23.5583 274.351 -19.3963 279.205 -23.4954 283.605C-17.8543 290.107 -19.7583 295.417 -20.0258 296.068C-19.892 295.777 -19.2941 294.648 -17.8228 294.311C-17.0203 295.589 -17.4058 296.813 -17.516 297.111C-17.2406 296.46 -14.8252 291.37 -6.21797 290.758C-5.98981 284.758 0.398745 284.264 0.398745 284.264C0.398745 284.264 -5.08502 278.86 6.40967 275.112Z" fill="#131212"/>
<path d="M49.1548 271.449C34.3714 272.782 29.7373 283.896 29.7373 283.896C29.7373 283.896 31.0512 280.696 30.5949 278.719C29.3676 282.115 28.03 283.174 28.03 283.174C28.03 283.174 27.8412 281.48 29.3833 278.218C27.6524 279.3 26.307 282.484 26.307 282.484C26.307 282.484 30.9254 271.371 21.4291 259.991C26.8814 270.743 19.1868 270.696 19.1868 270.696C19.1868 270.696 23.3488 275.551 19.2497 279.951C24.8909 286.452 22.9869 291.762 22.7193 292.413C22.8531 292.123 23.4511 290.993 24.9223 290.656C25.7248 291.935 25.3393 293.158 25.2291 293.456C25.5045 292.805 27.9199 287.715 36.5271 287.103C36.7553 281.104 43.1439 280.61 43.1439 280.61C43.1439 280.61 37.668 275.198 49.1548 271.449Z" fill="#131212"/>
<path d="M36.7866 271.779C36.7866 271.779 36.7945 271.756 36.818 271.709C36.7945 271.756 36.7866 271.779 36.7866 271.779Z" fill="#131212"/>
<path d="M60.7363 249.716C45.9529 251.049 41.3189 262.163 41.3189 262.163C41.3189 262.163 42.6328 258.963 42.1765 256.987C40.9491 260.382 39.6116 261.441 39.6116 261.441C39.6116 261.441 39.4228 259.747 40.9648 256.485C39.2339 257.567 37.8886 260.751 37.8886 260.751C37.8886 260.751 42.5069 249.638 33.0106 238.258C38.4629 249.01 30.7683 248.963 30.7683 248.963C30.7683 248.963 34.9303 253.818 30.8313 258.218C36.4724 264.72 34.5684 270.029 34.3009 270.68C34.4346 270.39 35.0326 269.261 36.5039 268.923C37.3064 270.202 36.9208 271.425 36.8107 271.723C37.0861 271.072 39.5014 265.982 48.1087 265.371C48.3369 259.371 54.7254 258.877 54.7254 258.877C54.7254 258.877 49.2495 253.465 60.7363 249.716Z" fill="#131212"/>
<path d="M34.27 270.731C34.27 270.731 34.2779 270.707 34.3014 270.66C34.2779 270.707 34.27 270.731 34.27 270.731Z" fill="#131212"/>
<path d="M357.716 221.93C340.282 231.059 340.266 247.027 340.266 247.027C340.266 247.027 340.242 242.439 338.677 240.243C338.897 245.027 337.803 247.003 337.803 247.003C337.803 247.003 336.71 245.027 336.93 240.243C335.364 242.439 335.341 247.027 335.341 247.027C335.341 247.027 335.325 231.067 317.89 221.93C330.061 232.345 320.597 236.188 320.597 236.188C320.597 236.188 328.173 240.031 325.388 247.497C335.624 252.603 335.986 260.077 335.994 261.011C336.009 260.595 336.167 258.901 337.803 257.732C339.44 258.901 339.597 260.587 339.613 261.011C339.621 260.077 339.983 252.603 350.218 247.497C347.433 240.031 355.01 236.188 355.01 236.188C355.01 236.188 345.545 232.345 357.716 221.93Z" fill="#131212"/>
<path d="M227.115 233.655C207.933 243.701 207.918 261.261 207.918 261.261C207.918 261.261 207.886 256.219 206.163 253.795C206.407 259.058 205.203 261.23 205.203 261.23C205.203 261.23 203.999 259.058 204.243 253.795C202.52 256.211 202.489 261.261 202.489 261.261C202.489 261.261 202.473 243.701 183.292 233.655C196.683 245.113 186.274 249.34 186.274 249.34C186.274 249.34 194.613 253.568 191.545 261.787C202.804 267.41 203.205 275.63 203.213 276.657C203.228 276.194 203.402 274.335 205.203 273.057C207.005 274.335 207.178 276.202 207.194 276.657C207.202 275.63 207.603 267.41 218.862 261.787C215.801 253.575 224.133 249.34 224.133 249.34C224.133 249.34 213.724 245.105 227.115 233.655Z" fill="#131212"/>
<path d="M203.22 276.763C203.22 276.763 203.22 276.724 203.22 276.653C203.212 276.724 203.22 276.763 203.22 276.763Z" fill="#131212"/>
<path d="M190.344 239.098C190.344 239.098 190.351 239.075 190.367 239.019C190.351 239.067 190.344 239.098 190.344 239.098Z" fill="#131212"/>
<path d="M213.954 213.044C198.187 215.914 194.284 228.306 194.284 228.306C194.284 228.306 195.386 224.737 194.701 222.651C193.71 226.416 192.38 227.686 192.38 227.686C192.38 227.686 192.011 225.882 193.348 222.228C191.594 223.553 190.461 227.114 190.461 227.114C190.461 227.114 194.339 214.714 183.026 203.397C189.941 214.432 181.657 215.13 181.657 215.13C181.657 215.13 186.606 219.953 182.624 225.075C189.328 231.521 187.794 237.411 187.565 238.141C187.676 237.819 188.211 236.541 189.768 236.031C190.752 237.333 190.469 238.682 190.374 239.011C190.602 238.29 192.711 232.572 201.908 231.082C201.562 224.612 208.391 223.459 208.391 223.459C208.391 223.459 201.963 218.189 213.954 213.044Z" fill="#131212"/>
<path d="M187.533 238.216C187.533 238.216 187.541 238.193 187.557 238.138C187.541 238.185 187.533 238.216 187.533 238.216Z" fill="#131212"/>
<path d="M263.511 224.455C246.076 233.584 246.061 249.552 246.061 249.552C246.061 249.552 246.037 244.964 244.472 242.768C244.692 247.544 243.598 249.529 243.598 249.529C243.598 249.529 242.505 247.552 242.725 242.768C241.159 244.964 241.136 249.552 241.136 249.552C241.136 249.552 241.12 233.592 223.685 224.455C235.856 234.87 226.392 238.713 226.392 238.713C226.392 238.713 233.968 242.556 231.183 250.023C241.419 255.128 241.781 262.603 241.789 263.536C241.804 263.12 241.962 261.426 243.598 260.258C245.235 261.426 245.392 263.112 245.408 263.536C245.416 262.603 245.778 255.128 256.013 250.023C253.228 242.556 260.805 238.713 260.805 238.713C260.805 238.713 251.34 234.87 263.511 224.455Z" fill="#131212"/>
<path d="M255.028 266.799C240.78 274.257 240.772 287.3 240.772 287.3C240.772 287.3 240.749 283.551 239.474 281.755C239.655 285.661 238.766 287.276 238.766 287.276C238.766 287.276 237.869 285.661 238.058 281.755C236.775 283.551 236.76 287.3 236.76 287.3C236.76 287.3 236.752 274.257 222.503 266.799C232.448 275.308 224.714 278.445 224.714 278.445C224.714 278.445 230.906 281.59 228.632 287.684C236.996 291.856 237.295 297.966 237.295 298.727C237.303 298.382 237.436 297.001 238.774 296.052C240.111 297.001 240.237 298.39 240.253 298.727C240.261 297.966 240.552 291.856 248.915 287.684C246.641 281.582 252.833 278.445 252.833 278.445C252.833 278.445 245.092 275.308 255.028 266.799Z" fill="#131212"/>
<path d="M248.883 183.301C231.999 192.14 231.991 207.598 231.991 207.598C231.991 207.598 231.968 203.159 230.449 201.034C230.662 205.661 229.608 207.575 229.608 207.575C229.608 207.575 228.545 205.661 228.766 201.034C227.247 203.159 227.224 207.598 227.224 207.598C227.224 207.598 227.208 192.14 210.332 183.301C222.118 193.387 212.952 197.104 212.952 197.104C212.952 197.104 220.292 200.83 217.594 208.053C227.499 213.002 227.853 220.233 227.861 221.135C227.877 220.727 228.026 219.096 229.608 217.966C231.189 219.096 231.346 220.735 231.354 221.135C231.362 220.233 231.716 212.994 241.622 208.053C238.923 200.822 246.263 197.104 246.263 197.104C246.263 197.104 237.098 193.387 248.883 183.301Z" fill="#131212"/>
<path d="M227.854 221.243C227.854 221.243 227.854 221.211 227.854 221.148C227.846 221.211 227.854 221.243 227.854 221.243Z" fill="#131212"/>
<path d="M304.972 220.475C304.972 220.475 304.972 220.443 304.972 220.38C304.964 220.443 304.972 220.475 304.972 220.475Z" fill="#131212"/>
<path d="M321.802 184.049C305.587 192.535 305.579 207.382 305.579 207.382C305.579 207.382 305.555 203.123 304.1 201.076C304.304 205.523 303.289 207.358 303.289 207.358C303.289 207.358 302.275 205.523 302.479 201.076C301.024 203.123 301 207.382 301 207.382C301 207.382 300.984 192.543 284.777 184.049C296.091 193.735 287.295 197.304 287.295 197.304C287.295 197.304 294.336 200.88 291.755 207.821C301.268 212.574 301.606 219.515 301.614 220.385C301.629 219.993 301.771 218.424 303.289 217.342C304.808 218.424 304.957 220.001 304.965 220.385C304.973 219.515 305.312 212.574 314.824 207.821C312.235 200.88 319.285 197.304 319.285 197.304C319.285 197.304 310.488 193.727 321.802 184.049Z" fill="#131212"/>
<path d="M281.475 153.932C281.475 153.932 281.459 153.9 281.435 153.845C281.459 153.9 281.475 153.932 281.475 153.932Z" fill="#131212"/>
<path d="M282.615 113.305C270.9 127.65 276.808 141.485 276.808 141.485C276.808 141.485 275.085 137.524 272.914 136.199C274.881 140.261 274.668 142.371 274.668 142.371C274.668 142.371 272.985 141.061 271.403 136.842C270.86 139.328 272.544 143.304 272.544 143.304C272.544 143.304 266.604 129.477 248.115 128.003C262.521 132.536 255.754 139.359 255.754 139.359C255.754 139.359 263.748 139.893 264.11 147.39C274.873 148.041 277.965 154.378 278.311 155.186C278.17 154.817 277.674 153.296 278.657 151.68C280.506 152.088 281.269 153.492 281.435 153.853C281.096 153.045 278.634 146.433 285.604 138.238C280.42 132.795 285.557 126.67 285.557 126.67C285.557 126.67 275.943 126.819 282.615 113.305Z" fill="#131212"/>
<path d="M278.343 155.268C278.343 155.268 278.335 155.236 278.303 155.181C278.327 155.236 278.343 155.268 278.343 155.268Z" fill="#131212"/>
<path d="M164.92 9.24737C164.92 9.24737 164.92 9.23892 164.928 9.23047C164.92 9.23892 164.92 9.24737 164.92 9.24737Z" fill="#131212"/>
<path d="M171.27 3.03931C166.502 3.6589 165.746 6.64702 165.746 6.64702C165.746 6.64702 165.959 5.78431 165.676 5.27452C165.503 6.18429 165.141 6.48232 165.141 6.48232C165.141 6.48232 164.96 6.04312 165.243 5.16472C164.747 5.47844 164.527 6.33331 164.527 6.33331C164.527 6.33331 165.282 3.34518 161.38 0.545288C163.913 3.25891 161.38 3.3844 161.38 3.3844C161.38 3.3844 163.079 4.57651 162.033 5.79999C164.33 7.39209 164.071 8.81949 164.031 8.99203C164.055 8.9136 164.173 8.60773 164.637 8.49009C164.991 8.81164 164.944 9.1332 164.928 9.21947C164.975 9.04693 165.416 7.66659 168.201 7.35287C167.863 5.78431 169.932 5.53334 169.932 5.53334C169.932 5.53334 167.753 4.23142 171.27 3.03931Z" fill="#131212"/>
<path d="M164.017 9.02691C164.017 9.02691 164.017 9.01846 164.025 9.01001C164.025 9.01846 164.017 9.02691 164.017 9.02691Z" fill="#131212"/>
<path d="M109.545 162.42C109.545 162.42 109.537 162.397 109.513 162.35C109.537 162.397 109.545 162.42 109.545 162.42Z" fill="#131212"/>
<path d="M110.333 127.482C100.325 139.874 105.478 151.74 105.478 151.74C105.478 151.74 103.976 148.344 102.103 147.207C103.818 150.689 103.637 152.509 103.637 152.509C103.637 152.509 102.182 151.395 100.805 147.764C100.349 149.905 101.812 153.316 101.812 153.316C101.812 153.316 96.6429 141.458 80.7266 140.274C93.1418 144.101 87.3512 149.999 87.3512 149.999C87.3512 149.999 94.2275 150.422 94.5737 156.861C103.834 157.371 106.517 162.806 106.824 163.496C106.698 163.183 106.265 161.873 107.107 160.485C108.696 160.822 109.365 162.03 109.507 162.336C109.208 161.638 107.068 155.967 113.016 148.885C108.531 144.234 112.921 138.94 112.921 138.94C112.921 138.94 104.66 139.137 110.333 127.482Z" fill="#131212"/>
<path d="M106.861 163.582C106.861 163.582 106.853 163.559 106.83 163.512C106.846 163.559 106.861 163.582 106.861 163.582Z" fill="#131212"/>
<path d="M244.628 40.2674C244.628 40.2674 244.62 40.2593 244.604 40.243C244.62 40.2593 244.628 40.2674 244.628 40.2674Z" fill="#131212"/>
<path d="M239.599 25.7122C237.357 32.355 241.306 36.4725 241.306 36.4725C241.306 36.4725 240.166 35.2961 239.221 35.1157C240.465 36.2922 240.669 37.0764 240.669 37.0764C240.669 37.0764 239.898 36.8333 238.773 35.5471C238.915 36.4961 240.04 37.6882 240.04 37.6882C240.04 37.6882 236.09 33.5707 229.332 35.5079C235.052 35.202 233.557 38.5195 233.557 38.5195C233.557 38.5195 236.46 37.649 237.593 40.2606C241.495 39.0607 243.439 40.9037 243.675 41.139C243.572 41.0292 243.195 40.5508 243.328 39.8528C244.037 39.7508 244.501 40.1508 244.603 40.2528C244.375 40.0097 242.62 37.9941 243.997 34.1589C241.432 32.9197 242.439 30.0649 242.439 30.0649C242.439 30.0649 239.041 31.3904 239.599 25.7122Z" fill="#131212"/>
<path d="M243.691 41.1627C243.691 41.1627 243.683 41.1546 243.667 41.1383C243.683 41.1464 243.691 41.1627 243.691 41.1627Z" fill="#131212"/>
<path d="M240.538 109.785C240.538 109.785 240.538 109.769 240.53 109.738C240.538 109.769 240.538 109.785 240.538 109.785Z" fill="#131212"/>
<path d="M247.729 89.9556C239.617 95.124 240.27 102.896 240.27 102.896C240.27 102.896 240.066 100.661 239.216 99.6572C239.523 101.979 239.074 102.983 239.074 102.983C239.074 102.983 238.461 102.065 238.366 99.7278C237.698 100.865 237.871 103.1 237.871 103.1C237.871 103.1 237.202 95.3279 228.335 91.5947C234.692 96.1671 230.247 98.4258 230.247 98.4258C230.247 98.4258 234.094 99.9866 233.048 103.735C238.24 105.806 238.728 109.429 238.775 109.884C238.767 109.68 238.767 108.849 239.523 108.214C240.365 108.716 240.514 109.531 240.538 109.735C240.498 109.28 240.373 105.626 245.14 102.716C243.472 99.1944 247.005 97.0063 247.005 97.0063C247.005 97.0063 242.237 95.524 247.729 89.9556Z" fill="#131212"/>
<path d="M172.269 189.527C172.269 189.527 172.276 189.496 172.292 189.441C172.276 189.496 172.269 189.527 172.269 189.527Z" fill="#131212"/>
<path d="M199.602 159.368C181.349 162.685 176.833 177.038 176.833 177.038C176.833 177.038 178.1 172.912 177.313 170.497C176.164 174.857 174.622 176.324 174.622 176.324C174.622 176.324 174.197 174.238 175.747 170.003C173.717 171.54 172.403 175.657 172.403 175.657C172.403 175.657 176.896 161.305 163.796 148.199C171.798 160.975 162.207 161.775 162.207 161.775C162.207 161.775 167.934 167.36 163.324 173.289C171.082 180.755 169.303 187.571 169.044 188.41C169.178 188.033 169.791 186.559 171.593 185.971C172.734 187.476 172.395 189.045 172.293 189.421C172.561 188.582 175 181.971 185.637 180.245C185.243 172.755 193.135 171.422 193.135 171.422C193.135 171.422 185.715 165.32 199.602 159.368Z" fill="#131212"/>
<path d="M169.02 188.505C169.02 188.505 169.028 188.474 169.052 188.418C169.028 188.474 169.02 188.505 169.02 188.505Z" fill="#131212"/>
<path d="M137.691 182.24C137.691 182.24 137.691 182.208 137.683 182.145C137.691 182.2 137.691 182.24 137.691 182.24Z" fill="#131212"/>
<path d="M152.915 144.538C136.928 153.934 137.652 168.953 137.652 168.953C137.652 168.953 137.416 164.64 135.843 162.647C136.275 167.134 135.339 169.047 135.339 169.047C135.339 169.047 134.222 167.236 134.206 162.726C132.837 164.867 133.018 169.181 133.018 169.181C133.018 169.181 132.271 154.161 115.442 146.374C127.377 155.612 118.652 159.667 118.652 159.667C118.652 159.667 125.961 162.938 123.687 170.09C133.553 174.427 134.238 181.439 134.293 182.317C134.285 181.925 134.356 180.325 135.843 179.149C137.432 180.168 137.66 181.753 137.691 182.145C137.652 181.266 137.652 174.223 147.046 168.945C144.08 162.051 151.035 158.083 151.035 158.083C151.035 158.083 141.948 154.899 152.915 144.538Z" fill="#131212"/>
<path d="M134.294 182.4C134.294 182.4 134.294 182.368 134.294 182.305C134.286 182.361 134.294 182.4 134.294 182.4Z" fill="#131212"/>
<path d="M224.305 272.033C224.305 272.033 224.313 272.01 224.336 271.963C224.313 272.01 224.305 272.033 224.305 272.033Z" fill="#131212"/>
<path d="M248.263 249.971C233.48 251.305 228.845 262.418 228.845 262.418C228.845 262.418 230.159 259.218 229.703 257.234C228.476 260.63 227.138 261.688 227.138 261.688C227.138 261.688 226.949 259.994 228.491 256.732C226.761 257.814 225.415 260.998 225.415 260.998C225.415 260.998 230.033 249.885 220.537 238.505C225.989 249.258 218.295 249.21 218.295 249.21C218.295 249.21 222.457 254.065 218.358 258.465C223.999 264.967 222.095 270.276 221.828 270.927C221.961 270.637 222.559 269.508 224.03 269.171C224.833 270.449 224.447 271.672 224.337 271.97C224.613 271.319 227.028 266.229 235.635 265.618C235.863 259.618 242.252 259.124 242.252 259.124C242.252 259.124 236.768 253.72 248.263 249.971Z" fill="#131212"/>
<path d="M221.788 271.004C221.788 271.004 221.796 270.981 221.82 270.934C221.796 270.981 221.788 271.004 221.788 271.004Z" fill="#131212"/>
<path d="M263.62 265.533C263.62 265.533 263.628 265.509 263.652 265.462C263.628 265.509 263.62 265.533 263.62 265.533Z" fill="#131212"/>
<path d="M287.578 243.464C272.795 244.797 268.161 255.911 268.161 255.911C268.161 255.911 269.475 252.711 269.018 250.727C267.791 254.122 266.453 255.181 266.453 255.181C266.453 255.181 266.265 253.487 267.807 250.225C266.076 251.307 264.73 254.491 264.73 254.491C264.73 254.491 269.349 243.378 259.852 231.998C265.305 242.75 257.61 242.703 257.61 242.703C257.61 242.703 261.772 247.558 257.673 251.958C263.314 258.46 261.41 263.769 261.143 264.42C261.276 264.13 261.874 263.001 263.346 262.663C264.148 263.942 263.763 265.165 263.653 265.463C263.928 264.812 266.343 259.722 274.951 259.111C275.179 253.111 281.567 252.617 281.567 252.617C281.567 252.617 276.083 247.213 287.578 243.464Z" fill="#131212"/>
<path d="M261.104 264.497C261.104 264.497 261.111 264.474 261.135 264.427C261.111 264.474 261.104 264.497 261.104 264.497Z" fill="#131212"/>
<path d="M178.202 267.735C178.202 267.735 178.217 267.703 178.241 267.64C178.21 267.703 178.202 267.735 178.202 267.735Z" fill="#131212"/>
<path d="M210.08 238.38C190.402 240.16 184.242 254.944 184.242 254.944C184.242 254.944 185.989 250.685 185.383 248.05C183.746 252.568 181.968 253.979 181.968 253.979C181.968 253.979 181.717 251.728 183.77 247.384C181.473 248.819 179.679 253.062 179.679 253.062C179.679 253.062 185.823 238.27 173.188 223.126C180.45 237.439 170.198 237.368 170.198 237.368C170.198 237.368 175.737 243.831 170.277 249.681C177.791 258.332 175.249 265.399 174.887 266.261C175.06 265.877 175.855 264.371 177.822 263.916C178.892 265.626 178.381 267.249 178.231 267.642C178.593 266.779 181.811 259.995 193.266 259.187C193.565 251.203 202.07 250.544 202.07 250.544C202.07 250.544 194.785 243.36 210.08 238.38Z" fill="#131212"/>
<path d="M174.847 266.359C174.847 266.359 174.862 266.327 174.886 266.264C174.862 266.327 174.847 266.359 174.847 266.359Z" fill="#131212"/>
<path d="M312.353 272.838C294.918 281.967 294.902 297.935 294.902 297.935C294.902 297.935 294.879 293.347 293.313 291.151C293.533 295.927 292.44 297.912 292.44 297.912C292.44 297.912 291.346 295.935 291.566 291.151C290.001 293.347 289.977 297.935 289.977 297.935C289.977 297.935 289.961 281.975 272.527 272.838C284.698 283.253 275.233 287.096 275.233 287.096C275.233 287.096 282.81 290.939 280.025 298.406C290.26 303.511 290.622 310.986 290.63 311.919C290.646 311.503 290.803 309.809 292.44 308.641C294.076 309.809 294.234 311.496 294.249 311.919C294.257 310.986 294.619 303.511 304.855 298.406C302.07 290.939 309.646 287.096 309.646 287.096C309.646 287.096 300.182 283.253 312.353 272.838Z" fill="#131212"/>
<path d="M338.701 252.435C321.266 261.564 321.251 277.532 321.251 277.532C321.251 277.532 321.227 272.944 319.661 270.748C319.882 275.532 318.788 277.508 318.788 277.508C318.788 277.508 317.695 275.532 317.915 270.748C316.349 272.944 316.326 277.532 316.326 277.532C316.326 277.532 316.31 261.572 298.875 252.435C311.046 262.85 301.581 266.693 301.581 266.693C301.581 266.693 309.158 270.536 306.373 278.002C316.609 283.108 316.971 290.582 316.979 291.516C316.994 291.1 317.152 289.406 318.788 288.237C320.425 289.406 320.582 291.092 320.598 291.516C320.606 290.582 320.967 283.108 331.203 278.002C328.418 270.536 335.995 266.693 335.995 266.693C335.995 266.693 326.53 262.85 338.701 252.435Z" fill="#131212"/>
<path d="M320.018 275.112C305.235 276.445 300.601 287.558 300.601 287.558C300.601 287.558 301.915 284.358 301.458 282.374C300.231 285.77 298.893 286.829 298.893 286.829C298.893 286.829 298.704 285.135 300.247 281.872C298.516 282.954 297.17 286.139 297.17 286.139C297.17 286.139 301.789 275.025 292.292 263.645C297.745 274.398 290.05 274.351 290.05 274.351C290.05 274.351 294.212 279.205 290.113 283.605C295.754 290.107 293.85 295.417 293.583 296.068C293.716 295.777 294.314 294.648 295.786 294.311C296.588 295.589 296.203 296.813 296.092 297.111C296.368 296.46 298.783 291.37 307.39 290.758C307.619 284.758 314.007 284.264 314.007 284.264C314.007 284.264 308.531 278.86 320.018 275.112Z" fill="#131212"/>
<path d="M313.353 243.195C295.918 252.324 295.902 268.292 295.902 268.292C295.902 268.292 295.879 263.704 294.313 261.508C294.533 266.284 293.44 268.269 293.44 268.269C293.44 268.269 292.346 266.292 292.566 261.508C291.001 263.704 290.977 268.292 290.977 268.292C290.977 268.292 290.961 252.332 273.527 243.195C285.698 253.61 276.233 257.453 276.233 257.453C276.233 257.453 283.81 261.296 281.024 268.763C291.26 273.868 291.622 281.343 291.63 282.276C291.646 281.86 291.803 280.166 293.44 278.998C295.076 280.166 295.234 281.852 295.249 282.276C295.257 281.343 295.619 273.868 305.855 268.763C303.07 261.296 310.646 257.453 310.646 257.453C310.646 257.453 301.182 253.61 313.353 243.195Z" fill="#131212"/>
<path d="M9.94342 218.024C2.8389 217.899 -6.30334 221.687 -6.30334 221.687C-9.0885 226.479 -11.0318 230.534 -12.3693 232.251C-12.8099 231.365 -14.1238 228.871 -15.4692 228.087C-13.935 231.106 -14.706 231.279 -14.706 231.279C-14.706 231.279 -15.3512 231.741 -16.5943 228.589C-16.9011 230.118 -15.9098 232.753 -15.5321 233.671C-17.7036 233.53 -22.0387 232.275 -27.4831 231.169C-27.4831 231.169 -36.3972 235.467 -41.0234 240.839C-34.2887 237.678 -34.6349 246.117 -34.6349 246.117C-34.6349 246.117 -29.7018 239.216 -24.1315 249.678C-21.7948 239.749 -8.34107 245.419 -8.34107 245.419C-8.34107 245.419 -3.65194 231.632 5.34082 236.486C1.20242 225.389 9.65232 226.298 9.65232 226.298C9.65232 226.298 3.09854 220.942 9.94342 218.024Z" fill="#131212"/>
<path d="M102.373 242.899C95.4654 236.225 82.9165 231.527 82.9165 231.527C75.7175 233.692 70.0292 235.911 67.1103 236.374C67.5037 235.088 68.5107 231.417 67.9128 229.394C66.6225 233.794 65.702 233.253 65.702 233.253C65.702 233.253 64.6398 233.119 66.3314 228.853C64.6162 230.084 63.145 233.606 62.665 234.853C60.6509 232.704 57.5275 227.472 53.1766 221.355C53.1766 221.355 40.3838 217.379 30.8167 218.414C40.4074 221.504 32.2328 229.527 32.2328 229.527C32.2328 229.527 43.5151 227.261 39.3059 242.735C50.832 235.08 58.8649 253.095 58.8649 253.095C58.8649 253.095 76.3076 243.793 80.6899 256.891C86.9054 242.107 94.4112 250.797 94.4112 250.797C94.4112 250.797 92.8927 239.464 102.373 242.899Z" fill="#131212"/>
<path d="M66.5902 205.925C57.5031 201.666 39.1084 205.674 39.1084 205.674C34.0416 210.074 25.159 220.191 25.159 220.191C25.1118 218.795 24.8601 214.827 23.5776 213.031C23.7979 217.815 22.7043 217.587 22.7043 217.587C22.7043 217.587 21.6107 217.815 21.831 213.031C20.5564 214.827 20.3047 218.795 20.2496 220.191C17.5274 218.756 12.673 214.638 6.30018 210.074C6.30018 210.074 -12.0945 214.866 -21.1816 219.124C-10.6625 218.936 -9.82856 226.089 -9.82856 226.089C-9.82856 226.089 3.18458 217.846 4.29393 234.528C13.0664 223.085 22.7043 239.469 22.7043 239.469C22.7043 239.469 31.4532 221.32 40.2335 232.763C41.3428 216.074 52.5858 221.681 52.5858 221.681C52.5858 221.681 56.079 205.737 66.5902 205.925Z" fill="#131212"/>
<path d="M98.4385 209.333C91.334 209.207 82.1918 212.995 82.1918 212.995C79.4066 217.787 77.4633 221.842 76.1258 223.56C75.6852 222.673 74.3713 220.179 73.0259 219.395C74.5601 222.415 73.7891 222.587 73.7891 222.587C73.7891 222.587 73.1439 223.05 71.9008 219.897C71.594 221.426 72.5853 224.062 72.963 224.979C70.7915 224.838 66.4564 223.583 61.012 222.477C61.012 222.477 52.0979 226.775 47.4717 232.147C54.2064 228.987 53.8602 237.426 53.8602 237.426C53.8602 237.426 58.7933 230.524 64.3636 240.986C66.7003 231.057 80.154 236.728 80.154 236.728C80.154 236.728 84.8432 222.94 93.8359 227.795C89.6975 216.697 98.1474 217.607 98.1474 217.607C98.1474 217.607 91.5937 212.25 98.4385 209.333Z" fill="#131212"/>
<path d="M183.229 200.18C176.124 200.054 166.982 203.842 166.982 203.842C164.197 208.634 162.253 212.689 160.916 214.407C160.475 213.52 159.161 211.026 157.816 210.242C159.35 213.262 158.579 213.434 158.579 213.434C158.579 213.434 157.934 213.897 156.691 210.744C156.384 212.273 157.375 214.909 157.753 215.826C155.582 215.685 151.246 214.43 145.802 213.324C145.802 213.324 136.888 217.622 132.262 222.995C138.996 219.834 138.65 228.273 138.65 228.273C138.65 228.273 143.583 221.371 149.154 231.834C151.49 221.904 164.944 227.575 164.944 227.575C164.944 227.575 169.633 213.787 178.626 218.642C174.488 207.544 182.937 208.454 182.937 208.454C182.937 208.454 176.384 203.097 183.229 200.18Z" fill="#131212"/>
<path d="M152.112 228.661C146.597 220.301 134.89 212.685 134.89 212.685C127.062 213.258 120.768 214.23 117.691 214.042C118.384 212.826 120.248 209.305 120.099 207.117C117.786 211.305 116.968 210.544 116.968 210.544C116.968 210.544 115.913 210.168 118.612 206.207C116.582 207.07 114.285 210.324 113.514 211.493C111.948 208.85 109.957 202.811 106.921 195.603C106.921 195.603 94.7964 188.655 84.8202 187.557C93.8838 192.874 83.7266 199.188 83.7266 199.188C83.7266 199.188 95.7326 199.431 87.9279 214.238C101.405 209.054 105.489 229.218 105.489 229.218C105.489 229.218 125.362 223.696 126.849 238.025C136.542 224.371 142.207 234.927 142.207 234.927C142.207 234.927 143.246 223.03 152.112 228.661Z" fill="#131212"/>
<path d="M122.404 180.439C118.824 173.318 105.339 166.801 105.339 166.801C99.9967 167.067 89.4461 169.036 89.4461 169.036C90.107 168.134 91.9087 165.53 91.9953 163.781C89.7766 166.879 89.2022 166.205 89.2022 166.205C89.2022 166.205 88.4076 165.805 90.9095 162.926C89.2258 163.42 87.1094 165.781 86.3856 166.628C85.3943 164.393 84.3872 159.436 82.6563 153.46C82.6563 153.46 68.7856 147.437 60.9966 145.641C67.6684 150.684 64.6551 155.57 64.6551 155.57C64.6551 155.57 76.8657 156.793 69.3206 167.781C80.4612 164.926 78.392 179.906 78.392 179.906C78.392 179.906 92.8214 172.848 92.664 184.314C101.594 174.416 105.866 183.443 105.866 183.443C105.866 183.443 115.913 175.161 122.404 180.439Z" fill="#131212"/>
<path d="M81.5391 112.325C76.4173 111.462 67.8022 116.011 67.8022 116.011C65.8903 118.905 62.8691 125.187 62.8691 125.187C62.6488 124.497 61.9722 122.552 61.0832 121.839C61.8621 124.191 61.2877 124.231 61.2877 124.231C61.2877 124.231 60.7763 124.497 60.2177 122.082C59.8322 123.156 60.2571 125.164 60.4302 125.87C58.8724 125.533 55.8748 124.152 52.0589 122.756C52.0589 122.756 43.554 127.697 39.6201 131.085C44.8364 129.532 46.2526 132.983 46.2526 132.983C46.2526 132.983 51.5869 127.07 54.4743 135.234C57.2516 128.309 64.3482 135.148 64.3482 135.148C64.3482 135.148 66.1814 124.882 72.153 129.375C70.3749 120.897 76.7635 122.137 76.7635 122.137C76.7635 122.137 76.2757 113.698 81.5391 112.325Z" fill="#131212"/>
<path d="M28.4627 45.9075C25.7405 42.8958 18.2426 41.5155 18.2426 41.5155C15.662 42.3625 10.7447 44.7546 10.7447 44.7546C10.9492 44.2212 11.4764 42.6997 11.2797 41.837C10.6109 43.6566 10.2332 43.3978 10.2332 43.3978C10.2332 43.3978 9.79265 43.3115 10.6266 41.5625C9.86346 42.0331 9.14751 43.4762 8.91148 43.986C8.12471 43.0213 6.9603 40.7312 5.30021 38.0254C5.30021 38.0254 -2.32358 36.9353 -6.3833 37.1C-2.42586 38.6764 -3.24409 41.4763 -3.24409 41.4763C-3.24409 41.4763 2.9163 40.4332 0.697615 46.8408C5.78014 43.9389 6.79507 51.57 6.79507 51.57C6.79507 51.57 12.924 46.1663 14.3953 51.8131C17.44 45.7584 20.7523 49.6093 20.7523 49.6093C20.7523 49.6093 24.5682 44.1899 28.4627 45.9075Z" fill="#131212"/>
<path d="M22.3903 82.7343C21.0056 81.8402 17.9136 82.0912 17.9136 82.0912C16.9931 82.6951 15.3173 84.1538 15.3173 84.1538C15.3409 83.9264 15.3881 83.2754 15.215 82.9539C15.1442 83.7382 14.9711 83.6754 14.9711 83.6754C14.9711 83.6754 14.7901 83.6911 14.9318 82.9147C14.68 83.1813 14.5541 83.8244 14.5148 84.044C14.1056 83.746 13.3976 82.9696 12.4613 82.0912C12.4613 82.0912 9.35357 82.4676 7.78003 82.9617C9.49518 83.1656 9.47945 84.3499 9.47945 84.3499C9.47945 84.3499 11.7847 83.2911 11.5959 86.0361C13.2795 84.3656 14.4912 87.2439 14.4912 87.2439C14.4912 87.2439 16.3165 84.4754 17.4966 86.538C18.0474 83.8401 19.7546 85.0009 19.7546 85.0009C19.7546 85.0009 20.683 82.4755 22.3903 82.7343Z" fill="#131212"/>
<path d="M82.5461 108.173C81.4211 106.337 77.6524 104.879 77.6524 104.879C76.2205 105.067 73.4275 105.828 73.4275 105.828C73.5849 105.569 74.0097 104.832 73.994 104.361C73.4668 105.247 73.2938 105.075 73.2938 105.075C73.2938 105.075 73.0735 104.988 73.6793 104.157C73.2387 104.33 72.7194 105.012 72.5463 105.255C72.2316 104.675 71.8461 103.365 71.2482 101.789C71.2482 101.789 67.3773 100.471 65.2451 100.157C67.1491 101.365 66.4489 102.745 66.4489 102.745C66.4489 102.745 69.7612 102.808 67.9752 105.93C70.9099 104.918 70.6895 108.996 70.6895 108.996C70.6895 108.996 74.4188 106.777 74.6313 109.867C76.8185 107.004 78.1638 109.341 78.1638 109.341C78.1638 109.341 80.6894 106.902 82.5461 108.173Z" fill="#131212"/>
<path d="M2.86198 246.384C-6.2252 242.126 -24.6198 246.133 -24.6198 246.133C-29.6866 250.533 -38.5692 260.651 -38.5692 260.651C-38.6164 259.254 -38.8682 255.286 -40.1507 253.49C-39.9304 258.266 -41.024 258.047 -41.024 258.047C-41.024 258.047 -42.1176 258.274 -41.8973 253.49C-43.1718 255.286 -43.4236 259.254 -43.4787 260.651C-46.2009 259.215 -51.0553 255.098 -57.4281 250.533C-57.4281 250.533 -75.8227 255.325 -84.9099 259.584C-74.3908 259.396 -73.5568 266.548 -73.5568 266.548C-73.5568 266.548 -60.5437 258.306 -59.4343 274.987C-50.6619 263.545 -41.024 279.928 -41.024 279.928C-41.024 279.928 -32.2751 261.78 -23.4948 273.223C-22.3854 256.533 -11.1425 262.141 -11.1425 262.141C-11.1425 262.141 -7.65711 246.196 2.86198 246.384Z" fill="#131212"/>
<path d="M127.445 239.136C120.341 239.011 111.198 242.799 111.198 242.799C108.413 247.591 106.47 251.645 105.132 253.363C104.692 252.477 103.378 249.983 102.033 249.198C103.567 252.218 102.796 252.391 102.796 252.391C102.796 252.391 102.151 252.853 100.907 249.7C100.601 251.23 101.592 253.865 101.97 254.783C99.7981 254.641 95.463 253.387 90.0185 252.281C90.0185 252.281 81.1045 256.579 76.4783 261.951C83.213 258.79 82.8668 267.229 82.8668 267.229C82.8668 267.229 87.7999 260.327 93.3702 270.79C95.7069 260.861 109.161 266.531 109.161 266.531C109.161 266.531 113.85 252.743 122.843 257.598C118.704 246.501 127.154 247.41 127.154 247.41C127.154 247.41 120.6 242.054 127.445 239.136Z" fill="#131212"/>
<path d="M100.352 260.336C93.4437 253.662 80.8947 248.964 80.8947 248.964C73.6958 251.129 68.0075 253.348 65.0886 253.811C65.4819 252.525 66.489 248.854 65.8911 246.831C64.6008 251.231 63.6803 250.69 63.6803 250.69C63.6803 250.69 62.6181 250.556 64.3097 246.29C62.5945 247.521 61.1232 251.043 60.6433 252.29C58.6292 250.141 55.5057 244.909 51.1549 238.792C51.1549 238.792 38.362 234.816 28.7949 235.851C38.3856 238.941 30.2111 246.964 30.2111 246.964C30.2111 246.964 41.4934 244.698 37.2842 260.172C48.8103 252.517 56.8432 270.532 56.8432 270.532C56.8432 270.532 74.2859 261.23 78.6682 274.328C84.8837 259.544 92.3894 268.234 92.3894 268.234C92.3894 268.234 90.871 256.909 100.352 260.336Z" fill="#131212"/>
<path d="M181.119 256.246C175.604 247.886 163.897 240.27 163.897 240.27C156.069 240.843 149.774 241.815 146.698 241.627C147.391 240.412 149.255 236.89 149.106 234.702C146.793 238.89 145.974 238.129 145.974 238.129C145.974 238.129 144.92 237.753 147.619 233.792C145.589 234.655 143.291 237.91 142.52 239.078C140.955 236.435 138.964 230.396 135.927 223.189C135.927 223.189 123.803 216.24 113.827 215.142C122.891 220.459 112.733 226.773 112.733 226.773C112.733 226.773 124.739 227.016 116.935 241.823C130.412 236.639 134.495 256.803 134.495 256.803C134.495 256.803 154.369 251.282 155.856 265.611C165.549 251.956 171.214 262.513 171.214 262.513C171.214 262.513 172.252 250.615 181.119 256.246Z" fill="#131212"/>
<path d="M6.80315 98.1735C3.67968 98.1422 -0.332843 99.844 -0.332843 99.844C-1.54447 101.962 -2.37844 103.758 -2.96065 104.511C-3.15734 104.118 -3.74742 103.028 -4.33749 102.691C-3.653 104.016 -3.99131 104.095 -3.99131 104.095C-3.99131 104.095 -4.27455 104.299 -4.83316 102.918C-4.95904 103.593 -4.51844 104.746 -4.34536 105.154C-5.30521 105.099 -7.21706 104.565 -9.60884 104.095C-9.60884 104.095 -13.5112 106.016 -15.5332 108.401C-12.5828 106.989 -12.7008 110.699 -12.7008 110.699C-12.7008 110.699 -10.553 107.648 -8.06678 112.228C-7.07545 107.852 -1.13534 110.299 -1.13534 110.299C-1.13534 110.299 0.878777 104.213 4.85196 106.314C2.98732 101.444 6.70874 101.813 6.70874 101.813C6.70874 101.813 3.7977 99.4833 6.80315 98.1735Z" fill="#131212"/>
<path d="M25.262 141.413C20.5099 136.825 11.8869 133.594 11.8869 133.594C6.93816 135.084 3.02792 136.605 1.02166 136.927C1.28916 136.041 1.9894 133.515 1.57241 132.127C0.683361 135.154 0.0539284 134.778 0.0539284 134.778C0.0539284 134.778 -0.677752 134.684 0.486666 131.751C-0.693487 132.598 -1.70056 135.013 -2.031 135.876C-3.41572 134.401 -5.56359 130.802 -8.55331 126.598C-8.55331 126.598 -17.3494 123.861 -23.9268 124.574C-17.3336 126.7 -22.959 132.213 -22.959 132.213C-22.959 132.213 -15.2015 130.653 -18.0968 141.295C-10.1741 136.033 -4.65093 148.417 -4.65093 148.417C-4.65093 148.417 7.33943 142.025 10.3527 151.028C14.6249 140.864 19.7861 146.84 19.7861 146.84C19.7861 146.84 18.7476 139.052 25.262 141.413Z" fill="#131212"/>
<path d="M61.5618 200.097C55.1417 193.886 43.4739 189.525 43.4739 189.525C36.7785 191.541 31.4915 193.603 28.7771 194.027C29.139 192.835 30.0831 189.415 29.5245 187.533C28.3287 191.627 27.4711 191.125 27.4711 191.125C27.4711 191.125 26.4797 191 28.0611 187.031C26.464 188.176 25.1029 191.447 24.6544 192.615C22.7819 190.615 19.8787 185.753 15.8347 180.067C15.8347 180.067 3.93882 176.365 -4.95166 177.337C3.96243 180.216 -3.63776 187.666 -3.63776 187.666C-3.63776 187.666 6.84986 185.557 2.93963 199.948C13.6554 192.835 21.1297 209.579 21.1297 209.579C21.1297 209.579 37.345 200.936 41.4205 213.109C47.1954 199.36 54.174 207.446 54.174 207.446C54.174 207.446 52.7499 196.905 61.5618 200.097Z" fill="#131212"/>
<path d="M25.2621 157.363C16.82 153.402 -0.284302 157.136 -0.284302 157.136C-4.98918 161.23 -13.2581 170.633 -13.2581 170.633C-13.3053 169.331 -13.5414 165.645 -14.7294 163.975C-14.5248 168.421 -15.5397 168.21 -15.5397 168.21C-15.5397 168.21 -16.5547 168.421 -16.3501 163.975C-17.5381 165.645 -17.7742 169.331 -17.8214 170.633C-20.3469 169.292 -24.8708 165.472 -30.7952 161.23C-30.7952 161.23 -47.8995 165.684 -56.3416 169.645C-46.562 169.472 -45.791 176.123 -45.791 176.123C-45.791 176.123 -33.6905 168.453 -32.6598 183.974C-24.501 173.331 -15.5476 188.57 -15.5476 188.57C-15.5476 188.57 -7.41243 171.7 0.746365 182.342C1.77703 166.829 12.2332 172.037 12.2332 172.037C12.2332 172.037 15.4825 157.19 25.2621 157.363Z" fill="#131212"/>
<path d="M208.39 259.278C199.303 255.02 180.908 259.027 180.908 259.027C175.842 263.427 166.959 273.545 166.959 273.545C166.912 272.149 166.66 268.18 165.378 266.384C165.598 271.16 164.504 270.941 164.504 270.941C164.504 270.941 163.411 271.168 163.631 266.384C162.356 268.18 162.105 272.149 162.05 273.545C159.327 272.109 154.473 267.992 148.1 263.427C148.1 263.427 129.706 268.219 120.618 272.478C131.138 272.29 131.971 279.442 131.971 279.442C131.971 279.442 144.985 271.2 146.094 287.881C154.866 276.439 164.504 292.822 164.504 292.822C164.504 292.822 173.253 274.674 182.034 286.117C183.143 269.427 194.386 275.035 194.386 275.035C194.386 275.035 197.879 259.09 208.39 259.278Z" fill="#131212"/>
<path d="M198.152 92.4494C193.031 91.5867 184.415 96.1356 184.415 96.1356C182.504 99.0296 179.482 105.312 179.482 105.312C179.262 104.622 178.585 102.676 177.696 101.963C178.475 104.316 177.901 104.355 177.901 104.355C177.901 104.355 177.39 104.622 176.831 102.206C176.445 103.28 176.87 105.288 177.043 105.994C175.486 105.657 172.488 104.276 168.672 102.88C168.672 102.88 160.167 107.821 156.233 111.21C161.45 109.657 162.866 113.107 162.866 113.107C162.866 113.107 168.2 107.194 171.088 115.358C173.865 108.433 180.962 115.272 180.962 115.272C180.962 115.272 182.795 105.006 188.766 109.5C186.988 101.022 193.377 102.261 193.377 102.261C193.377 102.261 192.881 93.8141 198.152 92.4494Z" fill="#131212"/>
<path d="M207.878 80.2859C206.187 78.2938 201.387 77.2429 201.387 77.2429C199.704 77.737 196.494 79.1722 196.494 79.1722C196.635 78.835 197.005 77.8625 196.903 77.3056C196.431 78.4664 196.203 78.2938 196.203 78.2938C196.203 78.2938 195.919 78.2311 196.494 77.1174C195.998 77.4076 195.502 78.3174 195.337 78.6468C194.849 78.0115 194.141 76.5057 193.134 74.7332C193.134 74.7332 188.248 73.8783 185.628 73.9018C188.146 74.9998 187.564 76.788 187.564 76.788C187.564 76.788 191.553 76.2469 189.995 80.3251C193.323 78.5605 193.827 83.4936 193.827 83.4936C193.827 83.4936 197.886 80.1369 198.72 83.8073C200.805 79.9644 202.859 82.5211 202.859 82.5211C202.859 82.5211 205.408 79.0938 207.878 80.2859Z" fill="#131212"/>
<path d="M165.132 278.462C158.492 273.576 143.016 273.858 143.016 273.858C138.225 276.596 129.429 283.333 129.429 283.333C129.618 282.195 130.05 278.956 129.311 277.302C128.721 281.192 127.871 280.839 127.871 280.839C127.871 280.839 126.95 280.846 127.902 277.027C126.581 278.266 125.739 281.427 125.471 282.548C123.512 280.956 120.255 276.862 115.857 272.157C115.857 272.157 100.255 273.074 92.2383 275.051C100.751 276.588 100.271 282.486 100.271 282.486C100.271 282.486 112.096 277.921 110.295 291.552C119.217 283.733 124.338 298.485 124.338 298.485C124.338 298.485 134.323 285.254 139.547 295.889C143.134 282.611 151.293 288.932 151.293 288.932C151.293 288.932 156.682 276.627 165.132 278.462Z" fill="#131212"/>
<path d="M78.0553 273.629C68.9682 269.37 50.5735 273.378 50.5735 273.378C45.5067 277.778 36.6241 287.895 36.6241 287.895C36.5769 286.499 36.3251 282.531 35.0427 280.735C35.263 285.519 34.1694 285.291 34.1694 285.291C34.1694 285.291 33.0758 285.519 33.2961 280.735C32.0215 282.531 31.7698 286.499 31.7147 287.895C28.9925 286.46 24.1381 282.342 17.7653 277.778C17.7653 277.778 -0.629376 282.57 -9.71655 286.829C0.802542 286.64 1.63651 293.793 1.63651 293.793C1.63651 293.793 14.6497 285.55 15.759 302.232C24.5315 290.789 34.1694 307.173 34.1694 307.173C34.1694 307.173 42.9183 289.025 51.6986 300.467C52.8079 283.778 64.0509 289.385 64.0509 289.385C64.0509 289.385 67.5362 273.441 78.0553 273.629Z" fill="#131212"/>
<path d="M12.8636 232.221C5.75906 232.096 -3.38319 235.884 -3.38319 235.884C-6.16835 240.676 -8.11166 244.731 -9.44916 246.448C-9.88976 245.562 -11.2037 243.068 -12.549 242.284C-11.0148 245.303 -11.7859 245.476 -11.7859 245.476C-11.7859 245.476 -12.431 245.938 -13.6741 242.786C-13.9809 244.315 -12.9896 246.95 -12.612 247.868C-14.7835 247.727 -19.1186 246.472 -24.563 245.366C-24.563 245.366 -33.4771 249.664 -38.1033 255.036C-31.3685 251.875 -31.7147 260.314 -31.7147 260.314C-31.7147 260.314 -26.7817 253.413 -21.2114 263.875C-18.8746 253.946 -5.42091 259.616 -5.42091 259.616C-5.42091 259.616 -0.731762 245.829 8.261 250.683C4.1226 239.586 12.5725 240.496 12.5725 240.496C12.5725 240.496 6.02656 235.139 12.8636 232.221Z" fill="#131212"/>
<path d="M56.747 241.621C47.6598 237.362 29.2652 241.37 29.2652 241.37C24.1984 245.77 15.3158 255.887 15.3158 255.887C15.2686 254.491 15.0168 250.523 13.7344 248.727C13.9546 253.511 12.861 253.283 12.861 253.283C12.861 253.283 11.7674 253.511 11.9877 248.727C10.7132 250.523 10.4614 254.491 10.4063 255.887C7.6841 254.452 2.82974 250.334 -3.54309 245.77C-3.54309 245.77 -21.9377 250.562 -31.0249 254.82C-20.5058 254.632 -19.6718 261.785 -19.6718 261.785C-19.6718 261.785 -6.65869 253.542 -5.54935 270.224C3.22312 258.781 12.861 275.165 12.861 275.165C12.861 275.165 21.6099 257.016 30.3902 268.459C31.4996 251.77 42.7425 257.377 42.7425 257.377C42.7425 257.377 46.2279 241.433 56.747 241.621Z" fill="#131212"/>
<path d="M86.9974 267.359C80.357 262.473 64.8813 262.755 64.8813 262.755C60.0899 265.492 51.2938 272.229 51.2938 272.229C51.4826 271.092 51.9154 267.853 51.1758 266.198C50.5857 270.088 49.736 269.735 49.736 269.735C49.736 269.735 48.8155 269.743 49.7675 265.923C48.4457 267.163 47.6039 270.323 47.3364 271.445C45.3773 269.853 42.1201 265.759 37.7221 261.053C37.7221 261.053 22.1204 261.971 14.1033 263.947C22.6161 265.484 22.1362 271.382 22.1362 271.382C22.1362 271.382 33.9613 266.817 32.1596 280.448C41.0815 272.629 46.2034 287.381 46.2034 287.381C46.2034 287.381 56.1875 274.151 61.4117 284.785C64.9993 271.507 73.1581 277.829 73.1581 277.829C73.1581 277.829 78.5475 265.523 86.9974 267.359Z" fill="#131212"/>
<path d="M240.914 227.979C233.809 227.854 224.667 231.642 224.667 231.642C221.882 236.434 219.938 240.488 218.601 242.206C218.16 241.32 216.846 238.826 215.501 238.041C217.035 241.061 216.264 241.233 216.264 241.233C216.264 241.233 215.619 241.696 214.376 238.543C214.069 240.073 215.06 242.708 215.438 243.625C213.267 243.484 208.931 242.229 203.487 241.124C203.487 241.124 194.573 245.421 189.947 250.794C196.682 247.633 196.335 256.072 196.335 256.072C196.335 256.072 201.268 249.17 206.839 259.633C209.175 249.704 222.629 255.374 222.629 255.374C222.629 255.374 227.318 241.586 236.311 246.441C232.173 235.343 240.623 236.253 240.623 236.253C240.623 236.253 234.069 230.897 240.914 227.979Z" fill="#131212"/>
<path d="M323.548 218.024C316.444 217.899 307.302 221.687 307.302 221.687C304.516 226.479 302.573 230.534 301.236 232.251C300.795 231.365 299.481 228.871 298.136 228.087C299.67 231.106 298.899 231.279 298.899 231.279C298.899 231.279 298.254 231.741 297.011 228.589C296.704 230.118 297.695 232.753 298.073 233.671C295.901 233.53 291.566 232.275 286.122 231.169C286.122 231.169 277.208 235.467 272.582 240.839C279.316 237.678 278.97 246.117 278.97 246.117C278.97 246.117 283.903 239.216 289.473 249.678C291.81 239.749 305.264 245.419 305.264 245.419C305.264 245.419 309.953 231.632 318.946 236.486C314.807 225.389 323.257 226.298 323.257 226.298C323.257 226.298 316.711 220.942 323.548 218.024Z" fill="#131212"/>
<path d="M292.439 246.519C286.924 238.158 275.217 230.543 275.217 230.543C267.388 231.116 261.094 232.088 258.018 231.9C258.71 230.684 260.575 227.163 260.426 224.975C258.112 229.163 257.294 228.402 257.294 228.402C257.294 228.402 256.24 228.025 258.939 224.065C256.909 224.928 254.611 228.182 253.84 229.351C252.275 226.708 250.284 220.669 247.247 213.461C247.247 213.461 235.123 206.513 225.147 205.415C234.21 210.732 224.053 217.045 224.053 217.045C224.053 217.045 236.059 217.289 228.255 232.096C241.732 226.912 245.815 247.076 245.815 247.076C245.815 247.076 265.689 241.554 267.176 255.883C276.869 242.229 282.534 252.785 282.534 252.785C282.534 252.785 283.572 240.88 292.439 246.519Z" fill="#131212"/>
<path d="M380.204 205.925C371.116 201.666 352.722 205.674 352.722 205.674C347.655 210.074 338.772 220.191 338.772 220.191C338.725 218.795 338.473 214.827 337.191 213.031C337.411 217.815 336.318 217.587 336.318 217.587C336.318 217.587 335.224 217.815 335.444 213.031C334.17 214.827 333.918 218.795 333.863 220.191C331.141 218.756 326.286 214.638 319.913 210.074C319.913 210.074 301.519 214.866 292.432 219.124C302.951 218.936 303.785 226.089 303.785 226.089C303.785 226.089 316.798 217.846 317.907 234.528C326.68 223.085 336.318 239.469 336.318 239.469C336.318 239.469 345.066 221.32 353.847 232.763C354.956 216.074 366.199 221.681 366.199 221.681C366.199 221.681 369.684 205.737 380.204 205.925Z" fill="#131212"/>
<path d="M197.651 188.659C190.688 187.263 181.01 189.349 181.01 189.349C177.407 193.561 174.763 197.208 173.135 198.651C172.867 197.694 172.018 195.012 170.838 193.992C171.805 197.239 171.011 197.271 171.011 197.271C171.011 197.271 170.295 197.608 169.642 194.29C169.067 195.741 169.571 198.51 169.768 199.482C167.651 198.949 163.615 196.949 158.462 194.878C158.462 194.878 148.918 197.506 143.395 201.961C150.594 200.063 148.729 208.298 148.729 208.298C148.729 208.298 154.827 202.4 158.414 213.678C162.506 204.337 174.716 212.321 174.716 212.321C174.716 212.321 181.821 199.6 189.791 205.984C187.722 194.329 195.872 196.737 195.872 196.737C195.872 196.737 190.389 190.306 197.651 188.659Z" fill="#131212"/>
<path d="M96.66 272.119C90.4839 272.009 82.5297 275.303 82.5297 275.303C80.1064 279.468 78.4149 282.997 77.2583 284.495C76.8728 283.719 75.732 281.554 74.5597 280.872C75.8972 283.499 75.2206 283.648 75.2206 283.648C75.2206 283.648 74.662 284.048 73.5762 281.311C73.3087 282.636 74.1742 284.934 74.5046 285.727C72.6164 285.601 68.8478 284.519 64.1114 283.554C64.1114 283.554 56.3618 287.287 52.3335 291.962C58.1949 289.217 57.8881 296.55 57.8881 296.55C57.8881 296.55 62.176 290.55 67.0225 299.64C69.0523 291.005 80.7594 295.938 80.7594 295.938C80.7594 295.938 84.8349 283.946 92.6633 288.166C89.0599 278.519 96.4083 279.303 96.4083 279.303C96.4083 279.303 90.7042 274.66 96.66 272.119Z" fill="#131212"/>
<path d="M252.59 148.221C249.356 141.79 237.169 135.9 237.169 135.9C232.346 136.143 222.803 137.924 222.803 137.924C223.401 137.108 225.029 134.755 225.108 133.179C223.102 135.979 222.582 135.367 222.582 135.367C222.582 135.367 221.866 135.006 224.124 132.402C222.598 132.849 220.686 134.983 220.033 135.751C219.136 133.736 218.224 129.257 216.658 123.846C216.658 123.846 204.117 118.403 197.083 116.779C203.11 121.336 200.396 125.752 200.396 125.752C200.396 125.752 211.434 126.857 204.613 136.786C214.683 134.206 212.811 147.743 212.811 147.743C212.811 147.743 225.855 141.367 225.706 151.727C233.778 142.786 237.633 150.943 237.633 150.943C237.633 150.943 246.728 143.453 252.59 148.221Z" fill="#131212"/>
<path d="M342.069 45.9075C339.347 42.8958 331.849 41.5155 331.849 41.5155C329.269 42.3625 324.351 44.7546 324.351 44.7546C324.556 44.2212 325.083 42.6997 324.886 41.837C324.218 43.6566 323.84 43.3978 323.84 43.3978C323.84 43.3978 323.399 43.3115 324.233 41.5625C323.47 42.0331 322.754 43.4762 322.518 43.986C321.731 43.0213 320.567 40.7312 318.907 38.0254C318.907 38.0254 311.283 36.9353 307.223 37.1C311.181 38.6764 310.363 41.4763 310.363 41.4763C310.363 41.4763 316.523 40.4332 314.304 46.8408C319.387 43.9389 320.402 51.57 320.402 51.57C320.402 51.57 326.531 46.1663 328.002 51.8131C331.047 45.7584 334.359 49.6093 334.359 49.6093C334.359 49.6093 338.175 44.1899 342.069 45.9075Z" fill="#131212"/>
<path d="M178.626 47.9529C177.297 48.1176 175.503 49.8744 175.503 49.8744C175.243 50.7293 174.96 52.5096 174.96 52.5096C174.858 52.3527 174.543 51.9214 174.268 51.8116C174.638 52.337 174.496 52.3919 174.496 52.3919C174.496 52.3919 174.386 52.4939 174.071 51.937C174.055 52.2272 174.307 52.6978 174.402 52.8625C173.992 52.8939 173.151 52.7762 172.104 52.7056C172.104 52.7056 170.365 54.5487 169.642 55.6781C170.814 54.9095 171.42 55.6624 171.42 55.6624C171.42 55.6624 172.301 53.8036 173.623 55.6153C173.796 53.7017 176.054 54.8703 176.054 54.8703C176.054 54.8703 175.747 52.1959 177.556 52.8703C176.494 50.9018 178.162 50.7371 178.162 50.7371C178.162 50.7371 177.423 48.6744 178.626 47.9529Z" fill="#131212"/>
<path d="M51.9649 44.4387C50.6352 44.6034 48.8414 46.3602 48.8414 46.3602C48.5818 47.2151 48.2985 48.9954 48.2985 48.9954C48.1963 48.8386 47.8816 48.4072 47.6062 48.2974C47.976 48.8229 47.8344 48.8778 47.8344 48.8778C47.8344 48.8778 47.7242 48.9797 47.4095 48.4229C47.3938 48.7131 47.6455 49.1836 47.7399 49.3483C47.3308 49.3797 46.489 49.2621 45.4426 49.1915C45.4426 49.1915 43.7038 51.0424 42.98 52.1639C44.1523 51.3953 44.7581 52.1482 44.7581 52.1482C44.7581 52.1482 45.6393 50.2895 46.9611 52.1012C47.1341 50.1875 49.3922 51.3561 49.3922 51.3561C49.3922 51.3561 49.0853 48.6817 50.8949 49.3562C49.8328 47.3876 51.5007 47.2229 51.5007 47.2229C51.5007 47.2229 50.7611 45.1603 51.9649 44.4387Z" fill="#131212"/>
<path d="M109.289 30.3685C108.282 29.0666 105.285 28.2745 105.285 28.2745C104.215 28.5412 102.145 29.349 102.145 29.349C102.248 29.1372 102.507 28.5412 102.452 28.1804C102.122 28.8941 101.98 28.7843 101.98 28.7843C101.98 28.7843 101.799 28.7372 102.2 28.0549C101.878 28.2196 101.54 28.7843 101.429 28.9882C101.138 28.5725 100.737 27.6079 100.155 26.4628C100.155 26.4628 97.1022 25.7883 95.45 25.7256C96.9999 26.4863 96.5829 27.6 96.5829 27.6C96.5829 27.6 99.1084 27.3726 98.0148 29.898C100.163 28.8784 100.336 31.9999 100.336 31.9999C100.336 31.9999 102.987 29.9999 103.404 32.3371C104.828 29.9764 106.048 31.6391 106.048 31.6391C106.048 31.6391 107.763 29.5529 109.289 30.3685Z" fill="#131212"/>
<path d="M271.906 86.702C266.894 88.0745 261.001 95.8154 261.001 95.8154C260.49 99.2427 260.411 106.207 260.411 106.207C259.923 105.674 258.483 104.192 257.374 103.917C259.073 105.721 258.57 106.003 258.57 106.003C258.57 106.003 258.216 106.458 256.69 104.505C256.792 105.642 258.035 107.289 258.483 107.854C256.926 108.199 253.629 108.207 249.577 108.552C249.577 108.552 243.952 116.607 241.812 121.328C245.887 117.728 248.633 120.262 248.633 120.262C248.633 120.262 250.97 112.654 257.036 118.85C256.627 111.399 265.95 114.623 265.95 114.623C265.95 114.623 263.275 104.544 270.592 106.105C265.399 99.1643 271.717 97.6036 271.717 97.6036C271.717 97.6036 267.696 90.1529 271.906 86.702Z" fill="#131212"/>
<path d="M316.469 246.384C307.381 242.126 288.987 246.133 288.987 246.133C283.92 250.533 275.037 260.651 275.037 260.651C274.99 259.254 274.738 255.286 273.456 253.49C273.676 258.266 272.583 258.047 272.583 258.047C272.583 258.047 271.489 258.274 271.709 253.49C270.435 255.286 270.183 259.254 270.128 260.651C267.406 259.215 262.551 255.098 256.179 250.533C256.179 250.533 237.784 255.325 228.697 259.584C239.216 259.396 240.05 266.548 240.05 266.548C240.05 266.548 253.063 258.306 254.172 274.987C262.945 263.545 272.583 279.928 272.583 279.928C272.583 279.928 281.332 261.78 290.112 273.223C291.221 256.533 302.464 262.141 302.464 262.141C302.464 262.141 305.957 246.196 316.469 246.384Z" fill="#131212"/>
<path d="M229.238 213.874C221.567 212.156 208.176 218.336 208.176 218.336C205.053 222.563 199.978 231.802 199.978 231.802C199.703 230.744 198.837 227.748 197.547 226.595C198.53 230.21 197.657 230.226 197.657 230.226C197.657 230.226 196.855 230.587 196.217 226.885C195.549 228.477 196.029 231.551 196.225 232.634C193.896 231.991 189.483 229.669 183.834 227.253C183.834 227.253 170.577 234.03 164.353 238.829C172.363 236.908 174.219 242.241 174.219 242.241C174.219 242.241 182.772 233.732 186.461 246.312C191.229 236.077 201.386 246.978 201.386 246.978C201.386 246.978 204.99 231.614 213.652 238.884C211.662 225.928 221.213 228.312 221.213 228.312C221.213 228.312 221.158 215.513 229.238 213.874Z" fill="#131212"/>
<path d="M320.41 98.1735C317.286 98.1422 313.274 99.844 313.274 99.844C312.062 101.962 311.228 103.758 310.646 104.511C310.449 104.118 309.859 103.028 309.269 102.691C309.953 104.016 309.615 104.095 309.615 104.095C309.615 104.095 309.332 104.299 308.773 102.918C308.647 103.593 309.088 104.746 309.261 105.154C308.301 105.099 306.389 104.565 303.998 104.095C303.998 104.095 300.095 106.016 298.073 108.401C301.024 106.989 300.906 110.699 300.906 110.699C300.906 110.699 303.053 107.648 305.54 112.228C306.531 107.852 312.471 110.299 312.471 110.299C312.471 110.299 314.485 104.213 318.458 106.314C316.594 101.444 320.315 101.813 320.315 101.813C320.315 101.813 317.412 99.4833 320.41 98.1735Z" fill="#131212"/>
<path d="M338.867 141.413C334.115 136.825 325.492 133.594 325.492 133.594C320.543 135.084 316.633 136.605 314.627 136.927C314.894 136.041 315.594 133.515 315.177 132.127C314.288 135.154 313.659 134.778 313.659 134.778C313.659 134.778 312.927 134.684 314.092 131.751C312.912 132.598 311.904 135.013 311.574 135.876C310.189 134.401 308.041 130.802 305.052 126.598C305.052 126.598 296.256 123.861 289.678 124.574C296.271 126.7 290.646 132.213 290.646 132.213C290.646 132.213 298.404 130.653 295.508 141.295C303.431 136.033 308.954 148.417 308.954 148.417C308.954 148.417 320.944 142.025 323.958 151.028C328.23 140.864 333.391 146.84 333.391 146.84C333.391 146.84 332.353 139.052 338.867 141.413Z" fill="#131212"/>
<path d="M246.445 305.658C241.937 298.826 232.37 292.599 232.37 292.599C225.973 293.07 220.828 293.862 218.318 293.705C218.885 292.709 220.411 289.839 220.285 288.043C218.397 291.47 217.728 290.842 217.728 290.842C217.728 290.842 216.87 290.537 219.073 287.297C217.413 288.003 215.541 290.662 214.904 291.611C213.621 289.454 212 284.521 209.522 278.623C209.522 278.623 199.617 272.945 191.466 272.043C198.869 276.388 190.577 281.549 190.577 281.549C190.577 281.549 200.388 281.745 194.007 293.846C205.022 289.611 208.358 306.081 208.358 306.081C208.358 306.081 224.597 301.564 225.808 313.273C233.731 302.12 238.357 310.74 238.357 310.74C238.357 310.74 239.199 301.054 246.445 305.658Z" fill="#131212"/>
<path d="M234.376 158.924C226.603 158.297 214.314 166.21 214.314 166.21C211.835 170.791 208.137 180.563 208.137 180.563C207.72 179.559 206.454 176.743 205.03 175.779C206.501 179.198 205.643 179.331 205.643 179.331C205.643 179.331 204.912 179.794 203.763 176.257C203.322 177.912 204.227 180.869 204.573 181.896C202.205 181.59 197.54 179.92 191.655 178.328C191.655 178.328 179.578 186.813 174.133 192.382C181.733 189.386 184.298 194.366 184.298 194.366C184.298 194.366 191.513 184.829 196.879 196.672C200.136 185.959 211.623 195.268 211.623 195.268C211.623 195.268 213.031 179.684 222.543 185.629C218.782 173.183 228.499 174.21 228.499 174.21C228.499 174.21 226.674 161.646 234.376 158.924Z" fill="#131212"/>
<path d="M303.698 206.954C295.948 206.821 285.98 210.954 285.98 210.954C282.943 216.178 280.827 220.609 279.363 222.475C278.883 221.503 277.451 218.789 275.98 217.926C277.656 221.22 276.814 221.409 276.814 221.409C276.814 221.409 276.114 221.911 274.753 218.475C274.422 220.138 275.5 223.016 275.909 224.02C273.541 223.864 268.813 222.499 262.873 221.291C262.873 221.291 253.156 225.973 248.105 231.84C255.453 228.397 255.076 237.596 255.076 237.596C255.076 237.596 260.457 230.075 266.531 241.479C269.08 230.655 283.753 236.836 283.753 236.836C283.753 236.836 288.867 221.801 298.678 227.087C294.162 214.985 303.375 215.974 303.375 215.974C303.375 215.974 296.232 210.139 303.698 206.954Z" fill="#131212"/>
<path d="M375.167 200.097C368.747 193.886 357.079 189.525 357.079 189.525C350.384 191.541 345.096 193.603 342.382 194.027C342.744 192.835 343.688 189.415 343.13 187.533C341.934 191.627 341.076 191.125 341.076 191.125C341.076 191.125 340.085 191 341.666 187.031C340.069 188.176 338.708 191.447 338.259 192.615C336.387 190.615 333.484 185.753 329.44 180.067C329.44 180.067 317.544 176.365 308.653 177.337C317.567 180.216 309.967 187.666 309.967 187.666C309.967 187.666 320.455 185.557 316.545 199.948C327.26 192.835 334.735 209.579 334.735 209.579C334.735 209.579 350.95 200.936 355.025 213.109C360.8 199.36 367.779 207.446 367.779 207.446C367.779 207.446 366.355 196.905 375.167 200.097Z" fill="#131212"/>
<path d="M189.845 138.048C184.928 133.287 175.982 129.946 175.982 129.946C170.852 131.491 166.8 133.067 164.723 133.397C164.999 132.479 165.723 129.86 165.298 128.424C164.377 131.562 163.724 131.177 163.724 131.177C163.724 131.177 162.969 131.083 164.173 128.04C162.945 128.919 161.907 131.42 161.561 132.314C160.121 130.785 157.902 127.052 154.802 122.699C154.802 122.699 145.684 119.86 138.87 120.605C145.707 122.809 139.877 128.519 139.877 128.519C139.877 128.519 147.918 126.903 144.92 137.93C153.134 132.479 158.862 145.31 158.862 145.31C158.862 145.31 171.285 138.683 174.408 148.016C178.838 137.483 184.18 143.679 184.18 143.679C184.18 143.679 183.087 135.601 189.845 138.048Z" fill="#131212"/>
<path d="M94.5126 73.9987C91.2711 72.6655 86.3853 72.7674 86.3853 72.7674C84.2374 74.4693 82.6167 75.9908 81.6883 76.5398C81.6489 76.0536 81.4916 74.6732 81.0117 74.0693C81.169 75.732 80.7835 75.6771 80.7835 75.6771C80.7835 75.6771 80.4058 75.7712 80.398 74.1007C79.981 74.7517 79.9653 76.1398 79.9731 76.6261C78.9975 76.1712 77.2352 74.8222 74.9299 73.3321C74.9299 73.3321 70.0598 73.7086 66.96 75.3477C70.6263 75.1046 68.9426 78.9162 68.9426 78.9162C68.9426 78.9162 72.4516 76.6261 73.1282 82.4376C75.9921 78.2888 81.1611 83.3082 81.1611 83.3082C81.1611 83.3082 85.8031 77.8104 89.0682 81.6534C89.1704 75.8104 92.8918 77.7398 92.8918 77.7398C92.8918 77.7398 90.8384 74.1164 94.5126 73.9987Z" fill="#131212"/>
<path d="M295.902 210.723C290.772 202.951 279.883 195.868 279.883 195.868C272.605 196.402 266.752 197.312 263.896 197.131C264.541 195.994 266.272 192.731 266.138 190.692C263.982 194.59 263.227 193.884 263.227 193.884C263.227 193.884 262.251 193.531 264.753 189.853C262.865 190.653 260.733 193.68 260.009 194.763C258.554 192.308 256.705 186.692 253.88 179.987C253.88 179.987 242.606 173.524 233.33 172.505C241.756 177.453 232.315 183.32 232.315 183.32C232.315 183.32 243.479 183.547 236.217 197.312C248.751 192.488 252.543 211.233 252.543 211.233C252.543 211.233 271.024 206.096 272.401 219.421C281.409 206.731 286.681 216.542 286.681 216.542C286.681 216.542 287.656 205.484 295.902 210.723Z" fill="#131212"/>
<path d="M300.008 304.582C294.879 296.81 283.99 289.728 283.99 289.728C276.712 290.261 270.858 291.171 268.003 290.991C268.648 289.854 270.379 286.591 270.245 284.552C268.089 288.45 267.334 287.744 267.334 287.744C267.334 287.744 266.358 287.391 268.86 283.713C266.972 284.513 264.84 287.54 264.116 288.622C262.66 286.167 260.811 280.552 257.987 273.846C257.987 273.846 246.713 267.384 237.437 266.364C245.863 271.313 236.422 277.18 236.422 277.18C236.422 277.18 247.586 277.407 240.324 291.171C252.857 286.348 256.649 305.092 256.649 305.092C256.649 305.092 275.131 299.955 276.507 313.28C285.516 300.59 290.787 310.402 290.787 310.402C290.787 310.402 291.763 299.343 300.008 304.582Z" fill="#131212"/>
<path d="M338.869 157.363C330.427 153.402 313.322 157.136 313.322 157.136C308.618 161.23 300.349 170.633 300.349 170.633C300.301 169.331 300.065 165.645 298.877 163.975C299.082 168.421 298.067 168.21 298.067 168.21C298.067 168.21 297.052 168.421 297.257 163.975C296.069 165.645 295.833 169.331 295.785 170.633C293.26 169.292 288.736 165.472 282.812 161.23C282.812 161.23 265.707 165.684 257.265 169.645C267.045 169.472 267.816 176.123 267.816 176.123C267.816 176.123 279.916 168.453 280.947 183.974C289.106 173.331 298.059 188.57 298.059 188.57C298.059 188.57 306.194 171.7 314.353 182.342C315.384 166.829 325.84 172.037 325.84 172.037C325.84 172.037 329.089 157.19 338.869 157.363Z" fill="#131212"/>
<path d="M297.317 271.935C291.565 269.237 279.921 271.778 279.921 271.778C276.719 274.562 271.086 280.97 271.086 280.97C271.054 280.083 270.897 277.574 270.087 276.437C270.228 279.464 269.536 279.323 269.536 279.323C269.536 279.323 268.844 279.464 268.985 276.437C268.175 277.574 268.017 280.083 267.986 280.97C266.263 280.06 263.187 277.456 259.151 274.562C259.151 274.562 247.506 277.597 241.755 280.295C248.411 280.178 248.938 284.703 248.938 284.703C248.938 284.703 257.176 279.48 257.876 290.044C263.431 282.797 269.528 293.173 269.528 293.173C269.528 293.173 275.067 281.683 280.621 288.93C281.322 278.366 288.442 281.911 288.442 281.911C288.442 281.911 290.661 271.817 297.317 271.935Z" fill="#131212"/>
<path d="M252.747 273.428C246.139 270.33 232.748 273.248 232.748 273.248C229.058 276.448 222.591 283.82 222.591 283.82C222.551 282.8 222.37 279.914 221.442 278.604C221.607 282.087 220.805 281.922 220.805 281.922C220.805 281.922 220.01 282.087 220.167 278.604C219.239 279.914 219.05 282.8 219.019 283.82C217.036 282.777 213.503 279.781 208.861 276.456C208.861 276.456 195.471 279.946 188.862 283.043C196.517 282.91 197.123 288.118 197.123 288.118C197.123 288.118 206.596 282.118 207.398 294.267C213.787 285.937 220.797 297.866 220.797 297.866C220.797 297.866 227.17 284.659 233.558 292.988C234.361 280.84 242.551 284.918 242.551 284.918C242.551 284.918 245.092 273.295 252.747 273.428Z" fill="#131212"/>
<path d="M273.211 267.045C266.57 262.159 251.095 262.441 251.095 262.441C246.303 265.178 237.507 271.915 237.507 271.915C237.696 270.778 238.129 267.539 237.389 265.884C236.799 269.774 235.949 269.421 235.949 269.421C235.949 269.421 235.029 269.429 235.981 265.609C234.659 266.849 233.817 270.009 233.55 271.131C231.591 269.539 228.333 265.445 223.935 260.739C223.935 260.739 208.334 261.657 200.317 263.633C208.829 265.17 208.35 271.068 208.35 271.068C208.35 271.068 220.175 266.503 218.373 280.134C227.295 272.315 232.417 287.067 232.417 287.067C232.417 287.067 242.401 273.837 247.625 284.471C251.213 271.194 259.371 277.515 259.371 277.515C259.371 277.515 264.761 265.209 273.211 267.045Z" fill="#131212"/>
<path d="M219.743 281.141C213.102 276.255 197.626 276.538 197.626 276.538C192.835 279.275 184.039 286.012 184.039 286.012C184.228 284.875 184.66 281.635 183.921 279.981C183.331 283.871 182.481 283.518 182.481 283.518C182.481 283.518 181.561 283.526 182.513 279.706C181.191 280.945 180.349 284.106 180.081 285.227C178.122 283.635 174.865 279.541 170.467 274.836C170.467 274.836 154.866 275.753 146.848 277.73C155.361 279.267 154.881 285.165 154.881 285.165C154.881 285.165 166.706 280.6 164.905 294.231C173.827 286.412 178.949 301.164 178.949 301.164C178.949 301.164 188.933 287.933 194.157 298.568C197.744 285.29 205.903 291.612 205.903 291.612C205.903 291.612 211.293 279.306 219.743 281.141Z" fill="#131212"/>
<path d="M213.975 275.874C204.888 271.615 186.493 275.623 186.493 275.623C181.427 280.023 172.544 290.14 172.544 290.14C172.497 288.744 172.245 284.775 170.963 282.979C171.183 287.764 170.089 287.536 170.089 287.536C170.089 287.536 168.996 287.764 169.216 282.979C167.941 284.775 167.69 288.744 167.635 290.14C164.912 288.705 160.058 284.587 153.685 280.023C153.685 280.023 135.291 284.815 126.203 289.073C136.722 288.885 137.556 296.038 137.556 296.038C137.556 296.038 150.57 287.795 151.679 304.477C160.451 293.034 170.089 309.418 170.089 309.418C170.089 309.418 178.838 291.269 187.619 302.712C188.728 286.022 199.971 291.63 199.971 291.63C199.971 291.63 203.456 275.686 213.975 275.874Z" fill="#131212"/>
<path d="M159.649 273.578C149.453 268.802 128.808 273.303 128.808 273.303C123.128 278.244 113.151 289.601 113.151 289.601C113.096 288.032 112.813 283.578 111.381 281.562C111.633 286.926 110.405 286.676 110.405 286.676C110.405 286.676 109.178 286.926 109.43 281.562C107.998 283.578 107.715 288.032 107.66 289.601C104.607 287.985 99.1547 283.374 92.003 278.244C92.003 278.244 71.3581 283.625 61.1616 288.401C72.9631 288.189 73.8994 296.22 73.8994 296.22C73.8994 296.22 88.5018 286.966 89.7449 305.694C99.5952 292.848 110.405 311.239 110.405 311.239C110.405 311.239 120.224 290.871 130.075 303.718C131.318 284.989 143.938 291.279 143.938 291.279C143.938 291.279 147.84 273.374 159.649 273.578Z" fill="#131212"/>
<path d="M349.584 305.658C345.075 298.826 335.508 292.599 335.508 292.599C329.112 293.07 323.966 293.862 321.457 293.705C322.023 292.709 323.549 289.839 323.423 288.043C321.535 291.47 320.866 290.842 320.866 290.842C320.866 290.842 320.009 290.537 322.212 287.297C320.552 288.003 318.679 290.662 318.042 291.611C316.767 289.454 315.139 284.521 312.66 278.623C312.66 278.623 302.755 272.945 294.604 272.043C302.008 276.388 293.715 281.549 293.715 281.549C293.715 281.549 303.526 281.745 297.145 293.846C308.16 289.611 311.496 306.081 311.496 306.081C311.496 306.081 327.735 301.564 328.947 313.273C336.869 302.12 341.496 310.74 341.496 310.74C341.496 310.74 342.337 301.054 349.584 305.658Z" fill="#131212"/>
<path d="M269.757 153.74C266.933 152.415 261.221 153.662 261.221 153.662C259.647 155.026 256.886 158.171 256.886 158.171C256.87 157.74 256.791 156.501 256.398 155.944C256.469 157.426 256.13 157.356 256.13 157.356C256.13 157.356 255.792 157.426 255.863 155.944C255.469 156.501 255.391 157.732 255.375 158.171C254.533 157.724 253.022 156.446 251.04 155.026C251.04 155.026 245.328 156.516 242.503 157.834C245.769 157.779 246.028 159.999 246.028 159.999C246.028 159.999 250.072 157.434 250.41 162.618C253.133 159.065 256.13 164.155 256.13 164.155C256.13 164.155 258.845 158.516 261.575 162.077C261.921 156.893 265.414 158.634 265.414 158.634C265.414 158.634 266.492 153.685 269.757 153.74Z" fill="#131212"/>
<path d="M275.587 71.5783C273.211 70.4803 268.411 71.5469 268.411 71.5469C267.097 72.6998 264.784 75.3507 264.784 75.3507C264.769 74.9821 264.698 73.9468 264.359 73.4841C264.422 74.7311 264.139 74.6762 264.139 74.6762C264.139 74.6762 263.856 74.739 263.903 73.492C263.573 73.9625 263.51 74.9978 263.502 75.3664C262.794 74.9978 261.519 73.9311 259.851 72.739C259.851 72.739 255.052 74.0096 252.692 75.1389C255.437 75.0762 255.666 76.9428 255.666 76.9428C255.666 76.9428 259.049 74.7782 259.363 79.131C261.637 76.135 264.178 80.4015 264.178 80.4015C264.178 80.4015 266.437 75.6566 268.742 78.629C269.009 74.2684 271.952 75.7193 271.952 75.7193C271.952 75.7193 272.841 71.5469 275.587 71.5783Z" fill="#131212"/>
<path d="M392.383 272.907C383.296 268.649 364.902 272.656 364.902 272.656C359.835 277.056 350.952 287.174 350.952 287.174C350.905 285.778 350.653 281.809 349.371 280.013C349.591 284.789 348.497 284.57 348.497 284.57C348.497 284.57 347.404 284.797 347.624 280.013C346.35 281.809 346.098 285.778 346.043 287.174C343.321 285.738 338.466 281.621 332.093 277.056C332.093 277.056 313.699 281.848 304.612 286.107C315.131 285.919 315.965 293.071 315.965 293.071C315.965 293.071 328.978 284.829 330.087 301.51C338.86 290.068 348.497 306.451 348.497 306.451C348.497 306.451 357.246 288.303 366.027 299.746C367.136 283.056 378.379 288.664 378.379 288.664C378.379 288.664 381.864 272.727 392.383 272.907Z" fill="#131212"/>
<path d="M326.475 232.221C319.371 232.096 310.228 235.884 310.228 235.884C307.443 240.676 305.5 244.731 304.162 246.448C303.722 245.562 302.408 243.068 301.063 242.284C302.597 245.303 301.826 245.476 301.826 245.476C301.826 245.476 301.181 245.938 299.938 242.786C299.631 244.315 300.622 246.95 301 247.868C298.828 247.727 294.493 246.472 289.049 245.366C289.049 245.366 280.134 249.664 275.508 255.036C282.243 251.875 281.897 260.314 281.897 260.314C281.897 260.314 286.83 253.413 292.4 263.875C294.737 253.946 308.191 259.616 308.191 259.616C308.191 259.616 312.88 245.829 321.873 250.683C317.734 239.586 326.184 240.496 326.184 240.496C326.184 240.496 319.63 235.139 326.475 232.221Z" fill="#131212"/>
<path d="M370.353 241.621C361.266 237.362 342.872 241.37 342.872 241.37C337.805 245.77 328.922 255.887 328.922 255.887C328.875 254.491 328.623 250.523 327.341 248.727C327.561 253.511 326.467 253.283 326.467 253.283C326.467 253.283 325.374 253.511 325.594 248.727C324.32 250.523 324.068 254.491 324.013 255.887C321.291 254.452 316.436 250.334 310.063 245.77C310.063 245.77 291.669 250.562 282.582 254.82C293.101 254.632 293.935 261.785 293.935 261.785C293.935 261.785 306.948 253.542 308.057 270.224C316.83 258.781 326.467 275.165 326.467 275.165C326.467 275.165 335.216 257.016 343.997 268.459C345.106 251.77 356.349 257.377 356.349 257.377C356.349 257.377 359.842 241.433 370.353 241.621Z" fill="#131212"/>
</svg>
