<svg width="768" height="408" fill="none" xmlns="http://www.w3.org/2000/svg"><g opacity=".8" clip-path="url(#a)" fill="#131212"><path d="M205.04 382.9v-.127a.369.369 0 0 0 0 .127ZM229.142 330.828c-23.212 12.133-23.233 33.354-23.233 33.354s-.031-6.098-2.116-9.016c.294 6.358-1.162 8.985-1.162 8.985s-1.456-2.627-1.163-8.985c-2.084 2.918-2.116 9.016-2.116 9.016s-.021-21.211-23.233-33.354c16.205 13.842 3.603 18.949 3.603 18.949s10.088 5.108 6.38 15.03c13.627 6.786 14.109 16.719 14.119 17.959a5.703 5.703 0 0 1 2.41-4.357 5.69 5.69 0 0 1 2.409 4.357c.01-1.24.492-11.173 14.12-17.959-3.708-9.922 6.379-15.03 6.379-15.03s-12.601-5.107 3.603-18.949ZM53.554 349.008c-23.212 12.132-23.233 33.354-23.233 33.354s-.031-6.098-2.116-9.016c.294 6.347-1.162 8.984-1.162 8.984s-1.456-2.626-1.163-8.984c-2.084 2.918-2.116 9.016-2.116 9.016s-.02-21.211-23.233-33.354c16.205 13.842 3.604 18.949 3.604 18.949s10.087 5.107 6.379 15.03c13.627 6.785 14.11 16.719 14.12 17.959.02-.552.23-2.804 2.409-4.357a5.687 5.687 0 0 1 2.409 4.357c.01-1.24.492-11.174 14.12-17.959-3.708-9.923 6.379-15.03 6.379-15.03s-12.601-5.107 3.603-18.949Z"/><path d="m30.752 355.644.032-.105c-.021.063-.032.105-.032.105ZM62.186 321.016C41.195 324.831 36 341.299 36 341.299s1.467-4.743.556-7.515c-1.32 5.003-3.09 6.692-3.09 6.692s-.493-2.398 1.288-7.255c-2.336 1.762-3.844 6.494-3.844 6.494s5.164-16.479-9.899-31.52c9.207 14.666-1.823 15.593-1.823 15.593s6.59 6.41 1.289 13.217c8.924 8.567 6.882 16.395 6.578 17.364a4.62 4.62 0 0 1 2.933-2.803 4.6 4.6 0 0 1 .807 3.96c.303-.958 3.11-8.557 15.356-10.537-.461-8.599 8.63-10.131 8.63-10.131s-8.557-7.005 7.406-13.842ZM27.012 354.472l.031-.105a2.383 2.383 0 0 1-.031.105ZM356.327 328.009v-.126a.364.364 0 0 0 0 .126ZM380.429 275.945c-23.212 12.133-23.233 33.354-23.233 33.354s-.031-6.097-2.116-9.016c.294 6.348-1.162 8.985-1.162 8.985s-1.456-2.627-1.163-8.985c-2.084 2.919-2.116 9.016-2.116 9.016s-.021-21.211-23.233-33.354c16.205 13.842 3.604 18.949 3.604 18.949s10.087 5.108 6.379 15.03c13.627 6.786 14.109 16.719 14.12 17.959a5.7 5.7 0 0 1 2.409-4.356 5.686 5.686 0 0 1 2.409 4.356c.01-1.24.492-11.173 14.12-17.959-3.708-9.922 6.379-15.03 6.379-15.03s-12.601-5.117 3.603-18.949Z"/><path d="M103.718 334.188c-23.212 12.132-23.233 33.353-23.233 33.353s-.031-6.097-2.115-9.016c.293 6.348-1.163 8.985-1.163 8.985s-1.456-2.627-1.163-8.985c-2.084 2.919-2.116 9.016-2.116 9.016s-.02-21.211-23.233-33.353C66.9 348.029 54.3 353.137 54.3 353.137s10.087 5.107 6.379 15.03c13.627 6.785 14.11 16.718 14.12 17.959a5.7 5.7 0 0 1 2.409-4.357 5.687 5.687 0 0 1 2.409 4.357c.01-1.241.492-11.174 14.12-17.959-3.708-9.923 6.379-15.03 6.379-15.03s-12.601-5.108 3.603-18.949ZM260.744 322.686l.032-.116-.032.116ZM297.134 282.616c-24.301 4.409-30.314 23.483-30.314 23.483s1.687-5.482.639-8.703c-1.529 5.795-3.582 7.744-3.582 7.744s-.566-2.772 1.498-8.401c-2.703 2.043-4.452 7.515-4.452 7.515s5.981-19.074-11.459-36.481c10.652 16.98-2.116 18.043-2.116 18.043s7.625 7.421 1.487 15.301c10.328 9.923 7.961 18.98 7.615 20.095.178-.5.995-2.459 3.394-3.241a5.35 5.35 0 0 1 .932 4.586c.356-1.115 3.604-9.902 17.765-12.195-.523-9.954 9.983-11.726 9.983-11.726s-9.867-8.119 8.61-16.02ZM256.418 321.342s.011-.042.042-.115c-.031.073-.042.115-.042.115ZM419.05 319.477c-23.212 12.132-23.233 33.353-23.233 33.353s-.031-6.097-2.115-9.016c.293 6.348-1.163 8.985-1.163 8.985s-1.456-2.627-1.163-8.985c-2.084 2.919-2.116 9.016-2.116 9.016s-.021-21.211-23.233-33.353c16.205 13.841 3.604 18.949 3.604 18.949s10.087 5.107 6.379 15.03c13.627 6.785 14.109 16.718 14.12 17.959a5.7 5.7 0 0 1 2.409-4.357 5.686 5.686 0 0 1 2.409 4.357c.011-1.241.492-11.174 14.12-17.959-3.708-9.923 6.379-15.03 6.379-15.03s-12.601-5.118 3.603-18.949ZM300.068 373.48s.011-.031.032-.105a1.853 1.853 0 0 0-.032.105ZM331.512 338.867c-20.991 3.815-26.186 20.284-26.186 20.284s1.456-4.743.555-7.516c-1.32 5.004-3.09 6.692-3.09 6.692s-.493-2.397 1.288-7.254c-2.336 1.761-3.844 6.493-3.844 6.493s5.164-16.479-9.899-31.519c9.208 14.665-1.822 15.593-1.822 15.593s6.588 6.41 1.288 13.216c8.925 8.568 6.882 16.396 6.578 17.365a4.625 4.625 0 0 1 2.933-2.804 4.606 4.606 0 0 1 .807 3.961c.303-.959 3.111-8.557 15.356-10.538-.461-8.599 8.631-10.131 8.631-10.131s-8.558-7.015 7.405-13.842ZM296.338 372.316l.031-.105a3.55 3.55 0 0 1-.031.105ZM328.694 191.936v-.116a.317.317 0 0 0 0 .116Z"/><path d="M349.004 146.312c-20.048 10.861-19.797 29.321-19.797 29.321s-.105-5.306-1.959-7.818c.336 5.525-.89 7.828-.89 7.828s-1.299-2.272-1.121-7.796c-1.78 2.574-1.728 7.869-1.728 7.869s-.283-18.47-20.646-28.736c14.277 11.84 3.384 16.447 3.384 16.447s8.851 4.315 5.75 13.008c11.952 5.733 12.497 14.374 12.518 15.458.01-.49.157-2.439 2.032-3.815a4.92 4.92 0 0 1 2.147 3.762c-.011-1.084.283-9.724 12.056-15.811-3.352-8.589 5.363-13.165 5.363-13.165s-11.04-4.304 2.891-16.552ZM324.505 191.999v-.116a.318.318 0 0 0 0 .116ZM92.426 390.461c-18.97 9.912-18.98 27.246-18.98 27.246s-.032-4.982-1.729-7.369c.24 5.19-.943 7.338-.943 7.338s-1.194-2.148-.942-7.338c-1.708 2.387-1.729 7.369-1.729 7.369s-.01-17.334-18.98-27.246c13.24 11.309 2.943 15.478 2.943 15.478s8.244 4.18 5.217 12.279c11.135 5.545 11.532 13.664 11.532 14.675a4.608 4.608 0 0 1 1.97-3.554c1.78 1.261 1.948 3.106 1.969 3.554 0-1.011.398-9.13 11.533-14.675-3.028-8.11 5.216-12.279 5.216-12.279s-10.317-4.169 2.923-15.478ZM83.22 281.5C61.63 292.778 61.62 312.509 61.62 312.509s-.031-5.66-1.97-8.381c.273 5.91-1.078 8.349-1.078 8.349s-1.351-2.439-1.08-8.349c-1.937 2.721-1.968 8.381-1.968 8.381s-.01-19.721-21.6-31.009c15.063 12.872 3.353 17.615 3.353 17.615s9.375 4.753 5.939 13.977c12.664 6.317 13.114 15.541 13.125 16.698a5.272 5.272 0 0 1 2.23-4.044c2.022 1.438 2.221 3.533 2.232 4.044.01-1.157.46-10.381 13.125-16.698-3.446-9.224 5.939-13.977 5.939-13.977s-11.71-4.743 3.352-17.615ZM181.327 280.484c-21.588 11.278-21.599 31.009-21.599 31.009s-.031-5.66-1.969-8.38c.272 5.91-1.079 8.349-1.079 8.349s-1.351-2.439-1.079-8.349c-1.937 2.72-1.969 8.38-1.969 8.38s-.01-19.72-21.599-31.009c15.063 12.873 3.352 17.615 3.352 17.615s9.375 4.753 5.939 13.978c12.664 6.316 13.115 15.54 13.125 16.697a5.275 5.275 0 0 1 2.231-4.044c2.022 1.439 2.221 3.534 2.231 4.044.011-1.157.461-10.381 13.125-16.697-3.446-9.225 5.939-13.978 5.939-13.978s-11.71-4.753 3.352-17.615ZM127.633 240.46s-.021-.043-.053-.116c.032.073.053.116.053.116Z"/><path d="M129.15 186.469c-15.596 19.064-7.73 37.45-7.73 37.45s-2.294-5.264-5.185-7.025c2.619 5.399 2.336 8.203 2.336 8.203s-2.242-1.741-4.347-7.349c-.723 3.304 1.519 8.589 1.519 8.589s-7.898-18.376-32.524-20.335c19.179 6.024 10.17 15.092 10.17 15.092s10.643.709 11.125 10.673c14.329.865 18.446 9.287 18.907 10.361a5.336 5.336 0 0 1 .461-4.659 5.349 5.349 0 0 1 3.697 2.887c-.45-1.074-3.729-9.86 5.552-20.752-6.903-7.234-.063-15.374-.063-15.374s-12.811.198-3.918-17.761Z"/><path d="M123.463 242.233s-.011-.042-.053-.116c.032.074.053.116.053.116ZM223.717 173.759s-.021-.021-.053-.064a.286.286 0 0 1 .053.064Z"/><path d="M216.207 139.609c-6.809 14.395 1.016 24.724 1.016 24.724s-2.263-2.95-4.358-3.607c2.493 2.981 2.755 4.795 2.755 4.795s-1.676-.74-3.886-3.94c.063 2.189 2.304 5.16 2.304 5.16s-7.845-10.319-23.62-7.724c12.999.803 8.757 7.901 8.757 7.901s6.798-1.209 8.662 4.982c9.134-1.678 13.041 2.971 13.502 3.575a3.473 3.473 0 0 1-.44-3.002c1.634-.041 2.567.97 2.776 1.241-.45-.605-3.886-5.618.231-13.905-5.468-3.471-2.451-9.651-2.451-9.651s-8.014 2.105-5.248-10.549Z"/><path d="M221.382 175.517s-.022-.021-.054-.064a.551.551 0 0 0 .054.064ZM104.503 73.91s0-.022-.011-.043a.16.16 0 0 1 .011.042Z"/><path d="M106.63 53.563c-6.442 6.754-3.991 13.925-3.991 13.925s-.712-2.054-1.76-2.804c.838 2.116.65 3.169.65 3.169s-.796-.72-1.425-2.898c-.367 1.23.325 3.283.325 3.283s-2.462-7.17-11.7-8.61c7.07 2.825 3.404 5.994 3.404 5.994s4.001.573 3.896 4.346c5.384.74 6.704 4.034 6.84 4.451a1.97 1.97 0 0 1 .315-1.74 2.049 2.049 0 0 1 1.319 1.198c-.136-.417-1.12-3.825 2.692-7.682-2.398-2.929.419-5.805.419-5.805s-4.86-.303-.984-6.828Z"/><path d="M102.88 74.456s0-.01-.011-.042c0 .021.011.042.011.042ZM730.086 102.472s-.011-.032-.032-.073a.93.93 0 0 0 .032.073Z"/><path d="M733.814 66.875c-11.271 11.82-6.986 24.359-6.986 24.359s-1.247-3.596-3.069-4.9c1.456 3.701 1.131 5.535 1.131 5.535s-1.393-1.26-2.504-5.076c-.639 2.148.566 5.754.566 5.754s-4.295-12.539-20.468-15.061c12.371 4.94 5.96 10.475 5.96 10.475s6.998 1 6.809 7.609c9.427 1.282 11.721 7.056 11.973 7.786a3.523 3.523 0 0 1 .544-3.054 3.544 3.544 0 0 1 2.305 2.095c-.252-.73-1.969-6.702 4.713-13.436-4.2-5.117.734-10.162.734-10.162s-8.485-.5-1.708-11.924ZM727.246 103.44s-.011-.031-.021-.073c.01.042.021.073.021.073ZM60.46 155.4s.012-.021.022-.064a.331.331 0 0 1-.021.064ZM80.3 135.513c-12.707 1.699-16.29 11.434-16.29 11.434s1.017-2.803.545-4.492c-.932 2.971-2.042 3.929-2.042 3.929s-.23-1.448.985-4.315c-1.446.991-2.493 3.784-2.493 3.784s3.571-9.746-5.05-19.189c5.102 9.058-1.539 9.297-1.539 9.297s3.77 4.034.398 7.964c5.112 5.388 3.656 10.027 3.457 10.6a2.785 2.785 0 0 1 1.833-1.595 2.703 2.703 0 0 1 .366 2.397c.21-.573 2.106-5.044 9.511-5.889-.031-5.169 5.468-5.836 5.468-5.836s-4.912-4.441 4.85-8.089ZM58.25 154.595s.01-.021.021-.064l-.021.064ZM383.885 167.115s.01-.021.021-.053c-.021.032-.021.053-.021.053ZM400.592 150.367c-10.695 1.428-13.711 9.63-13.711 9.63s.848-2.355.461-3.783c-.786 2.501-1.718 3.304-1.718 3.304s-.189-1.219.827-3.638c-1.225.834-2.095 3.19-2.095 3.19s3.007-8.203-4.252-16.156c4.294 7.63-1.299 7.828-1.299 7.828s3.174 3.398.335 6.712c4.305 4.545 3.079 8.443 2.912 8.933a2.335 2.335 0 0 1 1.55-1.345 2.34 2.34 0 0 1 .314 2.022c.178-.479 1.781-4.252 8.003-4.961-.021-4.357 4.598-4.92 4.598-4.92s-4.158-3.742 4.075-6.816ZM382.02 166.443s.01-.021.021-.052a.6.6 0 0 1-.021.052ZM754.01 147.772s.01-.022.021-.053c-.021.031-.021.053-.021.053Z"/><path d="M770.717 131.031c-10.695 1.428-13.711 9.631-13.711 9.631s.848-2.356.461-3.784c-.786 2.501-1.718 3.304-1.718 3.304s-.189-1.219.827-3.638c-1.225.834-2.095 3.19-2.095 3.19s3.007-8.203-4.252-16.156c4.294 7.63-1.299 7.828-1.299 7.828s3.173 3.398.335 6.712c4.305 4.545 3.079 8.443 2.912 8.933a2.335 2.335 0 0 1 1.55-1.345 2.34 2.34 0 0 1 .314 2.022c.178-.479 1.781-4.252 8.003-4.961-.021-4.357 4.598-4.92 4.598-4.92s-4.158-3.742 4.075-6.816ZM752.145 147.092s.01-.021.021-.053c-.011.032-.021.053-.021.053ZM333.492 109.625c-11.166 6.264-10.862 16.625-10.862 16.625s-.105-2.981-1.163-4.378c.241 3.096-.44 4.409-.44 4.409s-.754-1.261-.702-4.367c-.974 1.459-.901 4.43-.901 4.43s-.314-10.361-11.836-15.958c8.118 6.525 2.032 9.203 2.032 9.203s5.007 2.356 3.341 7.255c6.757 3.116 7.134 7.963 7.155 8.568 0-.271.073-1.376 1.11-2.158a2.747 2.747 0 0 1 1.236 2.095c-.01-.604.073-5.462 6.641-8.974-1.959-4.795 2.901-7.432 2.901-7.432s-6.232-2.324 1.488-9.318ZM229.845 282.47s0-.042-.011-.126c0 .073.011.126.011.126Z"/><path d="M250.114 232.367c-21.285 12.487-20.321 32.447-20.321 32.447s-.314-5.732-2.409-8.38c.576 5.962-.671 8.505-.671 8.505s-1.487-2.407-1.508-8.401c-1.823 2.846-1.582 8.578-1.582 8.578s-.995-19.96-23.4-30.31c15.89 12.279 4.273 17.667 4.273 17.667s9.731 4.347 6.704 13.853c13.135 5.763 14.047 15.082 14.12 16.249a5.35 5.35 0 0 1 2.064-4.211 5.343 5.343 0 0 1 2.461 3.982c-.052-1.168-.052-10.528 12.455-17.542-3.949-9.162 5.31-14.436 5.31-14.436s-12.098-4.232 2.504-18.001Z"/><path d="M225.321 282.689v-.127a.438.438 0 0 0 0 .127ZM51.512 397.406s.01-.031.041-.094c-.02.063-.041.094-.041.094Z"/><path d="M83.408 368.09c-19.682 1.772-25.852 16.541-25.852 16.541s1.75-4.252 1.142-6.889c-1.634 4.513-3.415 5.92-3.415 5.92s-.251-2.251 1.802-6.587c-2.304 1.438-4.096 5.67-4.096 5.67s6.149-14.77-6.494-29.893c7.259 14.29-2.985 14.227-2.985 14.227s5.54 6.452.084 12.299c7.51 8.641 4.975 15.697 4.619 16.562a4.29 4.29 0 0 1 2.933-2.334 4.258 4.258 0 0 1 .408 3.721c.367-.865 3.583-7.63 15.042-8.443.304-7.974 8.81-8.63 8.81-8.63s-7.291-7.182 8.002-12.164ZM48.172 396.039s.01-.031.042-.094a.842.842 0 0 0-.042.094ZM103.865 388.781s.011-.031.042-.093c-.031.062-.042.093-.042.093ZM135.75 359.449c-19.682 1.772-25.852 16.542-25.852 16.542s1.749-4.253 1.142-6.89c-1.634 4.513-3.415 5.921-3.415 5.921s-.251-2.252 1.802-6.588c-2.305 1.439-4.096 5.67-4.096 5.67s6.149-14.769-6.494-29.893c7.259 14.29-2.985 14.227-2.985 14.227s5.541 6.452.083 12.3c7.511 8.64 4.976 15.697 4.62 16.562a4.287 4.287 0 0 1 2.933-2.335 4.258 4.258 0 0 1 .408 3.721c.367-.865 3.583-7.63 15.042-8.443.304-7.973 8.809-8.63 8.809-8.63s-7.29-7.181 8.003-12.164ZM100.514 387.399s.01-.032.041-.094c-.031.062-.041.094-.041.094ZM322.619 367.281c-23.212 12.133-23.233 33.354-23.233 33.354s-.032-6.097-2.116-9.016c.293 6.358-1.163 8.985-1.163 8.985s-1.456-2.627-1.162-8.985c-2.085 2.919-2.116 9.016-2.116 9.016s-.021-21.211-23.233-33.354c16.204 13.842 3.603 18.949 3.603 18.949s10.087 5.108 6.379 15.03c13.628 6.786 14.11 16.719 14.12 17.959a5.7 5.7 0 0 1 2.409-4.356 5.686 5.686 0 0 1 2.409 4.356c.011-1.24.493-11.173 14.12-17.959-3.708-9.922 6.379-15.03 6.379-15.03s-12.601-5.107 3.604-18.949ZM176.665 393.516c-27.653 14.446-27.664 39.722-27.664 39.722s-.042-7.255-2.524-10.736c.356 7.567-1.383 10.694-1.383 10.694s-1.739-3.127-1.382-10.694c-2.483 3.481-2.525 10.736-2.525 10.736s-.021-25.266-27.664-39.722c19.295 16.478 4.295 22.566 4.295 22.566s12.015 6.087 7.605 17.906c16.225 8.089 16.801 19.908 16.812 21.388a6.749 6.749 0 0 1 2.859-5.18 6.729 6.729 0 0 1 2.86 5.18c.01-1.48.586-13.299 16.812-21.388-4.41-11.819 7.604-17.906 7.604-17.906s-14.999-6.077 4.295-22.566ZM730.987 384.812c-27.653 14.447-27.663 39.723-27.663 39.723s-.042-7.255-2.525-10.736c.356 7.567-1.382 10.694-1.382 10.694s-1.739-3.127-1.383-10.694c-2.483 3.481-2.525 10.736-2.525 10.736s-.02-25.266-27.663-39.723c19.294 16.479 4.294 22.566 4.294 22.566s12.015 6.087 7.605 17.907c16.225 8.089 16.801 19.908 16.812 21.388a6.747 6.747 0 0 1 2.86-5.18 6.73 6.73 0 0 1 2.859 5.18c.011-1.48.587-13.299 16.812-21.388-4.41-11.82 7.605-17.907 7.605-17.907s-15-6.087 4.294-22.566ZM377.349 351.328c-23.212 12.133-23.233 33.354-23.233 33.354s-.031-6.098-2.116-9.016c.294 6.358-1.162 8.985-1.162 8.985s-1.456-2.627-1.163-8.985c-2.084 2.918-2.116 9.016-2.116 9.016s-.021-21.211-23.233-33.354c16.205 13.842 3.603 18.949 3.603 18.949s10.088 5.108 6.38 15.03c13.627 6.786 14.109 16.719 14.119 17.959a5.703 5.703 0 0 1 2.41-4.357 5.69 5.69 0 0 1 2.409 4.357c.01-1.24.492-11.173 14.12-17.959-3.708-9.922 6.379-15.03 6.379-15.03s-12.601-5.107 3.603-18.949Z"/><path d="M352.47 383.426c-19.682 1.772-25.851 16.541-25.851 16.541s1.749-4.252 1.142-6.889c-1.634 4.513-3.415 5.92-3.415 5.92s-.252-2.251 1.802-6.587c-2.305 1.438-4.096 5.67-4.096 5.67s6.149-14.77-6.494-29.893c7.259 14.29-2.986 14.227-2.986 14.227s5.541 6.452.084 12.299c7.51 8.641 4.976 15.697 4.619 16.562a4.291 4.291 0 0 1 2.933-2.334c1.069 1.699.555 3.325.409 3.721.366-.865 3.582-7.63 15.042-8.443.303-7.974 8.809-8.63 8.809-8.63s-7.291-7.192 8.002-12.164ZM377.494 402.969s.011-.031.042-.094c-.031.063-.042.094-.042.094Z"/><path d="M409.39 373.653c-19.682 1.772-25.851 16.541-25.851 16.541s1.749-4.253 1.142-6.89c-1.635 4.514-3.415 5.921-3.415 5.921s-.252-2.252 1.801-6.588c-2.304 1.439-4.095 5.67-4.095 5.67s6.148-14.769-6.495-29.893c7.259 14.29-2.985 14.228-2.985 14.228s5.541 6.451.084 12.299c7.51 8.64 4.975 15.697 4.619 16.562a4.287 4.287 0 0 1 2.933-2.335c1.069 1.699.555 3.325.409 3.721.366-.865 3.582-7.629 15.041-8.442.304-7.974 8.81-8.631 8.81-8.631s-7.301-7.181 8.002-12.163ZM374.143 401.586s.01-.031.041-.094c-.031.063-.041.094-.041.094ZM203.826 371.367c-23.212 12.133-23.233 33.354-23.233 33.354s-.032-6.098-2.116-9.016c.293 6.358-1.163 8.985-1.163 8.985s-1.456-2.627-1.162-8.985c-2.085 2.918-2.116 9.016-2.116 9.016s-.021-21.211-23.233-33.354c16.204 13.842 3.603 18.949 3.603 18.949s10.087 5.108 6.379 15.03c13.628 6.786 14.11 16.719 14.12 17.959a5.704 5.704 0 0 1 2.409-4.357 5.682 5.682 0 0 1 2.409 4.357c.011-1.24.493-11.173 14.12-17.959-3.708-9.922 6.38-15.03 6.38-15.03s-12.602-5.107 3.603-18.949Z"/><path d="M178.947 401.504c-19.682 1.772-25.852 16.542-25.852 16.542s1.75-4.253 1.142-6.89c-1.634 4.513-3.415 5.92-3.415 5.92s-.251-2.251 1.802-6.587c-2.304 1.438-4.096 5.67-4.096 5.67s6.149-14.77-6.494-29.893c7.259 14.29-2.985 14.227-2.985 14.227s5.541 6.452.084 12.299c7.51 8.641 4.975 15.697 4.619 16.563a4.287 4.287 0 0 1 2.933-2.335 4.258 4.258 0 0 1 .408 3.721c.367-.865 3.583-7.63 15.042-8.443.304-7.973 8.809-8.63 8.809-8.63s-7.3-7.182 8.003-12.164ZM235.857 396.642c-19.682 1.772-25.851 16.542-25.851 16.542s1.749-4.253 1.141-6.88c-1.634 4.514-3.414 5.921-3.414 5.921s-.252-2.252 1.801-6.588c-2.304 1.439-4.095 5.67-4.095 5.67s6.148-14.769-6.495-29.893c7.259 14.29-2.985 14.228-2.985 14.228s5.541 6.451.084 12.299c7.51 8.64 4.975 15.697 4.619 16.562a4.287 4.287 0 0 1 2.933-2.335c1.068 1.699.555 3.325.409 3.721.366-.865 3.582-7.629 15.041-8.442.304-7.974 8.81-8.631 8.81-8.631s-7.291-7.192 8.002-12.174Z"/><path d="M170.066 359.086c-23.212 12.132-23.233 33.354-23.233 33.354s-.031-6.098-2.116-9.016c.293 6.347-1.162 8.984-1.162 8.984s-1.456-2.626-1.163-8.984c-2.085 2.918-2.116 9.016-2.116 9.016s-.021-21.211-23.233-33.354c16.204 13.842 3.603 18.949 3.603 18.949s10.087 5.107 6.379 15.03c13.628 6.786 14.11 16.719 14.12 17.959a5.703 5.703 0 0 1 2.41-4.357 5.69 5.69 0 0 1 2.409 4.357c.01-1.24.492-11.173 14.12-17.959-3.708-9.923 6.379-15.03 6.379-15.03s-12.591-5.107 3.603-18.949ZM219.391 397.078s.01-.031.041-.094c-.031.063-.041.094-.041.094Z"/><path d="M251.275 367.759c-19.682 1.772-25.851 16.542-25.851 16.542s1.749-4.253 1.141-6.879c-1.634 4.513-3.414 5.92-3.414 5.92s-.252-2.252 1.801-6.588c-2.304 1.439-4.095 5.671-4.095 5.671s6.148-14.77-6.495-29.894c7.259 14.29-2.985 14.228-2.985 14.228s5.541 6.452.084 12.299c7.51 8.641 4.975 15.697 4.619 16.562a4.292 4.292 0 0 1 2.933-2.335c1.068 1.699.555 3.325.409 3.721.366-.865 3.582-7.629 15.041-8.442.304-7.974 8.81-8.631 8.81-8.631s-7.291-7.191 8.002-12.174Z"/><path d="M216.039 395.688s.01-.032.042-.094a.67.67 0 0 0-.042.094ZM646.664 330.828c-23.212 12.133-23.233 33.354-23.233 33.354s-.032-6.098-2.116-9.016c.293 6.358-1.163 8.985-1.163 8.985s-1.456-2.627-1.163-8.985c-2.084 2.918-2.115 9.016-2.115 9.016s-.021-21.211-23.233-33.354c16.204 13.842 3.603 18.949 3.603 18.949s10.087 5.108 6.379 15.03c13.628 6.786 14.109 16.719 14.12 17.959a5.7 5.7 0 0 1 2.409-4.357 5.686 5.686 0 0 1 2.409 4.357c.011-1.24.493-11.173 14.12-17.959-3.708-9.922 6.379-15.03 6.379-15.03s-12.601-5.107 3.604-18.949ZM617.755 382.9v-.127a.369.369 0 0 0 0 .127ZM472.786 346.406c-25.538 13.352-25.559 36.689-25.559 36.689s-.042-6.702-2.336-9.922c.325 6.994-1.278 9.881-1.278 9.881s-1.602-2.887-1.277-9.881c-2.294 3.21-2.336 9.922-2.336 9.922s-.021-23.337-25.559-36.689c17.828 15.228 3.97 20.846 3.97 20.846s11.104 5.618 7.018 16.542c14.99 7.473 15.524 18.396 15.534 19.762a6.225 6.225 0 0 1 2.65-4.784 6.237 6.237 0 0 1 2.651 4.784c.01-1.366.544-12.289 15.534-19.762-4.075-10.913 7.018-16.542 7.018-16.542s-13.858-5.628 3.97-20.846Z"/><path d="M440.973 403.694v-.147a.554.554 0 0 0 0 .147ZM423.828 353.644s.011-.031.032-.105a1.853 1.853 0 0 0-.032.105ZM455.262 319.016c-20.991 3.815-26.186 20.283-26.186 20.283s1.466-4.743.555-7.515c-1.32 5.003-3.09 6.692-3.09 6.692s-.493-2.398 1.288-7.255c-2.336 1.762-3.844 6.494-3.844 6.494s5.164-16.479-9.899-31.52c9.208 14.666-1.822 15.593-1.822 15.593s6.588 6.41 1.288 13.217c8.925 8.567 6.882 16.395 6.578 17.364a4.622 4.622 0 0 1 2.933-2.803 4.604 4.604 0 0 1 .807 3.96c.303-.958 3.111-8.557 15.356-10.537-.461-8.599 8.631-10.132 8.631-10.132s-8.558-7.004 7.405-13.841ZM420.088 352.473l.031-.106a1.311 1.311 0 0 0-.031.106ZM797.953 275.945c-23.212 12.133-23.233 33.354-23.233 33.354s-.032-6.097-2.116-9.016c.293 6.348-1.163 8.985-1.163 8.985s-1.456-2.627-1.163-8.985c-2.084 2.919-2.115 9.016-2.115 9.016s-.021-21.211-23.233-33.354c16.204 13.842 3.603 18.949 3.603 18.949s10.087 5.108 6.379 15.03c13.628 6.786 14.11 16.719 14.12 17.959a5.7 5.7 0 0 1 2.409-4.356 5.686 5.686 0 0 1 2.409 4.356c.011-1.24.493-11.173 14.12-17.959-3.708-9.922 6.379-15.03 6.379-15.03s-12.601-5.117 3.604-18.949ZM521.242 334.188c-23.212 12.132-23.233 33.353-23.233 33.353s-.032-6.097-2.116-9.016c.293 6.348-1.163 8.985-1.163 8.985s-1.456-2.627-1.162-8.985c-2.085 2.919-2.116 9.016-2.116 9.016s-.021-21.211-23.233-33.353c16.204 13.841 3.603 18.949 3.603 18.949s10.087 5.107 6.379 15.03c13.628 6.785 14.11 16.718 14.12 17.959a5.703 5.703 0 0 1 2.409-4.357 5.688 5.688 0 0 1 2.41 4.357c.01-1.241.492-11.174 14.119-17.959-3.708-9.923 6.38-15.03 6.38-15.03s-12.602-5.108 3.603-18.949ZM678.268 322.686s.01-.042.031-.116a3.126 3.126 0 0 0-.031.116ZM714.657 282.616c-24.301 4.409-30.313 23.483-30.313 23.483s1.686-5.482.639-8.703c-1.53 5.795-3.583 7.744-3.583 7.744s-.565-2.772 1.498-8.401c-2.702 2.043-4.452 7.515-4.452 7.515s5.981-19.074-11.459-36.481c10.653 16.98-2.116 18.043-2.116 18.043s7.626 7.421 1.487 15.301c10.329 9.923 7.961 18.98 7.616 20.095.178-.5.995-2.459 3.393-3.241a5.351 5.351 0 0 1 .933 4.586c.356-1.115 3.603-9.902 17.765-12.195-.524-9.954 9.982-11.726 9.982-11.726s-9.867-8.119 8.61-16.02ZM673.941 321.342s.011-.042.043-.115c-.032.073-.043.115-.043.115ZM717.602 373.48l.031-.105a1.378 1.378 0 0 0-.031.105ZM749.036 338.867c-20.991 3.815-26.187 20.284-26.187 20.284s1.466-4.743.555-7.516c-1.32 5.004-3.09 6.692-3.09 6.692s-.492-2.397 1.289-7.254c-2.336 1.761-3.845 6.493-3.845 6.493s5.164-16.479-9.898-31.519c9.207 14.665-1.823 15.593-1.823 15.593s6.589 6.41 1.288 13.216c8.925 8.568 6.882 16.396 6.579 17.365a4.622 4.622 0 0 1 2.933-2.804 4.6 4.6 0 0 1 .806 3.961c.304-.959 3.111-8.557 15.356-10.538-.461-8.599 8.631-10.131 8.631-10.131s-8.558-7.015 7.406-13.842ZM713.861 372.316s.011-.031.032-.105c-.021.074-.032.105-.032.105ZM703.051 196.215s.021-.042.042-.106c-.032.074-.042.106-.042.106Z"/><path d="M738.918 161.343c-22.668 2.69-29.309 19.929-29.309 19.929s1.875-4.961 1.09-7.984c-1.739 5.253-3.75 6.942-3.75 6.942s-.367-2.585 1.864-7.661c-2.608 1.73-4.535 6.671-4.535 6.671s6.609-17.25-8.474-34.302c8.851 16.27-2.986 16.52-2.986 16.52s6.61 7.275.493 14.196c8.956 9.735 6.253 17.959 5.866 18.97a4.938 4.938 0 0 1 3.31-2.793 4.929 4.929 0 0 1 .597 4.284c.398-1.011 3.886-8.933 17.094-10.236.084-9.214 9.888-10.246 9.888-10.246s-8.641-8.046 8.852-14.29ZM699.145 194.738s.01-.031.042-.105a.53.53 0 0 0-.042.105ZM11.299 151.859c-22.668 2.689-29.309 19.929-29.309 19.929s1.875-4.961 1.09-7.984c-1.74 5.253-3.75 6.942-3.75 6.942s-.367-2.585 1.864-7.661c-2.608 1.73-4.535 6.67-4.535 6.67s6.61-17.25-8.474-34.302c8.85 16.271-2.986 16.521-2.986 16.521s6.61 7.275.492 14.196c8.956 9.735 6.254 17.959 5.866 18.97a4.942 4.942 0 0 1 3.32-2.794 4.927 4.927 0 0 1 .598 4.284c.387-1.011 3.886-8.932 17.095-10.235.083-9.214 9.888-10.246 9.888-10.246s-8.663-8.057 8.84-14.29ZM509.949 390.461c-18.97 9.912-18.98 27.246-18.98 27.246s-.032-4.982-1.729-7.369c.241 5.19-.942 7.338-.942 7.338s-1.194-2.148-.943-7.338c-1.707 2.387-1.728 7.369-1.728 7.369s-.011-17.334-18.981-27.246c13.241 11.309 2.944 15.478 2.944 15.478s8.244 4.18 5.216 12.279c11.135 5.545 11.533 13.664 11.533 14.675.01-.458.189-2.293 1.969-3.554a4.652 4.652 0 0 1 1.969 3.554c.011-1.011.399-9.13 11.533-14.675-3.027-8.11 5.217-12.279 5.217-12.279s-10.308-4.169 2.922-15.478ZM501.768 279.492c-22.479 11.747-22.49 32.291-22.49 32.291s-.031-5.9-2.053-8.724c.283 6.149-1.121 8.693-1.121 8.693s-1.414-2.544-1.12-8.693c-2.022 2.824-2.053 8.724-2.053 8.724s-.021-20.544-22.49-32.291c15.692 13.404 3.489 18.345 3.489 18.345s9.772 4.951 6.18 14.55c13.187 6.577 13.659 16.187 13.669 17.386.021-.542.22-2.71 2.325-4.211 2.106 1.501 2.315 3.679 2.326 4.211.01-1.199.482-10.819 13.669-17.386-3.592-9.61 6.18-14.55 6.18-14.55s-12.203-4.941 3.489-18.345ZM473.77 329.915v-.126a.4.4 0 0 0 0 .126ZM576.442 328.892v-.126a.4.4 0 0 0 0 .126ZM598.849 280.484c-21.589 11.278-21.599 31.009-21.599 31.009s-.032-5.66-1.969-8.38c.272 5.91-1.079 8.349-1.079 8.349s-1.352-2.439-1.079-8.349c-1.938 2.72-1.969 8.38-1.969 8.38s-.021-19.72-21.599-31.009c15.062 12.873 3.352 17.615 3.352 17.615s9.374 4.753 5.939 13.978c12.664 6.316 13.114 15.54 13.125 16.697a5.272 5.272 0 0 1 2.231-4.044c2.021 1.439 2.22 3.534 2.231 4.044.01-1.157.461-10.381 13.125-16.697-3.447-9.225 5.939-13.978 5.939-13.978s-11.711-4.753 3.352-17.615ZM545.158 240.46s-.021-.043-.053-.116c.032.073.053.116.053.116Z"/><path d="M546.676 186.469c-15.597 19.064-7.731 37.45-7.731 37.45s-2.294-5.264-5.185-7.025c2.619 5.399 2.336 8.203 2.336 8.203s-2.241-1.741-4.347-7.349c-.722 3.304 1.519 8.589 1.519 8.589s-7.908-18.376-32.524-20.335c19.179 6.024 10.171 15.092 10.171 15.092s10.642.709 11.124 10.673c14.33.865 18.446 9.287 18.907 10.361a5.343 5.343 0 0 1 .461-4.659 5.349 5.349 0 0 1 3.698 2.887c-.451-1.074-3.729-9.86 5.551-20.752-6.903-7.234-.063-15.374-.063-15.374s-12.8.198-3.917-17.761Z"/><path d="M540.988 242.233s-.01-.042-.052-.116c.031.074.052.116.052.116ZM641.249 173.759s-.022-.021-.054-.064c.032.043.054.064.054.064Z"/><path d="M633.738 139.609c-6.809 14.395 1.016 24.724 1.016 24.724s-2.263-2.95-4.357-3.607c2.493 2.981 2.754 4.795 2.754 4.795s-1.676-.74-3.886-3.94c.063 2.189 2.305 5.16 2.305 5.16s-7.846-10.319-23.621-7.724c12.999.803 8.757 7.901 8.757 7.901s6.798-1.209 8.663 4.982c9.134-1.678 13.041 2.971 13.502 3.575a3.47 3.47 0 0 1-.44-3.002c1.634-.041 2.566.97 2.775 1.241-.45-.605-3.886-5.618.231-13.905-5.468-3.471-2.451-9.651-2.451-9.651s-8.024 2.105-5.248-10.549Z"/><path d="M638.903 175.517s-.021-.021-.053-.064c.032.043.053.064.053.064ZM389.982 48.178s0-.011.011-.022c-.011.011-.011.022-.011.022ZM398.436 39.924c-6.348.823-7.353 4.794-7.353 4.794s.283-1.146-.095-1.824c-.23 1.21-.712 1.606-.712 1.606s-.241-.584.136-1.751c-.66.416-.953 1.553-.953 1.553s1.006-3.972-4.19-7.693c3.373 3.607 0 3.773 0 3.773s2.263 1.585.87 3.21c3.058 2.117 2.713 4.014 2.66 4.243.032-.104.189-.51.807-.667.471.427.408.855.387.97.063-.23.65-2.064 4.358-2.481-.451-2.085 2.304-2.419 2.304-2.419s-2.901-1.73 1.781-3.314ZM388.779 47.88s0-.01.011-.02c0 .01-.011.02-.011.02ZM316.259 251.734s-.011-.031-.042-.093a.941.941 0 0 1 .042.093ZM317.307 205.305c-13.324 16.468-6.463 32.238-6.463 32.238s-2.001-4.513-4.494-6.024c2.284 4.628 2.043 7.046 2.043 7.046s-1.938-1.48-3.771-6.306c-.607 2.845 1.341 7.379 1.341 7.379s-6.882-15.759-28.072-17.333c16.529 5.086 8.819 12.924 8.819 12.924s9.155.563 9.616 9.12c12.329.678 15.901 7.901 16.309 8.818a4.557 4.557 0 0 1 .377-4.002 4.595 4.595 0 0 1 3.195 2.46c-.398-.928-3.247-8.464 4.672-17.876-5.971-6.181-.126-13.216-.126-13.216s-10.998.26-3.446-15.228ZM312.686 253.281s-.01-.031-.041-.093c.02.062.041.093.041.093ZM781.076 225.492c-13.323 16.469-6.462 32.239-6.462 32.239s-2.001-4.513-4.494-6.025c2.283 4.628 2.043 7.046 2.043 7.046s-1.938-1.48-3.771-6.306c-.608 2.846 1.34 7.38 1.34 7.38s-6.881-15.76-28.072-17.334c16.529 5.087 8.82 12.925 8.82 12.925s9.155.563 9.616 9.12c12.328.677 15.9 7.901 16.309 8.818a4.552 4.552 0 0 1 .377-4.003 4.603 4.603 0 0 1 3.195 2.46c-.398-.927-3.258-8.463 4.671-17.875-5.97-6.181-.125-13.217-.125-13.217s-10.999.25-3.447-15.228ZM496.102 89.4s-.01-.012-.032-.033l.032.032ZM489.408 70.055c-2.985 8.828 2.273 14.3 2.273 14.3s-1.519-1.563-2.776-1.803c1.655 1.563 1.927 2.606 1.927 2.606s-1.026-.323-2.524-2.033c.189 1.261 1.686 2.846 1.686 2.846s-5.258-5.472-14.256-2.898c7.615-.406 5.625 4.003 5.625 4.003s3.865-1.157 5.374 2.314c5.195-1.595 7.783.854 8.097 1.167a2.005 2.005 0 0 1-.461-1.71 2.041 2.041 0 0 1 1.697.532c-.304-.323-2.64-3.002-.807-8.099-3.415-1.647-2.074-5.44-2.074-5.44s-4.525 1.761-3.781-5.785Z"/><path d="m494.854 90.587-.032-.032c.022.01.032.032.032.032ZM490.657 181.791s0-.022-.011-.064c.011.042.011.064.011.064ZM500.23 155.438c-10.799 6.868-9.93 17.198-9.93 17.198s-.272-2.971-1.403-4.305c.408 3.085-.189 4.419-.189 4.419s-.817-1.219-.943-4.325c-.89 1.511-.659 4.482-.659 4.482s-.891-10.33-12.696-15.291c8.464 6.077 2.546 9.078 2.546 9.078s5.122 2.075 3.729 7.057c6.913 2.752 7.562 7.567 7.625 8.172a2.768 2.768 0 0 1 .995-2.221 2.784 2.784 0 0 1 1.351 2.022c-.052-.604-.22-5.461 6.128-9.328-2.22-4.68 2.483-7.588 2.483-7.588s-6.348-1.97.963-9.37ZM647.368 282.47s0-.042-.011-.126c.011.073.011.126.011.126Z"/><path d="M667.637 232.367c-21.284 12.487-20.321 32.447-20.321 32.447s-.314-5.732-2.409-8.38c.576 5.962-.67 8.505-.67 8.505s-1.488-2.407-1.509-8.401c-1.822 2.846-1.581 8.578-1.581 8.578s-.995-19.96-23.401-30.31c15.89 12.279 4.274 17.667 4.274 17.667s9.731 4.347 6.704 13.853c13.135 5.763 14.046 15.082 14.12 16.249a5.344 5.344 0 0 1 2.063-4.211 5.345 5.345 0 0 1 2.462 3.982c-.053-1.168-.053-10.528 12.454-17.542-3.949-9.162 5.311-14.436 5.311-14.436s-12.099-4.232 2.503-18.001ZM399.766 287.764s.01-.042.031-.116c-.021.074-.031.116-.031.116ZM436.156 247.686c-24.302 4.409-30.314 23.483-30.314 23.483s1.686-5.482.639-8.692c-1.53 5.795-3.583 7.744-3.583 7.744s-.565-2.773 1.498-8.401c-2.702 2.043-4.452 7.515-4.452 7.515s5.981-19.074-11.459-36.491c10.653 16.979-2.116 18.042-2.116 18.042s7.626 7.421 1.488 15.301c10.328 9.923 7.96 18.981 7.615 20.096a5.353 5.353 0 0 1 3.393-3.242 5.351 5.351 0 0 1 .933 4.586c.356-1.115 3.603-9.902 17.765-12.195-.524-9.954 9.982-11.726 9.982-11.726s-9.877-8.109 8.611-16.02ZM395.439 286.413s.011-.042.043-.116c-.032.074-.043.116-.043.116ZM353.729 278.08s0-.043-.01-.127c.01.074.01.127.01.127Z"/><path d="M373.999 227.977c-21.285 12.486-20.321 32.447-20.321 32.447s-.315-5.733-2.41-8.381c.577 5.962-.67 8.506-.67 8.506s-1.487-2.408-1.508-8.401c-1.823 2.845-1.582 8.578-1.582 8.578s-.995-19.96-23.401-30.31c15.891 12.278 4.274 17.667 4.274 17.667s9.731 4.346 6.704 13.852c13.135 5.764 14.047 15.082 14.12 16.249a5.344 5.344 0 0 1 2.063-4.21 5.344 5.344 0 0 1 2.462 3.981c-.052-1.167-.052-10.527 12.454-17.542-3.949-9.162 5.311-14.436 5.311-14.436s-12.098-4.232 2.504-18Z"/><path d="M349.206 278.298v-.126a.39.39 0 0 0 0 .126ZM469.045 397.406s.01-.031.042-.094a.74.74 0 0 0-.042.094Z"/><path d="M500.941 368.09c-19.682 1.772-25.851 16.541-25.851 16.541s1.749-4.252 1.141-6.889c-1.634 4.513-3.414 5.92-3.414 5.92s-.252-2.251 1.801-6.587c-2.304 1.438-4.095 5.67-4.095 5.67s6.148-14.77-6.495-29.893c7.259 14.29-2.985 14.227-2.985 14.227s5.541 6.452.084 12.299c7.51 8.641 4.975 15.697 4.619 16.562a4.289 4.289 0 0 1 2.933-2.334c1.068 1.699.555 3.325.409 3.721.366-.865 3.582-7.63 15.041-8.443.304-7.974 8.81-8.63 8.81-8.63s-7.301-7.182 8.002-12.164ZM465.693 396.039s.011-.031.042-.094c-.031.063-.042.094-.042.094ZM521.387 388.781s.01-.031.042-.093a.704.704 0 0 0-.042.093ZM553.283 359.449c-19.682 1.772-25.852 16.542-25.852 16.542s1.75-4.253 1.142-6.89c-1.634 4.513-3.415 5.921-3.415 5.921s-.251-2.252 1.802-6.588c-2.304 1.439-4.096 5.67-4.096 5.67s6.149-14.769-6.494-29.893c7.259 14.29-2.985 14.227-2.985 14.227s5.541 6.452.084 12.3c7.51 8.64 4.975 15.697 4.619 16.562a4.287 4.287 0 0 1 2.933-2.335 4.258 4.258 0 0 1 .408 3.721c.367-.865 3.583-7.63 15.042-8.443.304-7.973 8.809-8.63 8.809-8.63s-7.301-7.181 8.003-12.164ZM518.035 387.399s.011-.032.042-.094c-.031.062-.042.094-.042.094ZM407.664 391.697s.021-.042.053-.127c-.042.085-.053.127-.053.127ZM450.106 352.687c-26.197 2.366-34.399 22.013-34.399 22.013s2.326-5.659 1.519-9.161c-2.179 6.003-4.546 7.879-4.546 7.879s-.335-2.991 2.399-8.765c-3.059 1.907-5.447 7.546-5.447 7.546s8.181-19.658-8.642-39.785c9.668 19.022-3.98 18.928-3.98 18.928s7.374 8.589.105 16.365c10.003 11.496 6.62 20.887 6.138 22.034a5.7 5.7 0 0 1 3.907-3.117 5.643 5.643 0 0 1 .544 4.951c.482-1.146 4.766-10.162 20.018-11.236.398-10.61 11.721-11.486 11.721-11.486s-9.7-9.547 10.663-16.166ZM403.199 389.869s.021-.043.053-.127a1.703 1.703 0 0 1-.053.127ZM740.142 367.281c-23.212 12.133-23.233 33.354-23.233 33.354s-.031-6.097-2.116-9.016c.294 6.358-1.162 8.985-1.162 8.985s-1.456-2.627-1.163-8.985c-2.085 2.919-2.116 9.016-2.116 9.016s-.021-21.211-23.233-33.354c16.205 13.842 3.603 18.949 3.603 18.949s10.088 5.108 6.38 15.03c13.627 6.786 14.109 16.719 14.119 17.959a5.701 5.701 0 0 1 2.41-4.356 5.689 5.689 0 0 1 2.409 4.356c.01-1.24.492-11.173 14.12-17.959-3.708-9.922 6.379-15.03 6.379-15.03s-12.601-5.107 3.603-18.949ZM586.267 398.484c-23.212 12.133-23.233 33.354-23.233 33.354s-.031-6.097-2.116-9.016c.294 6.348-1.162 8.985-1.162 8.985s-1.456-2.627-1.163-8.985c-2.084 2.919-2.116 9.016-2.116 9.016s-.021-21.211-23.233-33.354c16.205 13.842 3.603 18.949 3.603 18.949s10.088 5.108 6.38 15.031c13.627 6.785 14.109 16.718 14.119 17.958a5.701 5.701 0 0 1 2.41-4.356 5.689 5.689 0 0 1 2.409 4.356c.01-1.24.492-11.173 14.12-17.958-3.708-9.923 6.379-15.031 6.379-15.031s-12.601-5.107 3.603-18.949ZM794.871 351.328c-23.212 12.133-23.233 33.354-23.233 33.354s-.032-6.098-2.116-9.016c.293 6.358-1.163 8.985-1.163 8.985s-1.456-2.627-1.163-8.985c-2.084 2.918-2.115 9.016-2.115 9.016s-.021-21.211-23.233-33.354c16.204 13.842 3.603 18.949 3.603 18.949s10.087 5.108 6.379 15.03c13.628 6.786 14.11 16.719 14.12 17.959a5.7 5.7 0 0 1 2.409-4.357 5.686 5.686 0 0 1 2.409 4.357c.011-1.24.493-11.173 14.12-17.959-3.708-9.922 6.379-15.03 6.379-15.03s-12.59-5.107 3.604-18.949ZM.073 401.205l-.032-.127c.021.074.032.127.032.127ZM-36.967 357.295c25.61 5.618 31.246 26.078 31.246 26.078s-1.581-5.889-.345-9.255c1.393 6.202 3.498 8.359 3.498 8.359s.712-2.918-1.257-8.964c2.787 2.272 4.431 8.141 4.431 8.141s-5.604-20.471 13.586-38.263c-11.962 17.594 1.54 19.22 1.54 19.22s-8.38 7.577-2.18 16.176c-11.343 10.121-9.186 19.825-8.86 21.024a5.684 5.684 0 0 0-3.478-3.565c-1.687 2.064-1.3 4.284-1.163 4.826-.335-1.199-3.436-10.642-18.373-13.623.943-10.548-10.14-12.831-10.14-12.831s10.79-8.224-8.505-17.323ZM4.711 399.947l-.031-.127c.02.074.031.127.031.127Z"/><path d="M769.996 383.426c-19.682 1.772-25.852 16.541-25.852 16.541s1.75-4.252 1.142-6.889c-1.634 4.513-3.415 5.92-3.415 5.92s-.251-2.251 1.802-6.587c-2.305 1.438-4.096 5.67-4.096 5.67s6.149-14.77-6.494-29.893c7.259 14.29-2.985 14.227-2.985 14.227s5.541 6.452.083 12.299c7.511 8.641 4.976 15.697 4.62 16.562a4.289 4.289 0 0 1 2.933-2.334 4.258 4.258 0 0 1 .408 3.721c.367-.865 3.583-7.63 15.042-8.443.304-7.974 8.809-8.63 8.809-8.63s-7.29-7.192 8.003-12.164ZM621.347 371.367c-23.212 12.133-23.233 33.354-23.233 33.354s-.031-6.098-2.116-9.016c.294 6.358-1.162 8.985-1.162 8.985s-1.456-2.627-1.163-8.985c-2.084 2.918-2.116 9.016-2.116 9.016s-.021-21.211-23.233-33.354c16.205 13.842 3.604 18.949 3.604 18.949s10.087 5.107 6.379 15.03c13.627 6.786 14.109 16.719 14.12 17.959a5.7 5.7 0 0 1 2.409-4.357 5.69 5.69 0 0 1 2.409 4.357c.01-1.24.492-11.173 14.12-17.959-3.708-9.923 6.379-15.03 6.379-15.03s-12.601-5.107 3.603-18.949Z"/><path d="M596.472 401.504c-19.682 1.772-25.851 16.542-25.851 16.542s1.749-4.253 1.142-6.89c-1.634 4.513-3.415 5.92-3.415 5.92s-.252-2.251 1.801-6.587c-2.304 1.438-4.095 5.67-4.095 5.67s6.148-14.77-6.495-29.893c7.259 14.29-2.985 14.227-2.985 14.227s5.541 6.452.084 12.299c7.51 8.641 4.976 15.697 4.619 16.563a4.287 4.287 0 0 1 2.933-2.335c1.069 1.699.555 3.325.409 3.721.366-.865 3.582-7.63 15.041-8.443.304-7.973 8.81-8.63 8.81-8.63s-7.291-7.182 8.002-12.164ZM653.388 396.642c-19.682 1.772-25.851 16.542-25.851 16.542s1.749-4.253 1.142-6.88c-1.634 4.514-3.415 5.921-3.415 5.921s-.252-2.252 1.802-6.588c-2.305 1.439-4.096 5.67-4.096 5.67s6.149-14.769-6.494-29.893c7.259 14.29-2.986 14.228-2.986 14.228s5.541 6.451.084 12.299c7.51 8.64 4.976 15.697 4.619 16.562a4.29 4.29 0 0 1 2.933-2.335c1.069 1.699.555 3.325.409 3.721.366-.865 3.582-7.629 15.042-8.442.303-7.974 8.809-8.631 8.809-8.631s-7.301-7.192 8.002-12.174Z"/><path d="M587.599 359.086c-23.212 12.132-23.233 33.354-23.233 33.354s-.031-6.098-2.116-9.016c.294 6.347-1.162 8.984-1.162 8.984s-1.456-2.626-1.163-8.984c-2.084 2.918-2.116 9.016-2.116 9.016s-.021-21.211-23.233-33.354c16.205 13.842 3.603 18.949 3.603 18.949s10.088 5.107 6.38 15.03c13.627 6.786 14.109 16.719 14.12 17.959.02-.552.23-2.804 2.409-4.357a5.69 5.69 0 0 1 2.409 4.357c.01-1.24.492-11.173 14.12-17.959-3.708-9.923 6.379-15.03 6.379-15.03s-12.601-5.107 3.603-18.949ZM636.912 397.078s.011-.031.042-.094c-.031.063-.042.094-.042.094Z"/><path d="M668.808 367.759c-19.682 1.772-25.851 16.542-25.851 16.542s1.749-4.253 1.142-6.879c-1.635 4.513-3.415 5.92-3.415 5.92s-.252-2.252 1.801-6.588c-2.304 1.439-4.095 5.671-4.095 5.671s6.148-14.77-6.495-29.894c7.259 14.29-2.985 14.228-2.985 14.228s5.541 6.452.084 12.299c7.51 8.641 4.975 15.697 4.619 16.562a4.292 4.292 0 0 1 2.933-2.335c1.069 1.699.555 3.325.409 3.721.366-.865 3.582-7.629 15.041-8.442.304-7.974 8.81-8.631 8.81-8.631s-7.291-7.191 8.002-12.174ZM633.561 395.688s.01-.032.041-.094a.49.49 0 0 1-.041.094ZM70.765 337.801c-9.458-.167-21.63 4.868-21.63 4.868-3.708 6.368-6.295 11.757-8.076 14.039-.587-1.177-2.336-4.492-4.127-5.534 2.043 4.013 1.016 4.242 1.016 4.242s-.859.615-2.514-3.575c-.408 2.032.912 5.534 1.414 6.754-2.89-.188-8.662-1.855-15.91-3.325 0 0-11.869 5.712-18.028 12.852 8.966-4.201 8.506 7.014 8.506 7.014s6.567-9.172 13.983 4.732c3.111-13.195 21.023-5.659 21.023-5.659s6.243-18.324 18.216-11.872c-5.51-14.749 5.74-13.54 5.74-13.54s-8.726-7.108.387-10.996ZM183.652 325.637c-9.459-.167-21.63 4.867-21.63 4.867-3.708 6.369-6.295 11.758-8.076 14.04-.587-1.178-2.336-4.492-4.127-5.534 2.042 4.013 1.016 4.242 1.016 4.242s-.859.615-2.514-3.575c-.409 2.032.911 5.534 1.414 6.754-2.891-.188-8.663-1.855-15.911-3.325 0 0-11.868 5.712-18.027 12.852 8.966-4.201 8.505 7.014 8.505 7.014s6.568-9.172 13.984 4.732c3.111-13.195 21.023-5.659 21.023-5.659s6.243-18.324 18.215-11.872c-5.509-14.749 5.741-13.54 5.741-13.54s-8.726-7.119.387-10.996ZM306.709 358.691c-9.197-8.87-25.904-15.113-25.904-15.113-9.584 2.877-17.158 5.826-21.044 6.441.524-1.709 1.865-6.587 1.069-9.276-1.718 5.847-2.944 5.128-2.944 5.128s-1.414-.177.838-5.847c-2.283 1.636-4.242 6.316-4.881 7.973-2.681-2.856-6.84-9.808-12.632-17.938 0 0-17.032-5.284-29.77-3.909 12.769 4.107 1.886 14.77 1.886 14.77s15.021-3.012 9.417 17.552c15.345-10.173 26.04 13.769 26.04 13.769s23.222-12.362 29.057 5.045c8.275-19.647 18.268-8.099 18.268-8.099s-2.022-15.061 10.6-10.496Z"/><path d="M142.224 363.51c-7.343-11.111-22.929-21.232-22.929-21.232-10.422.761-18.802 2.054-22.898 1.803.922-1.615 3.404-6.295 3.205-9.203-3.08 5.566-4.169 4.555-4.169 4.555s-1.403-.501 2.19-5.764c-2.703 1.146-5.761 5.472-6.788 7.025-2.084-3.513-4.734-11.538-8.778-21.117 0 0-16.141-9.235-29.423-10.694 12.067 7.067-1.456 15.457-1.456 15.457s15.984.323 5.593 20.002c17.944-6.89 23.38 19.908 23.38 19.908s26.459-7.338 28.439 11.705c12.905-18.146 20.446-4.117 20.446-4.117s1.383-15.822 13.188-8.328ZM259.069 309.558c-12.098-5.66-36.588-.333-36.588-.333-6.746 5.847-18.572 19.293-18.572 19.293-.063-1.856-.398-7.13-2.105-9.517.293 6.358-1.163 6.056-1.163 6.056s-1.456.302-1.163-6.056c-1.697 2.387-2.032 7.661-2.105 9.517-3.624-1.908-10.087-7.38-18.572-13.446 0 0-24.49 6.368-36.588 12.028 14.005-.25 15.115 9.256 15.115 9.256s17.325-10.955 18.802 11.215c11.679-15.207 24.511 6.566 24.511 6.566s11.648-24.118 23.338-8.911c1.477-22.181 16.445-14.728 16.445-14.728s4.651-21.19 18.645-20.94ZM301.471 314.082c-9.459-.167-21.631 4.868-21.631 4.868-3.708 6.368-6.295 11.757-8.076 14.04-.586-1.178-2.336-4.493-4.127-5.535 2.043 4.013 1.016 4.242 1.016 4.242s-.859.615-2.514-3.575c-.408 2.033.912 5.535 1.414 6.754-2.891-.187-8.662-1.855-15.911-3.325 0 0-11.868 5.712-18.027 12.852 8.967-4.201 8.506 7.015 8.506 7.015s6.567-9.173 13.983 4.732c3.111-13.196 21.023-5.66 21.023-5.66s6.243-18.324 18.216-11.872c-5.51-14.749 5.74-13.539 5.74-13.539s-8.725-7.119.388-10.997ZM414.357 301.918c-9.458-.167-21.63 4.868-21.63 4.868-3.708 6.368-6.295 11.757-8.076 14.04-.587-1.178-2.336-4.493-4.127-5.535 2.042 4.013 1.016 4.242 1.016 4.242s-.859.615-2.514-3.575c-.409 2.032.911 5.535 1.414 6.754-2.891-.188-8.663-1.855-15.911-3.325 0 0-11.868 5.712-18.027 12.852 8.966-4.201 8.505 7.015 8.505 7.015s6.568-9.173 13.984 4.732c3.111-13.196 21.023-5.66 21.023-5.66s6.243-18.324 18.216-11.872c-5.51-14.749 5.74-13.54 5.74-13.54s-8.726-7.119.387-10.996ZM37.76 384.894c-8.222-.146-18.812 4.232-18.812 4.232-3.226 5.535-5.478 10.225-7.018 12.216-.513-1.032-2.032-3.909-3.593-4.816 1.78 3.492.88 3.69.88 3.69s-.744.532-2.19-3.106c-.355 1.762.797 4.815 1.237 5.868-2.514-.167-7.531-1.605-13.837-2.887 0 0-10.318 4.961-15.68 11.174 7.803-3.649 7.394 6.097 7.394 6.097s5.709-7.974 12.161 4.107c2.703-11.476 18.29-4.92 18.29-4.92s5.425-15.937 15.848-10.329c-4.798-12.821 4.986-11.778 4.986-11.778s-7.584-6.171.335-9.548Z"/><path d="M372.931 339.776c-7.343-11.111-22.929-21.232-22.929-21.232-10.422.761-18.802 2.053-22.898 1.803.922-1.615 3.404-6.295 3.205-9.203-3.079 5.565-4.169 4.554-4.169 4.554s-1.403-.5 2.19-5.764c-2.703 1.147-5.761 5.473-6.788 7.026-2.084-3.513-4.734-11.539-8.778-21.118 0 0-16.141-9.234-29.423-10.694 12.067 7.067-1.456 15.458-1.456 15.458s15.984.323 5.593 20.002c17.943-6.89 23.38 19.908 23.38 19.908s26.459-7.338 28.439 11.705c12.905-18.147 20.446-4.117 20.446-4.117s1.383-15.812 13.188-8.328ZM333.378 275.685c-4.766-9.465-22.719-18.126-22.719-18.126-7.113.354-21.159 2.97-21.159 2.97.88-1.198 3.278-4.659 3.393-6.983-2.953 4.117-3.718 3.221-3.718 3.221s-1.058-.532 2.273-4.357c-2.242.657-5.059 3.794-6.023 4.92-1.32-2.971-2.661-9.558-4.965-17.501 0 0-18.467-8.005-28.837-10.391 8.883 6.702 4.871 13.195 4.871 13.195s16.257 1.626 6.211 16.229c14.833-3.794 12.078 16.114 12.078 16.114s19.21-9.381 19.001 5.858c11.889-13.154 17.576-1.157 17.576-1.157s13.377-11.007 22.018-3.992ZM89.178 232.872c-4.305-8.547-20.53-16.375-20.53-16.375-6.421.323-19.127 2.689-19.127 2.689.796-1.084 2.965-4.21 3.07-6.305-2.672 3.721-3.363 2.908-3.363 2.908s-.953-.48 2.053-3.94c-2.032.594-4.578 3.429-5.447 4.45-1.194-2.678-2.41-8.63-4.494-15.822 0 0-16.696-7.233-26.06-9.391 8.023 6.056 4.41 11.924 4.41 11.924s14.695 1.47 5.614 14.665c13.407-3.429 10.914 14.561 10.914 14.561s17.367-8.474 17.168 5.295c10.747-11.882 15.88-1.042 15.88-1.042s12.109-9.954 19.912-3.617ZM278.971 185.168c-6.819-1.146-18.288 4.899-18.288 4.899-2.546 3.846-6.568 12.195-6.568 12.195-.293-.917-1.194-3.502-2.378-4.451 1.037 3.127.273 3.179.273 3.179s-.681.355-1.425-2.856c-.513 1.428.052 4.097.283 5.035-2.074-.448-6.065-2.283-11.145-4.138 0 0-11.324 6.566-16.561 11.069 6.945-2.064 8.83 2.522 8.83 2.522s7.102-7.859 10.946 2.992c3.698-9.204 13.146-.115 13.146-.115s2.441-13.644 10.391-7.671c-2.367-11.267 6.138-9.621 6.138-9.621s-.649-11.215 6.358-13.039ZM208.309 96.9c-3.625-4.003-13.607-5.837-13.607-5.837-3.436 1.125-9.982 4.304-9.982 4.304.272-.709.974-2.73.712-3.877-.891 2.418-1.393 2.074-1.393 2.074s-.587-.114.523-2.439c-1.016.626-1.969 2.543-2.283 3.22-1.048-1.281-2.598-4.325-4.808-7.92 0 0-10.15-1.45-15.555-1.23 5.269 2.094 4.179 5.816 4.179 5.816s8.202-1.387 5.248 7.129c6.767-3.857 8.118 6.285 8.118 6.285s8.16-7.182 10.119.323c4.053-8.047 8.463-2.929 8.463-2.929s5.081-7.202 10.266-4.92ZM36.24 82.047c-1.697-.542-4.85.573-4.85.573-.796.886-2.136 2.867-2.136 2.867-.042-.25-.178-.938-.44-1.23.146.834-.053.823-.053.823s-.188.063-.251-.782c-.189.344-.136 1.053-.115 1.293-.514-.188-1.467-.813-2.692-1.47 0 0-3.143 1.261-4.64 2.21 1.854-.271 2.157.97 2.157.97s2.106-1.741 2.682 1.167c1.288-2.21 3.362.458 3.362.458s1.131-3.387 2.944-1.574c-.178-2.96 1.927-2.23 1.927-2.23s.24-2.867 2.105-3.075ZM200.223 145.835c-1.843-1.188-5.96-.854-5.96-.854-1.226.802-3.457 2.741-3.457 2.741.032-.302.095-1.167-.136-1.595-.094 1.042-.325.959-.325.959s-.241.021-.052-1.011c-.335.354-.503 1.209-.555 1.501-.545-.396-1.488-1.428-2.734-2.595 0 0-4.138.5-6.233 1.157 2.284.271 2.263 1.844 2.263 1.844s3.069-1.407 2.818 2.241c2.241-2.22 3.854 1.606 3.854 1.606s2.431-3.68 4.002-.939c.733-3.585 3.006-2.042 3.006-2.042s1.236-3.357 3.509-3.013ZM280.313 179.645c-1.498-2.439-6.515-4.378-6.515-4.378-1.906.25-5.625 1.261-5.625 1.261.21-.344.775-1.324.754-1.949-.702 1.178-.932.948-.932.948s-.293-.114.513-1.219c-.586.229-1.278 1.136-1.508 1.459-.419-.771-.932-2.512-1.728-4.607 0 0-5.154-1.751-7.993-2.168 2.535 1.605 1.603 3.44 1.603 3.44s4.41.083 2.032 4.232c3.907-1.345 3.614 4.075 3.614 4.075s4.965-2.95 5.248 1.157c2.912-3.804 4.703-.698 4.703-.698s3.362-3.242 5.834-1.553ZM10.68 216.613c-1.497-2.439-6.515-4.377-6.515-4.377-1.906.25-5.625 1.261-5.625 1.261.21-.344.775-1.324.754-1.949-.701 1.178-.932.948-.932.948s-.293-.114.513-1.219c-.586.229-1.278 1.136-1.508 1.459-.419-.771-.932-2.512-1.728-4.607 0 0-5.154-1.751-7.993-2.168 2.535 1.605 1.603 3.44 1.603 3.44s4.41.083 2.032 4.231c3.907-1.344 3.614 4.076 3.614 4.076s4.965-2.95 5.248 1.157c2.912-3.805 4.703-.699 4.703-.699s3.362-3.252 5.834-1.553ZM111.311 145.082c-6.819-1.146-18.289 4.899-18.289 4.899-2.545 3.846-6.567 12.195-6.567 12.195-.293-.917-1.194-3.502-2.378-4.451 1.037 3.127.272 3.179.272 3.179s-.68.355-1.424-2.856c-.513 1.428.052 4.097.283 5.035-2.074-.448-6.065-2.283-11.145-4.138 0 0-11.324 6.566-16.561 11.069 6.945-2.064 8.83 2.522 8.83 2.522s7.102-7.858 10.946 2.992c3.698-9.204 13.146-.115 13.146-.115s2.44-13.644 10.391-7.671c-2.367-11.267 6.138-9.621 6.138-9.621s-.649-11.225 6.358-13.039ZM174.223 363.331c-12.098-5.659-36.588-.333-36.588-.333-6.746 5.847-18.572 19.293-18.572 19.293-.063-1.855-.398-7.129-2.105-9.516.293 6.347-1.163 6.056-1.163 6.056s-1.456.302-1.162-6.056c-1.697 2.387-2.033 7.661-2.106 9.516-3.624-1.907-10.087-7.38-18.572-13.446 0 0-24.49 6.369-36.588 12.028 14.005-.25 15.115 9.256 15.115 9.256s17.325-10.954 18.802 11.215c11.68-15.207 24.511 6.567 24.511 6.567s11.648-24.119 23.338-8.912c1.477-22.18 16.445-14.728 16.445-14.728s4.641-21.19 18.645-20.94ZM340.09 353.692c-9.459-.167-21.631 4.867-21.631 4.867-3.708 6.369-6.295 11.757-8.076 14.04-.586-1.178-2.336-4.492-4.127-5.535 2.043 4.013 1.016 4.243 1.016 4.243s-.859.614-2.514-3.576c-.408 2.033.912 5.535 1.414 6.755-2.891-.188-8.662-1.856-15.911-3.325 0 0-11.867 5.711-18.027 12.851 8.967-4.2 8.506 7.015 8.506 7.015s6.568-9.172 13.984 4.732c3.111-13.196 21.022-5.66 21.022-5.66s6.243-18.323 18.216-11.872c-5.51-14.748 5.74-13.539 5.74-13.539s-8.725-7.119.388-10.996Z"/><path d="M304.018 381.871c-9.197-8.87-25.904-15.113-25.904-15.113-9.585 2.876-17.158 5.826-21.044 6.441.524-1.709 1.864-6.587 1.068-9.277-1.717 5.848-2.943 5.129-2.943 5.129s-1.414-.178.838-5.848c-2.284 1.637-4.242 6.317-4.881 7.974-2.682-2.856-6.84-9.808-12.633-17.938 0 0-17.032-5.285-29.769-3.909 12.769 4.107 1.885 14.77 1.885 14.77s15.021-3.013 9.417 17.552c15.346-10.173 26.04 13.769 26.04 13.769s23.223-12.362 29.057 5.045c8.275-19.648 18.268-8.099 18.268-8.099s-2.021-15.051 10.601-10.496ZM411.548 376.432c-7.342-11.111-22.929-21.232-22.929-21.232-10.422.761-18.802 2.054-22.898 1.803.922-1.615 3.405-6.295 3.206-9.203-3.08 5.566-4.169 4.555-4.169 4.555s-1.404-.501 2.189-5.764c-2.703 1.146-5.761 5.472-6.788 7.025-2.084-3.513-4.734-11.538-8.778-21.117 0 0-16.141-9.235-29.423-10.694 12.067 7.067-1.456 15.457-1.456 15.457s15.984.323 5.593 20.002c17.944-6.89 23.38 19.908 23.38 19.908s26.459-7.338 28.439 11.705c12.905-18.146 20.447-4.117 20.447-4.117s1.382-15.812 13.187-8.328ZM179.472 166.352c-4.158-.042-9.5 2.22-9.5 2.22-1.614 2.814-2.724 5.201-3.499 6.202-.262-.521-1.047-1.97-1.833-2.418.911 1.761.461 1.866.461 1.866s-.377.271-1.121-1.564c-.168.896.419 2.429.649 2.971-1.277-.073-3.823-.782-7.007-1.407 0 0-5.196 2.553-7.888 5.722 3.928-1.876 3.771 3.054 3.771 3.054s2.86-4.055 6.17 2.032c1.32-5.816 9.228-2.564 9.228-2.564s2.682-8.088 7.971-5.295c-2.482-6.472 2.472-5.983 2.472-5.983s-3.875-3.095.126-4.836ZM204.047 223.825c-6.327-6.097-17.807-10.392-17.807-10.392-6.589 1.981-11.795 4.003-14.466 4.43.356-1.178 1.288-4.534.733-6.379-1.183 4.024-2.021 3.523-2.021 3.523s-.975-.125.576-4.023c-1.572 1.126-2.912 4.336-3.352 5.482-1.844-1.959-4.703-6.743-8.684-12.33 0 0-11.711-3.638-20.467-2.689 8.777 2.824 1.288 10.152 1.288 10.152s10.328-2.074 6.473 12.07c10.548-6.994 17.902 9.464 17.902 9.464s15.963-8.495 19.975 3.471c5.688-13.508 12.559-5.566 12.559-5.566s-1.382-10.35 7.291-7.213ZM80.989 442.103c-6.003-9.079-18.74-17.354-18.74-17.354-8.516.625-15.366 1.678-18.708 1.469.755-1.324 2.787-5.138 2.619-7.525-2.514 4.555-3.404 3.721-3.404 3.721s-1.142-.407 1.79-4.711c-2.21.938-4.702 4.471-5.55 5.732-1.698-2.866-3.866-9.422-7.165-17.26 0 0-13.188-7.547-24.04-8.745 9.857 5.774-1.184 12.632-1.184 12.632s13.062.261 4.567 16.344c14.665-5.629 19.106 16.26 19.106 16.26s21.62-6.004 23.233 9.558c10.548-14.822 16.707-3.367 16.707-3.367s1.121-12.872 10.769-6.754ZM56.33 246.133c-10.348-.834-26.71 9.683-26.71 9.683-3.3 6.087-8.233 19.074-8.233 19.074-.555-1.334-2.242-5.076-4.137-6.358 1.958 4.545.817 4.722.817 4.722s-.975.615-2.504-4.086c-.587 2.199.618 6.129 1.079 7.494-3.153-.406-9.364-2.626-17.2-4.742 0 0-16.078 11.277-23.327 18.678 10.119-3.982 13.534 2.637 13.534 2.637s9.605-12.675 16.749 3.064c4.336-14.238 19.63-1.866 19.63-1.866s1.874-20.71 14.538-12.809c-5.007-16.542 7.93-15.176 7.93-15.176s-2.42-16.688 7.835-20.315ZM157.214 310.926c-10.318-.177-23.589 5.316-23.589 5.316-4.044 6.942-6.861 12.831-8.81 15.311-.639-1.292-2.545-4.899-4.504-6.045 2.231 4.378 1.111 4.628 1.111 4.628s-.933.667-2.745-3.898c-.44 2.209.995 6.035 1.54 7.369-3.153-.209-9.448-2.022-17.357-3.628 0 0-12.936 6.223-19.66 14.019 9.783-4.575 9.28 7.651 9.28 7.651s7.164-9.996 15.251 5.159c3.394-14.383 22.929-6.17 22.929-6.17s6.809-19.981 19.871-12.956c-6.013-16.083 6.253-14.769 6.253-14.769s-9.5-7.755.43-11.987ZM252.376 301.816c-8.548-8.255-24.082-14.051-24.082-14.051-8.914 2.679-15.953 5.42-19.567 5.983.482-1.584 1.739-6.128.996-8.63-1.593 5.441-2.734 4.774-2.734 4.774s-1.32-.167.785-5.441c-2.126 1.522-3.938 5.868-4.535 7.421-2.493-2.658-6.359-9.12-11.743-16.677 0 0-15.837-4.919-27.674-3.627 11.868 3.825 1.75 13.727 1.75 13.727s13.962-2.804 8.756 16.323c14.267-9.454 24.218 12.799 24.218 12.799s21.588-11.486 27.014 4.691c7.689-18.272 16.98-7.526 16.98-7.526s-1.896-14.008 9.836-9.766Z"/><path d="M146.833 315.932c-6.83-10.329-21.327-19.741-21.327-19.741-9.689.709-17.482 1.918-21.285 1.678.859-1.511 3.164-5.847 2.986-8.557-2.87 5.18-3.876 4.242-3.876 4.242s-1.299-.469 2.032-5.358c-2.514 1.064-5.352 5.087-6.316 6.525-1.938-3.262-4.4-10.725-8.16-19.637 0 0-15.01-8.588-27.36-9.943 11.219 6.577-1.351 14.373-1.351 14.373s14.863.302 5.195 18.595c16.687-6.41 21.735 18.501 21.735 18.501s24.605-6.827 26.439 10.881c11.993-16.864 19.011-3.825 19.011-3.825s1.299-14.696 12.277-7.734ZM146.425 440.006c-6.379-9.652-19.923-18.449-19.923-18.449-9.05.667-16.341 1.793-19.892 1.563.796-1.407 2.954-5.461 2.787-8.005-2.682 4.837-3.625 3.961-3.625 3.961s-1.215-.438 1.907-5.013c-2.347 1-5.007 4.753-5.898 6.097-1.812-3.054-4.106-10.016-7.625-18.355 0 0-14.026-8.026-25.569-9.297 10.485 6.139-1.257 13.435-1.257 13.435s13.89.282 4.86 17.375c15.597-5.982 20.31 17.292 20.31 17.292s22.993-6.379 24.711 10.163c11.208-15.76 17.765-3.575 17.765-3.575s1.194-13.696 11.449-7.192ZM204.046 245.022c-11.239-5.264-34.011-.302-34.011-.302-6.264 5.441-17.273 17.938-17.273 17.938-.063-1.73-.377-6.629-1.959-8.849.273 5.909-1.079 5.628-1.079 5.628s-1.351.281-1.079-5.628c-1.581 2.22-1.896 7.119-1.958 8.849-3.363-1.783-9.386-6.859-17.273-12.497 0 0-22.772 5.92-34.012 11.183 13.02-.229 14.047 8.61 14.047 8.61s16.11-10.194 17.482 10.433c10.863-14.144 22.783 6.108 22.783 6.108s10.831-22.42 21.693-8.276c1.372-20.616 15.293-13.695 15.293-13.695s4.326-19.731 17.346-19.502Z"/><path d="M148.728 397.282c-7.657-3.585-23.159-.208-23.159-.208-4.263 3.7-11.763 12.216-11.763 12.216-.042-1.178-.252-4.514-1.331-6.025.189 4.023-.733 3.836-.733 3.836s-.922.187-.733-3.836c-1.079 1.511-1.289 4.847-1.33 6.025-2.294-1.209-6.39-4.67-11.764-8.516 0 0-15.502 4.034-23.16 7.619 8.863-.156 9.564 5.858 9.564 5.858s10.967-6.942 11.9 7.098c7.395-9.631 15.513 4.159 15.513 4.159s7.374-15.27 14.769-5.639c.932-14.04 10.412-9.329 10.412-9.329s2.954-13.414 11.815-13.258Z"/><path d="M89.388 399.269c-8.799-4.117-26.637-.24-26.637-.24-4.913 4.253-13.523 14.051-13.523 14.051-.052-1.355-.293-5.191-1.53-6.932.22 4.628-.848 4.409-.848 4.409s-1.058.219-.848-4.409c-1.236 1.741-1.488 5.577-1.53 6.932-2.639-1.387-7.342-5.368-13.522-9.788 0 0-17.828 4.639-26.637 8.756 10.191-.177 10.998 6.744 10.998 6.744s12.611-7.974 13.68 8.171c8.505-11.069 17.838 4.784 17.838 4.784s8.485-17.552 16.99-6.483c1.069-16.145 11.973-10.725 11.973-10.725s3.404-15.447 13.596-15.27Z"/><path d="M116.623 390.786c-8.841-6.493-29.445-6.118-29.445-6.118-6.379 3.638-18.09 12.591-18.09 12.591.252-1.511.828-5.816-.157-8.015-.785 5.17-1.917 4.701-1.917 4.701s-1.225.01.042-5.066c-1.76 1.647-2.88 5.847-3.236 7.338-2.609-2.116-6.945-7.557-12.8-13.811 0 0-20.772 1.22-31.446 3.846 11.334 2.043 10.695 9.881 10.695 9.881s15.743-6.066 13.345 12.049c11.878-10.391 18.697 9.214 18.697 9.214s13.292-17.583 20.248-3.45c4.776-17.646 15.639-9.245 15.639-9.245s7.175-16.354 18.425-13.915ZM447.856 380.464c-12.098-5.659-36.588-.333-36.588-.333-6.746 5.847-18.572 19.293-18.572 19.293-.063-1.855-.398-7.13-2.105-9.516.293 6.347-1.163 6.055-1.163 6.055s-1.456.303-1.163-6.055c-1.697 2.386-2.032 7.661-2.105 9.516-3.624-1.908-10.087-7.38-18.572-13.446 0 0-24.49 6.369-36.588 12.028 14.005-.25 15.115 9.256 15.115 9.256s17.325-10.955 18.802 11.215c11.679-15.207 24.511 6.567 24.511 6.567s11.648-24.119 23.338-8.912c1.477-22.18 16.445-14.728 16.445-14.728s4.651-21.19 18.645-20.94ZM112.034 240.201c-3.76-1.761-11.365-.104-11.365-.104-2.095 1.814-5.771 5.994-5.771 5.994-.021-.574-.126-2.221-.65-2.961.095 1.97-.356 1.877-.356 1.877s-.45.093-.356-1.877c-.524.74-.628 2.377-.65 2.961-1.12-.595-3.131-2.294-5.77-4.18 0 0-7.606 1.98-11.366 3.731 4.347-.073 4.693 2.877 4.693 2.877s5.384-3.408 5.834 3.481c3.624-4.721 7.615 2.043 7.615 2.043s3.614-7.494 7.249-2.762c.461-6.889 5.111-4.576 5.111-4.576s1.435-6.576 5.782-6.504ZM777.484 183.326c-3.761-1.761-11.365-.104-11.365-.104-2.095 1.814-5.772 5.994-5.772 5.994-.021-.574-.126-2.221-.649-2.961.094 1.97-.357 1.877-.357 1.877s-.45.093-.356-1.877c-.523.74-.628 2.377-.649 2.961-1.121-.595-3.132-2.294-5.772-4.18 0 0-7.604 1.98-11.365 3.731 4.347-.073 4.693 2.877 4.693 2.877s5.384-3.408 5.834 3.481c3.625-4.721 7.615 2.043 7.615 2.043s3.614-7.494 7.249-2.762c.461-6.889 5.112-4.576 5.112-4.576s1.435-6.576 5.782-6.504ZM124.271 128.915c-2.252-2.648-8.642-4.044-8.642-4.044-2.241.656-6.515 2.564-6.515 2.564.189-.449.681-1.741.545-2.481-.629 1.543-.933 1.313-.933 1.313s-.377-.083.388-1.563c-.66.385-1.32 1.594-1.54 2.032-.649-.844-1.592-2.845-2.933-5.201 0 0-6.505-1.136-9.993-1.105 3.352 1.46 2.577 3.836 2.577 3.836s5.311-.719 3.237 4.701c4.431-2.345 5.101 4.211 5.101 4.211s5.405-4.461 6.505.417c2.776-5.097 5.51-1.71 5.51-1.71s3.404-4.544 6.693-2.97ZM667.878 110.194c-2.975-.959-8.495 1.001-8.495 1.001-1.393 1.553-3.729 5.023-3.729 5.023-.074-.427-.304-1.646-.775-2.147.262 1.46-.095 1.439-.095 1.439s-.324.114-.45-1.366c-.325.605-.241 1.835-.209 2.272-.901-.333-2.556-1.417-4.704-2.574 0 0-5.488 2.199-8.128 3.867 3.237-.469 3.781 1.699 3.781 1.699s3.687-3.054 4.693 2.053c2.263-3.867 5.876.803 5.876.803s1.991-5.931 5.143-2.752c-.314-5.191 3.373-3.898 3.373-3.898s.461-5.066 3.719-5.42ZM761.007 222.111c-6.295-4.67-21.033-4.472-21.033-4.472-4.577 2.575-12.978 8.943-12.978 8.943.178-1.084.608-4.159-.084-5.733-.576 3.69-1.382 3.357-1.382 3.357s-.87 0 .052-3.628c-1.257 1.178-2.074 4.17-2.336 5.233-1.864-1.522-4.944-5.431-9.102-9.913 0 0-14.864.803-22.49 2.648 8.097 1.501 7.615 7.098 7.615 7.098s11.271-4.284 9.501 8.662c8.526-7.39 13.334 6.649 13.334 6.649s9.564-12.528 14.487-2.397c3.467-12.601 11.218-6.556 11.218-6.556s5.164-11.674 13.198-9.891ZM434.227 158.746c-6.819-1.146-18.289 4.899-18.289 4.899-2.545 3.846-6.567 12.195-6.567 12.195-.294-.917-1.194-3.502-2.378-4.451 1.037 3.127.272 3.179.272 3.179s-.68.355-1.424-2.855c-.513 1.427.052 4.096.283 5.034-2.074-.448-6.065-2.283-11.145-4.138 0 0-11.324 6.566-16.561 11.069 6.945-2.064 8.83 2.523 8.83 2.523s7.102-7.859 10.946 2.991c3.698-9.204 13.146-.115 13.146-.115s2.441-13.643 10.391-7.671c-2.367-11.267 6.138-9.621 6.138-9.621s-.66-11.225 6.358-13.039ZM447.175 142.587c-2.252-2.648-8.641-4.045-8.641-4.045-2.242.657-6.516 2.564-6.516 2.564.189-.448.681-1.74.545-2.48-.628 1.542-.932 1.313-.932 1.313s-.377-.083.387-1.563c-.66.385-1.319 1.594-1.539 2.032-.65-.844-1.593-2.845-2.933-5.201 0 0-6.505-1.136-9.993-1.105 3.352 1.459 2.577 3.836 2.577 3.836s5.31-.719 3.236 4.701c4.431-2.346 5.101 4.211 5.101 4.211s5.405-4.461 6.516.417c2.775-5.108 5.509-1.71 5.509-1.71s3.394-4.555 6.683-2.97Z"/><path d="M390.265 405.958c-8.841-6.493-29.444-6.118-29.444-6.118-6.379 3.638-18.09 12.591-18.09 12.591.251-1.511.827-5.816-.157-8.015-.786 5.169-1.917 4.7-1.917 4.7s-1.226.011.042-5.065c-1.76 1.647-2.881 5.847-3.237 7.338-2.608-2.116-6.945-7.557-12.8-13.811 0 0-20.771 1.22-31.445 3.846 11.333 2.043 10.694 9.881 10.694 9.881s15.744-6.066 13.345 12.049c11.879-10.391 18.698 9.214 18.698 9.214s13.292-17.583 20.247-3.45c4.777-17.646 15.639-9.245 15.639-9.245s7.175-16.354 18.425-13.915ZM274.333 399.535c-12.099-5.66-36.589-.334-36.589-.334-6.745 5.847-18.571 19.293-18.571 19.293-.063-1.855-.398-7.129-2.106-9.516.294 6.358-1.162 6.056-1.162 6.056s-1.456.302-1.163-6.056c-1.697 2.387-2.032 7.661-2.106 9.516-3.624-1.907-10.087-7.379-18.571-13.446 0 0-24.49 6.369-36.588 12.029 14.004-.251 15.115 9.255 15.115 9.255s17.325-10.954 18.802 11.216c11.679-15.208 24.511 6.566 24.511 6.566s11.647-24.119 23.337-8.912c1.477-22.18 16.446-14.727 16.446-14.727s4.64-21.191 18.645-20.94ZM187.539 344.504c-9.459-.167-21.63 4.868-21.63 4.868-3.708 6.368-6.296 11.757-8.076 14.04-.587-1.178-2.336-4.493-4.127-5.535 2.042 4.013 1.016 4.242 1.016 4.242s-.859.615-2.514-3.575c-.409 2.032.911 5.535 1.414 6.754-2.891-.188-8.663-1.855-15.911-3.325 0 0-11.868 5.712-18.027 12.852 8.966-4.201 8.505 7.014 8.505 7.014s6.568-9.172 13.984 4.733c3.111-13.196 21.023-5.66 21.023-5.66s6.243-18.324 18.215-11.872c-5.51-14.749 5.74-13.54 5.74-13.54s-8.715-7.119.388-10.996Z"/><path d="M245.965 356.996c-12.098-5.66-36.588-.334-36.588-.334-6.746 5.847-18.571 19.293-18.571 19.293-.063-1.855-.399-7.129-2.106-9.516.293 6.358-1.163 6.056-1.163 6.056s-1.456.302-1.162-6.056c-1.697 2.387-2.032 7.661-2.106 9.516-3.624-1.907-10.087-7.379-18.571-13.446 0 0-24.49 6.369-36.589 12.029 14.005-.251 15.115 9.255 15.115 9.255s17.326-10.954 18.803 11.215c11.679-15.207 24.51 6.567 24.51 6.567s11.648-24.119 23.338-8.912c1.477-22.18 16.445-14.728 16.445-14.728s4.641-21.19 18.645-20.939Z"/><path d="M286.24 391.2c-8.841-6.493-29.445-6.118-29.445-6.118-6.379 3.638-18.09 12.591-18.09 12.591.252-1.511.828-5.816-.157-8.015-.785 5.17-1.917 4.701-1.917 4.701s-1.225.01.042-5.066c-1.759 1.647-2.88 5.847-3.236 7.338-2.609-2.116-6.945-7.557-12.8-13.811 0 0-20.772 1.22-31.446 3.846 11.334 2.043 10.695 9.881 10.695 9.881s15.744-6.066 13.345 12.05c11.878-10.392 18.697 9.214 18.697 9.214s13.293-17.584 20.248-3.45c4.776-17.647 15.639-9.246 15.639-9.246s7.175-16.354 18.425-13.915ZM491.156 338.863c-9.459-.166-21.63 4.868-21.63 4.868-3.708 6.368-6.296 11.757-8.076 14.04-.587-1.178-2.336-4.492-4.127-5.535 2.042 4.013 1.016 4.242 1.016 4.242s-.859.615-2.514-3.575c-.409 2.033.911 5.535 1.414 6.754-2.891-.187-8.663-1.855-15.911-3.325 0 0-11.868 5.712-18.027 12.852 8.966-4.2 8.505 7.015 8.505 7.015s6.568-9.172 13.984 4.732c3.111-13.196 21.023-5.66 21.023-5.66s6.243-18.324 18.215-11.872c-5.509-14.748 5.741-13.539 5.741-13.539s-8.726-7.119.387-10.997ZM601.174 325.637c-9.459-.167-21.631 4.867-21.631 4.867-3.708 6.369-6.295 11.758-8.076 14.04-.586-1.178-2.336-4.492-4.127-5.534 2.043 4.013 1.016 4.242 1.016 4.242s-.859.615-2.514-3.575c-.408 2.032.912 5.534 1.415 6.754-2.892-.188-8.663-1.855-15.912-3.325 0 0-11.868 5.712-18.027 12.852 8.967-4.201 8.506 7.014 8.506 7.014s6.567-9.172 13.984 4.732c3.111-13.195 21.022-5.659 21.022-5.659s6.243-18.324 18.216-11.872c-5.51-14.749 5.74-13.54 5.74-13.54s-8.715-7.119.388-10.996ZM724.231 358.691c-9.197-8.87-25.904-15.113-25.904-15.113-9.585 2.877-17.158 5.826-21.044 6.441.524-1.709 1.864-6.587 1.068-9.276-1.718 5.847-2.943 5.128-2.943 5.128s-1.414-.177.838-5.847c-2.284 1.636-4.242 6.316-4.881 7.973-2.682-2.856-6.84-9.808-12.633-17.938 0 0-17.032-5.284-29.769-3.909 12.769 4.107 1.885 14.77 1.885 14.77s15.021-3.012 9.417 17.552c15.346-10.173 26.04 13.769 26.04 13.769s23.223-12.362 29.057 5.045c8.275-19.647 18.268-8.099 18.268-8.099s-2.011-15.061 10.601-10.496Z"/><path d="M559.755 363.51c-7.342-11.111-22.929-21.232-22.929-21.232-10.422.761-18.802 2.054-22.898 1.803.922-1.615 3.405-6.295 3.206-9.203-3.08 5.566-4.169 4.555-4.169 4.555s-1.404-.501 2.189-5.764c-2.703 1.146-5.761 5.472-6.788 7.025-2.084-3.513-4.734-11.538-8.778-21.117 0 0-16.141-9.235-29.423-10.694 12.067 7.067-1.456 15.457-1.456 15.457s15.984.323 5.593 20.002c17.944-6.89 23.38 19.908 23.38 19.908s26.459-7.338 28.439 11.705c12.905-18.146 20.447-4.117 20.447-4.117s1.382-15.822 13.187-8.328ZM676.602 309.558c-12.098-5.66-36.588-.333-36.588-.333-6.746 5.847-18.572 19.293-18.572 19.293-.063-1.856-.398-7.13-2.105-9.517.293 6.358-1.163 6.056-1.163 6.056s-1.456.302-1.163-6.056c-1.696 2.387-2.032 7.661-2.105 9.517-3.624-1.908-10.087-7.38-18.572-13.446 0 0-24.49 6.368-36.588 12.028 14.005-.25 15.115 9.256 15.115 9.256s17.325-10.955 18.802 11.215c11.68-15.207 24.511 6.566 24.511 6.566s11.648-24.118 23.338-8.911c1.477-22.181 16.445-14.728 16.445-14.728s4.64-21.19 18.645-20.94ZM718.994 314.082c-9.459-.167-21.63 4.868-21.63 4.868-3.708 6.368-6.296 11.757-8.076 14.04-.587-1.178-2.336-4.493-4.127-5.535 2.042 4.013 1.016 4.242 1.016 4.242s-.859.615-2.514-3.575c-.409 2.033.911 5.535 1.414 6.754-2.891-.187-8.663-1.855-15.911-3.325 0 0-11.868 5.712-18.027 12.852 8.966-4.201 8.505 7.015 8.505 7.015s6.568-9.173 13.984 4.732c3.111-13.196 21.023-5.66 21.023-5.66s6.243-18.324 18.215-11.872c-5.509-14.749 5.74-13.539 5.74-13.539s-8.725-7.119.388-10.997ZM433.558 286.608c-9.27-1.855-22.154.917-22.154.917-4.798 5.598-8.317 10.444-10.485 12.362-.356-1.272-1.488-4.836-3.059-6.191 1.288 4.315.231 4.357.231 4.357s-.954.448-1.823-3.961c-.765 1.928-.094 5.607.168 6.9-2.818-.709-8.192-3.367-15.053-6.118 0 0-12.706 3.491-20.059 9.412 9.585-2.523 7.102 8.421 7.102 8.421s8.118-7.838 12.894 7.151c5.447-12.414 21.704-1.803 21.704-1.803s9.459-16.907 20.07-8.422c-2.755-15.489 8.097-12.289 8.097-12.289s-7.301-8.547 2.367-10.736ZM299.103 397.527c-8.223-.146-18.813 4.232-18.813 4.232-3.226 5.534-5.478 10.225-7.018 12.216-.513-1.032-2.032-3.909-3.593-4.816 1.781 3.492.88 3.69.88 3.69s-.744.531-2.189-3.106c-.356 1.761.796 4.815 1.236 5.868-2.514-.167-7.532-1.605-13.837-2.887 0 0-10.318 4.961-15.681 11.173 7.804-3.648 7.395 6.098 7.395 6.098s5.709-7.974 12.161 4.107c2.703-11.476 18.289-4.92 18.289-4.92s5.426-15.937 15.848-10.329c-4.797-12.821 4.986-11.778 4.986-11.778s-7.594-6.171.336-9.548Z"/><path d="M790.453 339.776c-7.343-11.111-22.93-21.232-22.93-21.232-10.422.761-18.802 2.053-22.897 1.803.921-1.615 3.404-6.295 3.205-9.203-3.08 5.565-4.169 4.554-4.169 4.554s-1.404-.5 2.189-5.764c-2.702 1.147-5.761 5.473-6.787 7.026-2.085-3.513-4.735-11.539-8.778-21.118 0 0-16.142-9.234-29.424-10.694 12.067 7.067-1.456 15.458-1.456 15.458s15.985.323 5.594 20.002c17.943-6.89 23.379 19.908 23.379 19.908s26.46-7.338 28.439 11.705c12.905-18.147 20.447-4.117 20.447-4.117s1.383-15.812 13.188-8.328ZM750.9 275.685c-4.766-9.465-22.72-18.126-22.72-18.126-7.112.354-21.159 2.97-21.159 2.97.88-1.198 3.279-4.659 3.394-6.983-2.954 4.117-3.719 3.221-3.719 3.221s-1.057-.532 2.273-4.357c-2.241.657-5.059 3.794-6.023 4.92-1.319-2.971-2.66-9.558-4.965-17.501 0 0-18.466-8.005-28.836-10.391 8.882 6.702 4.87 13.195 4.87 13.195s16.257 1.626 6.212 16.229c14.832-3.794 12.077 16.114 12.077 16.114s19.211-9.381 19.001 5.858c11.889-13.154 17.577-1.157 17.577-1.157s13.387-11.007 22.018-3.992ZM506.702 232.872c-4.305-8.547-20.531-16.375-20.531-16.375-6.421.323-19.126 2.689-19.126 2.689.796-1.084 2.964-4.21 3.069-6.305-2.671 3.721-3.363 2.908-3.363 2.908s-.953-.48 2.053-3.94c-2.032.594-4.577 3.429-5.446 4.45-1.195-2.678-2.41-8.63-4.494-15.822 0 0-16.697-7.233-26.061-9.391 8.023 6.056 4.41 11.924 4.41 11.924s14.696 1.47 5.614 14.665c13.408-3.429 10.915 14.561 10.915 14.561s17.367-8.474 17.168 5.295c10.747-11.882 15.879-1.042 15.879-1.042s12.109-9.954 19.913-3.617ZM695.552 185.168c-6.819-1.146-18.289 4.899-18.289 4.899-2.546 3.846-6.568 12.195-6.568 12.195-.293-.917-1.194-3.502-2.378-4.451 1.037 3.127.273 3.179.273 3.179s-.681.355-1.425-2.856c-.513 1.428.052 4.097.283 5.035-2.074-.448-6.065-2.283-11.145-4.138 0 0-11.323 6.566-16.561 11.069 6.945-2.064 8.83 2.522 8.83 2.522s7.102-7.859 10.946 2.992c3.698-9.204 13.146-.115 13.146-.115s2.441-13.644 10.391-7.671c-2.367-11.267 6.138-9.621 6.138-9.621s-.66-11.215 6.359-13.039ZM35.1 244.829c-6.296-4.669-21.034-4.471-21.034-4.471-4.577 2.574-12.978 8.943-12.978 8.943.178-1.084.607-4.159-.084-5.733-.576 3.69-1.383 3.356-1.383 3.356s-.869 0 .053-3.627c-1.257 1.178-2.074 4.169-2.336 5.233-1.865-1.522-4.944-5.431-9.103-9.913 0 0-14.863.803-22.489 2.648 8.097 1.501 7.615 7.098 7.615 7.098s11.271-4.284 9.5 8.661c8.527-7.39 13.335 6.65 13.335 6.65s9.564-12.528 14.487-2.397c3.467-12.602 11.218-6.556 11.218-6.556s5.164-11.664 13.198-9.892ZM625.832 96.9c-3.624-4.003-13.607-5.837-13.607-5.837-3.435 1.125-9.982 4.304-9.982 4.304.272-.709.974-2.73.712-3.877-.89 2.418-1.393 2.074-1.393 2.074s-.586-.114.524-2.439c-1.016.626-1.969 2.543-2.284 3.22-1.047-1.281-2.597-4.325-4.808-7.92 0 0-10.15-1.45-15.555-1.23 5.269 2.094 4.18 5.816 4.18 5.816s8.202-1.387 5.248 7.129c6.766-3.857 8.118 6.285 8.118 6.285s8.159-7.182 10.118.323c4.054-8.047 8.464-2.929 8.464-2.929s5.08-7.202 10.265-4.92ZM641.429 71.57c-1.77.22-4.159 2.554-4.159 2.554-.345 1.136-.722 3.502-.722 3.502-.136-.208-.555-.782-.922-.928.492.699.304.772.304.772s-.147.135-.566-.605c-.021.386.314 1.011.44 1.23-.545.042-1.665-.114-3.059-.208 0 0-2.315 2.45-3.278 3.95 1.561-1.021 2.367-.02 2.367-.02s1.173-2.471 2.933-.063c.23-2.544 3.237-.99 3.237-.99s-.409-3.555 2-2.658c-1.414-2.617.807-2.835.807-2.835s-.985-2.731.618-3.7ZM408.23 99.61c-1.771.218-4.159 2.553-4.159 2.553-.345 1.136-.723 3.502-.723 3.502-.136-.208-.555-.782-.921-.927.492.698.303.771.303.771s-.146.135-.565-.605c-.021.386.314 1.011.44 1.23-.545.042-1.666-.114-3.059-.208 0 0-2.315 2.449-3.278 3.95 1.56-1.021 2.367-.021 2.367-.021s1.173-2.47 2.933-.062c.23-2.544 3.236-.99 3.236-.99s-.408-3.555 2.001-2.658c-1.414-2.617.807-2.835.807-2.835s-.985-2.742.618-3.7ZM239.597 94.945c-1.77.22-4.159 2.554-4.159 2.554-.345 1.136-.722 3.502-.722 3.502-.136-.208-.555-.782-.922-.928.492.699.304.772.304.772s-.147.135-.566-.605c-.021.386.314 1.011.44 1.23-.545.042-1.666-.115-3.059-.208 0 0-2.315 2.46-3.278 3.95 1.56-1.021 2.367-.021 2.367-.021s1.173-2.47 2.933-.062c.23-2.544 3.237-.991 3.237-.991s-.409-3.554 2-2.657c-1.414-2.617.807-2.835.807-2.835s-.985-2.742.618-3.7ZM617.754 145.835c-1.843-1.188-5.96-.854-5.96-.854-1.225.802-3.456 2.741-3.456 2.741.031-.302.094-1.167-.137-1.595-.094 1.042-.324.959-.324.959s-.241.021-.053-1.011c-.335.354-.503 1.209-.555 1.501-.545-.396-1.487-1.428-2.734-2.595 0 0-4.137.5-6.232 1.157 2.283.271 2.262 1.844 2.262 1.844s3.069-1.407 2.818 2.241c2.242-2.22 3.855 1.606 3.855 1.606s2.43-3.68 4.001-.939c.733-3.585 3.006-2.042 3.006-2.042s1.226-3.357 3.509-3.013ZM315.917 76.249c-1.341-1.73-5.331-2.783-5.331-2.783-1.425.354-4.18 1.428-4.18 1.428.136-.282.482-1.074.409-1.553-.44.948-.629.802-.629.802s-.241-.062.294-.97c-.43.22-.88.97-1.027 1.241-.388-.552-.922-1.834-1.697-3.356 0 0-4.064-.897-6.264-.98 2.064 1.011 1.509 2.491 1.509 2.491s3.362-.302 1.906 3.054c2.86-1.355 3.09 2.794 3.09 2.794s3.53-2.658 4.085.448c1.896-3.138 3.52-.928 3.52-.928s2.283-2.772 4.315-1.688ZM532.419 151.109c-6.672 1.824-14.518 12.112-14.518 12.112-.681 4.555-.785 13.811-.785 13.811-.65-.709-2.567-2.679-4.044-3.044 2.263 2.397 1.593 2.773 1.593 2.773s-.472.604-2.504-1.991c.136 1.511 1.791 3.7 2.388 4.45-2.074.459-6.462.469-11.857.928 0 0-7.489 10.704-10.338 16.979 5.425-4.784 9.081-1.417 9.081-1.417s3.111-10.111 11.187-1.877c-.545-9.901 11.868-5.618 11.868-5.618s-3.561-13.393 6.18-11.319c-6.913-9.224 1.498-11.299 1.498-11.299s-5.353-9.901.251-14.488ZM591.747 363.331c-12.099-5.659-36.589-.333-36.589-.333-6.745 5.847-18.571 19.293-18.571 19.293-.063-1.855-.398-7.129-2.106-9.516.294 6.347-1.162 6.056-1.162 6.056s-1.456.302-1.163-6.056c-1.697 2.387-2.032 7.661-2.105 9.516-3.625-1.907-10.088-7.38-18.572-13.446 0 0-24.49 6.369-36.588 12.028 14.004-.25 15.115 9.256 15.115 9.256s17.325-10.954 18.802 11.215c11.679-15.207 24.511 6.567 24.511 6.567s11.648-24.119 23.337-8.912c1.477-22.18 16.446-14.728 16.446-14.728s4.65-21.19 18.645-20.94ZM475.614 320.12c-10.213-2.283-28.041 5.93-28.041 5.93-4.159 5.618-10.915 17.897-10.915 17.897-.367-1.407-1.519-5.389-3.237-6.921 1.31 4.805.147 4.826.147 4.826s-1.068.479-1.917-4.441c-.89 2.116-.251 6.202.011 7.64-3.101-.854-8.977-3.939-16.498-7.15 0 0-17.65 9.006-25.935 15.385 10.663-2.554 13.135 4.534 13.135 4.534s11.386-11.309 16.299 5.409c6.347-13.602 19.87.886 19.87.886s4.797-20.419 16.33-10.756c-2.65-17.219 10.066-14.051 10.066-14.051s-.073-17.01 10.685-19.188ZM757.615 353.692c-9.459-.167-21.63 4.867-21.63 4.867-3.708 6.369-6.296 11.757-8.076 14.04-.587-1.178-2.336-4.492-4.127-5.535 2.042 4.013 1.016 4.243 1.016 4.243s-.859.614-2.514-3.576c-.409 2.033.911 5.535 1.414 6.755-2.891-.188-8.663-1.856-15.911-3.325 0 0-11.868 5.711-18.027 12.851 8.966-4.2 8.505 7.015 8.505 7.015s6.568-9.172 13.984 4.732c3.111-13.196 21.023-5.66 21.023-5.66s6.243-18.323 18.215-11.872c-5.509-14.748 5.741-13.539 5.741-13.539s-8.726-7.119.387-10.996Z"/><path d="M721.539 381.871c-9.197-8.87-25.904-15.113-25.904-15.113-9.584 2.876-17.157 5.826-21.044 6.441.524-1.709 1.865-6.587 1.069-9.277-1.718 5.848-2.944 5.129-2.944 5.129s-1.414-.178.838-5.848c-2.283 1.637-4.242 6.317-4.881 7.974-2.681-2.856-6.84-9.808-12.632-17.938 0 0-17.032-5.285-29.77-3.909 12.769 4.107 1.886 14.77 1.886 14.77s15.021-3.013 9.417 17.552c15.345-10.173 26.04 13.769 26.04 13.769s23.222-12.362 29.057 5.045c8.275-19.648 18.268-8.099 18.268-8.099s-2.011-15.051 10.6-10.496ZM829.083 376.432c-7.342-11.111-22.929-21.232-22.929-21.232-10.422.761-18.802 2.054-22.898 1.803.922-1.615 3.405-6.295 3.206-9.203-3.08 5.566-4.169 4.555-4.169 4.555s-1.404-.501 2.189-5.764c-2.702 1.146-5.761 5.472-6.788 7.025-2.084-3.513-4.734-11.538-8.777-21.117 0 0-16.142-9.235-29.424-10.694 12.067 7.067-1.456 15.457-1.456 15.457s15.985.323 5.594 20.002c17.943-6.89 23.379 19.908 23.379 19.908s26.459-7.338 28.439 11.705c12.905-18.146 20.447-4.117 20.447-4.117s1.372-15.812 13.187-8.328ZM596.996 166.352c-4.159-.042-9.501 2.22-9.501 2.22-1.613 2.814-2.723 5.201-3.499 6.202-.261-.521-1.047-1.97-1.833-2.418.912 1.761.461 1.866.461 1.866s-.377.271-1.121-1.564c-.167.896.419 2.429.65 2.971-1.278-.073-3.823-.782-7.008-1.407 0 0-5.195 2.553-7.887 5.722 3.928-1.876 3.771 3.054 3.771 3.054s2.859-4.055 6.169 2.032c1.32-5.816 9.229-2.564 9.229-2.564s2.681-8.088 7.971-5.295c-2.483-6.472 2.472-5.983 2.472-5.983s-3.865-3.095.126-4.836ZM621.568 223.825c-6.327-6.097-17.807-10.392-17.807-10.392-6.589 1.981-11.794 4.003-14.466 4.43.357-1.178 1.289-4.534.734-6.379-1.184 4.024-2.022 3.523-2.022 3.523s-.974-.125.576-4.023c-1.571 1.126-2.912 4.336-3.352 5.482-1.843-1.959-4.703-6.743-8.683-12.33 0 0-11.711-3.638-20.468-2.689 8.778 2.824 1.289 10.152 1.289 10.152s10.328-2.074 6.473 12.07c10.548-6.994 17.901 9.464 17.901 9.464s15.964-8.495 19.975 3.471c5.688-13.508 12.56-5.566 12.56-5.566s-1.383-10.35 7.29-7.213ZM498.522 442.103c-6.002-9.079-18.74-17.354-18.74-17.354-8.516.625-15.366 1.678-18.708 1.469.755-1.324 2.787-5.138 2.619-7.525-2.514 4.555-3.404 3.721-3.404 3.721s-1.142-.407 1.791-4.711c-2.21.938-4.703 4.471-5.552 5.732-1.707-2.866-3.865-9.422-7.164-17.26 0 0-13.188-7.547-24.04-8.745 9.857 5.774-1.183 12.632-1.183 12.632s13.062.261 4.567 16.344c14.664-5.629 19.106 16.26 19.106 16.26s21.619-6.004 23.232 9.558c10.549-14.822 16.708-3.367 16.708-3.367s1.12-12.872 10.768-6.754ZM482.453 247.094c-10.349-.834-26.711 9.683-26.711 9.683-3.299 6.087-8.222 19.074-8.222 19.074-.555-1.334-2.242-5.076-4.138-6.358 1.959 4.545.817 4.722.817 4.722s-.974.615-2.503-4.086c-.587 2.199.618 6.129 1.079 7.494-3.153-.406-9.365-2.627-17.2-4.742 0 0-16.078 11.277-23.327 18.678 10.119-3.982 13.533 2.637 13.533 2.637s9.606-12.675 16.749 3.064c4.337-14.238 19.63-1.866 19.63-1.866s1.875-20.71 14.539-12.81c-5.007-16.541 7.929-15.176 7.929-15.176s-2.43-16.697 7.825-20.314ZM574.745 310.926c-10.318-.177-23.589 5.316-23.589 5.316-4.043 6.942-6.861 12.831-8.809 15.311-.639-1.292-2.546-4.899-4.505-6.045 2.232 4.378 1.111 4.628 1.111 4.628s-.933.667-2.745-3.898c-.44 2.209.995 6.035 1.54 7.369-3.153-.209-9.448-2.022-17.357-3.628 0 0-12.936 6.223-19.661 14.019 9.784-4.575 9.281 7.651 9.281 7.651s7.165-9.996 15.251 5.159c3.394-14.383 22.929-6.17 22.929-6.17s6.809-19.981 19.871-12.956c-6.013-16.083 6.253-14.769 6.253-14.769s-9.511-7.755.43-11.987ZM669.897 301.816c-8.547-8.255-24.081-14.051-24.081-14.051-8.914 2.679-15.953 5.42-19.567 5.983.482-1.584 1.739-6.129.995-8.63-1.592 5.441-2.734 4.774-2.734 4.774s-1.32-.167.786-5.441c-2.127 1.522-3.939 5.868-4.536 7.421-2.493-2.658-6.358-9.12-11.742-16.677 0 0-15.838-4.92-27.674-3.627 11.868 3.825 1.749 13.727 1.749 13.727s13.963-2.804 8.757 16.323c14.267-9.454 24.217 12.799 24.217 12.799s21.589-11.486 27.015 4.691c7.688-18.272 16.979-7.526 16.979-7.526s-1.896-14.009 9.836-9.766ZM423.167 219.347c-6.547-6.327-18.457-10.768-18.457-10.768-6.829 2.054-12.224 4.149-14.989 4.587.366-1.22 1.33-4.701.764-6.609-1.225 4.17-2.095 3.659-2.095 3.659s-1.005-.125.598-4.169c-1.635 1.167-3.017 4.492-3.478 5.68-1.917-2.032-4.871-6.994-8.998-12.778 0 0-12.14-3.774-21.211-2.783 9.102 2.929 1.341 10.516 1.341 10.516s10.705-2.147 6.714 12.508c10.935-7.244 18.561 9.808 18.561 9.808s16.54-8.807 20.698 3.596c5.897-13.998 13.01-5.764 13.01-5.764s-1.456-10.735 7.542-7.483ZM296.245 134.233c-4.316-1.772-10.82-1.637-10.82-1.637-2.86 2.262-5.018 4.284-6.254 5.014-.052-.647-.262-2.481-.901-3.284.21 2.21-.303 2.137-.303 2.137s-.503.125-.514-2.095c-.555.865-.576 2.71-.565 3.356-1.299-.604-3.645-2.397-6.715-4.377 0 0-6.483.5-10.611 2.678 4.882-.323 2.64 4.743 2.64 4.743s4.672-3.044 5.573 4.68c3.812-5.514 10.694 1.157 10.694 1.157s6.18-7.307 10.527-2.2c.137-7.765 5.091-5.201 5.091-5.201s-2.734-4.815 2.158-4.971Z"/><path d="M564.366 315.932c-6.83-10.329-21.327-19.741-21.327-19.741-9.689.709-17.482 1.918-21.284 1.678.858-1.511 3.163-5.847 2.985-8.557-2.87 5.18-3.876 4.242-3.876 4.242s-1.299-.469 2.032-5.358c-2.514 1.064-5.352 5.087-6.316 6.525-1.938-3.262-4.399-10.725-8.16-19.637 0 0-15.01-8.588-27.36-9.943 11.219 6.577-1.351 14.373-1.351 14.373s14.864.302 5.195 18.595c16.687-6.41 21.735 18.501 21.735 18.501s24.606-6.827 26.439 10.881c11.993-16.864 19.011-3.825 19.011-3.825s1.299-14.696 12.277-7.734ZM569.833 440.674c-6.83-10.329-21.327-19.741-21.327-19.741-9.689.709-17.482 1.918-21.285 1.678.859-1.511 3.164-5.847 2.986-8.557-2.87 5.18-3.876 4.242-3.876 4.242s-1.299-.469 2.032-5.357c-2.514 1.063-5.352 5.086-6.316 6.524-1.938-3.262-4.4-10.725-8.16-19.637 0 0-15.01-8.588-27.36-9.943 11.218 6.577-1.351 14.373-1.351 14.373s14.863.302 5.195 18.595c16.687-6.41 21.735 18.501 21.735 18.501s24.605-6.827 26.439 10.882c11.993-16.865 19.011-3.826 19.011-3.826s1.299-14.696 12.277-7.734ZM621.57 245.022c-11.24-5.264-34.012-.302-34.012-.302-6.264 5.441-17.273 17.938-17.273 17.938-.062-1.73-.377-6.629-1.958-8.849.272 5.909-1.079 5.628-1.079 5.628s-1.352.281-1.079-5.628c-1.582 2.22-1.896 7.119-1.959 8.849-3.362-1.783-9.385-6.859-17.273-12.497 0 0-22.772 5.92-34.011 11.183 13.02-.229 14.046 8.61 14.046 8.61s16.111-10.194 17.483 10.433c10.862-14.144 22.782 6.108 22.782 6.108s10.831-22.42 21.693-8.276c1.373-20.616 15.294-13.695 15.294-13.695s4.326-19.731 17.346-19.502Z"/><path d="M566.25 397.282c-7.657-3.585-23.16-.208-23.16-.208-4.263 3.7-11.763 12.216-11.763 12.216-.042-1.178-.251-4.514-1.33-6.025.188 4.023-.733 3.836-.733 3.836s-.922.187-.734-3.836c-1.079 1.511-1.288 4.847-1.33 6.025-2.294-1.209-6.39-4.67-11.763-8.516 0 0-15.503 4.034-23.16 7.619 8.862-.156 9.564 5.858 9.564 5.858s10.967-6.942 11.899 7.098c7.395-9.631 15.513 4.159 15.513 4.159s7.374-15.27 14.769-5.639c.933-14.04 10.412-9.329 10.412-9.329s2.954-13.414 11.816-13.258Z"/><path d="M506.912 399.269c-8.799-4.117-26.627-.24-26.627-.24-4.912 4.253-13.522 14.051-13.522 14.051-.053-1.355-.294-5.191-1.53-6.932.22 4.628-.848 4.409-.848 4.409s-1.058.219-.849-4.409c-1.236 1.741-1.487 5.577-1.529 6.932-2.64-1.387-7.343-5.368-13.523-9.788 0 0-17.828 4.639-26.627 8.756 10.192-.177 10.999 6.744 10.999 6.744s12.611-7.974 13.68 8.171c8.505-11.069 17.838 4.784 17.838 4.784s8.485-17.552 16.99-6.483c1.069-16.145 11.973-10.725 11.973-10.725s3.383-15.447 13.575-15.27Z"/><path d="M534.156 390.786c-8.841-6.493-29.445-6.118-29.445-6.118-6.379 3.638-18.09 12.591-18.09 12.591.252-1.511.828-5.816-.157-8.015-.785 5.17-1.917 4.701-1.917 4.701s-1.225.01.042-5.066c-1.759 1.647-2.88 5.847-3.236 7.338-2.609-2.116-6.945-7.557-12.8-13.811 0 0-20.772 1.22-31.446 3.846 11.334 2.043 10.695 9.881 10.695 9.881s15.744-6.066 13.345 12.049c11.878-10.391 18.697 9.214 18.697 9.214s13.293-17.583 20.248-3.45c4.776-17.646 15.639-9.245 15.639-9.245s7.175-16.354 18.425-13.915Z"/><path d="M462.97 409.521c-8.84-6.494-29.444-6.119-29.444-6.119-6.379 3.638-18.09 12.591-18.09 12.591.251-1.511.827-5.816-.157-8.015-.786 5.17-1.917 4.701-1.917 4.701s-1.226.01.042-5.066c-1.76 1.647-2.881 5.848-3.237 7.338-2.608-2.116-6.945-7.557-12.8-13.81 0 0-20.771 1.219-31.445 3.846 11.334 2.043 10.695 9.881 10.695 9.881s15.743-6.066 13.344 12.049c11.879-10.392 18.698 9.214 18.698 9.214s13.292-17.584 20.247-3.45c4.777-17.646 15.639-9.245 15.639-9.245s7.175-16.354 18.425-13.915Z"/><path d="M455.292 402.519c-12.099-5.66-36.589-.334-36.589-.334-6.745 5.848-18.571 19.294-18.571 19.294-.063-1.856-.398-7.13-2.106-9.517.294 6.358-1.162 6.056-1.162 6.056s-1.456.302-1.163-6.056c-1.697 2.387-2.032 7.661-2.106 9.517-3.624-1.908-10.087-7.38-18.571-13.446 0 0-24.49 6.368-36.588 12.028 14.004-.25 15.115 9.256 15.115 9.256s17.325-10.955 18.802 11.215c11.679-15.207 24.511 6.566 24.511 6.566s11.647-24.119 23.337-8.911c1.477-22.181 16.446-14.728 16.446-14.728s4.64-21.19 18.645-20.94Z"/><path d="M382.964 399.466c-13.575-6.348-41.06-.365-41.06-.365-7.563 6.567-20.845 21.659-20.845 21.659-.074-2.084-.451-8.005-2.357-10.683.335 7.129-1.299 6.795-1.299 6.795s-1.634.334-1.299-6.795c-1.906 2.678-2.283 8.599-2.357 10.683-4.064-2.147-11.323-8.276-20.844-15.092 0 0-27.486 7.15-41.061 13.497 15.712-.281 16.958 10.392 16.958 10.392s19.441-12.299 21.096 12.591c13.115-17.073 27.507 7.369 27.507 7.369s13.073-27.068 26.187-9.995c1.655-24.891 18.456-16.531 18.456-16.531s5.196-23.796 20.918-23.525ZM635.836 442.103c-6.002-9.079-18.739-17.354-18.739-17.354-8.516.625-15.367 1.678-18.708 1.469.754-1.324 2.786-5.138 2.619-7.525-2.514 4.555-3.405 3.721-3.405 3.721s-1.141-.407 1.792-4.711c-2.211.938-4.704 4.471-5.552 5.732-1.697-2.866-3.865-9.422-7.165-17.26 0 0-13.187-7.547-24.039-8.745 9.856 5.774-1.184 12.632-1.184 12.632s13.062.261 4.567 16.344c14.665-5.629 19.106 16.26 19.106 16.26s21.62-6.004 23.233 9.558c10.548-14.822 16.707-3.367 16.707-3.367s1.121-12.872 10.768-6.754ZM529.558 240.201c-3.761-1.761-11.365-.104-11.365-.104-2.095 1.814-5.772 5.994-5.772 5.994-.021-.574-.125-2.221-.649-2.961.094 1.97-.356 1.877-.356 1.877s-.451.093-.356-1.877c-.524.74-.629 2.377-.65 2.961-1.121-.595-3.132-2.294-5.772-4.18 0 0-7.604 1.98-11.365 3.731 4.347-.073 4.693 2.877 4.693 2.877s5.384-3.408 5.835 3.481c3.624-4.721 7.615 2.043 7.615 2.043s3.613-7.494 7.248-2.762c.461-6.889 5.112-4.576 5.112-4.576s1.435-6.576 5.782-6.504ZM537.319 131.011c-3.163-1.459-9.553-.042-9.553-.042-1.749 1.533-4.828 5.056-4.828 5.056-.021-.49-.116-1.866-.566-2.481.084 1.657-.293 1.584-.293 1.584s-.377.084-.315-1.574c-.44.626-.523 2.002-.534 2.491-.943-.489-2.639-1.907-4.86-3.491 0 0-6.39 1.688-9.532 3.189 3.656-.083 3.959 2.397 3.959 2.397s4.505-2.876 4.924 2.909c3.027-3.982 6.41 1.688 6.41 1.688s3.006-6.306 6.075-2.356c.356-5.795 4.274-3.867 4.274-3.867s1.184-5.545 4.839-5.503ZM807.787 405.958c-8.841-6.493-29.445-6.118-29.445-6.118-6.379 3.638-18.09 12.591-18.09 12.591.252-1.511.828-5.816-.157-8.015-.785 5.169-1.917 4.7-1.917 4.7s-1.225.011.042-5.065c-1.76 1.647-2.88 5.847-3.236 7.338-2.609-2.116-6.945-7.557-12.801-13.811 0 0-20.771 1.22-31.445 3.846 11.334 2.043 10.695 9.881 10.695 9.881s15.744-6.066 13.345 12.049c11.878-10.391 18.697 9.214 18.697 9.214s13.293-17.583 20.248-3.45c4.776-17.646 15.639-9.245 15.639-9.245s7.175-16.354 18.425-13.915ZM-39.18 348.08s7.542-14.019 20.447 4.117c1.97-19.043 28.439-11.705 28.439-11.705s5.436-26.797 23.38-19.908c-10.391-19.678 5.593-20.002 5.593-20.002s-13.523-8.39-1.456-15.457C23.941 286.595 7.8 295.819 7.8 295.819c-4.044 9.589-6.694 17.605-8.778 21.117-1.037-1.553-4.085-5.868-6.788-7.025 3.593 5.264 2.19 5.764 2.19 5.764s-1.09 1.011-4.17-4.555c-.199 2.919 2.284 7.588 3.206 9.204-4.096.25-12.476-1.043-22.898-1.804 0 0-15.597 10.121-22.93 21.232 11.806-7.463 13.189 8.328 13.189 8.328Z"/><path d="M-55.844 385.69s7.542-14.019 20.447 4.117c1.97-19.043 28.439-11.705 28.439-11.705s5.436-26.798 23.38-19.908c-10.391-19.679 5.593-20.002 5.593-20.002s-13.523-8.391-1.456-15.458c-13.282 1.47-29.423 10.694-29.423 10.694-4.044 9.59-6.694 17.605-8.778 21.118-1.037-1.553-4.085-5.869-6.788-7.026 3.593 5.264 2.19 5.764 2.19 5.764s-1.09 1.011-4.17-4.555c-.199 2.919 2.284 7.588 3.206 9.204-4.096.25-12.476-1.042-22.898-1.803 0 0-15.597 10.121-22.93 21.232 11.806-7.463 13.188 8.328 13.188 8.328ZM-51.286 419.873s10.873-8.401 15.639 9.245c6.966-14.133 20.247 3.45 20.247 3.45s6.82-19.605 18.698-9.214c-2.399-18.115 13.345-12.049 13.345-12.049s-.64-7.838 10.694-9.881c-10.663-2.626-31.445-3.846-31.445-3.846-5.855 6.254-10.192 11.695-12.8 13.811-.356-1.491-1.477-5.691-3.236-7.338 1.267 5.076.041 5.065.041 5.065s-1.13.469-1.916-4.7c-.985 2.199-.409 6.504-.158 8.015 0 0-11.71-8.953-18.09-12.591 0 0-20.603-.375-29.444 6.118 11.26-2.439 18.425 13.915 18.425 13.915ZM692.819 398.574c-12.098-5.66-36.588-.334-36.588-.334-6.746 5.847-18.572 19.293-18.572 19.293-.063-1.855-.398-7.129-2.105-9.516.293 6.348-1.163 6.056-1.163 6.056s-1.456.302-1.163-6.056c-1.697 2.387-2.032 7.661-2.105 9.516-3.624-1.907-10.087-7.379-18.572-13.446 0 0-24.49 6.369-36.588 12.029 14.005-.25 15.115 9.255 15.115 9.255s17.325-10.954 18.802 11.216c11.679-15.208 24.511 6.566 24.511 6.566s11.648-24.119 23.338-8.912c1.477-22.18 16.445-14.727 16.445-14.727s4.64-21.18 18.645-20.94ZM605.07 344.504c-9.459-.167-21.63 4.868-21.63 4.868-3.708 6.368-6.295 11.757-8.076 14.04-.587-1.178-2.336-4.493-4.127-5.535 2.042 4.013 1.016 4.242 1.016 4.242s-.859.615-2.514-3.575c-.409 2.032.911 5.535 1.414 6.754-2.891-.188-8.663-1.855-15.911-3.325 0 0-11.868 5.712-18.027 12.852 8.966-4.201 8.505 7.014 8.505 7.014s6.568-9.172 13.984 4.733c3.111-13.196 21.023-5.66 21.023-5.66s6.243-18.324 18.215-11.872c-5.509-14.749 5.741-13.54 5.741-13.54s-8.726-7.119.387-10.996Z"/><path d="M663.489 356.996c-12.098-5.66-36.588-.334-36.588-.334-6.746 5.847-18.572 19.293-18.572 19.293-.063-1.855-.398-7.129-2.106-9.516.294 6.358-1.162 6.056-1.162 6.056s-1.456.302-1.163-6.056c-1.697 2.387-2.032 7.661-2.105 9.516-3.625-1.907-10.087-7.379-18.572-13.446 0 0-24.49 6.369-36.588 12.029 14.005-.251 15.115 9.255 15.115 9.255s17.325-10.954 18.802 11.215c11.679-15.207 24.511 6.567 24.511 6.567s11.648-24.119 23.338-8.912c1.476-22.18 16.445-14.728 16.445-14.728s4.651-21.19 18.645-20.939Z"/><path d="M703.763 391.2c-8.841-6.493-29.444-6.118-29.444-6.118-6.379 3.638-18.09 12.591-18.09 12.591.251-1.511.827-5.816-.157-8.015-.786 5.17-1.917 4.701-1.917 4.701s-1.226.01.042-5.066c-1.76 1.647-2.881 5.847-3.237 7.338-2.608-2.116-6.945-7.557-12.8-13.811 0 0-20.771 1.22-31.445 3.846 11.333 2.043 10.694 9.881 10.694 9.881s15.744-6.066 13.345 12.05c11.879-10.392 18.698 9.214 18.698 9.214s13.292-17.584 20.247-3.45c4.777-17.647 15.639-9.246 15.639-9.246s7.175-16.354 18.425-13.915Z"/></g><defs><clipPath id="a"><path fill="#fff" d="M0 0h768v408H0z"/></clipPath></defs></svg>