<svg width="320" height="307" fill="none" xmlns="http://www.w3.org/2000/svg"><g opacity=".8" clip-path="url(#a)" fill="#131212"><path d="M26.007 288.107v-.094a.281.281 0 0 0 0 .094ZM44.111 248.93c-17.435 9.129-17.45 25.097-17.45 25.097s-.024-4.588-1.59-6.784c.22 4.784-.873 6.76-.873 6.76s-1.094-1.976-.873-6.76c-1.566 2.196-1.59 6.784-1.59 6.784s-.015-15.96-17.45-25.097c12.171 10.415 2.706 14.258 2.706 14.258s7.577 3.843 4.792 11.309c10.236 5.106 10.598 12.58 10.606 13.514a4.293 4.293 0 0 1 1.809-3.279 4.282 4.282 0 0 1 1.81 3.279c.008-.934.37-8.408 10.605-13.514-2.785-7.466 4.792-11.309 4.792-11.309s-9.465-3.843 2.706-14.258ZM139.64 246.813v-.095a.285.285 0 0 0 0 .095ZM157.745 207.635c-17.435 9.129-17.451 25.097-17.451 25.097s-.023-4.588-1.589-6.784c.22 4.777-.873 6.761-.873 6.761s-1.094-1.977-.874-6.761c-1.565 2.196-1.589 6.784-1.589 6.784s-.016-15.96-17.451-25.097c12.172 10.416 2.707 14.259 2.707 14.259s7.577 3.843 4.791 11.309c10.236 5.106 10.598 12.58 10.606 13.513a4.29 4.29 0 0 1 1.81-3.278 4.282 4.282 0 0 1 1.809 3.278c.008-.933.37-8.407 10.606-13.513-2.785-7.466 4.791-11.309 4.791-11.309s-9.465-3.851 2.707-14.259ZM67.847 242.803l.023-.086-.023.086ZM95.18 212.65c-18.253 3.318-22.77 17.67-22.77 17.67s1.268-4.125.48-6.548c-1.148 4.36-2.69 5.827-2.69 5.827s-.425-2.086 1.125-6.322c-2.03 1.538-3.344 5.655-3.344 5.655s4.493-14.352-8.607-27.45c8.002 12.776-1.59 13.576-1.59 13.576s5.729 5.584 1.118 11.513c7.758 7.467 5.98 14.282 5.72 15.121a4.029 4.029 0 0 1 2.55-2.439 4.032 4.032 0 0 1 .7 3.451c.267-.839 2.706-7.451 13.343-9.176-.394-7.49 7.498-8.823 7.498-8.823s-7.412-6.11 6.467-12.055ZM64.598 241.788s.008-.032.032-.087c-.024.055-.032.087-.032.087ZM186.753 240.392c-17.435 9.129-17.451 25.097-17.451 25.097s-.023-4.588-1.589-6.784c.22 4.776-.873 6.76-.873 6.76s-1.094-1.976-.873-6.76c-1.566 2.196-1.59 6.784-1.59 6.784s-.015-15.96-17.45-25.097c12.171 10.415 2.706 14.258 2.706 14.258s7.577 3.843 4.792 11.309c10.236 5.106 10.597 12.58 10.605 13.513a4.293 4.293 0 0 1 1.81-3.278 4.28 4.28 0 0 1 1.809 3.278c.008-.933.37-8.407 10.606-13.513-2.785-7.466 4.791-11.309 4.791-11.309s-9.464-3.851 2.707-14.258ZM97.385 281.023l.024-.078c-.016.047-.024.078-.024.078Z"/><path d="M121.004 254.982c-15.767 2.871-19.67 15.262-19.67 15.262s1.094-3.568.417-5.654c-.991 3.764-2.32 5.035-2.32 5.035s-.37-1.804.967-5.459c-1.754 1.326-2.887 4.886-2.887 4.886s3.878-12.399-7.435-23.717c6.916 11.035-1.37 11.733-1.37 11.733s4.95 4.824.968 9.945c6.704 6.447 5.17 12.337 4.941 13.066.11-.321.646-1.6 2.203-2.109.984 1.301.7 2.65.606 2.98.228-.722 2.337-6.439 11.534-7.929-.346-6.471 6.483-7.624 6.483-7.624s-6.428-5.278 5.563-10.415ZM94.584 280.148l.023-.079-.023.079ZM118.885 144.42v-.086a.218.218 0 0 0 0 .086Z"/><path d="M134.141 110.094c-15.059 8.172-14.87 22.062-14.87 22.062s-.079-3.992-1.472-5.882c.252 4.157-.668 5.89-.668 5.89s-.976-1.71-.842-5.866c-1.338 1.937-1.298 5.921-1.298 5.921s-.213-13.898-15.508-21.623c10.724 8.91 2.542 12.376 2.542 12.376s6.648 3.247 4.319 9.788c8.977 4.314 9.386 10.815 9.402 11.631a3.702 3.702 0 0 1 1.526-2.87 3.706 3.706 0 0 1 1.613 2.831c-.008-.816.213-7.318 9.056-11.898-2.518-6.462 4.028-9.905 4.028-9.905s-8.292-3.239 2.172-12.455Z"/><path d="M115.739 144.467v-.087a.244.244 0 0 0 0 .087ZM8.197 211.049c-16.215 8.486-16.223 23.333-16.223 23.333s-.024-4.259-1.48-6.306c.205 4.447-.81 6.282-.81 6.282s-1.014-1.835-.81-6.282c-1.455 2.047-1.479 6.306-1.479 6.306s-.008-14.839-16.223-23.333c11.314 9.686 2.517 13.255 2.517 13.255s7.042 3.576 4.462 10.517c9.511 4.753 9.85 11.694 9.858 12.564a3.97 3.97 0 0 1 1.675-3.043 3.953 3.953 0 0 1 1.676 3.043c.008-.87.347-7.811 9.859-12.564-2.589-6.941 4.46-10.517 4.46-10.517s-8.796-3.577 2.518-13.255ZM40.036 130.746s-.016-.016-.04-.048c.032.032.04.048.04.048Z"/><path d="M34.395 105.05c-5.114 10.831.763 18.604.763 18.604s-1.7-2.22-3.273-2.714c1.873 2.243 2.07 3.608 2.07 3.608s-1.26-.557-2.92-2.965c.048 1.647 1.732 3.882 1.732 3.882s-5.893-7.764-17.742-5.811c9.764.604 6.577 5.945 6.577 5.945s5.106-.91 6.507 3.748c6.86-1.262 9.795 2.236 10.141 2.691a2.616 2.616 0 0 1-.33-2.259 2.586 2.586 0 0 1 2.085.933c-.339-.455-2.92-4.227.173-10.462-4.107-2.612-1.841-7.263-1.841-7.263s-6.019 1.585-3.942-7.937Z"/><path d="M38.281 132.069s-.016-.016-.04-.048c.024.032.04.048.04.048ZM160.34 125.747s.008-.016.016-.039c-.016.023-.016.039-.016.039ZM172.89 113.143c-8.033 1.075-10.299 7.247-10.299 7.247s.637-1.773.346-2.847c-.59 1.882-1.29 2.486-1.29 2.486s-.142-.917.621-2.737c-.92.627-1.573 2.4-1.573 2.4s2.258-6.172-3.194-12.156c3.225 5.74-.976 5.889-.976 5.889s2.384 2.557.252 5.051c3.233 3.42 2.313 6.353 2.187 6.722a1.754 1.754 0 0 1 1.164-1.012c.465.682.291 1.357.236 1.521.134-.36 1.338-3.199 6.011-3.733-.015-3.278 3.454-3.702 3.454-3.702s-3.123-2.815 3.061-5.129ZM158.94 125.239s.008-.016.016-.039c-.008.023-.016.039-.016.039ZM122.49 82.489c-8.387 4.713-8.159 12.51-8.159 12.51s-.078-2.244-.873-3.295c.181 2.33-.33 3.318-.33 3.318s-.567-.95-.527-3.286c-.732 1.098-.677 3.333-.677 3.333s-.236-7.796-8.891-12.008c6.098 4.91 1.527 6.926 1.527 6.926s3.761 1.772 2.51 5.458c5.074 2.345 5.357 5.992 5.373 6.447 0-.204.055-1.035.834-1.623a2.07 2.07 0 0 1 .929 1.576c-.008-.455.055-4.11 4.988-6.753-1.472-3.607 2.179-5.592 2.179-5.592s-4.681-1.749 1.117-7.011ZM44.64 212.547s0-.032-.008-.095c0 .055.008.095.008.095Z"/><path d="M59.864 174.845C43.877 184.241 44.6 199.26 44.6 199.26s-.236-4.313-1.81-6.305c.433 4.486-.503 6.399-.503 6.399s-1.118-1.811-1.133-6.321c-1.37 2.141-1.188 6.455-1.188 6.455s-.748-15.019-17.577-22.807c11.935 9.239 3.21 13.293 3.21 13.293s7.31 3.271 5.035 10.423c9.867 4.338 10.551 11.349 10.606 12.227a4.025 4.025 0 0 1 1.55-3.168 4.021 4.021 0 0 1 1.849 2.996c-.04-.878-.04-7.921 9.355-13.2-2.966-6.893 3.989-10.862 3.989-10.862s-9.088-3.184 1.88-13.545Z"/><path d="M41.242 212.707v-.094a.303.303 0 0 0 0 .094ZM114.323 276.361c-17.435 9.13-17.45 25.098-17.45 25.098s-.024-4.589-1.59-6.785c.22 4.785-.873 6.761-.873 6.761s-1.094-1.976-.874-6.761c-1.565 2.196-1.589 6.785-1.589 6.785s-.016-15.961-17.45-25.098c12.17 10.416 2.706 14.259 2.706 14.259s7.577 3.843 4.791 11.309c10.236 5.106 10.598 12.58 10.606 13.513a4.293 4.293 0 0 1 1.81-3.278 4.282 4.282 0 0 1 1.81 3.278c.007-.933.369-8.407 10.605-13.513-2.785-7.466 4.791-11.309 4.791-11.309s-9.465-3.843 2.707-14.259ZM4.695 296.097c-20.771 10.87-20.779 29.889-20.779 29.889s-.031-5.459-1.896-8.078c.268 5.694-1.038 8.046-1.038 8.046s-1.306-2.352-1.039-8.046c-1.865 2.619-1.896 8.078-1.896 8.078s-.016-19.011-20.779-29.889c14.493 12.399 3.226 16.98 3.226 16.98s9.024 4.58 5.712 13.474c12.187 6.086 12.62 14.979 12.628 16.093a5.082 5.082 0 0 1 2.148-3.898 5.066 5.066 0 0 1 2.147 3.898c.008-1.114.441-10.007 12.628-16.093-3.312-8.894 5.712-13.474 5.712-13.474s-11.267-4.573 3.226-16.98ZM155.431 264.356c-17.435 9.129-17.45 25.097-17.45 25.097s-.024-4.588-1.59-6.784c.221 4.784-.873 6.761-.873 6.761s-1.094-1.977-.873-6.761c-1.566 2.196-1.59 6.784-1.59 6.784s-.015-15.96-17.45-25.097c12.171 10.415 2.706 14.258 2.706 14.258s7.577 3.843 4.792 11.31c10.236 5.105 10.598 12.58 10.606 13.513a4.288 4.288 0 0 1 1.809-3.278 4.28 4.28 0 0 1 1.81 3.278c.008-.933.369-8.408 10.605-13.513-2.785-7.467 4.792-11.31 4.792-11.31s-9.465-3.843 2.706-14.258Z"/><path d="M136.745 288.509c-14.784 1.333-19.418 12.447-19.418 12.447s1.314-3.2.858-5.184c-1.228 3.396-2.565 4.454-2.565 4.454s-.189-1.694 1.353-4.956c-1.731 1.082-3.076 4.266-3.076 4.266s4.618-11.113-4.878-22.493c5.452 10.753-2.242 10.705-2.242 10.705s4.162 4.855.063 9.255c5.641 6.502 3.737 11.811 3.469 12.462a3.227 3.227 0 0 1 2.203-1.757 3.208 3.208 0 0 1 .307 2.8c.275-.651 2.691-5.741 11.298-6.352.228-6 6.617-6.494 6.617-6.494s-5.476-5.412 6.011-9.153ZM155.54 303.216s.008-.024.031-.071a.656.656 0 0 0-.031.071Z"/><path d="M179.498 281.154c-14.783 1.333-19.417 12.446-19.417 12.446s1.313-3.2.857-5.184c-1.227 3.396-2.565 4.455-2.565 4.455s-.189-1.694 1.354-4.957c-1.731 1.082-3.077 4.267-3.077 4.267s4.619-11.114-4.878-22.494c5.453 10.753-2.242 10.706-2.242 10.706s4.162 4.854.063 9.254c5.641 6.502 3.737 11.812 3.47 12.463a3.217 3.217 0 0 1 2.203-1.757 3.207 3.207 0 0 1 .306 2.8c.276-.651 2.691-5.741 11.298-6.353.229-6 6.617-6.494 6.617-6.494s-5.484-5.404 6.011-9.152ZM153.023 302.173s.008-.023.032-.07c-.024.047-.032.07-.032.07ZM25.096 279.435c-17.435 9.129-17.45 25.097-17.45 25.097s-.024-4.588-1.59-6.784c.22 4.784-.873 6.76-.873 6.76s-1.093-1.976-.873-6.76c-1.566 2.196-1.59 6.784-1.59 6.784s-.015-15.96-17.45-25.097c12.171 10.415 2.707 14.258 2.707 14.258s7.576 3.843 4.79 11.309c10.237 5.106 10.599 12.58 10.607 13.514a4.293 4.293 0 0 1 1.81-3.279 4.283 4.283 0 0 1 1.809 3.279c.008-.934.37-8.408 10.605-13.514-2.785-7.466 4.792-11.309 4.792-11.309s-9.465-3.843 2.706-14.258Z"/><path d="M6.41 302.112c-14.784 1.333-19.418 12.446-19.418 12.446s1.314-3.2.858-5.184c-1.228 3.396-2.565 4.455-2.565 4.455s-.189-1.694 1.353-4.957c-1.73 1.082-3.076 4.267-3.076 4.267s4.618-11.114-4.878-22.494c5.452 10.753-2.242 10.706-2.242 10.706s4.162 4.854.063 9.254c5.64 6.502 3.737 11.812 3.47 12.463a3.22 3.22 0 0 1 2.202-1.757 3.21 3.21 0 0 1 .307 2.8c.275-.651 2.69-5.741 11.298-6.353.228-6 6.617-6.494 6.617-6.494s-5.484-5.404 6.01-9.152ZM49.155 298.449c-14.784 1.333-19.418 12.447-19.418 12.447s1.314-3.2.858-5.177c-1.227 3.396-2.565 4.455-2.565 4.455s-.189-1.694 1.353-4.956c-1.73 1.082-3.076 4.266-3.076 4.266s4.618-11.113-4.878-22.493c5.452 10.752-2.242 10.705-2.242 10.705s4.162 4.855.063 9.255c5.64 6.501 3.737 11.811 3.47 12.462.133-.29.731-1.42 2.202-1.757a3.21 3.21 0 0 1 .307 2.8c.276-.651 2.69-5.741 11.298-6.353.228-5.999 6.617-6.493 6.617-6.493s-5.476-5.412 6.01-9.161Z"/><path d="M36.787 298.779s.008-.023.031-.07c-.023.047-.031.07-.031.07Z"/><path d="M60.736 276.716c-14.783 1.333-19.417 12.447-19.417 12.447s1.314-3.2.857-5.176c-1.227 3.395-2.564 4.454-2.564 4.454s-.19-1.694 1.353-4.956c-1.731 1.082-3.076 4.266-3.076 4.266s4.618-11.113-4.878-22.493c5.452 10.752-2.243 10.705-2.243 10.705s4.162 4.855.063 9.255c5.641 6.502 3.737 11.811 3.47 12.462a3.225 3.225 0 0 1 2.203-1.757 3.21 3.21 0 0 1 .307 2.8c.275-.651 2.69-5.741 11.298-6.352.228-6 6.616-6.494 6.616-6.494s-5.476-5.412 6.011-9.161Z"/><path d="M34.27 297.731s.008-.024.031-.071a.602.602 0 0 0-.031.071ZM357.716 248.93c-17.434 9.129-17.45 25.097-17.45 25.097s-.024-4.588-1.589-6.784c.22 4.784-.874 6.76-.874 6.76s-1.093-1.976-.873-6.76c-1.566 2.196-1.589 6.784-1.589 6.784s-.016-15.96-17.451-25.097c12.171 10.415 2.707 14.258 2.707 14.258s7.576 3.843 4.791 11.309c10.236 5.106 10.598 12.58 10.606 13.514a4.291 4.291 0 0 1 1.809-3.279 4.283 4.283 0 0 1 1.81 3.279c.008-.934.37-8.408 10.605-13.514-2.785-7.466 4.792-11.309 4.792-11.309s-9.465-3.843 2.706-14.258ZM227.115 260.655c-19.182 10.046-19.197 27.606-19.197 27.606s-.032-5.042-1.755-7.466c.244 5.263-.96 7.435-.96 7.435s-1.204-2.172-.96-7.435c-1.723 2.416-1.754 7.466-1.754 7.466s-.016-17.56-19.197-27.606c13.391 11.458 2.982 15.685 2.982 15.685s8.339 4.228 5.271 12.447c11.259 5.623 11.66 13.843 11.668 14.87a4.683 4.683 0 0 1 1.99-3.6 4.696 4.696 0 0 1 1.991 3.6c.008-1.027.409-9.247 11.668-14.87-3.061-8.212 5.271-12.447 5.271-12.447s-10.409-4.235 2.982-15.685Z"/><path d="M203.22 303.763v-.11a.388.388 0 0 0 0 .11ZM190.344 266.098l.023-.079a.915.915 0 0 0-.023.079ZM213.954 240.044c-15.767 2.87-19.67 15.262-19.67 15.262s1.102-3.569.417-5.655c-.991 3.765-2.321 5.035-2.321 5.035s-.369-1.804.968-5.458c-1.754 1.325-2.887 4.886-2.887 4.886s3.878-12.4-7.435-23.717c6.915 11.035-1.369 11.733-1.369 11.733s4.949 4.823.967 9.945c6.704 6.446 5.17 12.336 4.941 13.066a3.48 3.48 0 0 1 2.203-2.11 3.463 3.463 0 0 1 .606 2.98c.228-.721 2.337-6.439 11.534-7.929-.346-6.47 6.483-7.623 6.483-7.623s-6.428-5.27 5.563-10.415ZM187.533 265.216l.024-.078c-.016.047-.024.078-.024.078ZM263.511 251.455c-17.435 9.129-17.45 25.097-17.45 25.097s-.024-4.588-1.589-6.784c.22 4.776-.874 6.761-.874 6.761s-1.093-1.977-.873-6.761c-1.566 2.196-1.589 6.784-1.589 6.784s-.016-15.96-17.451-25.097c12.171 10.415 2.707 14.258 2.707 14.258s7.576 3.843 4.791 11.31c10.236 5.105 10.598 12.58 10.606 13.513a4.288 4.288 0 0 1 1.809-3.278 4.28 4.28 0 0 1 1.81 3.278c.008-.933.37-8.408 10.605-13.513-2.785-7.467 4.792-11.31 4.792-11.31s-9.465-3.843 2.706-14.258ZM255.028 293.799c-14.248 7.458-14.256 20.501-14.256 20.501s-.023-3.749-1.298-5.545c.181 3.906-.708 5.521-.708 5.521s-.897-1.615-.708-5.521c-1.283 1.796-1.298 5.545-1.298 5.545s-.008-13.043-14.257-20.501c9.945 8.509 2.211 11.646 2.211 11.646s6.192 3.145 3.918 9.239c8.364 4.172 8.663 10.282 8.663 11.043a3.469 3.469 0 0 1 1.479-2.675 3.51 3.51 0 0 1 1.479 2.675c.008-.761.299-6.871 8.662-11.043-2.274-6.102 3.918-9.239 3.918-9.239s-7.741-3.137 2.195-11.646ZM248.883 210.301c-16.884 8.839-16.892 24.297-16.892 24.297s-.023-4.439-1.542-6.564c.213 4.627-.841 6.541-.841 6.541s-1.063-1.914-.842-6.541c-1.519 2.125-1.542 6.564-1.542 6.564s-.016-15.458-16.892-24.297c11.786 10.086 2.62 13.803 2.62 13.803s7.34 3.726 4.642 10.949c9.905 4.949 10.259 12.18 10.267 13.082a4.139 4.139 0 0 1 1.747-3.169 4.124 4.124 0 0 1 1.746 3.169c.008-.902.362-8.141 10.268-13.082-2.699-7.231 4.641-10.949 4.641-10.949s-9.165-3.717 2.62-13.803ZM227.854 248.243v-.095a.285.285 0 0 0 0 .095ZM304.972 247.475v-.095a.285.285 0 0 0 0 .095ZM321.802 211.049c-16.215 8.486-16.223 23.333-16.223 23.333s-.024-4.259-1.479-6.306c.204 4.447-.811 6.282-.811 6.282s-1.014-1.835-.81-6.282c-1.455 2.047-1.479 6.306-1.479 6.306s-.016-14.839-16.223-23.333c11.314 9.686 2.518 13.255 2.518 13.255s7.041 3.576 4.46 10.517c9.513 4.753 9.851 11.694 9.859 12.564a3.967 3.967 0 0 1 1.675-3.043 3.953 3.953 0 0 1 1.676 3.043c.008-.87.347-7.811 9.859-12.564-2.589-6.941 4.461-10.517 4.461-10.517s-8.797-3.577 2.517-13.255ZM281.475 180.932s-.016-.032-.04-.087c.024.055.04.087.04.087Z"/><path d="M282.615 140.305c-11.715 14.345-5.807 28.18-5.807 28.18s-1.723-3.961-3.894-5.286c1.967 4.062 1.754 6.172 1.754 6.172s-1.683-1.31-3.265-5.529c-.543 2.486 1.141 6.462 1.141 6.462s-5.94-13.827-24.429-15.301c14.406 4.533 7.639 11.356 7.639 11.356s7.994.534 8.356 8.031c10.763.651 13.855 6.988 14.201 7.796a4.028 4.028 0 0 1 .346-3.506 4.022 4.022 0 0 1 2.778 2.173c-.339-.808-2.801-7.42 4.169-15.615-5.184-5.443-.047-11.568-.047-11.568s-9.614.149-2.942-13.365Z"/><path d="M278.343 182.268s-.008-.032-.04-.087c.024.055.04.087.04.087ZM164.92 36.247s0-.008.008-.017c-.008.009-.008.017-.008.017ZM171.27 30.04c-4.768.619-5.524 3.607-5.524 3.607s.213-.863-.07-1.372c-.173.91-.535 1.207-.535 1.207s-.181-.439.102-1.317c-.496.313-.716 1.168-.716 1.168s.755-2.988-3.147-5.788c2.533 2.714 0 2.84 0 2.84s1.699 1.191.653 2.415c2.297 1.592 2.038 3.02 1.998 3.192.024-.078.142-.384.606-.502.354.322.307.643.291.73.047-.173.488-1.553 3.273-1.867-.338-1.569 1.731-1.82 1.731-1.82s-2.179-1.302 1.338-2.494ZM164.017 36.027s0-.008.008-.017c0 .009-.008.017-.008.017ZM109.545 189.42s-.008-.023-.032-.07c.024.047.032.07.032.07ZM110.333 154.482c-10.008 12.392-4.855 24.258-4.855 24.258s-1.502-3.396-3.375-4.533c1.715 3.482 1.534 5.302 1.534 5.302s-1.455-1.114-2.832-4.745c-.456 2.141 1.007 5.552 1.007 5.552s-5.17-11.858-21.085-13.042c12.415 3.827 6.624 9.725 6.624 9.725s6.877.423 7.223 6.862c9.26.51 11.943 5.945 12.25 6.635a3.429 3.429 0 0 1 .283-3.011 3.457 3.457 0 0 1 2.4 1.851c-.299-.698-2.439-6.369 3.509-13.451-4.485-4.651-.095-9.945-.095-9.945s-8.261.197-2.588-11.458ZM106.861 190.582s-.008-.023-.031-.07c.016.047.031.07.031.07ZM244.628 67.267l-.024-.024.024.024ZM239.599 52.712c-2.242 6.643 1.707 10.76 1.707 10.76s-1.14-1.176-2.085-1.356c1.244 1.176 1.448 1.96 1.448 1.96s-.771-.243-1.896-1.529c.142.95 1.267 2.141 1.267 2.141s-3.95-4.117-10.708-2.18c5.72-.306 4.225 3.011 4.225 3.011s2.903-.87 4.036 1.742c3.902-1.2 5.846.643 6.082.878a1.51 1.51 0 0 1-.347-1.286 1.53 1.53 0 0 1 1.275.4c-.228-.243-1.983-2.259-.606-6.094-2.565-1.24-1.558-4.094-1.558-4.094s-3.398 1.325-2.84-4.353ZM243.691 68.163l-.024-.025c.016.008.024.025.024.025ZM240.538 136.785s0-.016-.008-.047c.008.031.008.047.008.047ZM247.729 116.956c-8.112 5.168-7.459 12.94-7.459 12.94s-.204-2.235-1.054-3.239c.307 2.322-.142 3.326-.142 3.326s-.613-.918-.708-3.255c-.668 1.137-.495 3.372-.495 3.372s-.669-7.772-9.536-11.505c6.357 4.572 1.912 6.831 1.912 6.831s3.847 1.561 2.801 5.309c5.192 2.071 5.68 5.694 5.727 6.149a2.077 2.077 0 0 1 .748-1.67 2.098 2.098 0 0 1 1.015 1.521c-.04-.455-.165-4.109 4.602-7.019-1.668-3.522 1.865-5.71 1.865-5.71s-4.768-1.482.724-7.05ZM172.269 216.527s.007-.031.023-.086a1.626 1.626 0 0 0-.023.086ZM199.602 186.368c-18.253 3.317-22.769 17.67-22.769 17.67s1.267-4.126.48-6.541c-1.149 4.36-2.691 5.827-2.691 5.827s-.425-2.086 1.125-6.321c-2.03 1.537-3.344 5.654-3.344 5.654s4.493-14.352-8.607-27.458c8.002 12.776-1.589 13.576-1.589 13.576s5.727 5.585 1.117 11.514c7.758 7.466 5.979 14.282 5.72 15.121a4.023 4.023 0 0 1 2.549-2.439 4.03 4.03 0 0 1 .7 3.45c.268-.839 2.707-7.45 13.344-9.176-.394-7.49 7.498-8.823 7.498-8.823s-7.42-6.102 6.467-12.054ZM169.02 215.505s.008-.031.032-.087a.68.68 0 0 0-.032.087ZM137.691 209.24s0-.032-.008-.095a.732.732 0 0 1 .008.095Z"/><path d="M152.915 171.538c-15.987 9.396-15.263 24.415-15.263 24.415s-.236-4.313-1.809-6.306c.432 4.487-.504 6.4-.504 6.4s-1.117-1.811-1.133-6.321c-1.369 2.141-1.188 6.455-1.188 6.455s-.747-15.02-17.576-22.807c11.935 9.238 3.21 13.293 3.21 13.293s7.309 3.271 5.035 10.423c9.866 4.337 10.551 11.349 10.606 12.227a4.025 4.025 0 0 1 1.55-3.168 4.019 4.019 0 0 1 1.848 2.996c-.039-.879-.039-7.922 9.355-13.2-2.966-6.894 3.989-10.862 3.989-10.862s-9.087-3.184 1.88-13.545Z"/><path d="M134.294 209.4v-.095a.305.305 0 0 0 0 .095ZM224.305 299.033s.008-.023.031-.07a.722.722 0 0 0-.031.07Z"/><path d="M248.263 276.971c-14.783 1.334-19.418 12.447-19.418 12.447s1.314-3.2.858-5.184c-1.227 3.396-2.565 4.454-2.565 4.454s-.189-1.694 1.353-4.956c-1.73 1.082-3.076 4.266-3.076 4.266s4.618-11.113-4.878-22.493c5.452 10.753-2.242 10.705-2.242 10.705s4.162 4.855.063 9.255c5.641 6.502 3.737 11.811 3.47 12.462a3.219 3.219 0 0 1 2.202-1.756 3.206 3.206 0 0 1 .307 2.799c.276-.651 2.691-5.741 11.298-6.352.228-6 6.617-6.494 6.617-6.494s-5.484-5.404 6.011-9.153ZM221.788 298.004s.008-.023.032-.07a.636.636 0 0 0-.032.07ZM263.62 292.533s.008-.024.032-.071c-.024.047-.032.071-.032.071Z"/><path d="M287.578 270.464c-14.783 1.333-19.417 12.447-19.417 12.447s1.314-3.2.857-5.184c-1.227 3.395-2.565 4.454-2.565 4.454s-.188-1.694 1.354-4.956c-1.731 1.082-3.077 4.266-3.077 4.266s4.619-11.113-4.878-22.493c5.453 10.752-2.242 10.705-2.242 10.705s4.162 4.855.063 9.255c5.641 6.502 3.737 11.811 3.47 12.462a3.222 3.222 0 0 1 2.203-1.757 3.212 3.212 0 0 1 .307 2.8c.275-.651 2.69-5.741 11.298-6.352.228-6 6.616-6.494 6.616-6.494s-5.484-5.404 6.011-9.153ZM261.104 291.497s.007-.023.031-.07a.493.493 0 0 0-.031.07ZM178.202 294.735s.015-.032.039-.095c-.031.063-.039.095-.039.095ZM210.08 265.38c-19.678 1.78-25.838 16.564-25.838 16.564s1.747-4.259 1.141-6.894c-1.637 4.518-3.415 5.929-3.415 5.929s-.251-2.251 1.802-6.595c-2.297 1.435-4.091 5.678-4.091 5.678s6.144-14.792-6.491-29.936c7.262 14.313-2.99 14.242-2.99 14.242s5.539 6.463.079 12.313c7.514 8.651 4.972 15.718 4.61 16.58a4.286 4.286 0 0 1 2.935-2.345 4.251 4.251 0 0 1 .409 3.726c.362-.863 3.58-7.647 15.035-8.455.299-7.984 8.804-8.643 8.804-8.643s-7.285-7.184 8.01-12.164ZM174.847 293.359s.015-.032.039-.095a1.546 1.546 0 0 1-.039.095ZM312.353 299.838c-17.435 9.129-17.451 25.097-17.451 25.097s-.023-4.588-1.589-6.784c.22 4.776-.873 6.761-.873 6.761s-1.094-1.977-.874-6.761c-1.565 2.196-1.589 6.784-1.589 6.784s-.016-15.96-17.45-25.097c12.171 10.415 2.706 14.258 2.706 14.258s7.577 3.843 4.792 11.31c10.235 5.105 10.597 12.58 10.605 13.513a4.29 4.29 0 0 1 1.81-3.278 4.279 4.279 0 0 1 1.809 3.278c.008-.933.37-8.408 10.606-13.513-2.785-7.467 4.791-11.31 4.791-11.31s-9.464-3.843 2.707-14.258Z"/><path d="M338.701 279.435c-17.435 9.129-17.45 25.097-17.45 25.097s-.024-4.588-1.59-6.784c.221 4.784-.873 6.76-.873 6.76s-1.093-1.976-.873-6.76c-1.566 2.196-1.589 6.784-1.589 6.784s-.016-15.96-17.451-25.097c12.171 10.415 2.706 14.258 2.706 14.258s7.577 3.843 4.792 11.309c10.236 5.106 10.598 12.58 10.606 13.514a4.291 4.291 0 0 1 1.809-3.279 4.283 4.283 0 0 1 1.81 3.279c.008-.934.369-8.408 10.605-13.514-2.785-7.466 4.792-11.309 4.792-11.309s-9.465-3.843 2.706-14.258Z"/><path d="M320.018 302.112c-14.783 1.333-19.417 12.446-19.417 12.446s1.314-3.2.857-5.184c-1.227 3.396-2.565 4.455-2.565 4.455s-.189-1.694 1.354-4.957c-1.731 1.082-3.077 4.267-3.077 4.267s4.619-11.114-4.878-22.494c5.453 10.753-2.242 10.706-2.242 10.706s4.162 4.854.063 9.254c5.641 6.502 3.737 11.812 3.47 12.463a3.217 3.217 0 0 1 2.203-1.757 3.207 3.207 0 0 1 .306 2.8c.276-.651 2.691-5.741 11.298-6.353.229-6 6.617-6.494 6.617-6.494s-5.476-5.404 6.011-9.152Z"/><path d="M313.353 270.195c-17.435 9.129-17.451 25.097-17.451 25.097s-.023-4.588-1.589-6.784c.22 4.776-.873 6.761-.873 6.761s-1.094-1.977-.874-6.761c-1.565 2.196-1.589 6.784-1.589 6.784s-.016-15.96-17.45-25.097c12.171 10.415 2.706 14.258 2.706 14.258s7.577 3.843 4.791 11.31c10.236 5.105 10.598 12.58 10.606 13.513a4.29 4.29 0 0 1 1.81-3.278 4.278 4.278 0 0 1 1.809 3.278c.008-.933.37-8.408 10.606-13.513-2.785-7.467 4.791-11.31 4.791-11.31s-9.464-3.843 2.707-14.258ZM9.943 245.024c-7.104-.125-16.246 3.663-16.246 3.663-2.785 4.792-4.729 8.847-6.066 10.564-.44-.886-1.755-3.38-3.1-4.164 1.534 3.019.763 3.192.763 3.192s-.645.462-1.888-2.69c-.307 1.529.684 4.164 1.062 5.082-2.172-.141-6.507-1.396-11.951-2.502 0 0-8.914 4.298-13.54 9.67 6.734-3.161 6.388 5.278 6.388 5.278s4.933-6.901 10.503 3.561c2.337-9.929 15.79-4.259 15.79-4.259s4.69-13.787 13.683-8.933c-4.139-11.097 4.311-10.188 4.311-10.188s-6.553-5.356.291-8.274ZM102.373 269.899c-6.908-6.674-19.457-11.372-19.457-11.372-7.198 2.165-12.887 4.384-15.806 4.847.394-1.286 1.4-4.957.803-6.98-1.29 4.4-2.211 3.859-2.211 3.859s-1.062-.134.63-4.4c-1.716 1.231-3.187 4.753-3.667 6-2.014-2.149-5.137-7.381-9.488-13.498 0 0-12.793-3.976-22.36-2.941 9.59 3.09 1.416 11.113 1.416 11.113s11.282-2.266 7.073 13.208c11.526-7.655 19.559 10.36 19.559 10.36s17.443-9.302 21.825 3.796c6.215-14.784 13.721-6.094 13.721-6.094s-1.518-11.333 7.962-7.898Z"/><path d="M66.59 232.925c-9.087-4.259-27.482-.251-27.482-.251-5.066 4.4-13.949 14.517-13.949 14.517-.047-1.396-.299-5.364-1.581-7.16.22 4.784-.874 4.556-.874 4.556s-1.093.228-.873-4.556c-1.275 1.796-1.526 5.764-1.581 7.16-2.723-1.435-7.577-5.553-13.95-10.117 0 0-18.395 4.792-27.482 9.05 10.52-.188 11.353 6.965 11.353 6.965s13.014-8.243 14.123 8.439c8.772-11.443 18.41 4.941 18.41 4.941s8.75-18.149 17.53-6.706c1.109-16.689 12.352-11.082 12.352-11.082s3.493-15.944 14.004-15.756ZM98.439 236.333c-7.105-.126-16.247 3.662-16.247 3.662-2.785 4.792-4.729 8.847-6.066 10.565-.44-.887-1.755-3.381-3.1-4.165 1.534 3.02.763 3.192.763 3.192s-.645.463-1.888-2.69c-.307 1.529.684 4.165 1.062 5.082-2.171-.141-6.507-1.396-11.951-2.502 0 0-8.914 4.298-13.54 9.67 6.734-3.16 6.388 5.279 6.388 5.279s4.933-6.902 10.504 3.56c2.336-9.929 15.79-4.258 15.79-4.258s4.69-13.788 13.682-8.933c-4.138-11.098 4.311-10.188 4.311-10.188s-6.553-5.357.291-8.274ZM183.229 227.18c-7.105-.126-16.247 3.662-16.247 3.662-2.785 4.792-4.729 8.847-6.066 10.565-.441-.887-1.755-3.381-3.1-4.165 1.534 3.02.763 3.192.763 3.192s-.645.463-1.888-2.69c-.307 1.529.684 4.165 1.062 5.082-2.171-.141-6.507-1.396-11.951-2.502 0 0-8.914 4.298-13.54 9.671 6.734-3.161 6.388 5.278 6.388 5.278s4.933-6.902 10.504 3.561c2.336-9.93 15.79-4.259 15.79-4.259s4.689-13.788 13.682-8.933c-4.138-11.098 4.311-10.188 4.311-10.188s-6.553-5.357.292-8.274Z"/><path d="M152.112 255.661c-5.515-8.36-17.222-15.976-17.222-15.976-7.828.573-14.122 1.545-17.199 1.357.693-1.216 2.557-4.737 2.408-6.925-2.313 4.188-3.131 3.427-3.131 3.427s-1.055-.376 1.644-4.337c-2.03.863-4.327 4.117-5.098 5.286-1.566-2.643-3.557-8.682-6.593-15.89 0 0-12.125-6.948-22.1-8.046 9.063 5.317-1.094 11.631-1.094 11.631s12.006.243 4.2 15.05c13.478-5.184 17.562 14.98 17.562 14.98s19.873-5.522 21.36 8.807c9.693-13.654 15.358-3.098 15.358-3.098s1.039-11.897 9.905-6.266ZM122.404 207.439c-3.58-7.121-17.065-13.638-17.065-13.638-5.342.266-15.893 2.235-15.893 2.235.661-.902 2.463-3.506 2.55-5.255-2.22 3.098-2.794 2.424-2.794 2.424s-.794-.4 1.707-3.279c-1.683.494-3.8 2.855-4.523 3.702-.992-2.235-1.999-7.192-3.73-13.168 0 0-13.87-6.023-21.66-7.819 6.672 5.043 3.66 9.929 3.66 9.929s12.21 1.223 4.665 12.211c11.14-2.855 9.071 12.125 9.071 12.125s14.43-7.058 14.272 4.408c8.93-9.898 13.202-.871 13.202-.871s10.047-8.282 16.538-3.004ZM81.54 139.325c-5.123-.863-13.738 3.686-13.738 3.686-1.912 2.894-4.933 9.176-4.933 9.176-.22-.69-.897-2.635-1.786-3.348.78 2.352.205 2.392.205 2.392s-.512.266-1.07-2.149c-.386 1.074.04 3.082.212 3.788-1.558-.337-4.555-1.718-8.371-3.114 0 0-8.505 4.941-12.439 8.329 5.216-1.553 6.633 1.898 6.633 1.898s5.334-5.913 8.221 2.251c2.778-6.925 9.874-.086 9.874-.086s1.833-10.266 7.805-5.773c-1.778-8.478 4.61-7.238 4.61-7.238s-.487-8.439 4.776-9.812ZM28.463 72.907c-2.723-3.011-10.22-4.391-10.22-4.391-2.581.846-7.498 3.239-7.498 3.239.204-.534.731-2.055.535-2.918-.67 1.82-1.047 1.56-1.047 1.56s-.44-.086.394-1.835c-.764.471-1.48 1.914-1.716 2.424-.786-.965-1.95-3.255-3.61-5.96 0 0-7.625-1.09-11.684-.926 3.957 1.576 3.139 4.376 3.139 4.376s6.16-1.043 3.942 5.365c5.082-2.902 6.097 4.729 6.097 4.729s6.129-5.404 7.6.243c3.045-6.055 6.357-2.204 6.357-2.204s3.816-5.42 7.71-3.701ZM22.39 109.734c-1.384-.894-4.476-.643-4.476-.643-.92.604-2.597 2.063-2.597 2.063.024-.228.071-.879-.102-1.2-.07.784-.244.721-.244.721s-.18.016-.04-.76c-.251.266-.377.909-.416 1.129-.41-.298-1.117-1.074-2.054-1.953 0 0-3.107.377-4.681.871 1.715.204 1.7 1.388 1.7 1.388s2.305-1.059 2.116 1.686c1.684-1.67 2.895 1.208 2.895 1.208s1.826-2.769 3.006-.706c.55-2.698 2.258-1.537 2.258-1.537s.928-2.526 2.635-2.267ZM82.546 135.173c-1.125-1.836-4.894-3.294-4.894-3.294-1.431.188-4.225.949-4.225.949.158-.259.583-.996.567-1.467-.527.886-.7.714-.7.714s-.22-.087.385-.918c-.44.173-.96.855-1.133 1.098-.314-.58-.7-1.89-1.298-3.466 0 0-3.87-1.318-6.003-1.632 1.904 1.208 1.204 2.588 1.204 2.588s3.312.063 1.526 3.185c2.935-1.012 2.715 3.066 2.715 3.066s3.729-2.219 3.941.871c2.188-2.863 3.533-.526 3.533-.526s2.525-2.439 4.382-1.168ZM2.862 273.384c-9.087-4.258-27.482-.251-27.482-.251-5.067 4.4-13.95 14.518-13.95 14.518-.046-1.397-.298-5.365-1.58-7.161.22 4.776-.874 4.557-.874 4.557s-1.094.227-.873-4.557c-1.275 1.796-1.527 5.764-1.582 7.161-2.722-1.436-7.576-5.553-13.95-10.118 0 0-18.394 4.792-27.48 9.051 10.518-.188 11.352 6.964 11.352 6.964s13.013-8.242 14.123 8.439c8.772-11.442 18.41 4.941 18.41 4.941s8.749-18.148 17.53-6.705c1.109-16.69 12.351-11.082 12.351-11.082s3.486-15.945 14.005-15.757ZM127.445 266.136c-7.104-.125-16.247 3.663-16.247 3.663-2.785 4.792-4.728 8.846-6.066 10.564-.44-.886-1.754-3.38-3.099-4.165 1.534 3.02.763 3.193.763 3.193s-.645.462-1.889-2.691c-.306 1.53.685 4.165 1.063 5.083-2.172-.142-6.507-1.396-11.951-2.502 0 0-8.915 4.298-13.54 9.67 6.734-3.161 6.388 5.278 6.388 5.278s4.933-6.902 10.503 3.561c2.337-9.929 15.791-4.259 15.791-4.259s4.689-13.788 13.682-8.933c-4.139-11.097 4.311-10.188 4.311-10.188s-6.554-5.356.291-8.274Z"/><path d="M100.352 287.336c-6.908-6.674-19.457-11.372-19.457-11.372-7.2 2.165-12.888 4.384-15.806 4.847.393-1.286 1.4-4.957.802-6.98-1.29 4.4-2.21 3.859-2.21 3.859s-1.063-.134.629-4.4c-1.716 1.231-3.187 4.753-3.667 6-2.014-2.149-5.137-7.381-9.488-13.498 0 0-12.793-3.976-22.36-2.941 9.59 3.09 1.416 11.113 1.416 11.113s11.282-2.266 7.073 13.208c11.526-7.655 19.56 10.36 19.56 10.36s17.442-9.302 21.824 3.796c6.216-14.784 13.721-6.094 13.721-6.094s-1.518-11.325 7.963-7.898ZM181.119 283.246c-5.515-8.36-17.222-15.976-17.222-15.976-7.828.573-14.123 1.545-17.199 1.357.693-1.215 2.557-4.737 2.408-6.925-2.313 4.188-3.132 3.427-3.132 3.427s-1.054-.376 1.645-4.337c-2.03.863-4.328 4.118-5.099 5.286-1.565-2.643-3.556-8.682-6.593-15.889 0 0-12.124-6.949-22.1-8.047 9.064 5.317-1.094 11.631-1.094 11.631s12.006.243 4.202 15.05c13.477-5.184 17.56 14.98 17.56 14.98s19.874-5.521 21.361 8.808c9.693-13.655 15.358-3.098 15.358-3.098s1.038-11.898 9.905-6.267ZM6.803 125.174c-3.123-.032-7.136 1.67-7.136 1.67-1.211 2.118-2.045 3.914-2.628 4.667-.196-.393-.786-1.483-1.376-1.82.684 1.325.346 1.404.346 1.404s-.284.204-.842-1.177c-.126.675.315 1.828.488 2.236-.96-.055-2.872-.589-5.264-1.059 0 0-3.902 1.921-5.924 4.306 2.95-1.412 2.832 2.298 2.832 2.298s2.148-3.051 4.634 1.529c.992-4.376 6.932-1.929 6.932-1.929s2.014-6.086 5.987-3.985c-1.865-4.87 1.857-4.501 1.857-4.501s-2.911-2.33.094-3.639ZM25.262 168.413c-4.752-4.588-13.375-7.819-13.375-7.819-4.949 1.49-8.86 3.011-10.865 3.333.267-.886.967-3.412.55-4.8-.889 3.027-1.518 2.651-1.518 2.651s-.732-.094.433-3.027c-1.18.847-2.188 3.262-2.518 4.125-1.385-1.475-3.533-5.074-6.522-9.278 0 0-8.796-2.737-15.374-2.024 6.593 2.126.968 7.639.968 7.639s7.758-1.56 4.862 9.082c7.923-5.262 13.446 7.122 13.446 7.122s11.99-6.392 15.004 2.611c4.272-10.164 9.433-4.188 9.433-4.188s-1.038-7.788 5.476-5.427ZM61.562 227.097c-6.42-6.211-18.088-10.572-18.088-10.572-6.695 2.016-11.982 4.078-14.697 4.502.362-1.192 1.306-4.612.747-6.494-1.195 4.094-2.053 3.592-2.053 3.592s-.991-.125.59-4.094c-1.597 1.145-2.958 4.416-3.407 5.584-1.872-2-4.775-6.862-8.82-12.548 0 0-11.895-3.702-20.786-2.73 8.914 2.879 1.314 10.329 1.314 10.329s10.488-2.109 6.578 12.282c10.715-7.113 18.19 9.631 18.19 9.631s16.215-8.643 20.29 3.53c5.775-13.749 12.754-5.663 12.754-5.663s-1.424-10.541 7.388-7.349Z"/><path d="M25.262 184.363c-8.442-3.961-25.546-.227-25.546-.227-4.705 4.094-12.974 13.497-12.974 13.497-.047-1.302-.283-4.988-1.471-6.658.204 4.446-.81 4.235-.81 4.235s-1.016.211-.811-4.235c-1.188 1.67-1.424 5.356-1.471 6.658-2.526-1.341-7.05-5.161-12.974-9.403 0 0-17.105 4.454-25.547 8.415 9.78-.173 10.551 6.478 10.551 6.478s12.1-7.67 13.131 7.851c8.159-10.643 17.112 4.596 17.112 4.596s8.136-16.87 16.294-6.228c1.031-15.513 11.487-10.305 11.487-10.305s3.25-14.847 13.03-14.674ZM208.39 286.278c-9.087-4.258-27.482-.251-27.482-.251-5.066 4.4-13.949 14.518-13.949 14.518-.047-1.396-.299-5.365-1.581-7.161.22 4.776-.874 4.557-.874 4.557s-1.093.227-.873-4.557c-1.275 1.796-1.526 5.765-1.581 7.161-2.723-1.436-7.577-5.553-13.95-10.118 0 0-18.394 4.792-27.482 9.051 10.52-.188 11.353 6.964 11.353 6.964s13.014-8.242 14.123 8.439c8.772-11.442 18.41 4.941 18.41 4.941s8.749-18.148 17.53-6.705c1.109-16.69 12.352-11.082 12.352-11.082s3.493-15.945 14.004-15.757ZM198.152 119.449c-5.121-.862-13.737 3.687-13.737 3.687-1.911 2.894-4.933 9.176-4.933 9.176-.22-.69-.897-2.636-1.786-3.349.779 2.353.205 2.392.205 2.392s-.511.267-1.07-2.149c-.386 1.074.039 3.082.212 3.788-1.557-.337-4.555-1.718-8.371-3.114 0 0-8.505 4.941-12.439 8.33 5.217-1.553 6.633 1.897 6.633 1.897s5.334-5.913 8.222 2.251c2.777-6.925 9.874-.086 9.874-.086s1.833-10.266 7.804-5.772c-1.778-8.478 4.611-7.239 4.611-7.239s-.496-8.447 4.775-9.812ZM207.878 107.286c-1.691-1.992-6.491-3.043-6.491-3.043-1.683.494-4.893 1.929-4.893 1.929.141-.337.511-1.31.409-1.866-.472 1.16-.7.988-.7.988s-.284-.063.291-1.177c-.496.291-.992 1.2-1.157 1.53-.488-.636-1.196-2.141-2.203-3.914 0 0-4.886-.855-7.506-.831 2.518 1.098 1.936 2.886 1.936 2.886s3.989-.541 2.431 3.537c3.328-1.765 3.832 3.169 3.832 3.169s4.059-3.357 4.893.313c2.085-3.843 4.139-1.286 4.139-1.286s2.549-3.427 5.019-2.235Z"/><path d="M165.132 305.462c-6.64-4.886-22.116-4.604-22.116-4.604-4.791 2.738-13.587 9.475-13.587 9.475.189-1.138.621-4.377-.118-6.031-.59 3.89-1.44 3.537-1.44 3.537s-.921.007.031-3.812c-1.321 1.239-2.163 4.4-2.431 5.521-1.959-1.592-5.216-5.686-9.614-10.391 0 0-15.602.917-23.619 2.894 8.513 1.537 8.033 7.435 8.033 7.435s11.825-4.565 10.024 9.066c8.922-7.819 14.043 6.933 14.043 6.933s9.985-13.231 15.209-2.596c3.587-13.278 11.746-6.957 11.746-6.957s5.389-12.305 13.839-10.47ZM78.055 300.629c-9.087-4.259-27.482-.251-27.482-.251-5.066 4.4-13.949 14.517-13.949 14.517-.047-1.396-.299-5.364-1.581-7.16.22 4.784-.874 4.556-.874 4.556s-1.093.228-.873-4.556c-1.274 1.796-1.526 5.764-1.581 7.16-2.723-1.435-7.577-5.553-13.95-10.117 0 0-18.394 4.792-27.482 9.051 10.52-.189 11.354 6.964 11.354 6.964s13.013-8.243 14.122 8.439c8.773-11.443 18.41 4.941 18.41 4.941s8.75-18.148 17.53-6.706c1.109-16.689 12.352-11.082 12.352-11.082s3.485-15.944 14.004-15.756ZM12.864 259.221c-7.105-.125-16.247 3.663-16.247 3.663-2.785 4.792-4.729 8.847-6.066 10.564-.44-.886-1.755-3.38-3.1-4.164 1.534 3.019.763 3.192.763 3.192s-.645.462-1.888-2.69c-.307 1.529.684 4.164 1.062 5.082-2.171-.141-6.507-1.396-11.951-2.502 0 0-8.914 4.298-13.54 9.67 6.735-3.161 6.388 5.278 6.388 5.278s4.933-6.901 10.504 3.561c2.336-9.929 15.79-4.259 15.79-4.259s4.69-13.787 13.682-8.933c-4.138-11.097 4.312-10.187 4.312-10.187s-6.546-5.357.29-8.275Z"/><path d="M56.747 268.621c-9.087-4.259-27.482-.251-27.482-.251-5.067 4.4-13.95 14.517-13.95 14.517-.046-1.396-.298-5.364-1.58-7.16.22 4.784-.874 4.556-.874 4.556s-1.094.228-.873-4.556c-1.275 1.796-1.527 5.764-1.582 7.16-2.722-1.435-7.576-5.553-13.95-10.117 0 0-18.394 4.792-27.48 9.05 10.518-.188 11.352 6.965 11.352 6.965s13.013-8.243 14.123 8.439c8.772-11.443 18.41 4.941 18.41 4.941s8.749-18.149 17.53-6.706c1.109-16.689 12.352-11.082 12.352-11.082s3.485-15.944 14.004-15.756Z"/><path d="M86.997 294.359c-6.64-4.886-22.116-4.604-22.116-4.604-4.791 2.737-13.587 9.474-13.587 9.474.189-1.137.621-4.376-.118-6.031-.59 3.89-1.44 3.537-1.44 3.537s-.92.008.032-3.812c-1.322 1.24-2.164 4.4-2.432 5.522-1.959-1.592-5.216-5.686-9.614-10.392 0 0-15.602.918-23.619 2.894 8.513 1.537 8.033 7.435 8.033 7.435s11.825-4.565 10.024 9.066c8.922-7.819 14.043 6.933 14.043 6.933s9.984-13.23 15.209-2.596c3.587-13.278 11.746-6.956 11.746-6.956s5.39-12.306 13.84-10.47ZM240.914 254.979c-7.105-.125-16.247 3.663-16.247 3.663-2.785 4.792-4.729 8.846-6.066 10.564-.441-.886-1.755-3.38-3.1-4.165 1.534 3.02.763 3.192.763 3.192s-.645.463-1.888-2.69c-.307 1.53.684 4.165 1.062 5.082-2.171-.141-6.507-1.396-11.951-2.501 0 0-8.914 4.297-13.54 9.67 6.735-3.161 6.388 5.278 6.388 5.278s4.933-6.902 10.504 3.561c2.336-9.929 15.79-4.259 15.79-4.259s4.689-13.788 13.682-8.933c-4.138-11.098 4.312-10.188 4.312-10.188s-6.554-5.356.291-8.274ZM323.548 245.024c-7.104-.125-16.246 3.663-16.246 3.663-2.786 4.792-4.729 8.847-6.066 10.564-.441-.886-1.755-3.38-3.1-4.164 1.534 3.019.763 3.192.763 3.192s-.645.462-1.888-2.69c-.307 1.529.684 4.164 1.062 5.082-2.172-.141-6.507-1.396-11.951-2.502 0 0-8.914 4.298-13.54 9.67 6.734-3.161 6.388 5.278 6.388 5.278s4.933-6.901 10.503 3.561c2.337-9.929 15.791-4.259 15.791-4.259s4.689-13.787 13.682-8.933c-4.139-11.097 4.311-10.188 4.311-10.188s-6.546-5.356.291-8.274Z"/><path d="M292.439 273.519c-5.515-8.361-17.222-15.976-17.222-15.976-7.829.573-14.123 1.545-17.199 1.357.692-1.216 2.557-4.737 2.408-6.925-2.314 4.188-3.132 3.427-3.132 3.427s-1.054-.377 1.645-4.337c-2.03.863-4.328 4.117-5.099 5.286-1.565-2.643-3.556-8.682-6.593-15.89 0 0-12.124-6.948-22.1-8.046 9.063 5.317-1.094 11.63-1.094 11.63s12.006.244 4.202 15.051c13.477-5.184 17.56 14.98 17.56 14.98s19.874-5.522 21.361 8.807c9.693-13.654 15.358-3.098 15.358-3.098s1.038-11.905 9.905-6.266ZM380.204 232.925c-9.088-4.259-27.482-.251-27.482-.251-5.067 4.4-13.95 14.517-13.95 14.517-.047-1.396-.299-5.364-1.581-7.16.22 4.784-.873 4.556-.873 4.556s-1.094.228-.874-4.556c-1.274 1.796-1.526 5.764-1.581 7.16-2.722-1.435-7.577-5.553-13.95-10.117 0 0-18.394 4.792-27.481 9.05 10.519-.188 11.353 6.965 11.353 6.965s13.013-8.243 14.122 8.439c8.773-11.443 18.411 4.941 18.411 4.941s8.748-18.149 17.529-6.706c1.109-16.689 12.352-11.082 12.352-11.082s3.485-15.944 14.005-15.756ZM197.651 215.659c-6.963-1.396-16.641.69-16.641.69-3.603 4.212-6.247 7.859-7.875 9.302-.268-.957-1.117-3.639-2.297-4.659.967 3.247.173 3.279.173 3.279s-.716.337-1.369-2.981c-.575 1.451-.071 4.22.126 5.192-2.117-.533-6.153-2.533-11.306-4.604 0 0-9.544 2.628-15.067 7.083 7.199-1.898 5.334 6.337 5.334 6.337s6.098-5.898 9.685 5.38c4.092-9.341 16.302-1.357 16.302-1.357s7.105-12.721 15.075-6.337c-2.069-11.655 6.081-9.247 6.081-9.247s-5.483-6.431 1.779-8.078ZM96.66 299.119c-6.176-.11-14.13 3.184-14.13 3.184-2.424 4.165-4.115 7.694-5.272 9.192-.385-.776-1.526-2.941-2.698-3.623 1.337 2.627.66 2.776.66 2.776s-.558.4-1.644-2.337c-.267 1.325.598 3.623.929 4.416-1.889-.126-5.657-1.208-10.394-2.173 0 0-7.75 3.733-11.778 8.408 5.862-2.745 5.555 4.588 5.555 4.588s4.288-6 9.134 3.09c2.03-8.635 13.737-3.702 13.737-3.702s4.076-11.992 11.904-7.772c-3.603-9.647 3.745-8.863 3.745-8.863s-5.704-4.643.252-7.184ZM252.59 175.221c-3.234-6.431-15.421-12.321-15.421-12.321-4.823.243-14.366 2.024-14.366 2.024.598-.816 2.226-3.169 2.305-4.745-2.006 2.8-2.526 2.188-2.526 2.188s-.716-.361 1.542-2.965c-1.526.447-3.438 2.581-4.091 3.349-.897-2.015-1.809-6.494-3.375-11.905 0 0-12.541-5.443-19.575-7.067 6.027 4.557 3.313 8.973 3.313 8.973s11.038 1.105 4.217 11.034c10.07-2.58 8.198 10.957 8.198 10.957s13.044-6.376 12.895 3.984c8.072-8.941 11.927-.784 11.927-.784s9.095-7.49 14.957-2.722ZM342.069 72.907c-2.722-3.011-10.22-4.391-10.22-4.391-2.58.846-7.498 3.239-7.498 3.239.205-.534.732-2.055.535-2.918-.668 1.82-1.046 1.56-1.046 1.56s-.441-.086.393-1.835c-.763.471-1.479 1.914-1.715 2.424-.787-.965-1.951-3.255-3.611-5.96 0 0-7.624-1.09-11.684-.926 3.958 1.576 3.14 4.376 3.14 4.376s6.16-1.043 3.941 5.365c5.083-2.902 6.098 4.729 6.098 4.729s6.129-5.404 7.6.243c3.045-6.055 6.357-2.204 6.357-2.204s3.816-5.42 7.71-3.701ZM178.626 74.953c-1.329.165-3.123 1.921-3.123 1.921-.26.855-.543 2.636-.543 2.636-.102-.157-.417-.589-.692-.698.37.525.228.58.228.58s-.11.102-.425-.455c-.016.29.236.76.331.925-.41.032-1.251-.086-2.298-.156 0 0-1.739 1.843-2.462 2.972 1.172-.769 1.778-.016 1.778-.016s.881-1.858 2.203-.047c.173-1.913 2.431-.745 2.431-.745s-.307-2.674 1.502-2c-1.062-1.968.606-2.133.606-2.133s-.739-2.063.464-2.784ZM51.965 71.439c-1.33.164-3.124 1.921-3.124 1.921-.26.855-.543 2.635-.543 2.635-.102-.156-.416-.588-.692-.698.37.526.228.58.228.58s-.11.103-.425-.454c-.015.29.236.76.33.925-.408.032-1.25-.086-2.296-.156 0 0-1.74 1.85-2.463 2.972 1.172-.769 1.778-.016 1.778-.016s.881-1.858 2.203-.047c.173-1.913 2.431-.745 2.431-.745s-.307-2.674 1.503-2c-1.062-1.968.606-2.133.606-2.133s-.74-2.063.464-2.784ZM109.289 57.368c-1.007-1.301-4.004-2.093-4.004-2.093-1.07.266-3.14 1.074-3.14 1.074.103-.212.362-.808.307-1.169-.33.714-.472.604-.472.604s-.181-.047.22-.73c-.322.166-.66.73-.771.934-.291-.416-.692-1.38-1.274-2.525 0 0-3.053-.675-4.705-.737 1.55.76 1.133 1.874 1.133 1.874s2.525-.227 1.432 2.298c2.148-1.02 2.321 2.102 2.321 2.102s2.651-2 3.068.337c1.424-2.36 2.644-.698 2.644-.698s1.715-2.086 3.241-1.27ZM271.906 113.702c-5.012 1.373-10.905 9.113-10.905 9.113-.511 3.428-.59 10.392-.59 10.392-.488-.533-1.928-2.015-3.037-2.29 1.699 1.804 1.196 2.086 1.196 2.086s-.354.455-1.88-1.498c.102 1.137 1.345 2.784 1.793 3.349-1.557.345-4.854.353-8.906.698 0 0-5.625 8.055-7.765 12.776 4.075-3.6 6.821-1.066 6.821-1.066s2.337-7.608 8.403-1.412c-.409-7.451 8.914-4.227 8.914-4.227s-2.675-10.079 4.642-8.518c-5.193-6.941 1.125-8.501 1.125-8.501s-4.021-7.451.189-10.902Z"/><path d="M316.469 273.384c-9.088-4.258-27.482-.251-27.482-.251-5.067 4.4-13.95 14.518-13.95 14.518-.047-1.397-.299-5.365-1.581-7.161.22 4.776-.873 4.557-.873 4.557s-1.094.227-.874-4.557c-1.274 1.796-1.526 5.764-1.581 7.161-2.722-1.436-7.577-5.553-13.949-10.118 0 0-18.395 4.792-27.482 9.051 10.519-.188 11.353 6.964 11.353 6.964s13.013-8.242 14.122 8.439c8.773-11.442 18.411 4.941 18.411 4.941s8.749-18.148 17.529-6.705c1.109-16.69 12.352-11.082 12.352-11.082s3.493-15.945 14.005-15.757ZM229.238 240.874c-7.671-1.718-21.062 4.462-21.062 4.462-3.123 4.227-8.198 13.466-8.198 13.466-.275-1.058-1.141-4.054-2.431-5.207.983 3.615.11 3.631.11 3.631s-.802.361-1.44-3.341c-.668 1.592-.188 4.666.008 5.749-2.329-.643-6.742-2.965-12.391-5.381 0 0-13.257 6.777-19.481 11.576 8.01-1.921 9.866 3.412 9.866 3.412s8.553-8.509 12.242 4.071c4.768-10.235 14.925.666 14.925.666s3.604-15.364 12.266-8.094c-1.99-12.956 7.561-10.572 7.561-10.572s-.055-12.799 8.025-14.438ZM320.41 125.174c-3.124-.032-7.136 1.67-7.136 1.67-1.212 2.118-2.046 3.914-2.628 4.667-.197-.393-.787-1.483-1.377-1.82.684 1.325.346 1.404.346 1.404s-.283.204-.842-1.177c-.126.675.315 1.828.488 2.236-.96-.055-2.872-.589-5.263-1.059 0 0-3.903 1.921-5.925 4.306 2.951-1.412 2.833 2.298 2.833 2.298s2.147-3.051 4.634 1.529c.991-4.376 6.931-1.929 6.931-1.929s2.014-6.086 5.987-3.985c-1.864-4.87 1.857-4.501 1.857-4.501s-2.903-2.33.095-3.639ZM338.867 168.413c-4.752-4.588-13.375-7.819-13.375-7.819-4.949 1.49-8.859 3.011-10.865 3.333.267-.886.967-3.412.55-4.8-.889 3.027-1.518 2.651-1.518 2.651s-.732-.094.433-3.027c-1.18.847-2.188 3.262-2.518 4.125-1.385-1.475-3.533-5.074-6.522-9.278 0 0-8.796-2.737-15.374-2.024 6.593 2.126.968 7.639.968 7.639s7.758-1.56 4.862 9.082c7.923-5.262 13.446 7.122 13.446 7.122s11.99-6.392 15.004 2.611c4.272-10.164 9.433-4.188 9.433-4.188s-1.038-7.788 5.476-5.427ZM246.445 332.658c-4.508-6.832-14.075-13.059-14.075-13.059-6.397.471-11.542 1.263-14.052 1.106.567-.996 2.093-3.866 1.967-5.662-1.888 3.427-2.557 2.799-2.557 2.799s-.858-.305 1.345-3.545c-1.66.706-3.532 3.365-4.169 4.314-1.283-2.157-2.904-7.09-5.382-12.988 0 0-9.905-5.678-18.056-6.58 7.403 4.345-.889 9.506-.889 9.506s9.811.196 3.43 12.297c11.015-4.235 14.351 12.235 14.351 12.235s16.239-4.517 17.45 7.192c7.923-11.153 12.549-2.533 12.549-2.533s.842-9.686 8.088-5.082ZM234.376 185.924c-7.773-.627-20.062 7.286-20.062 7.286-2.479 4.581-6.177 14.353-6.177 14.353-.417-1.004-1.683-3.82-3.107-4.784 1.471 3.419.613 3.552.613 3.552s-.731.463-1.88-3.074c-.441 1.655.464 4.612.81 5.639-2.368-.306-7.033-1.976-12.918-3.568 0 0-12.077 8.485-17.522 14.054 7.6-2.996 10.165 1.984 10.165 1.984s7.215-9.537 12.581 2.306c3.257-10.713 14.744-1.404 14.744-1.404s1.408-15.584 10.92-9.639c-3.761-12.446 5.956-11.419 5.956-11.419s-1.825-12.564 5.877-15.286ZM303.698 233.954c-7.75-.133-17.718 4-17.718 4-3.037 5.224-5.153 9.655-6.617 11.521-.48-.972-1.912-3.686-3.383-4.549 1.676 3.294.834 3.483.834 3.483s-.7.502-2.061-2.934c-.331 1.663.747 4.541 1.156 5.545-2.368-.156-7.096-1.521-13.036-2.729 0 0-9.717 4.682-14.768 10.549 7.348-3.443 6.971 5.756 6.971 5.756s5.381-7.521 11.455 3.883c2.549-10.824 17.222-4.643 17.222-4.643s5.114-15.035 14.925-9.749c-4.516-12.102 4.697-11.113 4.697-11.113s-7.143-5.835.323-9.02ZM375.167 227.097c-6.42-6.211-18.088-10.572-18.088-10.572-6.695 2.016-11.983 4.078-14.697 4.502.362-1.192 1.306-4.612.748-6.494-1.196 4.094-2.054 3.592-2.054 3.592s-.991-.125.59-4.094c-1.597 1.145-2.958 4.416-3.407 5.584-1.872-2-4.775-6.862-8.819-12.548 0 0-11.896-3.702-20.787-2.73 8.914 2.879 1.314 10.329 1.314 10.329s10.488-2.109 6.578 12.282c10.715-7.113 18.19 9.631 18.19 9.631s16.215-8.643 20.29 3.53c5.775-13.749 12.754-5.663 12.754-5.663s-1.424-10.541 7.388-7.349ZM189.845 165.048c-4.917-4.761-13.863-8.102-13.863-8.102-5.13 1.545-9.182 3.121-11.259 3.451.276-.918 1-3.537.575-4.973-.921 3.138-1.574 2.753-1.574 2.753s-.755-.094.449-3.137c-1.228.879-2.266 3.38-2.612 4.274-1.44-1.529-3.659-5.262-6.759-9.615 0 0-9.118-2.839-15.932-2.094 6.837 2.204 1.007 7.914 1.007 7.914s8.041-1.616 5.043 9.411c8.214-5.451 13.942 7.38 13.942 7.38s12.423-6.627 15.546 2.706c4.43-10.533 9.772-4.337 9.772-4.337s-1.093-8.078 5.665-5.631ZM94.513 100.999c-3.242-1.334-8.128-1.232-8.128-1.232-2.148 1.702-3.768 3.224-4.697 3.773-.04-.486-.196-1.867-.676-2.471.157 1.663-.228 1.608-.228 1.608s-.378.094-.386-1.576c-.417.651-.433 2.039-.425 2.525-.975-.455-2.738-1.804-5.043-3.294 0 0-4.87.377-7.97 2.016 3.666-.243 1.983 3.568 1.983 3.568s3.509-2.29 4.185 3.522c2.864-4.149 8.033.87 8.033.87s4.642-5.498 7.907-1.655c.102-5.843 3.824-3.913 3.824-3.913s-2.054-3.624 1.62-3.741Z"/><path d="M295.902 237.723c-5.13-7.772-16.019-14.855-16.019-14.855-7.278.534-13.131 1.444-15.987 1.263.645-1.137 2.376-4.4 2.242-6.439-2.156 3.898-2.911 3.192-2.911 3.192s-.976-.353 1.526-4.031c-1.888.8-4.02 3.827-4.744 4.91-1.455-2.455-3.304-8.071-6.129-14.776 0 0-11.274-6.463-20.55-7.482 8.426 4.948-1.015 10.815-1.015 10.815s11.164.227 3.902 13.992c12.534-4.824 16.326 13.921 16.326 13.921s18.481-5.137 19.858 8.188c9.008-12.69 14.28-2.879 14.28-2.879s.975-11.058 9.221-5.819ZM300.008 331.582c-5.129-7.772-16.018-14.854-16.018-14.854-7.278.533-13.132 1.443-15.987 1.263.645-1.137 2.376-4.4 2.242-6.439-2.156 3.898-2.911 3.192-2.911 3.192s-.976-.353 1.526-4.031c-1.888.8-4.02 3.827-4.744 4.909-1.456-2.455-3.305-8.07-6.129-14.776 0 0-11.274-6.462-20.55-7.482 8.426 4.949-1.015 10.816-1.015 10.816s11.164.227 3.902 13.991c12.533-4.823 16.325 13.921 16.325 13.921s18.482-5.137 19.858 8.188c9.009-12.69 14.28-2.878 14.28-2.878s.976-11.059 9.221-5.82ZM338.869 184.363c-8.442-3.961-25.547-.227-25.547-.227-4.704 4.094-12.973 13.497-12.973 13.497-.048-1.302-.284-4.988-1.472-6.658.205 4.446-.81 4.235-.81 4.235s-1.015.211-.81-4.235c-1.188 1.67-1.424 5.356-1.472 6.658-2.525-1.341-7.049-5.161-12.973-9.403 0 0-17.105 4.454-25.547 8.415 9.78-.173 10.551 6.478 10.551 6.478s12.1-7.67 13.131 7.851c8.159-10.643 17.112 4.596 17.112 4.596s8.135-16.87 16.294-6.228c1.031-15.513 11.487-10.305 11.487-10.305s3.249-14.847 13.029-14.674Z"/><path d="M297.317 298.935c-5.752-2.698-17.396-.157-17.396-.157-3.202 2.784-8.835 9.192-8.835 9.192-.032-.887-.189-3.396-.999-4.533.141 3.027-.551 2.886-.551 2.886s-.692.141-.551-2.886c-.81 1.137-.968 3.646-.999 4.533-1.723-.91-4.799-3.514-8.835-6.408 0 0-11.645 3.035-17.396 5.733 6.656-.117 7.183 4.408 7.183 4.408s8.238-5.223 8.938 5.341c5.555-7.247 11.652 3.129 11.652 3.129s5.539-11.49 11.093-4.243c.701-10.564 7.821-7.019 7.821-7.019s2.219-10.094 8.875-9.976Z"/><path d="M252.747 300.428c-6.608-3.098-19.999-.18-19.999-.18-3.69 3.2-10.157 10.572-10.157 10.572-.04-1.02-.221-3.906-1.149-5.216.165 3.483-.637 3.318-.637 3.318s-.795.165-.638-3.318c-.928 1.31-1.117 4.196-1.148 5.216-1.983-1.043-5.516-4.039-10.158-7.364 0 0-13.39 3.49-19.999 6.587 7.655-.133 8.261 5.075 8.261 5.075s9.473-6 10.275 6.149c6.389-8.33 13.399 3.599 13.399 3.599s6.373-13.207 12.761-4.878c.803-12.148 8.993-8.07 8.993-8.07s2.541-11.623 10.196-11.49Z"/><path d="M273.211 294.045c-6.641-4.886-22.116-4.604-22.116-4.604-4.792 2.737-13.588 9.474-13.588 9.474.189-1.137.622-4.376-.118-6.031-.59 3.89-1.44 3.537-1.44 3.537s-.92.008.032-3.812c-1.322 1.24-2.164 4.4-2.431 5.522-1.959-1.592-5.217-5.686-9.615-10.392 0 0-15.601.918-23.618 2.894 8.512 1.537 8.033 7.435 8.033 7.435s11.825-4.565 10.023 9.066c8.922-7.819 14.044 6.933 14.044 6.933s9.984-13.23 15.208-2.596c3.588-13.277 11.746-6.956 11.746-6.956s5.39-12.306 13.84-10.47Z"/><path d="M219.743 308.141c-6.641-4.886-22.117-4.603-22.117-4.603-4.791 2.737-13.587 9.474-13.587 9.474.189-1.137.621-4.377-.118-6.031-.59 3.89-1.44 3.537-1.44 3.537s-.92.008.032-3.812c-1.322 1.239-2.164 4.4-2.432 5.521-1.959-1.592-5.216-5.686-9.614-10.391 0 0-15.601.917-23.619 2.894 8.513 1.537 8.033 7.435 8.033 7.435s11.825-4.565 10.024 9.066c8.922-7.819 14.044 6.933 14.044 6.933s9.984-13.231 15.208-2.596c3.587-13.278 11.746-6.956 11.746-6.956s5.39-12.306 13.84-10.471Z"/><path d="M213.975 302.874c-9.087-4.259-27.482-.251-27.482-.251-5.066 4.4-13.949 14.517-13.949 14.517-.047-1.396-.299-5.365-1.581-7.161.22 4.785-.874 4.557-.874 4.557s-1.093.228-.873-4.557c-1.275 1.796-1.526 5.765-1.581 7.161-2.723-1.435-7.577-5.553-13.95-10.117 0 0-18.394 4.792-27.482 9.05 10.519-.188 11.353 6.965 11.353 6.965s13.014-8.243 14.123 8.439c8.772-11.443 18.41 4.941 18.41 4.941s8.749-18.149 17.53-6.706c1.109-16.69 12.352-11.082 12.352-11.082s3.485-15.944 14.004-15.756Z"/><path d="M159.649 300.578c-10.196-4.776-30.841-.275-30.841-.275-5.68 4.941-15.657 16.298-15.657 16.298-.055-1.569-.338-6.023-1.77-8.039.252 5.364-.976 5.114-.976 5.114s-1.227.25-.975-5.114c-1.432 2.016-1.715 6.47-1.77 8.039-3.053-1.616-8.505-6.227-15.657-11.357 0 0-20.645 5.381-30.841 10.157 11.801-.212 12.737 7.819 12.737 7.819s14.603-9.254 15.846 9.474c9.85-12.846 20.66 5.545 20.66 5.545s9.819-20.368 19.67-7.521c1.243-18.729 13.863-12.439 13.863-12.439s3.902-17.905 15.711-17.701ZM349.584 332.658c-4.509-6.832-14.076-13.059-14.076-13.059-6.396.471-11.542 1.263-14.051 1.106.566-.996 2.092-3.866 1.966-5.662-1.888 3.427-2.557 2.799-2.557 2.799s-.857-.305 1.346-3.545c-1.66.706-3.533 3.365-4.17 4.314-1.275-2.157-2.903-7.09-5.382-12.988 0 0-9.905-5.678-18.056-6.58 7.404 4.345-.889 9.506-.889 9.506s9.811.196 3.43 12.297c11.015-4.235 14.351 12.235 14.351 12.235s16.239-4.517 17.451 7.192c7.922-11.153 12.549-2.533 12.549-2.533s.841-9.686 8.088-5.082ZM269.757 180.74c-2.824-1.325-8.536-.078-8.536-.078-1.574 1.364-4.335 4.509-4.335 4.509-.016-.431-.095-1.67-.488-2.227.071 1.482-.268 1.412-.268 1.412s-.338.07-.267-1.412c-.394.557-.472 1.788-.488 2.227-.842-.447-2.353-1.725-4.335-3.145 0 0-5.712 1.49-8.537 2.808 3.266-.055 3.525 2.165 3.525 2.165s4.044-2.565 4.382 2.619c2.723-3.553 5.72 1.537 5.72 1.537s2.715-5.639 5.445-2.078c.346-5.184 3.839-3.443 3.839-3.443s1.078-4.949 4.343-4.894ZM275.587 98.578c-2.376-1.098-7.176-.031-7.176-.031-1.314 1.153-3.627 3.804-3.627 3.804-.015-.369-.086-1.404-.425-1.867.063 1.247-.22 1.192-.22 1.192s-.283.063-.236-1.184c-.33.471-.393 1.506-.401 1.874-.708-.368-1.983-1.435-3.651-2.627 0 0-4.799 1.271-7.159 2.4 2.745-.063 2.974 1.804 2.974 1.804s3.383-2.165 3.697 2.188c2.274-2.996 4.815 1.27 4.815 1.27s2.259-4.744 4.564-1.772c.267-4.361 3.21-2.91 3.21-2.91s.889-4.172 3.635-4.14Z"/><path d="M392.383 299.907c-9.087-4.258-27.481-.251-27.481-.251-5.067 4.4-13.95 14.518-13.95 14.518-.047-1.396-.299-5.365-1.581-7.161.22 4.776-.874 4.557-.874 4.557s-1.093.227-.873-4.557c-1.274 1.796-1.526 5.765-1.581 7.161-2.722-1.436-7.577-5.553-13.95-10.118 0 0-18.394 4.792-27.481 9.051 10.519-.188 11.353 6.964 11.353 6.964s13.013-8.242 14.122 8.439c8.773-11.442 18.41 4.941 18.41 4.941s8.749-18.148 17.53-6.705c1.109-16.69 12.352-11.082 12.352-11.082s3.485-15.937 14.004-15.757ZM326.475 259.221c-7.104-.125-16.247 3.663-16.247 3.663-2.785 4.792-4.728 8.847-6.066 10.564-.44-.886-1.754-3.38-3.099-4.164 1.534 3.019.763 3.192.763 3.192s-.645.462-1.888-2.69c-.307 1.529.684 4.164 1.062 5.082-2.172-.141-6.507-1.396-11.951-2.502 0 0-8.915 4.298-13.541 9.67 6.735-3.161 6.389 5.278 6.389 5.278s4.933-6.901 10.503 3.561c2.337-9.929 15.791-4.259 15.791-4.259s4.689-13.787 13.682-8.933c-4.139-11.097 4.311-10.187 4.311-10.187s-6.554-5.357.291-8.275Z"/><path d="M370.353 268.621c-9.087-4.259-27.481-.251-27.481-.251-5.067 4.4-13.95 14.517-13.95 14.517-.047-1.396-.299-5.364-1.581-7.16.22 4.784-.874 4.556-.874 4.556s-1.093.228-.873-4.556c-1.274 1.796-1.526 5.764-1.581 7.16-2.722-1.435-7.577-5.553-13.95-10.117 0 0-18.394 4.792-27.481 9.05 10.519-.188 11.353 6.965 11.353 6.965s13.013-8.243 14.122 8.439c8.773-11.443 18.41 4.941 18.41 4.941s8.749-18.149 17.53-6.706c1.109-16.689 12.352-11.082 12.352-11.082s3.493-15.944 14.004-15.756Z"/></g><defs><clipPath id="a"><path fill="#fff" d="M0 0h320v307H0z"/></clipPath></defs></svg>