<svg width="990" height="524" fill="none" xmlns="http://www.w3.org/2000/svg"><g opacity=".8" clip-path="url(#a)" fill="#131212"><path d="M270.127 491.77v-.161a.5.5 0 0 0 0 .161ZM301.086 424.891c-29.816 15.581-29.843 42.836-29.843 42.836s-.04-7.831-2.717-11.579c.376 8.166-1.494 11.539-1.494 11.539s-1.87-3.373-1.493-11.539c-2.678 3.748-2.718 11.579-2.718 11.579s-.027-27.241-29.842-42.836c20.814 17.777 4.628 24.336 4.628 24.336s12.957 6.56 8.194 19.304c17.504 8.714 18.123 21.471 18.137 23.064a7.318 7.318 0 0 1 3.094-5.595 7.303 7.303 0 0 1 3.095 5.595c.013-1.593.632-14.35 18.136-23.064-4.762-12.744 8.194-19.304 8.194-19.304s-16.186-6.559 4.629-24.336ZM75.547 448.234c-29.816 15.582-29.843 42.837-29.843 42.837s-.04-7.831-2.718-11.579c.377 8.152-1.493 11.539-1.493 11.539s-1.87-3.373-1.493-11.539c-2.678 3.748-2.718 11.579-2.718 11.579s-.027-27.241-29.843-42.837c20.815 17.778 4.629 24.337 4.629 24.337s12.957 6.559 8.194 19.303c17.504 8.715 18.123 21.472 18.136 23.065a7.32 7.32 0 0 1 3.095-5.595 7.302 7.302 0 0 1 3.095 5.595c.013-1.593.632-14.35 18.136-23.065-4.762-12.744 8.194-19.303 8.194-19.303s-16.186-6.559 4.629-24.337Z"/><path d="M46.258 456.751s.013-.04.04-.134c-.027.081-.04.134-.04.134ZM86.633 412.278c-26.962 4.899-33.636 26.05-33.636 26.05s1.884-6.091.713-9.652c-1.695 6.426-3.969 8.594-3.969 8.594s-.632-3.078 1.655-9.317c-3 2.263-4.938 8.34-4.938 8.34s6.633-21.164-12.715-40.481c11.827 18.835-2.34 20.027-2.34 20.027s8.462 8.232 1.654 16.974c11.464 11.003 8.84 21.057 8.45 22.302.188-.549 1.103-2.731 3.767-3.601 1.682 2.222 1.197 4.524 1.036 5.087.39-1.232 3.996-10.991 19.724-13.534-.592-11.044 11.087-13.012 11.087-13.012s-10.992-8.996 9.513-17.777ZM41.451 455.251s.014-.04.04-.134c-.026.094-.04.134-.04.134ZM464.451 421.255v-.161a.504.504 0 0 0 0 .161Z"/><path d="M495.41 354.391c-29.815 15.581-29.842 42.836-29.842 42.836s-.041-7.831-2.718-11.579c.377 8.152-1.494 11.539-1.494 11.539s-1.87-3.373-1.493-11.539c-2.678 3.748-2.718 11.579-2.718 11.579s-.027-27.241-29.842-42.836c20.814 17.777 4.628 24.336 4.628 24.336s12.957 6.56 8.194 19.304c17.504 8.714 18.123 21.471 18.137 23.064.027-.709.296-3.6 3.094-5.595a7.304 7.304 0 0 1 3.095 5.595c.013-1.593.632-14.35 18.137-23.064-4.763-12.744 8.194-19.304 8.194-19.304s-16.186-6.573 4.628-24.336ZM139.98 429.203c-29.815 15.582-29.842 42.837-29.842 42.837s-.04-7.831-2.718-11.579c.377 8.152-1.493 11.539-1.493 11.539s-1.871-3.374-1.494-11.539c-2.677 3.748-2.718 11.579-2.718 11.579s-.027-27.242-29.842-42.837c20.814 17.777 4.628 24.337 4.628 24.337s12.957 6.559 8.194 19.303c17.505 8.715 18.124 21.472 18.137 23.065a7.322 7.322 0 0 1 3.095-5.596 7.305 7.305 0 0 1 3.094 5.596c.014-1.593.633-14.35 18.137-23.065-4.763-12.744 8.194-19.303 8.194-19.303s-16.186-6.56 4.628-24.337ZM341.68 414.429s.013-.054.04-.148c-.027.094-.04.148-.04.148ZM388.42 362.969c-31.214 5.662-38.937 30.159-38.937 30.159s2.166-7.041.821-11.177c-1.965 7.443-4.602 9.946-4.602 9.946s-.726-3.561 1.924-10.79c-3.471 2.624-5.718 9.652-5.718 9.652s7.682-24.497-14.719-46.853c13.683 21.807-2.718 23.172-2.718 23.172s9.795 9.531 1.91 19.652c13.267 12.744 10.226 24.376 9.782 25.809a6.874 6.874 0 0 1 4.359-4.163c1.951 2.57 1.372 5.247 1.198 5.89.457-1.433 4.628-12.718 22.819-15.663-.673-12.784 12.822-15.059 12.822-15.059s-12.674-10.428 11.059-20.575ZM336.121 412.702s.014-.054.054-.147c-.04.093-.054.147-.054.147ZM545.019 410.312c-29.815 15.582-29.842 42.837-29.842 42.837s-.04-7.831-2.718-11.579c.377 8.152-1.493 11.539-1.493 11.539s-1.87-3.373-1.494-11.539c-2.677 3.748-2.718 11.579-2.718 11.579s-.026-27.241-29.842-42.837c20.814 17.778 4.628 24.337 4.628 24.337s12.957 6.559 8.194 19.303c17.505 8.715 18.124 21.472 18.137 23.065a7.32 7.32 0 0 1 3.095-5.595 7.303 7.303 0 0 1 3.094 5.595c.014-1.593.633-14.35 18.137-23.065-4.763-12.744 8.194-19.303 8.194-19.303s-16.186-6.573 4.628-24.337ZM392.189 479.665s.014-.04.041-.134c-.027.081-.041.134-.041.134ZM432.579 435.208c-26.963 4.899-33.637 26.05-33.637 26.05s1.87-6.091.713-9.652c-1.695 6.425-3.969 8.594-3.969 8.594s-.632-3.079 1.655-9.317c-3 2.262-4.938 8.34-4.938 8.34s6.633-21.164-12.714-40.481c11.826 18.835-2.341 20.026-2.341 20.026s8.463 8.233 1.655 16.974c11.463 11.004 8.839 21.057 8.449 22.302.188-.549 1.103-2.731 3.767-3.601 1.682 2.223 1.198 4.525 1.036 5.087.391-1.231 3.996-10.99 19.725-13.534-.592-11.043 11.086-13.011 11.086-13.011s-10.992-9.009 9.513-17.777ZM387.396 478.165s.014-.04.041-.134c-.027.094-.041.134-.041.134ZM428.957 246.499v-.147a.393.393 0 0 0 0 .147Z"/><path d="M455.047 187.906c-25.752 13.949-25.429 37.656-25.429 37.656s-.135-6.813-2.516-10.039c.43 7.094-1.144 10.053-1.144 10.053s-1.668-2.918-1.44-10.013c-2.287 3.306-2.22 10.107-2.22 10.107s-.363-23.721-26.519-36.907c18.339 15.207 4.346 21.124 4.346 21.124s11.369 5.542 7.387 16.706c15.351 7.363 16.051 18.46 16.078 19.852a6.314 6.314 0 0 1 2.61-4.899 6.322 6.322 0 0 1 2.758 4.832c-.013-1.392.364-12.489 15.487-20.307-4.306-11.03 6.888-16.907 6.888-16.907s-14.181-5.529 3.714-21.258ZM423.576 246.577v-.147a.433.433 0 0 0 0 .147ZM125.477 501.477c-24.366 12.73-24.38 34.992-24.38 34.992s-.04-6.399-2.22-9.464c.31 6.666-1.21 9.424-1.21 9.424s-1.535-2.758-1.212-9.424c-2.193 3.065-2.22 9.464-2.22 9.464s-.013-22.262-24.38-34.992c17.007 14.524 3.781 19.878 3.781 19.878s10.589 5.368 6.7 15.77c14.303 7.121 14.814 17.549 14.814 18.848.014-.589.242-2.945 2.53-4.565 2.287 1.62 2.502 3.989 2.529 4.565 0-1.299.511-11.727 14.814-18.848-3.889-10.415 6.7-15.77 6.7-15.77s-13.253-5.354 3.754-19.878ZM113.651 361.531c-27.73 14.484-27.743 39.825-27.743 39.825s-.04-7.269-2.53-10.763c.35 7.59-1.385 10.723-1.385 10.723s-1.736-3.133-1.386-10.723c-2.49 3.494-2.53 10.763-2.53 10.763s-.013-25.327-27.743-39.825c19.348 16.533 4.305 22.623 4.305 22.623s12.042 6.105 7.63 17.952c16.266 8.112 16.844 19.959 16.858 21.445a6.77 6.77 0 0 1 2.866-5.194c2.596 1.847 2.852 4.538 2.866 5.194.013-1.486.592-13.333 16.858-21.445-4.426-11.847 7.629-17.952 7.629-17.952s-15.042-6.09 4.305-22.623ZM239.667 360.234c-27.73 14.485-27.743 39.825-27.743 39.825s-.041-7.269-2.53-10.763c.35 7.591-1.386 10.723-1.386 10.723s-1.735-3.132-1.386-10.723c-2.489 3.494-2.529 10.763-2.529 10.763s-.013-25.327-27.743-39.825c19.347 16.533 4.305 22.624 4.305 22.624s12.042 6.104 7.629 17.951c16.266 8.112 16.845 19.959 16.858 21.445a6.774 6.774 0 0 1 2.866-5.194c2.597 1.847 2.853 4.538 2.866 5.194.014-1.486.592-13.333 16.859-21.445-4.427-11.847 7.629-17.951 7.629-17.951s-15.043-6.105 4.305-22.624ZM170.698 308.827s-.027-.054-.067-.147c.04.093.067.147.067.147Z"/><path d="M172.649 239.484c-20.034 24.484-9.93 48.098-9.93 48.098s-2.946-6.76-6.66-9.022c3.364 6.934 3.001 10.535 3.001 10.535s-2.88-2.236-5.584-9.438c-.928 4.244 1.951 11.031 1.951 11.031s-10.145-23.601-41.777-26.117c24.636 7.737 13.065 19.383 13.065 19.383s13.67.911 14.289 13.708c18.406 1.111 23.693 11.927 24.285 13.306a6.858 6.858 0 0 1 .592-5.984c3.162.697 4.467 3.093 4.75 3.708-.579-1.378-4.79-12.663 7.131-26.652-8.867-9.29-.081-19.745-.081-19.745s-16.455.254-5.032-22.811Z"/><path d="M165.345 311.108s-.014-.053-.068-.147c.041.094.068.147.068.147ZM294.118 223.159s-.027-.027-.067-.081a.364.364 0 0 1 .067.081Z"/><path d="M284.471 179.305c-8.746 18.486 1.305 31.752 1.305 31.752s-2.906-3.788-5.597-4.631c3.202 3.828 3.539 6.157 3.539 6.157s-2.153-.95-4.992-5.06c.081 2.812 2.96 6.627 2.96 6.627s-10.078-13.253-30.34-9.92c16.697 1.031 11.248 10.147 11.248 10.147s8.732-1.553 11.127 6.399c11.732-2.155 16.751 3.815 17.343 4.592a4.457 4.457 0 0 1-.565-3.856c2.099-.053 3.296 1.245 3.565 1.593-.578-.776-4.992-7.215.296-17.857-7.023-4.458-3.148-12.396-3.148-12.396s-10.293 2.704-6.741-13.547Z"/><path d="M291.118 225.424s-.027-.026-.067-.08c.04.054.067.08.067.08ZM140.99 94.912s0-.026-.013-.053c.013.04.013.053.013.053Z"/><path d="M143.722 68.781c-8.274 8.675-5.126 17.885-5.126 17.885s-.915-2.638-2.26-3.601c1.076 2.717.834 4.07.834 4.07s-1.023-.925-1.83-3.722c-.471 1.58.417 4.216.417 4.216s-3.162-9.21-15.028-11.057c9.081 3.628 4.372 7.697 4.372 7.697s5.14.737 5.005 5.583c6.916.95 8.611 5.18 8.786 5.716a2.528 2.528 0 0 1 .404-2.236 2.634 2.634 0 0 1 1.695 1.54c-.175-.536-1.439-4.913 3.458-9.866-3.081-3.762.538-7.457.538-7.457s-6.243-.388-1.265-8.768Z"/><path d="M138.904 95.615s0-.013-.013-.052a.14.14 0 0 0 .013.052ZM944.54 131.609s-.013-.04-.04-.093c.027.066.04.093.04.093Z"/><path d="M949.329 85.89c-14.478 15.181-8.975 31.285-8.975 31.285s-1.601-4.619-3.942-6.292c1.87 4.752 1.453 7.108 1.453 7.108s-1.789-1.619-3.215-6.519c-.821 2.758.726 7.39.726 7.39s-5.516-16.104-26.29-19.344c15.89 6.345 7.656 13.453 7.656 13.453s8.987 1.286 8.745 9.773c12.109 1.646 15.056 9.062 15.379 9.999a4.524 4.524 0 0 1 .699-3.922 4.55 4.55 0 0 1 2.96 2.691c-.323-.937-2.529-8.608 6.055-17.255-5.395-6.573.942-13.052.942-13.052s-10.899-.643-2.193-15.314ZM940.892 132.851s-.013-.04-.027-.093c.014.053.027.093.027.093ZM84.416 199.588s.014-.026.027-.08c-.013.054-.027.08-.027.08ZM109.899 174.045c-16.32 2.182-20.922 14.685-20.922 14.685s1.305-3.601.7-5.77c-1.198 3.815-2.624 5.047-2.624 5.047s-.296-1.861 1.264-5.542c-1.856 1.272-3.202 4.859-3.202 4.859s4.588-12.516-6.485-24.644c6.553 11.633-1.978 11.94-1.978 11.94s4.844 5.181.512 10.228c6.566 6.921 4.695 12.877 4.44 13.614a3.572 3.572 0 0 1 2.354-2.048c.956 1.378.592 2.744.471 3.079.27-.737 2.704-6.48 12.217-7.564-.04-6.64 7.023-7.496 7.023-7.496s-6.31-5.703 6.23-10.388ZM81.576 198.557s.014-.027.027-.08l-.027.08ZM499.85 214.629s.013-.027.026-.067c-.026.04-.026.067-.026.067ZM521.31 193.118c-13.737 1.834-17.612 12.369-17.612 12.369s1.09-3.025.592-4.859c-1.009 3.213-2.207 4.244-2.207 4.244s-.242-1.567 1.063-4.672c-1.574 1.071-2.691 4.096-2.691 4.096s3.862-10.535-5.462-20.749c5.516 9.799-1.669 10.053-1.669 10.053s4.077 4.364.431 8.621c5.53 5.837 3.955 10.843 3.74 11.472a3.002 3.002 0 0 1 1.991-1.727 3.01 3.01 0 0 1 .404 2.597c.229-.615 2.287-5.461 10.279-6.372-.026-5.595 5.907-6.318 5.907-6.318s-5.341-4.806 5.234-8.755ZM497.453 213.762s.013-.027.027-.067a.714.714 0 0 1-.027.067ZM975.27 189.785s.013-.026.026-.066c-.026.04-.026.066-.026.066Z"/><path d="M996.73 168.282c-13.737 1.834-17.612 12.369-17.612 12.369s1.089-3.025.592-4.859c-1.009 3.213-2.207 4.244-2.207 4.244s-.242-1.567 1.063-4.672c-1.574 1.071-2.691 4.096-2.691 4.096s3.862-10.535-5.463-20.749c5.517 9.799-1.668 10.053-1.668 10.053s4.077 4.364.431 8.621c5.529 5.837 3.955 10.843 3.74 11.472a3.002 3.002 0 0 1 1.991-1.727 3.01 3.01 0 0 1 .404 2.597c.229-.615 2.287-5.461 10.279-6.372-.027-5.595 5.907-6.318 5.907-6.318s-5.342-4.806 5.234-8.755ZM972.873 188.91s.013-.026.027-.066c-.014.04-.027.066-.027.066ZM435.123 140.789c-14.343 8.045-13.953 21.352-13.953 21.352s-.134-3.829-1.493-5.623c.309 3.976-.565 5.663-.565 5.663s-.969-1.62-.902-5.609c-1.251 1.874-1.157 5.689-1.157 5.689s-.403-13.306-15.203-20.495c10.427 8.38 2.61 11.821 2.61 11.821s6.431 3.025 4.292 9.317c8.678 4.002 9.162 10.227 9.189 11.003 0-.348.094-1.767 1.426-2.771 1.4.937 1.575 2.343 1.588 2.691-.013-.777.094-7.015 8.53-11.526-2.516-6.158 3.727-9.544 3.727-9.544s-8.005-2.986 1.911-11.968ZM301.988 362.778s0-.054-.013-.161c0 .094.013.161.013.161Z"/><path d="M328.024 298.43c-27.34 16.037-26.102 41.672-26.102 41.672s-.404-7.363-3.095-10.763c.74 7.657-.861 10.923-.861 10.923s-1.91-3.092-1.937-10.789c-2.341 3.654-2.032 11.017-2.032 11.017s-1.278-25.635-30.058-38.928c20.411 15.769 5.49 22.69 5.49 22.69s12.499 5.582 8.611 17.791c16.872 7.403 18.042 19.37 18.137 20.869-.014-.669.107-3.4 2.65-5.408a6.863 6.863 0 0 1 3.162 5.114c-.067-1.499-.067-13.52 15.998-22.53-5.073-11.766 6.821-18.54 6.821-18.54s-15.54-5.435 3.216-23.118Z"/><path d="M296.178 363.059v-.161a.503.503 0 0 0 0 .161ZM72.924 510.401s.013-.04.053-.12c-.026.08-.053.12-.053.12Z"/><path d="M113.893 472.743c-25.281 2.276-33.206 21.244-33.206 21.244s2.247-5.461 1.467-8.848c-2.1 5.796-4.386 7.603-4.386 7.603s-.323-2.891 2.314-8.46c-2.96 1.847-5.261 7.282-5.261 7.282s7.898-18.968-8.342-38.392c9.324 18.353-3.834 18.272-3.834 18.272s7.117 8.287.107 15.796c9.647 11.098 6.391 20.16 5.934 21.272a5.507 5.507 0 0 1 3.767-2.999c1.372 2.182.713 4.27.525 4.779.47-1.111 4.601-9.799 19.32-10.843.39-10.241 11.316-11.084 11.316-11.084s-9.365-9.223 10.279-15.622ZM68.633 508.636s.013-.04.053-.12c-.04.08-.053.12-.053.12ZM140.168 499.315s.013-.04.054-.12c-.041.08-.054.12-.054.12ZM181.124 461.649c-25.282 2.276-33.206 21.245-33.206 21.245s2.247-5.462 1.466-8.849c-2.099 5.796-4.386 7.604-4.386 7.604s-.323-2.892 2.314-8.461c-2.96 1.848-5.261 7.283-5.261 7.283s7.898-18.969-8.341-38.393c9.324 18.353-3.835 18.273-3.835 18.273s7.117 8.286.108 15.796c9.647 11.097 6.391 20.16 5.933 21.271a5.51 5.51 0 0 1 3.767-2.999c1.373 2.182.713 4.271.525 4.779.471-1.111 4.602-9.799 19.321-10.843.39-10.24 11.315-11.084 11.315-11.084s-9.364-9.223 10.28-15.622ZM135.863 497.542s.014-.04.054-.12c-.04.08-.054.12-.054.12ZM421.156 471.703c-29.815 15.582-29.842 42.837-29.842 42.837s-.041-7.831-2.718-11.579c.377 8.165-1.494 11.539-1.494 11.539s-1.87-3.374-1.493-11.539c-2.678 3.748-2.718 11.579-2.718 11.579s-.027-27.242-29.842-42.837c20.814 17.777 4.628 24.337 4.628 24.337s12.957 6.559 8.194 19.303c17.505 8.715 18.123 21.472 18.137 23.065a7.323 7.323 0 0 1 3.094-5.596 7.304 7.304 0 0 1 3.095 5.596c.013-1.593.632-14.35 18.137-23.065-4.763-12.744 8.194-19.303 8.194-19.303s-16.186-6.56 4.628-24.337ZM233.679 505.391c-35.521 18.553-35.534 51.015-35.534 51.015s-.054-9.316-3.243-13.788c.458 9.719-1.776 13.735-1.776 13.735s-2.233-4.016-1.776-13.735c-3.188 4.472-3.242 13.788-3.242 13.788s-.027-32.448-35.534-51.015c24.784 21.164 5.517 28.981 5.517 28.981s15.432 7.818 9.768 22.998c20.841 10.388 21.581 25.568 21.594 27.469.027-.856.35-4.283 3.673-6.653a8.643 8.643 0 0 1 3.674 6.653c.013-1.901.753-17.081 21.594-27.469-5.664-15.18 9.768-22.998 9.768-22.998s-19.267-7.804 5.517-28.981ZM945.698 494.219c-35.52 18.553-35.534 51.016-35.534 51.016s-.053-9.317-3.242-13.788c.457 9.718-1.776 13.734-1.776 13.734s-2.234-4.016-1.776-13.734c-3.189 4.471-3.243 13.788-3.243 13.788s-.027-32.449-35.533-51.016c24.783 21.164 5.516 28.981 5.516 28.981s15.433 7.818 9.768 22.998c20.841 10.388 21.581 25.569 21.595 27.47.027-.857.35-4.284 3.673-6.654a8.64 8.64 0 0 1 3.673 6.654c.013-1.901.753-17.082 21.595-27.47-5.665-15.18 9.768-22.998 9.768-22.998s-19.267-7.817 5.516-28.981ZM491.455 451.211c-29.816 15.582-29.842 42.837-29.842 42.837s-.041-7.831-2.718-11.58c.376 8.166-1.494 11.54-1.494 11.54s-1.87-3.374-1.493-11.54c-2.678 3.749-2.718 11.58-2.718 11.58s-.027-27.242-29.842-42.837c20.814 17.777 4.628 24.337 4.628 24.337s12.957 6.559 8.194 19.303c17.504 8.714 18.123 21.472 18.137 23.065a7.323 7.323 0 0 1 3.094-5.596 7.304 7.304 0 0 1 3.095 5.596c.013-1.593.632-14.351 18.137-23.065-4.763-12.744 8.193-19.303 8.193-19.303s-16.185-6.56 4.629-24.337Z"/><path d="M459.501 492.438c-25.282 2.276-33.206 21.245-33.206 21.245s2.247-5.462 1.466-8.849c-2.099 5.796-4.386 7.604-4.386 7.604s-.323-2.892 2.314-8.461c-2.96 1.848-5.261 7.283-5.261 7.283s7.898-18.969-8.342-38.393c9.325 18.353-3.834 18.273-3.834 18.273s7.117 8.286.108 15.796c9.647 11.097 6.391 20.16 5.933 21.271a5.51 5.51 0 0 1 3.767-2.999c1.373 2.182.713 4.271.525 4.779.471-1.111 4.602-9.799 19.321-10.843.39-10.24 11.315-11.084 11.315-11.084s-9.364-9.236 10.28-15.622ZM491.643 517.542s.013-.04.053-.12c-.04.08-.053.12-.053.12Z"/><path d="M532.612 479.884c-25.281 2.275-33.206 21.244-33.206 21.244s2.247-5.462 1.466-8.849c-2.098 5.797-4.386 7.604-4.386 7.604s-.323-2.892 2.314-8.46c-2.96 1.847-5.26 7.282-5.26 7.282s7.898-18.969-8.342-38.393c9.324 18.353-3.835 18.273-3.835 18.273s7.118 8.286.108 15.796c9.647 11.098 6.391 20.16 5.933 21.271a5.51 5.51 0 0 1 3.768-2.998c1.372 2.182.713 4.27.524 4.779.471-1.111 4.602-9.799 19.321-10.843.39-10.241 11.316-11.084 11.316-11.084s-9.378-9.224 10.279-15.622ZM487.336 515.753s.013-.04.053-.12a.995.995 0 0 0-.053.12ZM268.566 476.953c-29.815 15.582-29.842 42.837-29.842 42.837s-.04-7.831-2.718-11.579c.377 8.165-1.493 11.539-1.493 11.539s-1.871-3.374-1.494-11.539c-2.677 3.748-2.718 11.579-2.718 11.579s-.027-27.242-29.842-42.837c20.814 17.777 4.628 24.337 4.628 24.337s12.957 6.559 8.194 19.303c17.505 8.715 18.124 21.472 18.137 23.065a7.322 7.322 0 0 1 3.095-5.596 7.305 7.305 0 0 1 3.094 5.596c.014-1.593.633-14.35 18.137-23.065-4.763-12.744 8.194-19.303 8.194-19.303s-16.186-6.56 4.628-24.337Z"/><path d="M236.612 515.649c-25.281 2.276-33.206 21.245-33.206 21.245s2.247-5.462 1.466-8.849c-2.098 5.796-4.386 7.604-4.386 7.604s-.323-2.892 2.314-8.461c-2.96 1.848-5.26 7.283-5.26 7.283s7.898-18.969-8.342-38.393c9.324 18.353-3.835 18.273-3.835 18.273s7.118 8.286.108 15.796c9.647 11.097 6.391 20.16 5.933 21.271a5.513 5.513 0 0 1 3.768-2.999c1.372 2.182.713 4.271.524 4.779.471-1.111 4.602-9.799 19.321-10.843.39-10.24 11.316-11.084 11.316-11.084s-9.378-9.223 10.279-15.622ZM309.711 509.409c-25.281 2.276-33.205 21.245-33.205 21.245s2.246-5.462 1.466-8.836c-2.099 5.797-4.386 7.604-4.386 7.604s-.323-2.891 2.314-8.46c-2.96 1.847-5.261 7.282-5.261 7.282s7.898-18.969-8.342-38.392c9.325 18.352-3.834 18.272-3.834 18.272s7.117 8.286.108 15.796c9.647 11.098 6.39 20.16 5.933 21.271a5.507 5.507 0 0 1 3.767-2.998c1.373 2.182.713 4.27.525 4.779.471-1.111 4.602-9.799 19.321-10.843.39-10.241 11.315-11.084 11.315-11.084s-9.364-9.237 10.279-15.636Z"/><path d="M225.203 461.18c-29.815 15.582-29.842 42.836-29.842 42.836s-.041-7.831-2.718-11.579c.376 8.152-1.494 11.539-1.494 11.539s-1.87-3.373-1.493-11.539c-2.678 3.748-2.718 11.579-2.718 11.579s-.027-27.241-29.842-42.836c20.814 17.777 4.628 24.336 4.628 24.336s12.957 6.56 8.194 19.304c17.504 8.714 18.123 21.472 18.137 23.064.027-.709.296-3.6 3.094-5.595a7.304 7.304 0 0 1 3.095 5.595c.013-1.592.632-14.35 18.137-23.064-4.763-12.744 8.194-19.304 8.194-19.304s-16.173-6.559 4.628-24.336ZM288.561 509.972s.013-.04.053-.12c-.04.08-.053.12-.053.12Z"/><path d="M329.516 472.315c-25.281 2.276-33.206 21.245-33.206 21.245s2.247-5.462 1.467-8.835c-2.099 5.796-4.386 7.603-4.386 7.603s-.323-2.891 2.314-8.46c-2.96 1.847-5.261 7.282-5.261 7.282s7.898-18.968-8.342-38.392c9.324 18.353-3.834 18.272-3.834 18.272s7.117 8.287.107 15.796c9.647 11.098 6.391 20.16 5.934 21.272a5.505 5.505 0 0 1 3.767-2.999c1.372 2.182.713 4.27.525 4.779.471-1.111 4.601-9.799 19.321-10.843.39-10.241 11.315-11.084 11.315-11.084s-9.365-9.237 10.279-15.636Z"/><path d="M284.256 508.19s.013-.04.053-.12a.995.995 0 0 0-.053.12ZM837.387 424.891c-29.816 15.581-29.843 42.836-29.843 42.836s-.04-7.831-2.718-11.579c.377 8.166-1.493 11.539-1.493 11.539s-1.87-3.373-1.494-11.539c-2.677 3.748-2.717 11.579-2.717 11.579s-.027-27.241-29.843-42.836c20.815 17.777 4.629 24.336 4.629 24.336s12.956 6.56 8.193 19.304c17.505 8.714 18.124 21.471 18.137 23.064a7.32 7.32 0 0 1 3.095-5.595 7.3 7.3 0 0 1 3.094 5.595c.014-1.593.633-14.35 18.137-23.064-4.763-12.744 8.194-19.304 8.194-19.304s-16.186-6.559 4.629-24.336ZM800.252 491.77v-.161a.5.5 0 0 0 0 .161ZM614.04 444.891c-32.803 17.148-32.829 47.12-32.829 47.12s-.054-8.607-3.001-12.744c.417 8.982-1.641 12.69-1.641 12.69s-2.059-3.708-1.642-12.69c-2.946 4.123-3 12.744-3 12.744s-.027-29.972-32.829-47.12c22.899 19.557 5.099 26.773 5.099 26.773s14.262 7.215 9.015 21.244c19.253 9.598 19.939 23.627 19.953 25.381a7.993 7.993 0 0 1 3.404-6.145 8.01 8.01 0 0 1 3.404 6.145c.013-1.754.699-15.783 19.953-25.381-5.234-14.016 9.014-21.244 9.014-21.244s-17.8-7.229 5.1-26.773Z"/><path d="M573.178 518.461v-.188a.65.65 0 0 0 0 .188ZM551.156 454.189s.014-.041.041-.134c-.027.08-.041.134-.041.134ZM591.532 409.715c-26.963 4.9-33.637 26.05-33.637 26.05s1.884-6.09.714-9.651c-1.696 6.425-3.97 8.594-3.97 8.594s-.632-3.079 1.655-9.317c-3 2.262-4.938 8.34-4.938 8.34s6.634-21.164-12.714-40.481c11.826 18.835-2.341 20.026-2.341 20.026s8.463 8.233 1.655 16.974c11.463 11.004 8.839 21.057 8.449 22.302a5.936 5.936 0 0 1 3.767-3.601c1.682 2.222 1.198 4.525 1.037 5.087.39-1.232 3.995-10.99 19.724-13.534-.592-11.044 11.087-13.011 11.087-13.011s-10.993-8.996 9.512-17.778ZM546.35 452.689l.04-.134c-.027.08-.04.134-.04.134ZM1031.71 354.391c-29.81 15.581-29.84 42.836-29.84 42.836s-.04-7.831-2.717-11.579c.376 8.152-1.494 11.539-1.494 11.539s-1.87-3.373-1.493-11.539c-2.678 3.748-2.718 11.579-2.718 11.579s-.027-27.241-29.843-42.836c20.815 17.777 4.629 24.336 4.629 24.336s12.957 6.56 8.194 19.304c17.504 8.714 18.123 21.471 18.136 23.064.027-.709.297-3.6 3.095-5.595 2.801 1.995 3.071 4.873 3.091 5.595.02-1.593.64-14.35 18.14-23.064-4.76-12.744 8.19-19.304 8.19-19.304s-16.18-6.573 4.63-24.336ZM676.283 429.203c-29.815 15.582-29.842 42.837-29.842 42.837s-.041-7.831-2.718-11.579c.377 8.152-1.494 11.539-1.494 11.539s-1.87-3.374-1.493-11.539c-2.678 3.748-2.718 11.579-2.718 11.579s-.027-27.242-29.842-42.837c20.814 17.777 4.628 24.337 4.628 24.337s12.957 6.559 8.194 19.303c17.505 8.715 18.123 21.472 18.137 23.065a7.323 7.323 0 0 1 3.094-5.596 7.304 7.304 0 0 1 3.095 5.596c.013-1.593.632-14.35 18.137-23.065-4.763-12.744 8.194-19.303 8.194-19.303s-16.186-6.56 4.628-24.337ZM877.98 414.429l.041-.148-.041.148ZM924.721 362.969c-31.214 5.662-38.937 30.159-38.937 30.159s2.166-7.041.82-11.177c-1.964 7.443-4.601 9.946-4.601 9.946s-.727-3.561 1.924-10.79c-3.471 2.624-5.718 9.652-5.718 9.652s7.682-24.497-14.72-46.853c13.684 21.807-2.718 23.172-2.718 23.172s9.795 9.531 1.911 19.652c13.266 12.744 10.225 24.376 9.781 25.809a6.879 6.879 0 0 1 4.36-4.163c1.951 2.57 1.372 5.247 1.197 5.89.458-1.433 4.629-12.718 22.819-15.663-.672-12.784 12.823-15.059 12.823-15.059s-12.675-10.428 11.059-20.575ZM872.422 412.702s.013-.054.054-.147c-.041.093-.054.147-.054.147ZM928.504 479.665s.013-.04.04-.134c-.027.081-.04.134-.04.134ZM968.88 435.208c-26.963 4.899-33.637 26.05-33.637 26.05s1.884-6.091.713-9.652c-1.695 6.426-3.969 8.594-3.969 8.594s-.632-3.079 1.655-9.317c-3 2.263-4.938 8.34-4.938 8.34s6.633-21.164-12.714-40.481c11.826 18.835-2.342 20.026-2.342 20.026s8.463 8.233 1.655 16.975c11.464 11.003 8.84 21.056 8.45 22.301.188-.548 1.103-2.73 3.767-3.601 1.682 2.223 1.198 4.525 1.036 5.087.39-1.231 3.996-10.99 19.725-13.533-.592-11.044 11.086-13.012 11.086-13.012s-10.992-9.009 9.513-17.777ZM923.697 478.165s.014-.04.041-.134a2.823 2.823 0 0 1-.041.134ZM909.814 252.001s.027-.053.054-.134c-.04.094-.054.134-.054.134ZM955.884 207.211c-29.116 3.454-37.646 25.595-37.646 25.595s2.408-6.372 1.399-10.254c-2.234 6.747-4.817 8.915-4.817 8.915s-.471-3.32 2.395-9.839c-3.35 2.222-5.826 8.568-5.826 8.568s8.49-22.155-10.885-44.055c11.37 20.896-3.834 21.217-3.834 21.217s8.49 9.344.632 18.233c11.504 12.503 8.033 23.064 7.535 24.363a6.347 6.347 0 0 1 4.251-3.588c1.655 2.477.969 4.913.767 5.502.512-1.298 4.992-11.472 21.958-13.145.108-11.834 12.701-13.159 12.701-13.159s-11.1-10.335 11.37-18.353ZM904.795 250.103s.013-.04.054-.134a.674.674 0 0 0-.054.134ZM21.27 195.031c-29.115 3.454-37.646 25.595-37.646 25.595s2.409-6.372 1.4-10.254c-2.234 6.747-4.817 8.916-4.817 8.916s-.471-3.32 2.395-9.839c-3.35 2.222-5.826 8.567-5.826 8.567s8.49-22.155-10.885-44.055c11.37 20.896-3.834 21.218-3.834 21.218s8.49 9.343.632 18.232c11.504 12.503 8.032 23.065 7.535 24.363a6.346 6.346 0 0 1 4.265-3.587c1.655 2.476.968 4.913.767 5.502.497-1.299 4.991-11.473 21.958-13.146.107-11.834 12.7-13.159 12.7-13.159s-11.126-10.348 11.356-18.353ZM661.776 501.477c-24.367 12.73-24.38 34.992-24.38 34.992s-.04-6.399-2.22-9.464c.309 6.666-1.211 9.424-1.211 9.424s-1.534-2.758-1.211-9.424c-2.193 3.065-2.22 9.464-2.22 9.464s-.013-22.262-24.38-34.992c17.007 14.524 3.781 19.878 3.781 19.878s10.589 5.368 6.7 15.77c14.303 7.121 14.814 17.549 14.814 18.848.013-.589.242-2.945 2.529-4.565 2.288 1.62 2.503 3.989 2.53 4.565.013-1.299.511-11.727 14.813-18.848-3.888-10.415 6.701-15.77 6.701-15.77s-13.239-5.354 3.754-19.878ZM651.267 358.961c-28.873 15.087-28.887 41.471-28.887 41.471s-.04-7.576-2.637-11.204c.364 7.898-1.439 11.164-1.439 11.164s-1.817-3.266-1.44-11.164c-2.597 3.628-2.637 11.204-2.637 11.204s-.027-26.384-28.887-41.471c20.155 17.215 4.48 23.56 4.48 23.56s12.553 6.359 7.938 18.688c16.94 8.447 17.545 20.789 17.559 22.328a7.057 7.057 0 0 1 2.987-5.408c2.704 1.928 2.973 4.726 2.987 5.408.013-1.539.618-13.895 17.558-22.328-4.615-12.343 7.938-18.688 7.938-18.688s-15.675-6.345 4.48-23.56ZM615.305 423.715v-.16a.46.46 0 0 0 0 .16ZM747.188 422.403v-.161a.468.468 0 0 0 0 .161ZM775.968 360.234c-27.73 14.485-27.744 39.825-27.744 39.825s-.04-7.269-2.529-10.763c.35 7.591-1.386 10.723-1.386 10.723s-1.736-3.132-1.386-10.723c-2.489 3.494-2.529 10.763-2.529 10.763s-.027-25.327-27.744-39.825c19.348 16.533 4.306 22.624 4.306 22.624s12.042 6.104 7.629 17.951c16.266 8.112 16.845 19.959 16.858 21.445a6.77 6.77 0 0 1 2.866-5.194c2.597 1.847 2.852 4.538 2.866 5.194.013-1.486.592-13.333 16.859-21.445-4.427-11.847 7.628-17.951 7.628-17.951s-15.042-6.105 4.306-22.624ZM707.001 308.827s-.027-.054-.067-.147c.04.093.067.147.067.147Z"/><path d="M708.952 239.484c-20.034 24.484-9.93 48.098-9.93 48.098s-2.947-6.76-6.66-9.022c3.364 6.934 3 10.535 3 10.535s-2.879-2.236-5.583-9.438c-.929 4.244 1.951 11.031 1.951 11.031s-10.159-23.601-41.777-26.117c24.636 7.737 13.064 19.383 13.064 19.383s13.67.911 14.289 13.708c18.406 1.111 23.694 11.927 24.286 13.306a6.858 6.858 0 0 1 .592-5.984c3.162.697 4.467 3.093 4.749 3.708-.578-1.378-4.79-12.663 7.131-26.652-8.866-9.29-.08-19.745-.08-19.745s-16.442.254-5.032-22.811Z"/><path d="M701.647 311.108s-.013-.053-.067-.147c.04.094.067.147.067.147ZM830.431 223.159s-.027-.027-.068-.081a.865.865 0 0 0 .068.081Z"/><path d="M820.783 179.305c-8.745 18.486 1.306 31.752 1.306 31.752s-2.907-3.788-5.598-4.631c3.203 3.828 3.539 6.157 3.539 6.157s-2.153-.95-4.992-5.06c.081 2.812 2.96 6.627 2.96 6.627s-10.077-13.253-30.34-9.92c16.697 1.031 11.248 10.147 11.248 10.147s8.732-1.553 11.127 6.399c11.733-2.155 16.751 3.815 17.343 4.592a4.46 4.46 0 0 1-.565-3.856c2.099-.053 3.296 1.245 3.566 1.593-.579-.776-4.992-7.215.296-17.857-7.024-4.458-3.149-12.396-3.149-12.396s-10.306 2.704-6.741-13.547Z"/><path d="M827.417 225.424s-.027-.026-.067-.08c.04.054.067.08.067.08ZM507.682 61.87s0-.013.013-.026c-.013.013-.013.026-.013.026ZM518.541 51.273c-8.153 1.057-9.445 6.157-9.445 6.157s.363-1.472-.121-2.342c-.296 1.553-.915 2.061-.915 2.061s-.309-.75.175-2.249c-.848.536-1.224 1.995-1.224 1.995s1.291-5.1-5.382-9.88c4.332 4.632 0 4.846 0 4.846s2.906 2.035 1.117 4.124c3.928 2.717 3.484 5.153 3.417 5.448.04-.134.242-.656 1.036-.857.606.549.525 1.098.498 1.245.081-.294.834-2.65 5.597-3.186-.579-2.677 2.96-3.106 2.96-3.106s-3.727-2.222 2.287-4.257ZM506.137 61.487s0-.013.013-.026c0 .013-.013.026-.013.026ZM412.987 323.308s-.013-.04-.053-.12c.04.08.053.12.053.12ZM414.333 263.672c-17.114 21.151-8.302 41.404-8.302 41.404s-2.569-5.796-5.772-7.737c2.933 5.943 2.624 9.049 2.624 9.049s-2.489-1.901-4.844-8.099c-.78 3.655 1.722 9.478 1.722 9.478s-8.839-20.24-36.058-22.262c21.231 6.533 11.329 16.599 11.329 16.599s11.759.723 12.351 11.714c15.836.87 20.424 10.147 20.949 11.325a5.852 5.852 0 0 1 .484-5.141c2.718.576 3.862 2.637 4.104 3.159-.511-1.191-4.171-10.869 6.001-22.957-7.669-7.939-.162-16.974-.162-16.974s-14.127.334-4.426-19.558ZM408.399 325.292s-.013-.04-.053-.12c.026.08.053.12.053.12ZM1010.04 289.602c-17.118 21.15-8.31 41.404-8.31 41.404s-2.565-5.796-5.768-7.737c2.933 5.943 2.624 9.049 2.624 9.049s-2.489-1.901-4.844-8.099c-.78 3.655 1.723 9.478 1.723 9.478s-8.84-20.241-36.059-22.262c21.232 6.533 11.329 16.599 11.329 16.599s11.759.723 12.351 11.713c15.836.87 20.424 10.147 20.954 11.325a5.822 5.822 0 0 1 .48-5.14c2.72.576 3.86 2.637 4.1 3.159-.51-1.191-4.18-10.87 6-22.958-7.67-7.938-.16-16.974-.16-16.974s-14.12.321-4.42-19.557ZM643.991 114.821l-.04-.04.04.04ZM635.392 89.977c-3.834 11.338 2.92 18.366 2.92 18.366s-1.951-2.008-3.566-2.316c2.126 2.008 2.476 3.347 2.476 3.347s-1.318-.415-3.242-2.611c.242 1.62 2.166 3.655 2.166 3.655s-6.755-7.028-18.312-3.722c9.781-.522 7.225 5.141 7.225 5.141s4.965-1.486 6.902 2.971c6.674-2.048 9.997 1.098 10.401 1.5a2.575 2.575 0 0 1-.592-2.196 2.62 2.62 0 0 1 2.179.683c-.39-.415-3.39-3.855-1.036-10.401-4.386-2.115-2.664-6.988-2.664-6.988s-5.812 2.262-4.857-7.43ZM642.387 116.352l-.039-.04c.026.014.039.04.039.04ZM636.996 233.463s0-.026-.014-.08c.014.054.014.08.014.08Z"/><path d="M649.293 199.625c-13.872 8.822-12.755 22.088-12.755 22.088s-.35-3.815-1.803-5.529c.524 3.962-.243 5.676-.243 5.676s-1.049-1.566-1.21-5.555c-1.144 1.941-.848 5.756-.848 5.756s-1.144-13.266-16.307-19.638c10.871 7.804 3.269 11.659 3.269 11.659s6.58 2.664 4.79 9.063c8.88 3.534 9.714 9.719 9.795 10.495a3.55 3.55 0 0 1 1.278-2.851 3.577 3.577 0 0 1 1.736 2.597c-.067-.777-.283-7.015 7.871-11.981-2.852-6.011 3.189-9.746 3.189-9.746s-8.154-2.53 1.238-12.034ZM838.289 362.778s0-.054-.014-.161c.014.094.014.161.014.161Z"/><path d="M864.325 298.43c-27.34 16.037-26.102 41.672-26.102 41.672s-.404-7.363-3.095-10.763c.74 7.657-.861 10.923-.861 10.923s-1.911-3.092-1.937-10.789c-2.342 3.654-2.032 11.017-2.032 11.017s-1.278-25.635-30.058-38.928c20.411 15.769 5.49 22.69 5.49 22.69s12.499 5.582 8.611 17.791c16.872 7.403 18.042 19.37 18.137 20.869-.014-.669.107-3.4 2.65-5.408a6.863 6.863 0 0 1 3.162 5.114c-.067-1.499-.067-13.52 15.997-22.53-5.072-11.766 6.822-18.54 6.822-18.54s-15.54-5.435 3.216-23.118ZM520.25 369.577s.013-.054.04-.147c-.027.093-.04.147-.04.147ZM566.991 318.109c-31.215 5.663-38.938 30.16-38.938 30.16s2.166-7.041.821-11.164c-1.964 7.443-4.602 9.946-4.602 9.946s-.726-3.561 1.924-10.79c-3.471 2.624-5.718 9.652-5.718 9.652s7.683-24.497-14.719-46.866c13.683 21.806-2.718 23.172-2.718 23.172s9.795 9.531 1.911 19.651c13.266 12.744 10.225 24.377 9.781 25.809a6.879 6.879 0 0 1 4.359-4.163c1.951 2.57 1.373 5.248 1.198 5.89.457-1.432 4.628-12.717 22.819-15.662-.673-12.784 12.822-15.06 12.822-15.06s-12.688-10.414 11.06-20.575ZM514.691 367.843s.014-.054.054-.148c-.04.094-.054.148-.054.148ZM461.115 357.137s0-.053-.013-.16c.013.093.013.16.013.16Z"/><path d="M487.151 292.789c-27.34 16.037-26.102 41.672-26.102 41.672s-.404-7.362-3.095-10.763c.74 7.658-.861 10.924-.861 10.924s-1.91-3.092-1.937-10.79c-2.341 3.655-2.032 11.017-2.032 11.017s-1.278-25.635-30.058-38.928c20.411 15.77 5.49 22.691 5.49 22.691s12.499 5.582 8.611 17.79c16.872 7.403 18.042 19.37 18.137 20.87-.014-.67.107-3.4 2.65-5.408a6.862 6.862 0 0 1 3.162 5.113c-.067-1.499-.067-13.52 15.998-22.529-5.073-11.767 6.821-18.54 6.821-18.54s-15.54-5.435 3.216-23.119Z"/><path d="M455.305 357.419v-.161a.503.503 0 0 0 0 .161ZM609.236 510.401s.014-.04.054-.12c-.04.08-.054.12-.054.12Z"/><path d="M650.206 472.743C624.924 475.019 617 493.987 617 493.987s2.247-5.461 1.466-8.848c-2.099 5.796-4.386 7.603-4.386 7.603s-.323-2.891 2.314-8.46c-2.96 1.847-5.261 7.282-5.261 7.282s7.898-18.968-8.341-38.392c9.324 18.353-3.835 18.272-3.835 18.272s7.118 8.287.108 15.796c9.647 11.098 6.391 20.16 5.933 21.272a5.508 5.508 0 0 1 3.767-2.999c1.373 2.182.714 4.27.525 4.779.471-1.111 4.602-9.799 19.321-10.843.39-10.241 11.315-11.084 11.315-11.084s-9.378-9.223 10.28-15.622ZM604.93 508.636s.013-.04.053-.12c-.04.08-.053.12-.053.12ZM676.471 499.315s.013-.04.053-.12c-.04.08-.053.12-.053.12Z"/><path d="M717.44 461.649c-25.281 2.276-33.206 21.245-33.206 21.245s2.247-5.462 1.467-8.849c-2.099 5.796-4.387 7.604-4.387 7.604s-.322-2.892 2.315-8.461c-2.96 1.848-5.261 7.283-5.261 7.283s7.898-18.969-8.342-38.393c9.324 18.353-3.835 18.273-3.835 18.273s7.118 8.286.108 15.796c9.647 11.097 6.391 20.16 5.934 21.271a5.508 5.508 0 0 1 3.767-2.999c1.372 2.182.713 4.271.525 4.779.471-1.111 4.601-9.799 19.32-10.843.391-10.24 11.316-11.084 11.316-11.084s-9.378-9.223 10.279-15.622ZM672.164 497.542s.013-.04.054-.12c-.041.08-.054.12-.054.12ZM530.393 503.059s.026-.053.067-.161c-.054.108-.067.161-.067.161ZM584.91 452.959c-33.65 3.038-44.185 28.272-44.185 28.272s2.987-7.269 1.951-11.767c-2.798 7.711-5.839 10.12-5.839 10.12s-.43-3.842 3.081-11.258c-3.929 2.45-6.996 9.692-6.996 9.692s10.508-25.247-11.1-51.096c12.418 24.43-5.113 24.31-5.113 24.31s9.472 11.03.135 21.016c12.849 14.766 8.503 26.827 7.884 28.3.296-.656 1.655-3.227 5.019-4.003a7.247 7.247 0 0 1 .699 6.359c.619-1.473 6.122-13.052 25.712-14.431.511-13.628 15.056-14.752 15.056-14.752s-12.459-12.262 13.696-20.762ZM524.66 500.708s.027-.054.067-.161c-.04.107-.067.161-.067.161ZM957.455 471.703c-29.816 15.582-29.842 42.837-29.842 42.837s-.041-7.831-2.718-11.579c.376 8.165-1.494 11.539-1.494 11.539s-1.87-3.374-1.493-11.539c-2.678 3.748-2.718 11.579-2.718 11.579s-.027-27.242-29.842-42.837c20.814 17.777 4.628 24.337 4.628 24.337s12.957 6.559 8.194 19.303c17.504 8.715 18.123 21.472 18.137 23.065a7.323 7.323 0 0 1 3.094-5.596 7.304 7.304 0 0 1 3.095 5.596c.013-1.593.632-14.35 18.137-23.065-4.763-12.744 8.193-19.303 8.193-19.303s-16.185-6.56 4.629-24.337ZM759.808 511.781c-29.815 15.582-29.842 42.837-29.842 42.837s-.04-7.831-2.718-11.579c.377 8.152-1.493 11.539-1.493 11.539s-1.87-3.374-1.494-11.539c-2.677 3.748-2.718 11.579-2.718 11.579s-.026-27.242-29.842-42.837c20.814 17.777 4.629 24.337 4.629 24.337s12.956 6.559 8.193 19.303c17.505 8.715 18.124 21.472 18.137 23.065a7.32 7.32 0 0 1 3.095-5.595 7.303 7.303 0 0 1 3.094 5.595c.014-1.593.633-14.35 18.137-23.065-4.763-12.744 8.194-19.303 8.194-19.303s-16.186-6.56 4.628-24.337ZM1027.76 451.211c-29.82 15.582-29.847 42.837-29.847 42.837s-.04-7.831-2.718-11.58c.377 8.166-1.493 11.54-1.493 11.54s-1.87-3.374-1.493-11.54c-2.678 3.749-2.718 11.58-2.718 11.58s-.027-27.242-29.843-42.837c20.815 17.777 4.629 24.337 4.629 24.337s12.957 6.559 8.194 19.303c17.504 8.714 18.123 21.472 18.136 23.065a7.322 7.322 0 0 1 3.095-5.596 7.304 7.304 0 0 1 3.095 5.596c.013-1.593.632-14.351 18.133-23.065-4.76-12.744 8.2-19.303 8.2-19.303s-16.18-6.56 4.63-24.337ZM6.847 515.278l-.04-.161c.027.094.04.161.04.161ZM-40.728 458.881c32.896 7.215 40.135 33.493 40.135 33.493s-2.032-7.563-.444-11.887c1.789 7.965 4.493 10.736 4.493 10.736s.915-3.748-1.614-11.513c3.579 2.919 5.691 10.455 5.691 10.455s-7.198-26.291 17.45-49.142c-15.364 22.597 1.979 24.685 1.979 24.685s-10.764 9.732-2.799 20.776c-14.571 12.998-11.8 25.461-11.383 27a7.303 7.303 0 0 0-4.466-4.578c-2.167 2.651-1.669 5.502-1.494 6.198-.43-1.539-4.413-13.667-23.6-17.496 1.212-13.547-13.023-16.479-13.023-16.479s13.858-10.562-10.925-22.248ZM12.808 513.661l-.04-.161c.026.094.04.161.04.161Z"/><path d="M995.803 492.438c-25.281 2.276-33.206 21.245-33.206 21.245s2.247-5.462 1.467-8.849c-2.099 5.796-4.386 7.604-4.386 7.604s-.323-2.892 2.314-8.461c-2.96 1.848-5.261 7.283-5.261 7.283s7.898-18.969-8.342-38.393c9.324 18.353-3.834 18.273-3.834 18.273s7.117 8.286.107 15.796c9.647 11.097 6.391 20.16 5.934 21.271a5.51 5.51 0 0 1 3.767-2.999c1.373 2.182.713 4.271.525 4.779.471-1.111 4.601-9.799 19.321-10.843.39-10.24 11.315-11.084 11.315-11.084s-9.364-9.236 10.279-15.622ZM804.867 476.953c-29.815 15.582-29.842 42.837-29.842 42.837s-.041-7.831-2.718-11.579c.377 8.165-1.494 11.539-1.494 11.539s-1.87-3.374-1.493-11.539c-2.678 3.748-2.718 11.579-2.718 11.579s-.027-27.242-29.842-42.837c20.814 17.777 4.628 24.337 4.628 24.337s12.957 6.559 8.194 19.303c17.504 8.715 18.123 21.472 18.137 23.065a7.323 7.323 0 0 1 3.094-5.596 7.304 7.304 0 0 1 3.095 5.596c.013-1.593.632-14.35 18.137-23.065-4.763-12.744 8.194-19.303 8.194-19.303s-16.186-6.56 4.628-24.337Z"/><path d="M772.915 515.649c-25.282 2.276-33.206 21.245-33.206 21.245s2.247-5.462 1.466-8.849c-2.099 5.796-4.386 7.604-4.386 7.604s-.323-2.892 2.314-8.461c-2.96 1.848-5.261 7.283-5.261 7.283s7.898-18.969-8.341-38.393c9.324 18.353-3.835 18.273-3.835 18.273s7.117 8.286.108 15.796c9.647 11.097 6.391 20.16 5.933 21.271a5.51 5.51 0 0 1 3.767-2.999c1.373 2.182.714 4.271.525 4.779.471-1.111 4.602-9.799 19.321-10.843.39-10.24 11.315-11.084 11.315-11.084s-9.364-9.223 10.28-15.622ZM846.024 509.409c-25.281 2.276-33.206 21.245-33.206 21.245s2.247-5.462 1.467-8.836c-2.099 5.797-4.387 7.604-4.387 7.604s-.323-2.891 2.315-8.46c-2.96 1.847-5.261 7.282-5.261 7.282s7.898-18.969-8.342-38.392c9.324 18.352-3.835 18.272-3.835 18.272s7.118 8.286.108 15.796c9.647 11.098 6.391 20.16 5.933 21.271a5.51 5.51 0 0 1 3.768-2.998c1.372 2.182.713 4.27.525 4.779.47-1.111 4.601-9.799 19.32-10.843.391-10.241 11.316-11.084 11.316-11.084s-9.378-9.237 10.279-15.636Z"/><path d="M761.517 461.18c-29.815 15.582-29.842 42.836-29.842 42.836s-.04-7.831-2.718-11.579c.377 8.152-1.493 11.539-1.493 11.539s-1.87-3.373-1.494-11.539c-2.677 3.748-2.718 11.579-2.718 11.579s-.026-27.241-29.842-42.836c20.814 17.777 4.629 24.336 4.629 24.336s12.956 6.56 8.193 19.304c17.505 8.714 18.124 21.472 18.137 23.064.027-.709.296-3.6 3.095-5.595a7.305 7.305 0 0 1 3.094 5.595c.014-1.592.633-14.35 18.137-23.064-4.763-12.744 8.194-19.304 8.194-19.304s-16.186-6.559 4.628-24.336ZM824.859 509.971s.014-.04.054-.12c-.04.08-.054.12-.054.12Z"/><path d="M865.829 472.315c-25.282 2.276-33.206 21.245-33.206 21.245s2.247-5.462 1.466-8.835c-2.099 5.796-4.386 7.603-4.386 7.603s-.323-2.891 2.314-8.46c-2.96 1.847-5.261 7.282-5.261 7.282s7.898-18.968-8.341-38.392c9.324 18.353-3.835 18.272-3.835 18.272s7.118 8.287.108 15.796c9.647 11.098 6.391 20.16 5.933 21.272a5.508 5.508 0 0 1 3.767-2.999c1.373 2.182.714 4.27.525 4.779.471-1.111 4.602-9.799 19.321-10.843.39-10.241 11.315-11.084 11.315-11.084s-9.364-9.237 10.28-15.636ZM820.553 508.19s.013-.04.053-.12c-.027.08-.053.12-.053.12ZM97.653 433.841c-12.15-.214-27.784 6.252-27.784 6.252-4.763 8.179-8.086 15.1-10.373 18.031-.754-1.512-3-5.769-5.301-7.108 2.623 5.154 1.305 5.448 1.305 5.448s-1.103.79-3.23-4.591c-.524 2.61 1.171 7.108 1.817 8.674-3.713-.241-11.127-2.383-20.438-4.27 0 0-15.244 7.336-23.155 16.505 11.517-5.394 10.925 9.01 10.925 9.01s8.436-11.781 17.962 6.077c3.996-16.947 27.004-7.269 27.004-7.269s8.018-23.533 23.397-15.247c-7.077-18.942 7.373-17.389 7.373-17.389s-11.207-9.13.498-14.123ZM242.653 418.216c-12.149-.214-27.784 6.252-27.784 6.252-4.763 8.179-8.086 15.1-10.373 18.031-.754-1.512-3.001-5.769-5.301-7.108 2.623 5.154 1.305 5.448 1.305 5.448s-1.103.79-3.229-4.591c-.525 2.61 1.17 7.108 1.816 8.674-3.713-.241-11.127-2.383-20.437-4.27 0 0-15.245 7.336-23.156 16.505 11.517-5.394 10.925 9.009 10.925 9.009s8.436-11.78 17.962 6.078c3.996-16.947 27.004-7.269 27.004-7.269s8.019-23.533 23.397-15.247c-7.077-18.942 7.373-17.389 7.373-17.389s-11.207-9.143.498-14.123ZM400.717 460.672c-11.813-11.392-33.273-19.41-33.273-19.41-12.311 3.694-22.039 7.483-27.03 8.273.672-2.196 2.395-8.461 1.372-11.914-2.206 7.509-3.781 6.586-3.781 6.586s-1.816-.228 1.077-7.51c-2.933 2.102-5.449 8.112-6.27 10.241-3.444-3.668-8.786-12.597-16.226-23.039 0 0-21.878-6.787-38.238-5.019 16.401 5.274 2.422 18.968 2.422 18.968s19.293-3.869 12.095 22.543c19.711-13.065 33.448 17.684 33.448 17.684s29.829-15.877 37.323 6.479c10.63-25.234 23.465-10.402 23.465-10.402s-2.596-19.343 13.616-13.48Z"/><path d="M189.442 466.854c-9.432-14.27-29.453-27.268-29.453-27.268-13.387.977-24.151 2.637-29.411 2.315 1.184-2.074 4.372-8.085 4.117-11.82-3.956 7.149-5.355 5.85-5.355 5.85s-1.803-.642 2.812-7.403c-3.471 1.473-7.4 7.028-8.719 9.023-2.677-4.511-6.081-14.819-11.275-27.121 0 0-20.733-11.861-37.794-13.735 15.5 9.076-1.87 19.852-1.87 19.852s20.532.415 7.185 25.689c23.048-8.848 30.031 25.568 30.031 25.568s33.986-9.424 36.529 15.033c16.576-23.306 26.263-5.287 26.263-5.287s1.776-20.321 16.94-10.696ZM339.527 397.572c-15.54-7.269-46.997-.428-46.997-.428-8.664 7.51-23.855 24.778-23.855 24.778-.08-2.383-.511-9.156-2.704-12.222.377 8.166-1.493 7.778-1.493 7.778s-1.871.388-1.494-7.778c-2.18 3.066-2.61 9.839-2.704 12.222-4.656-2.45-12.957-9.478-23.855-17.268 0 0-31.457 8.179-46.997 15.448 17.989-.322 19.415 11.887 19.415 11.887s22.254-14.069 24.151 14.404c15.002-19.531 31.484 8.433 31.484 8.433s14.961-30.976 29.976-11.445c1.898-28.487 21.124-18.915 21.124-18.915s5.974-27.215 23.949-26.894ZM393.991 403.38c-12.15-.214-27.784 6.252-27.784 6.252-4.763 8.179-8.086 15.1-10.373 18.031-.754-1.512-3.001-5.769-5.301-7.108 2.623 5.154 1.305 5.448 1.305 5.448s-1.104.79-3.229-4.591c-.525 2.61 1.17 7.108 1.816 8.674-3.714-.241-11.127-2.383-20.438-4.27 0 0-15.244 7.336-23.155 16.506 11.517-5.395 10.925 9.009 10.925 9.009s8.436-11.781 17.962 6.077c3.996-16.947 27.003-7.269 27.003-7.269s8.019-23.533 23.398-15.247c-7.077-18.942 7.373-17.389 7.373-17.389s-11.208-9.143.498-14.123ZM538.991 387.755c-12.15-.214-27.784 6.252-27.784 6.252-4.763 8.179-8.086 15.1-10.373 18.031-.754-1.512-3.001-5.769-5.301-7.108 2.623 5.154 1.305 5.448 1.305 5.448s-1.104.79-3.229-4.591c-.525 2.61 1.17 7.108 1.816 8.674-3.714-.241-11.127-2.383-20.438-4.27 0 0-15.244 7.336-23.155 16.505 11.517-5.394 10.925 9.01 10.925 9.01s8.436-11.781 17.962 6.077c3.996-16.947 27.003-7.269 27.003-7.269s8.019-23.533 23.398-15.247c-7.077-18.942 7.373-17.389 7.373-17.389s-11.208-9.143.498-14.123ZM55.258 494.325c-10.562-.188-24.164 5.435-24.164 5.435-4.144 7.108-7.037 13.132-9.015 15.689-.659-1.326-2.61-5.02-4.615-6.185 2.288 4.485 1.13 4.739 1.13 4.739s-.955.683-2.812-3.989c-.457 2.262 1.023 6.184 1.588 7.536-3.229-.214-9.674-2.061-17.773-3.708 0 0-13.253 6.372-20.142 14.351 10.024-4.686 9.499 7.831 9.499 7.831s7.333-10.241 15.62 5.274c3.472-14.738 23.493-6.318 23.493-6.318s6.97-20.468 20.356-13.266c-6.162-16.466 6.405-15.127 6.405-15.127s-9.741-7.925.43-12.262Z"/><path d="M485.779 436.377c-9.431-14.27-29.452-27.268-29.452-27.268-13.387.977-24.151 2.637-29.411 2.316 1.184-2.075 4.372-8.086 4.117-11.82-3.956 7.148-5.355 5.85-5.355 5.85s-1.803-.643 2.812-7.403c-3.472 1.472-7.4 7.028-8.719 9.022-2.677-4.511-6.081-14.819-11.275-27.121 0 0-20.733-11.86-37.794-13.734 15.5 9.076-1.87 19.852-1.87 19.852s20.532.415 7.185 25.689c23.048-8.849 30.03 25.568 30.03 25.568s33.987-9.424 36.53 15.033c16.576-23.306 26.263-5.288 26.263-5.288s1.776-20.307 16.939-10.696ZM434.974 354.068c-6.122-12.155-29.183-23.279-29.183-23.279-9.136.455-27.178 3.815-27.178 3.815 1.13-1.54 4.211-5.984 4.359-8.969-3.794 5.287-4.776 4.136-4.776 4.136s-1.359-.682 2.919-5.595c-2.879.843-6.498 4.872-7.736 6.318-1.695-3.815-3.418-12.275-6.378-22.476 0 0-23.72-10.281-37.04-13.346 11.409 8.607 6.256 16.947 6.256 16.947s20.882 2.088 7.979 20.843c19.052-4.873 15.513 20.695 15.513 20.695s24.676-12.047 24.407 7.524c15.271-16.894 22.577-1.486 22.577-1.486s17.181-14.136 28.281-5.127ZM121.305 299.08c-5.53-10.976-26.371-21.03-26.371-21.03-8.248.415-24.568 3.454-24.568 3.454 1.022-1.392 3.808-5.408 3.942-8.099-3.43 4.779-4.319 3.735-4.319 3.735s-1.224-.616 2.637-5.06c-2.61.763-5.88 4.404-6.996 5.716-1.534-3.44-3.095-11.084-5.772-20.321 0 0-21.447-9.29-33.475-12.061 10.306 7.778 5.664 15.314 5.664 15.314s18.877 1.888 7.212 18.835c17.222-4.404 14.02 18.701 14.02 18.701s22.307-10.883 22.052 6.8c13.804-15.26 20.397-1.338 20.397-1.338s15.553-12.785 25.577-4.646ZM365.09 237.811c-8.759-1.473-23.491 6.291-23.491 6.291-3.27 4.94-8.436 15.663-8.436 15.663-.377-1.178-1.534-4.498-3.055-5.716 1.332 4.016.35 4.082.35 4.082s-.874.456-1.83-3.667c-.659 1.834.068 5.26.364 6.465-2.664-.575-7.79-2.931-14.316-5.314 0 0-14.544 8.433-21.272 14.216 8.921-2.65 11.343 3.24 11.343 3.24s9.122-10.094 14.06 3.842c4.749-11.821 16.885-.148 16.885-.148s3.135-17.522 13.347-9.852c-3.041-14.471 7.884-12.356 7.884-12.356s-.834-14.404 8.167-16.746ZM274.327 124.445c-4.656-5.141-17.478-7.497-17.478-7.497-4.413 1.446-12.822 5.529-12.822 5.529.35-.91 1.251-3.507.915-4.98-1.144 3.106-1.79 2.664-1.79 2.664s-.753-.147.673-3.132c-1.305.803-2.529 3.266-2.933 4.136-1.345-1.646-3.337-5.555-6.176-10.174 0 0-13.037-1.86-19.98-1.579 6.768 2.69 5.369 7.469 5.369 7.469s10.535-1.78 6.74 9.157c8.692-4.953 10.428 8.072 10.428 8.072s10.481-9.224 12.997.415c5.207-10.335 10.871-3.762 10.871-3.762s6.526-9.25 13.186-6.318ZM53.306 105.371c-2.18-.697-6.23.736-6.23.736-1.022 1.138-2.744 3.681-2.744 3.681-.054-.321-.229-1.205-.565-1.58.188 1.071-.067 1.058-.067 1.058s-.242.08-.323-1.004c-.242.442-.175 1.352-.148 1.66-.66-.241-1.884-1.044-3.458-1.888 0 0-4.036 1.62-5.96 2.838 2.381-.348 2.771 1.245 2.771 1.245s2.705-2.235 3.445 1.5c1.654-2.838 4.319.589 4.319.589s1.453-4.351 3.78-2.022c-.228-3.802 2.476-2.864 2.476-2.864s.31-3.682 2.704-3.949ZM263.94 187.294c-2.368-1.526-7.655-1.098-7.655-1.098-1.575 1.031-4.44 3.521-4.44 3.521.04-.389.121-1.5-.175-2.048-.121 1.338-.417 1.231-.417 1.231s-.31.027-.068-1.298c-.43.455-.646 1.552-.713 1.927-.699-.508-1.91-1.834-3.511-3.333 0 0-5.315.643-8.006 1.486 2.933.348 2.906 2.369 2.906 2.369s3.942-1.807 3.62 2.878c2.879-2.851 4.951 2.062 4.951 2.062s3.121-4.726 5.14-1.205c.941-4.605 3.861-2.624 3.861-2.624s1.588-4.31 4.507-3.868ZM366.813 230.712c-1.924-3.132-8.369-5.622-8.369-5.622-2.448.321-7.225 1.62-7.225 1.62.269-.442.996-1.7.969-2.504-.901 1.513-1.197 1.219-1.197 1.219s-.377-.148.659-1.567c-.754.295-1.642 1.459-1.938 1.874-.538-.99-1.197-3.226-2.22-5.916 0 0-6.619-2.249-10.265-2.785 3.256 2.062 2.058 4.418 2.058 4.418s5.665.107 2.61 5.435c5.019-1.727 4.642 5.234 4.642 5.234s6.378-3.789 6.741 1.486c3.74-4.886 6.041-.897 6.041-.897s4.319-4.163 7.494-1.995ZM20.475 278.197c-1.924-3.133-8.368-5.623-8.368-5.623-2.45.322-7.226 1.62-7.226 1.62.27-.442.996-1.7.97-2.503-.902 1.512-1.198 1.218-1.198 1.218s-.377-.147.659-1.566c-.753.294-1.641 1.459-1.937 1.874-.539-.991-1.198-3.226-2.22-5.917 0 0-6.62-2.249-10.266-2.784 3.256 2.061 2.058 4.417 2.058 4.417s5.665.107 2.61 5.435C.576 272.641.2 279.602.2 279.602s6.378-3.788 6.741 1.486c3.74-4.886 6.041-.897 6.041-.897s4.32-4.176 7.494-1.994ZM149.735 186.334c-8.759-1.472-23.492 6.292-23.492 6.292-3.269 4.939-8.436 15.662-8.436 15.662-.377-1.178-1.534-4.498-3.054-5.716 1.332 4.016.35 4.083.35 4.083s-.875.455-1.83-3.668c-.659 1.834.067 5.261.363 6.466-2.664-.576-7.79-2.932-14.315-5.315 0 0-14.545 8.434-21.272 14.217 8.92-2.651 11.342 3.239 11.342 3.239s9.122-10.093 14.06 3.842c4.75-11.82 16.886-.147 16.886-.147s3.135-17.523 13.347-9.853c-3.041-14.47 7.884-12.355 7.884-12.355s-.834-14.418 8.167-16.747ZM230.545 466.627c-15.54-7.269-46.997-.429-46.997-.429-8.665 7.51-23.855 24.779-23.855 24.779-.081-2.383-.511-9.157-2.704-12.222.376 8.152-1.494 7.777-1.494 7.777s-1.87.389-1.493-7.777c-2.18 3.065-2.611 9.839-2.705 12.222-4.655-2.45-12.957-9.478-23.855-17.269 0 0-31.457 8.179-46.997 15.448 17.99-.321 19.415 11.887 19.415 11.887s22.254-14.069 24.151 14.404c15.002-19.531 31.484 8.434 31.484 8.434s14.962-30.977 29.977-11.446c1.897-28.486 21.124-18.915 21.124-18.915s5.96-27.215 23.949-26.893ZM443.596 454.247c-12.149-.214-27.783 6.252-27.783 6.252-4.763 8.179-8.087 15.1-10.374 18.031-.753-1.512-3-5.769-5.301-7.108 2.624 5.154 1.305 5.449 1.305 5.449s-1.103.789-3.229-4.592c-.525 2.61 1.171 7.108 1.816 8.674-3.713-.241-11.127-2.382-20.437-4.27 0 0-15.244 7.336-23.155 16.506 11.517-5.395 10.925 9.009 10.925 9.009s8.436-11.78 17.962 6.077c3.996-16.947 27.003-7.269 27.003-7.269s8.019-23.533 23.397-15.247c-7.077-18.942 7.374-17.389 7.374-17.389s-11.208-9.143.497-14.123Z"/><path d="M397.262 490.446c-11.813-11.392-33.273-19.411-33.273-19.411-12.311 3.695-22.039 7.483-27.03 8.273.672-2.195 2.395-8.46 1.372-11.914-2.206 7.51-3.781 6.586-3.781 6.586s-1.816-.227 1.077-7.51c-2.933 2.102-5.449 8.113-6.27 10.241-3.445-3.668-8.786-12.597-16.226-23.038 0 0-21.878-6.787-38.238-5.02 16.401 5.274 2.421 18.969 2.421 18.969s19.294-3.869 12.096 22.542c19.711-13.065 33.448 17.684 33.448 17.684s29.829-15.876 37.323 6.479c10.629-25.233 23.465-10.401 23.465-10.401s-2.597-19.33 13.616-13.48ZM535.385 483.455c-9.432-14.27-29.452-27.268-29.452-27.268-13.388.977-24.151 2.637-29.412 2.316 1.184-2.075 4.373-8.085 4.117-11.82-3.955 7.148-5.355 5.85-5.355 5.85s-1.803-.643 2.812-7.403c-3.471 1.472-7.4 7.028-8.718 9.022-2.678-4.511-6.082-14.818-11.275-27.121 0 0-20.734-11.86-37.794-13.734 15.499 9.076-1.87 19.852-1.87 19.852s20.531.415 7.184 25.689c23.048-8.849 30.031 25.568 30.031 25.568s33.986-9.424 36.529 15.033c16.576-23.306 26.264-5.288 26.264-5.288s1.776-20.307 16.939-10.696ZM237.286 213.649c-5.342-.053-12.204 2.851-12.204 2.851-2.072 3.615-3.498 6.68-4.494 7.965-.336-.669-1.345-2.53-2.354-3.105 1.17 2.262.592 2.396.592 2.396s-.485.348-1.44-2.008c-.215 1.151.538 3.119.834 3.815-1.641-.094-4.911-1.004-9.001-1.807 0 0-6.673 3.28-10.131 7.349 5.045-2.409 4.844 3.922 4.844 3.922s3.673-5.207 7.924 2.611c1.696-7.47 11.854-3.293 11.854-3.293s3.444-10.388 10.239-6.801c-3.189-8.313 3.175-7.684 3.175-7.684s-4.978-3.975.162-6.211ZM268.851 287.467c-8.127-7.831-22.873-13.346-22.873-13.346-8.463 2.543-15.15 5.14-18.581 5.689.457-1.513 1.655-5.823.942-8.193-1.521 5.167-2.597 4.525-2.597 4.525s-1.251-.161.74-5.167c-2.018 1.445-3.74 5.568-4.305 7.041-2.368-2.517-6.042-8.661-11.154-15.836 0 0-15.043-4.672-26.291-3.454 11.275 3.628 1.655 13.039 1.655 13.039s13.267-2.664 8.315 15.501c13.549-8.982 22.994 12.155 22.994 12.155s20.505-10.91 25.658 4.458c7.306-17.349 16.132-7.149 16.132-7.149s-1.776-13.292 9.365-9.263ZM110.785 567.804c-7.709-11.659-24.07-22.288-24.07-22.288-10.939.803-19.738 2.155-24.03 1.887.969-1.7 3.579-6.599 3.364-9.665-3.23 5.85-4.373 4.779-4.373 4.779s-1.467-.522 2.3-6.051c-2.838 1.205-6.04 5.743-7.13 7.363-2.18-3.681-4.965-12.101-9.203-22.168 0 0-16.94-9.692-30.878-11.231 12.66 7.416-1.52 16.224-1.52 16.224s16.777.335 5.865 20.99c18.837-7.229 24.542 20.883 24.542 20.883s27.77-7.711 29.842 12.275c13.549-19.035 21.46-4.323 21.46-4.323s1.44-16.533 13.831-8.675ZM79.112 316.115c-13.294-1.071-34.31 12.436-34.31 12.436-4.238 7.818-10.575 24.497-10.575 24.497-.713-1.713-2.88-6.519-5.315-8.165 2.516 5.836 1.05 6.064 1.05 6.064s-1.251.79-3.216-5.248c-.753 2.825.794 7.872 1.386 9.625-4.05-.522-12.028-3.373-22.092-6.091 0 0-20.653 14.484-29.964 23.989 12.997-5.114 17.384 3.387 17.384 3.387s12.337-16.278 21.513 3.935c5.57-18.286 25.214-2.396 25.214-2.396s2.409-26.599 18.675-16.452c-6.43-21.244 10.185-19.491 10.185-19.491s-3.108-21.431 10.065-26.09ZM208.693 399.318c-13.252-.228-30.299 6.827-30.299 6.827-5.194 8.915-8.813 16.479-11.316 19.665-.821-1.66-3.269-6.292-5.785-7.764 2.866 5.622 1.426 5.943 1.426 5.943s-1.198.857-3.525-5.006c-.565 2.838 1.278 7.75 1.978 9.464-4.05-.268-12.136-2.597-22.295-4.659 0 0-16.616 7.992-25.254 18.005 12.567-5.876 11.921 9.826 11.921 9.826s9.203-12.838 19.59 6.626c4.359-18.473 29.452-7.925 29.452-7.925s8.745-25.661 25.523-16.639c-7.723-20.655 8.033-18.969 8.033-18.969s-12.204-9.959.551-15.394ZM330.929 387.625c-10.979-10.602-30.932-18.045-30.932-18.045-11.45 3.441-20.492 6.961-25.134 7.684.619-2.034 2.234-7.871 1.279-11.084-2.045 6.988-3.512 6.131-3.512 6.131s-1.695-.214 1.009-6.987c-2.731 1.954-5.059 7.536-5.826 9.531-3.202-3.414-8.167-11.713-15.082-21.419 0 0-20.344-6.318-35.547-4.658 15.244 4.913 2.247 17.63 2.247 17.63s17.934-3.601 11.248 20.963c18.325-12.141 31.107 16.439 31.107 16.439s27.73-14.752 34.699 6.024c9.876-23.467 21.81-9.665 21.81-9.665s-2.435-17.992 12.634-12.544Z"/><path d="M195.361 405.748c-8.772-13.266-27.393-25.354-27.393-25.354-12.446.91-22.456 2.463-27.34 2.155 1.103-1.941 4.063-7.51 3.834-10.99-3.686 6.653-4.978 5.448-4.978 5.448s-1.668-.602 2.61-6.88c-3.229 1.365-6.875 6.532-8.113 8.379-2.489-4.19-5.651-13.774-10.481-25.22 0 0-19.28-11.03-35.143-12.77 14.41 8.446-1.736 18.46-1.736 18.46s19.092.388 6.674 23.881c21.433-8.233 27.918 23.761 27.918 23.761s31.605-8.768 33.959 13.976c15.406-21.66 24.42-4.913 24.42-4.913s1.669-18.875 15.769-9.933ZM194.836 565.104c-8.194-12.396-25.591-23.694-25.591-23.694-11.624.856-20.989 2.302-25.55 2.008 1.023-1.808 3.794-7.015 3.579-10.281-3.444 6.211-4.655 5.087-4.655 5.087s-1.561-.563 2.448-6.439c-3.013 1.285-6.431 6.104-7.575 7.831-2.327-3.922-5.274-12.865-9.795-23.574 0 0-18.015-10.307-32.842-11.94 13.468 7.884-1.615 17.255-1.615 17.255s17.841.361 6.243 22.315c20.034-7.684 26.089 22.208 26.089 22.208s29.533-8.192 31.739 13.052c14.396-20.24 22.819-4.592 22.819-4.592s1.534-17.589 14.706-9.236ZM268.85 314.679c-14.437-6.76-43.687-.388-43.687-.388-8.046 6.987-22.187 23.038-22.187 23.038-.08-2.222-.484-8.514-2.516-11.365.35 7.59-1.386 7.228-1.386 7.228s-1.735.362-1.385-7.228c-2.032 2.851-2.436 9.143-2.516 11.365-4.319-2.289-12.056-8.808-22.187-16.051 0 0-29.25 7.604-43.687 14.364 16.724-.294 18.042 11.057 18.042 11.057s20.694-13.092 22.456 13.4c13.953-18.165 29.264 7.845 29.264 7.845s13.912-28.795 27.864-10.629c1.763-26.479 19.644-17.59 19.644-17.59s5.557-25.341 22.281-25.046Z"/><path d="M197.796 510.228c-9.836-4.605-29.748-.268-29.748-.268-5.476 4.752-15.11 15.689-15.11 15.689-.054-1.513-.323-5.796-1.709-7.737.243 5.167-.941 4.926-.941 4.926s-1.184.241-.942-4.926c-1.386 1.941-1.655 6.224-1.709 7.737-2.947-1.553-8.207-5.997-15.11-10.937 0 0-19.912 5.181-29.748 9.786 11.383-.201 12.284 7.523 12.284 7.523s14.087-8.915 15.285 9.116c9.499-12.369 19.926 5.341 19.926 5.341s9.472-19.611 18.971-7.242c1.198-18.031 13.374-11.981 13.374-11.981s3.794-17.228 15.177-17.027Z"/><path d="M121.573 512.784c-11.302-5.287-34.215-.308-34.215-.308-6.31 5.462-17.37 18.045-17.37 18.045-.067-1.74-.376-6.666-1.964-8.902.282 5.944-1.09 5.663-1.09 5.663s-1.359.281-1.09-5.663c-1.587 2.236-1.91 7.162-1.964 8.902-3.39-1.78-9.432-6.894-17.37-12.57 0 0-22.9 5.957-34.215 11.245 13.091-.228 14.127 8.661 14.127 8.661s16.2-10.241 17.572 10.495c10.925-14.216 22.913 6.144 22.913 6.144s10.898-22.542 21.824-8.326c1.372-20.736 15.378-13.775 15.378-13.775s4.373-19.838 17.464-19.611Z"/><path d="M156.557 501.888c-11.355-8.34-37.821-7.858-37.821-7.858-8.193 4.672-23.236 16.171-23.236 16.171.323-1.941 1.063-7.47-.201-10.294-1.01 6.639-2.463 6.037-2.463 6.037s-1.574.013.054-6.506c-2.26 2.115-3.7 7.51-4.157 9.424-3.35-2.717-8.92-9.705-16.442-17.737 0 0-26.68 1.566-40.39 4.94 14.557 2.623 13.737 12.69 13.737 12.69s20.222-7.791 17.14 15.475c15.258-13.347 24.017 11.833 24.017 11.833s17.074-22.583 26.008-4.431c6.135-22.663 20.088-11.873 20.088-11.873s9.216-21.004 23.666-17.871ZM.43 493.536c-12.176-7.109-38.44-3.856-38.44-3.856-7.656 5.502-21.393 18.514-21.393 18.514.108-1.968.27-7.537-1.291-10.214-.296 6.707-1.803 6.251-1.803 6.251s-1.561.174-.633-6.479c-2.018 2.343-2.879 7.858-3.134 9.813-3.62-2.356-9.903-8.715-18.232-15.917 0 0-26.371 4.351-39.637 9.143 14.746 1.084 15.002 11.178 15.002 11.178s19.28-9.866 18.689 13.6c13.764-14.872 25.133 9.251 25.133 9.251s14.584-24.243 25.402-7.135c3.7-23.186 18.715-13.909 18.715-13.909s6.916-21.847 21.622-20.24ZM582.019 488.635c-15.54-7.269-46.996-.429-46.996-.429-8.665 7.51-23.855 24.779-23.855 24.779-.081-2.383-.512-9.157-2.705-12.222.377 8.152-1.493 7.777-1.493 7.777s-1.87.388-1.494-7.777c-2.179 3.065-2.61 9.839-2.704 12.222-4.655-2.45-12.957-9.478-23.855-17.269 0 0-31.457 8.179-46.997 15.448 17.989-.321 19.415 11.887 19.415 11.887s22.254-14.069 24.151 14.404c15.002-19.531 31.484 8.434 31.484 8.434s14.961-30.977 29.977-11.446c1.897-28.486 21.123-18.915 21.123-18.915s5.974-27.215 23.949-26.893ZM150.663 308.495c-4.83-2.263-14.598-.134-14.598-.134-2.691 2.329-7.413 7.697-7.413 7.697-.027-.736-.162-2.851-.835-3.802.122 2.53-.457 2.41-.457 2.41s-.579.12-.457-2.41c-.673.951-.808 3.052-.835 3.802-1.439-.763-4.023-2.945-7.413-5.368 0 0-9.768 2.543-14.598 4.792 5.583-.093 6.027 3.695 6.027 3.695s6.916-4.377 7.495 4.471c4.655-6.064 9.781 2.624 9.781 2.624s4.642-9.625 9.311-3.548c.592-8.848 6.565-5.876 6.565-5.876s1.844-8.447 7.427-8.353ZM1005.42 235.44c-4.83-2.262-14.597-.134-14.597-.134-2.691 2.329-7.414 7.697-7.414 7.697-.026-.736-.161-2.851-.834-3.802.121 2.53-.457 2.41-.457 2.41s-.579.12-.458-2.41c-.672.951-.807 3.053-.834 3.802-1.439-.763-4.023-2.945-7.413-5.368 0 0-9.768 2.544-14.599 4.793 5.584-.094 6.028 3.694 6.028 3.694s6.916-4.377 7.494 4.471c4.656-6.064 9.782 2.624 9.782 2.624s4.642-9.625 9.31-3.547c.592-8.849 6.566-5.877 6.566-5.877s1.843-8.447 7.426-8.353ZM166.38 165.569c-2.893-3.4-11.1-5.194-11.1-5.194-2.88.844-8.369 3.293-8.369 3.293.242-.575.874-2.235.7-3.186-.808 1.982-1.198 1.687-1.198 1.687s-.484-.107.498-2.008c-.848.495-1.695 2.048-1.978 2.611-.834-1.085-2.045-3.655-3.767-6.68 0 0-8.356-1.459-12.836-1.419 4.306 1.874 3.31 4.926 3.31 4.926s6.821-.924 4.157 6.037c5.692-3.012 6.553 5.408 6.553 5.408s6.942-5.729 8.355.536c3.566-6.546 7.077-2.196 7.077-2.196s4.373-5.836 8.598-3.815ZM864.634 141.527c-3.821-1.232-10.912 1.285-10.912 1.285-1.789 1.995-4.789 6.452-4.789 6.452-.095-.549-.391-2.115-.996-2.757.336 1.874-.121 1.847-.121 1.847s-.417.147-.579-1.754c-.417.777-.309 2.356-.269 2.919-1.157-.429-3.283-1.821-6.041-3.307 0 0-7.05 2.825-10.441 4.967 4.158-.603 4.857 2.181 4.857 2.181s4.736-3.922 6.028 2.638c2.906-4.967 7.548 1.03 7.548 1.03s2.556-7.617 6.606-3.534c-.403-6.666 4.333-5.006 4.333-5.006s.592-6.506 4.776-6.961ZM984.259 285.252c-8.086-5.997-27.017-5.743-27.017-5.743-5.88 3.306-16.67 11.486-16.67 11.486.228-1.393.78-5.342-.108-7.363-.74 4.739-1.776 4.31-1.776 4.31s-1.117 0 .067-4.658c-1.614 1.513-2.664 5.355-3 6.72-2.395-1.954-6.351-6.974-11.692-12.731 0 0-19.092 1.031-28.887 3.401 10.4 1.927 9.781 9.116 9.781 9.116s14.477-5.502 12.204 11.124c10.952-9.491 17.127 8.541 17.127 8.541s12.284-16.091 18.608-3.079c4.454-16.185 14.41-8.42 14.41-8.42s6.633-14.993 16.953-12.704ZM564.512 203.881c-8.759-1.472-23.491 6.292-23.491 6.292-3.27 4.939-8.436 15.662-8.436 15.662-.377-1.178-1.534-4.498-3.055-5.716 1.332 4.016.35 4.083.35 4.083s-.874.455-1.83-3.668c-.659 1.834.068 5.261.364 6.466-2.664-.576-7.791-2.932-14.316-5.315 0 0-14.545 8.434-21.272 14.217 8.921-2.651 11.342 3.239 11.342 3.239s9.123-10.093 14.06 3.842c4.75-11.82 16.886-.147 16.886-.147s3.135-17.523 13.347-9.853c-3.041-14.47 7.884-12.355 7.884-12.355s-.847-14.418 8.167-16.747ZM581.145 183.124c-2.892-3.4-11.1-5.194-11.1-5.194-2.879.843-8.368 3.293-8.368 3.293.242-.576.874-2.235.699-3.186-.807 1.981-1.197 1.687-1.197 1.687s-.485-.107.498-2.008c-.848.495-1.696 2.048-1.978 2.61-.835-1.084-2.045-3.654-3.768-6.68 0 0-8.355-1.459-12.835-1.419 4.305 1.874 3.31 4.927 3.31 4.927s6.821-.924 4.157 6.037c5.691-3.012 6.552 5.408 6.552 5.408s6.943-5.729 8.369.535c3.566-6.559 7.077-2.195 7.077-2.195s4.36-5.85 8.584-3.815Z"/><path d="M508.046 521.38c-11.356-8.34-37.821-7.858-37.821-7.858-8.194 4.672-23.236 16.171-23.236 16.171.322-1.941 1.063-7.47-.202-10.294-1.009 6.639-2.462 6.037-2.462 6.037s-1.575.013.053-6.506c-2.26 2.115-3.7 7.51-4.157 9.424-3.35-2.717-8.92-9.705-16.442-17.737 0 0-26.68 1.566-40.39 4.94 14.558 2.624 13.737 12.69 13.737 12.69s20.222-7.791 17.141 15.475c15.258-13.346 24.016 11.834 24.016 11.834s17.074-22.583 26.008-4.431c6.136-22.664 20.088-11.874 20.088-11.874s9.216-21.004 23.667-17.871ZM359.131 513.119c-15.54-7.269-46.997-.428-46.997-.428-8.665 7.509-23.855 24.778-23.855 24.778-.081-2.383-.511-9.156-2.705-12.222.377 8.166-1.493 7.778-1.493 7.778s-1.87.388-1.493-7.778c-2.18 3.066-2.611 9.839-2.705 12.222-4.655-2.45-12.957-9.478-23.855-17.269 0 0-31.457 8.18-46.997 15.448 17.989-.321 19.415 11.888 19.415 11.888s22.254-14.07 24.151 14.403c15.002-19.53 31.484 8.434 31.484 8.434s14.962-30.976 29.977-11.445c1.897-28.487 21.124-18.916 21.124-18.916s5.96-27.214 23.949-26.893ZM247.645 442.451c-12.149-.215-27.784 6.251-27.784 6.251-4.762 8.179-8.086 15.1-10.373 18.032-.753-1.513-3-5.77-5.301-7.109 2.624 5.154 1.305 5.449 1.305 5.449s-1.103.789-3.229-4.592c-.525 2.61 1.17 7.108 1.816 8.675-3.713-.241-11.127-2.383-20.437-4.271 0 0-15.244 7.336-23.156 16.506 11.517-5.395 10.925 9.009 10.925 9.009s8.437-11.78 17.962 6.077c3.996-16.947 27.004-7.268 27.004-7.268s8.019-23.534 23.397-15.248c-7.077-18.942 7.373-17.389 7.373-17.389s-11.194-9.143.498-14.122Z"/><path d="M322.695 458.486c-15.54-7.269-46.997-.428-46.997-.428-8.664 7.51-23.855 24.778-23.855 24.778-.08-2.383-.511-9.156-2.704-12.222.377 8.166-1.494 7.778-1.494 7.778s-1.87.388-1.493-7.778c-2.18 3.066-2.61 9.839-2.704 12.222-4.656-2.45-12.957-9.477-23.855-17.268 0 0-31.457 8.179-46.997 15.448 17.989-.322 19.415 11.887 19.415 11.887s22.254-14.069 24.151 14.404c15.002-19.531 31.483 8.433 31.483 8.433s14.962-30.976 29.977-11.445c1.897-28.487 21.124-18.915 21.124-18.915s5.96-27.215 23.949-26.894Z"/><path d="M374.428 502.427c-11.355-8.34-37.82-7.858-37.82-7.858-8.194 4.672-23.237 16.171-23.237 16.171.323-1.941 1.063-7.47-.201-10.294-1.01 6.639-2.463 6.037-2.463 6.037s-1.574.013.054-6.506c-2.26 2.115-3.7 7.51-4.157 9.424-3.35-2.717-8.921-9.705-16.442-17.737 0 0-26.68 1.566-40.391 4.94 14.558 2.623 13.738 12.69 13.738 12.69s20.222-7.791 17.141 15.475c15.257-13.346 24.016 11.833 24.016 11.833s17.074-22.583 26.008-4.43c6.135-22.664 20.088-11.874 20.088-11.874s9.216-21.004 23.666-17.871ZM637.639 435.201c-12.149-.215-27.783 6.251-27.783 6.251-4.763 8.179-8.087 15.1-10.374 18.032-.753-1.513-3-5.77-5.301-7.109 2.624 5.154 1.305 5.449 1.305 5.449s-1.103.789-3.229-4.592c-.525 2.61 1.171 7.108 1.816 8.675-3.713-.241-11.127-2.383-20.437-4.271 0 0-15.244 7.336-23.156 16.506 11.518-5.395 10.926 9.009 10.926 9.009s8.436-11.78 17.962 6.077c3.996-16.947 27.003-7.269 27.003-7.269s8.019-23.533 23.397-15.247c-7.077-18.942 7.374-17.389 7.374-17.389s-11.208-9.143.497-14.122ZM778.954 418.216c-12.15-.214-27.784 6.252-27.784 6.252-4.763 8.179-8.086 15.1-10.373 18.031-.754-1.512-3.001-5.769-5.302-7.108 2.624 5.154 1.306 5.448 1.306 5.448s-1.104.79-3.23-4.591c-.524 2.61 1.171 7.108 1.817 8.674-3.714-.241-11.127-2.383-20.438-4.27 0 0-15.244 7.336-23.155 16.505 11.517-5.394 10.925 9.009 10.925 9.009s8.436-11.78 17.962 6.078c3.996-16.947 27.003-7.269 27.003-7.269s8.019-23.533 23.398-15.247c-7.077-18.942 7.373-17.389 7.373-17.389s-11.194-9.143.498-14.123ZM937.018 460.672c-11.813-11.392-33.273-19.41-33.273-19.41-12.311 3.694-22.039 7.483-27.03 8.273.672-2.196 2.394-8.461 1.372-11.914-2.207 7.509-3.781 6.586-3.781 6.586s-1.816-.228 1.077-7.51c-2.934 2.102-5.45 8.112-6.27 10.241-3.445-3.668-8.786-12.597-16.227-23.039 0 0-21.877-6.787-38.238-5.019 16.402 5.274 2.422 18.968 2.422 18.968s19.294-3.869 12.096 22.543c19.711-13.065 33.448 17.684 33.448 17.684s29.829-15.877 37.323 6.479c10.629-25.234 23.465-10.402 23.465-10.402s-2.583-19.343 13.616-13.48Z"/><path d="M725.754 466.854c-9.432-14.27-29.452-27.268-29.452-27.268-13.387.977-24.151 2.637-29.412 2.315 1.184-2.074 4.373-8.085 4.117-11.82-3.955 7.149-5.355 5.85-5.355 5.85s-1.803-.642 2.812-7.403c-3.471 1.473-7.4 7.028-8.718 9.023-2.678-4.511-6.082-14.819-11.275-27.121 0 0-20.734-11.861-37.794-13.735 15.5 9.076-1.87 19.852-1.87 19.852s20.531.415 7.184 25.689c23.048-8.848 30.031 25.568 30.031 25.568s33.986-9.424 36.529 15.033c16.576-23.306 26.264-5.287 26.264-5.287s1.776-20.321 16.939-10.696ZM875.84 397.572c-15.54-7.269-46.997-.428-46.997-.428-8.665 7.51-23.855 24.778-23.855 24.778-.081-2.383-.511-9.156-2.704-12.222.376 8.166-1.494 7.778-1.494 7.778s-1.87.388-1.493-7.778c-2.18 3.066-2.611 9.839-2.705 12.222-4.655-2.45-12.957-9.478-23.855-17.268 0 0-31.457 8.179-46.997 15.448 17.989-.322 19.415 11.887 19.415 11.887s22.254-14.069 24.151 14.404c15.002-19.531 31.484 8.433 31.484 8.433s14.962-30.976 29.977-11.445c1.897-28.487 21.124-18.915 21.124-18.915s5.96-27.215 23.949-26.894ZM930.292 403.38c-12.15-.214-27.784 6.252-27.784 6.252-4.763 8.179-8.086 15.1-10.373 18.031-.754-1.512-3.001-5.769-5.302-7.108 2.624 5.154 1.305 5.448 1.305 5.448s-1.103.79-3.229-4.591c-.524 2.61 1.171 7.108 1.817 8.674-3.714-.241-11.127-2.383-20.438-4.27 0 0-15.244 7.336-23.155 16.506 11.517-5.395 10.925 9.009 10.925 9.009s8.436-11.781 17.962 6.077c3.996-16.947 27.003-7.269 27.003-7.269s8.019-23.533 23.398-15.247c-7.077-18.942 7.373-17.389 7.373-17.389s-11.208-9.143.498-14.123ZM563.654 368.087c-11.907-2.383-28.456 1.178-28.456 1.178-6.163 7.188-10.683 13.413-13.468 15.876-.458-1.633-1.911-6.211-3.929-7.951 1.655 5.542.296 5.595.296 5.595s-1.225.576-2.341-5.087c-.983 2.477-.121 7.202.215 8.862-3.619-.91-10.522-4.324-19.334-7.858 0 0-16.321 4.485-25.766 12.088 12.311-3.239 9.122 10.817 9.122 10.817s10.428-10.067 16.563 9.183c6.996-15.944 27.878-2.316 27.878-2.316s12.149-21.713 25.779-10.816c-3.539-19.893 10.4-15.783 10.4-15.783s-9.378-10.977 3.041-13.788ZM390.95 510.544c-10.562-.188-24.165 5.435-24.165 5.435-4.144 7.108-7.036 13.132-9.014 15.689-.66-1.326-2.611-5.02-4.615-6.185 2.287 4.484 1.13 4.739 1.13 4.739s-.955.682-2.812-3.989c-.458 2.262 1.022 6.184 1.588 7.536-3.23-.214-9.674-2.061-17.774-3.708 0 0-13.253 6.372-20.142 14.35 10.024-4.685 9.499 7.832 9.499 7.832s7.333-10.241 15.621 5.274c3.472-14.739 23.492-6.319 23.492-6.319s6.969-20.468 20.357-13.266c-6.162-16.465 6.404-15.126 6.404-15.126s-9.754-7.925.431-12.262Z"/><path d="M1022.08 436.377c-9.43-14.27-29.453-27.268-29.453-27.268-13.388.977-24.151 2.637-29.412 2.316 1.184-2.075 4.373-8.086 4.117-11.82-3.956 7.148-5.355 5.85-5.355 5.85s-1.803-.643 2.812-7.403c-3.471 1.472-7.4 7.028-8.719 9.022-2.677-4.511-6.081-14.819-11.274-27.121 0 0-20.734-11.86-37.794-13.734 15.499 9.076-1.871 19.852-1.871 19.852s20.532.415 7.185 25.689c23.048-8.849 30.031 25.568 30.031 25.568s33.986-9.424 36.529 15.033c16.576-23.306 26.264-5.288 26.264-5.288s1.78-20.307 16.94-10.696ZM971.275 354.068c-6.122-12.155-29.183-23.279-29.183-23.279-9.136.455-27.178 3.815-27.178 3.815 1.13-1.54 4.211-5.984 4.359-8.969-3.794 5.287-4.776 4.136-4.776 4.136s-1.359-.682 2.919-5.595c-2.879.843-6.498 4.872-7.736 6.318-1.696-3.815-3.418-12.275-6.378-22.476 0 0-23.72-10.281-37.04-13.346 11.409 8.607 6.256 16.947 6.256 16.947s20.882 2.088 7.979 20.843c19.051-4.873 15.513 20.695 15.513 20.695s24.676-12.047 24.407 7.524c15.27-16.894 22.576-1.486 22.576-1.486s17.195-14.136 28.282-5.127ZM657.606 299.08c-5.53-10.976-26.371-21.03-26.371-21.03-8.248.415-24.568 3.454-24.568 3.454 1.022-1.392 3.807-5.408 3.942-8.099-3.431 4.779-4.319 3.735-4.319 3.735s-1.224-.616 2.637-5.06c-2.61.763-5.88 4.404-6.996 5.716-1.534-3.44-3.095-11.084-5.772-20.321 0 0-21.447-9.29-33.475-12.061 10.306 7.778 5.664 15.314 5.664 15.314s18.877 1.888 7.212 18.835c17.222-4.404 14.019 18.701 14.019 18.701s22.308-10.883 22.052 6.8c13.805-15.26 20.398-1.338 20.398-1.338s15.553-12.785 25.577-4.646ZM900.18 237.811c-8.759-1.473-23.491 6.291-23.491 6.291-3.27 4.94-8.436 15.663-8.436 15.663-.377-1.178-1.534-4.498-3.055-5.716 1.332 4.016.35 4.082.35 4.082s-.874.456-1.83-3.667c-.659 1.834.068 5.26.364 6.465-2.664-.575-7.791-2.931-14.316-5.314 0 0-14.545 8.433-21.272 14.216 8.921-2.65 11.342 3.24 11.342 3.24s9.123-10.094 14.06 3.842c4.75-11.821 16.886-.148 16.886-.148s3.135-17.522 13.347-9.852c-3.041-14.471 7.884-12.356 7.884-12.356s-.847-14.404 8.167-16.746ZM51.84 314.439c-8.085-5.997-27.016-5.743-27.016-5.743-5.88 3.307-16.67 11.486-16.67 11.486.228-1.392.78-5.341-.108-7.362-.74 4.738-1.776 4.31-1.776 4.31s-1.117 0 .067-4.659c-1.614 1.513-2.664 5.355-3 6.72-2.395-1.954-6.35-6.974-11.692-12.73 0 0-19.092 1.031-28.887 3.4 10.4 1.928 9.781 9.116 9.781 9.116s14.477-5.502 12.204 11.124c10.952-9.491 17.127 8.541 17.127 8.541s12.284-16.091 18.608-3.079c4.454-16.184 14.41-8.42 14.41-8.42s6.633-14.979 16.953-12.704ZM810.626 124.445c-4.656-5.141-17.478-7.497-17.478-7.497-4.413 1.446-12.822 5.529-12.822 5.529.35-.91 1.251-3.507.915-4.98-1.144 3.106-1.79 2.664-1.79 2.664s-.753-.147.673-3.132c-1.305.803-2.529 3.266-2.933 4.136-1.346-1.646-3.337-5.555-6.176-10.174 0 0-13.037-1.86-19.98-1.579 6.768 2.69 5.369 7.469 5.369 7.469s10.535-1.78 6.74 9.157c8.692-4.953 10.428 8.072 10.428 8.072s10.481-9.224 12.997.415c5.207-10.335 10.871-3.762 10.871-3.762s6.526-9.25 13.186-6.318ZM830.66 91.914c-2.274.281-5.341 3.28-5.341 3.28-.444 1.459-.929 4.498-.929 4.498-.175-.268-.713-1.004-1.184-1.192.633.897.39.99.39.99s-.188.175-.726-.776c-.027.496.404 1.299.565 1.58-.7.054-2.139-.147-3.929-.268 0 0-2.973 3.146-4.211 5.074 2.005-1.312 3.041-.027 3.041-.027s1.507-3.173 3.767-.08c.296-3.267 4.157-1.272 4.157-1.272s-.524-4.565 2.57-3.414c-1.816-3.36 1.036-3.64 1.036-3.64s-1.264-3.508.794-4.753ZM531.121 127.922c-2.274.281-5.341 3.28-5.341 3.28-.444 1.459-.929 4.497-.929 4.497-.175-.267-.713-1.004-1.184-1.191.633.897.39.991.39.991s-.188.174-.726-.777c-.027.496.403 1.299.565 1.58-.7.053-2.139-.147-3.929-.268 0 0-2.973 3.146-4.211 5.074 2.005-1.312 3.041-.027 3.041-.027s1.507-3.173 3.767-.081c.296-3.266 4.157-1.271 4.157-1.271s-.524-4.565 2.57-3.414c-1.816-3.36 1.036-3.641 1.036-3.641s-1.265-3.521.794-4.752ZM314.514 121.938c-2.274.281-5.342 3.279-5.342 3.279-.444 1.459-.928 4.498-.928 4.498-.175-.268-.713-1.004-1.184-1.191.632.897.39.99.39.99s-.188.174-.727-.776c-.027.495.404 1.298.565 1.579-.699.054-2.139-.147-3.928-.267 0 0-2.974 3.159-4.212 5.073 2.005-1.312 3.041-.027 3.041-.027s1.507-3.172 3.768-.08c.296-3.266 4.157-1.272 4.157-1.272s-.525-4.564 2.57-3.413c-1.817-3.36 1.036-3.641 1.036-3.641s-1.265-3.521.794-4.752ZM800.253 187.294c-2.368-1.526-7.656-1.098-7.656-1.098-1.574 1.031-4.44 3.521-4.44 3.521.04-.389.121-1.5-.175-2.048-.121 1.338-.417 1.231-.417 1.231s-.309.027-.067-1.298c-.431.455-.646 1.552-.713 1.927-.7-.508-1.911-1.834-3.512-3.333 0 0-5.315.643-8.005 1.486 2.933.348 2.906 2.369 2.906 2.369s3.942-1.807 3.619 2.878c2.879-2.851 4.951 2.062 4.951 2.062s3.122-4.726 5.14-1.205c.942-4.605 3.862-2.624 3.862-2.624s1.574-4.31 4.507-3.868ZM412.546 97.925c-1.723-2.222-6.849-3.574-6.849-3.574-1.83.455-5.368 1.834-5.368 1.834.175-.362.619-1.38.525-1.995-.566 1.218-.808 1.03-.808 1.03s-.309-.08.377-1.244c-.552.28-1.13 1.245-1.319 1.593-.497-.71-1.184-2.356-2.179-4.31 0 0-5.221-1.152-8.046-1.259 2.65 1.299 1.937 3.2 1.937 3.2s4.319-.389 2.449 3.922c3.673-1.74 3.969 3.587 3.969 3.587s4.534-3.413 5.248.576c2.435-4.03 4.52-1.192 4.52-1.192s2.933-3.56 5.544-2.168ZM690.64 194.07c-8.571 2.343-18.648 15.555-18.648 15.555-.875 5.85-1.01 17.737-1.01 17.737-.834-.91-3.296-3.44-5.193-3.908 2.906 3.079 2.045 3.56 2.045 3.56s-.605.777-3.216-2.556c.175 1.941 2.301 4.752 3.068 5.716-2.664.589-8.301.602-15.231 1.191 0 0-9.62 13.748-13.279 21.807 6.969-6.145 11.665-1.821 11.665-1.821s3.996-12.985 14.369-2.41c-.699-12.717 15.245-7.215 15.245-7.215s-4.575-17.201 7.938-14.538c-8.88-11.847 1.924-14.51 1.924-14.51s-6.876-12.718.323-18.608ZM766.844 466.627c-15.54-7.269-46.997-.429-46.997-.429-8.665 7.51-23.855 24.779-23.855 24.779-.081-2.383-.511-9.157-2.705-12.222.377 8.152-1.493 7.777-1.493 7.777s-1.87.389-1.493-7.777c-2.18 3.065-2.611 9.839-2.705 12.222-4.655-2.45-12.957-9.478-23.855-17.269 0 0-31.457 8.179-46.997 15.448 17.989-.321 19.415 11.887 19.415 11.887s22.254-14.069 24.151 14.404c15.002-19.531 31.484 8.434 31.484 8.434s14.961-30.977 29.977-11.446c1.897-28.486 21.124-18.915 21.124-18.915s5.973-27.215 23.949-26.893ZM617.675 411.124c-13.118-2.932-36.018 7.617-36.018 7.617-5.341 7.215-14.02 22.985-14.02 22.985-.471-1.808-1.951-6.921-4.157-8.889 1.682 6.171.188 6.198.188 6.198s-1.372.616-2.462-5.703c-1.144 2.718-.323 7.965.013 9.813-3.982-1.098-11.53-5.061-21.191-9.184 0 0-22.671 11.566-33.313 19.759 13.697-3.28 16.872 5.823 16.872 5.823s14.625-14.524 20.935 6.948c8.154-17.47 25.524 1.137 25.524 1.137s6.162-26.224 20.975-13.814c-3.404-22.115 12.93-18.045 12.93-18.045s-.094-21.847 13.724-24.645ZM979.899 454.247c-12.149-.214-27.784 6.252-27.784 6.252-4.763 8.179-8.086 15.1-10.373 18.031-.753-1.512-3-5.769-5.301-7.108 2.624 5.154 1.305 5.449 1.305 5.449s-1.103.789-3.229-4.592c-.525 2.61 1.17 7.108 1.816 8.674-3.713-.241-11.127-2.382-20.437-4.27 0 0-15.244 7.336-23.156 16.506 11.517-5.395 10.925 9.009 10.925 9.009s8.436-11.78 17.962 6.077c3.996-16.947 27.004-7.269 27.004-7.269s8.019-23.533 23.397-15.247c-7.077-18.942 7.373-17.389 7.373-17.389s-11.207-9.143.498-14.123Z"/><path d="M933.561 490.446c-11.813-11.392-33.273-19.411-33.273-19.411-12.311 3.695-22.039 7.483-27.03 8.273.672-2.195 2.394-8.46 1.372-11.914-2.207 7.51-3.781 6.586-3.781 6.586s-1.816-.227 1.077-7.51c-2.934 2.102-5.45 8.113-6.27 10.241-3.445-3.668-8.786-12.597-16.227-23.038 0 0-21.877-6.787-38.238-5.02 16.402 5.274 2.422 18.969 2.422 18.969s19.294-3.869 12.096 22.542c19.711-13.065 33.448 17.684 33.448 17.684s29.829-15.876 37.323 6.479c10.629-25.233 23.465-10.401 23.465-10.401s-2.583-19.33 13.616-13.48ZM1071.7 483.455c-9.43-14.27-29.45-27.268-29.45-27.268-13.39.977-24.15 2.637-29.41 2.316 1.18-2.075 4.37-8.085 4.11-11.82-3.95 7.148-5.35 5.85-5.35 5.85s-1.81-.643 2.81-7.403c-3.47 1.472-7.4 7.028-8.72 9.022-2.68-4.511-6.08-14.818-11.274-27.121 0 0-20.733-11.86-37.794-13.734 15.5 9.076-1.87 19.852-1.87 19.852s20.532.415 7.185 25.689c23.047-8.849 30.03 25.568 30.03 25.568s33.983-9.424 36.533 15.033c16.57-23.306 26.26-5.288 26.26-5.288s1.76-20.307 16.94-10.696ZM773.586 213.649c-5.341-.053-12.203 2.851-12.203 2.851-2.072 3.615-3.498 6.68-4.494 7.965-.336-.669-1.345-2.53-2.354-3.105 1.17 2.262.592 2.396.592 2.396s-.485.348-1.44-2.008c-.215 1.151.538 3.119.834 3.815-1.641-.094-4.911-1.004-9.001-1.807 0 0-6.673 3.28-10.131 7.349 5.045-2.409 4.843 3.922 4.843 3.922s3.673-5.207 7.925 2.611c1.695-7.47 11.854-3.293 11.854-3.293s3.444-10.388 10.239-6.801c-3.189-8.313 3.175-7.684 3.175-7.684s-4.965-3.975.161-6.211ZM805.149 287.467c-8.126-7.831-22.872-13.346-22.872-13.346-8.463 2.543-15.15 5.14-18.581 5.689.457-1.513 1.655-5.823.942-8.193-1.521 5.167-2.597 4.525-2.597 4.525s-1.251-.161.74-5.167c-2.018 1.445-3.74 5.568-4.306 7.041-2.368-2.517-6.041-8.661-11.153-15.836 0 0-15.043-4.672-26.291-3.454 11.275 3.628 1.655 13.039 1.655 13.039s13.266-2.664 8.315 15.501c13.549-8.982 22.994 12.155 22.994 12.155s20.505-10.91 25.658 4.458c7.306-17.349 16.132-7.149 16.132-7.149s-1.776-13.292 9.364-9.263ZM647.098 567.804c-7.71-11.659-24.07-22.288-24.07-22.288-10.939.803-19.738 2.155-24.03 1.887.968-1.7 3.578-6.599 3.363-9.665-3.229 5.85-4.373 4.779-4.373 4.779s-1.466-.522 2.301-6.051c-2.839 1.205-6.041 5.743-7.131 7.363-2.193-3.681-4.964-12.101-9.203-22.168 0 0-16.939-9.692-30.878-11.231 12.661 7.416-1.52 16.224-1.52 16.224s16.778.335 5.866 20.99c18.836-7.229 24.541 20.883 24.541 20.883s27.77-7.711 29.842 12.275c13.549-19.035 21.46-4.323 21.46-4.323s1.44-16.533 13.832-8.675ZM626.459 317.342c-13.293-1.071-34.309 12.436-34.309 12.436-4.238 7.817-10.562 24.497-10.562 24.497-.713-1.713-2.879-6.519-5.314-8.166 2.516 5.837 1.049 6.064 1.049 6.064s-1.251.79-3.215-5.247c-.754 2.824.793 7.871 1.385 9.625-4.049-.522-12.028-3.374-22.092-6.091 0 0-20.653 14.484-29.963 23.988 12.997-5.113 17.383 3.387 17.383 3.387s12.338-16.278 21.514 3.936c5.57-18.286 25.214-2.396 25.214-2.396s2.408-26.599 18.675-16.452c-6.432-21.245 10.185-19.491 10.185-19.491s-3.122-21.445 10.05-26.09ZM745.006 399.318c-13.253-.228-30.3 6.827-30.3 6.827-5.194 8.915-8.813 16.479-11.315 19.665-.821-1.66-3.27-6.292-5.786-7.764 2.866 5.622 1.426 5.943 1.426 5.943s-1.197.857-3.525-5.006c-.565 2.838 1.278 7.75 1.978 9.464-4.05-.268-12.136-2.597-22.294-4.659 0 0-16.617 7.992-25.254 18.005 12.566-5.876 11.92 9.826 11.92 9.826s9.203-12.838 19.59 6.626c4.36-18.473 29.452-7.925 29.452-7.925s8.746-25.661 25.524-16.639c-7.723-20.655 8.032-18.969 8.032-18.969s-12.217-9.959.552-15.394ZM867.228 387.625c-10.979-10.602-30.932-18.045-30.932-18.045-11.45 3.441-20.492 6.961-25.134 7.684.619-2.034 2.234-7.871 1.279-11.084-2.046 6.988-3.512 6.131-3.512 6.131s-1.695-.214 1.009-6.987c-2.731 1.954-5.059 7.536-5.826 9.531-3.202-3.414-8.167-11.713-15.082-21.419 0 0-20.344-6.318-35.548-4.658 15.244 4.913 2.247 17.63 2.247 17.63s17.935-3.601 11.248 20.963c18.326-12.141 31.107 16.439 31.107 16.439s27.73-14.752 34.7 6.024c9.876-23.467 21.81-9.665 21.81-9.665s-2.435-17.992 12.634-12.544ZM550.305 281.703c-8.409-8.126-23.707-13.828-23.707-13.828-8.772 2.637-15.701 5.328-19.253 5.89.471-1.566 1.708-6.037.982-8.487-1.574 5.354-2.691 4.698-2.691 4.698s-1.292-.16.767-5.354c-2.099 1.499-3.875 5.769-4.467 7.295-2.462-2.61-6.256-8.982-11.558-16.411 0 0-15.593-4.846-27.245-3.575 11.692 3.762 1.722 13.507 1.722 13.507s13.751-2.757 8.624 16.064c14.047-9.303 23.842 12.597 23.842 12.597s21.245-11.312 26.586 4.618c7.575-17.978 16.711-7.403 16.711-7.403s-1.87-13.788 9.687-9.611ZM387.278 172.394c-5.543-2.276-13.898-2.102-13.898-2.102-3.674 2.905-6.445 5.502-8.033 6.439-.067-.83-.336-3.186-1.157-4.217.269 2.838-.39 2.745-.39 2.745s-.646.16-.659-2.691c-.713 1.111-.74 3.48-.727 4.31-1.668-.776-4.682-3.079-8.624-5.622 0 0-8.329.643-13.63 3.44 6.27-.415 3.391 6.091 3.391 6.091s6-3.909 7.158 6.011c4.897-7.082 13.737 1.486 13.737 1.486s7.938-9.384 13.522-2.825c.175-9.973 6.539-6.68 6.539-6.68s-3.512-6.184 2.771-6.385Z"/><path d="M731.674 405.748c-8.773-13.266-27.394-25.354-27.394-25.354-12.445.91-22.456 2.463-27.34 2.155 1.104-1.941 4.064-7.51 3.835-10.99-3.687 6.653-4.978 5.448-4.978 5.448s-1.669-.602 2.61-6.88c-3.229 1.365-6.875 6.532-8.113 8.379-2.489-4.19-5.651-13.774-10.481-25.22 0 0-19.281-11.03-35.144-12.77 14.41 8.446-1.735 18.46-1.735 18.46s19.092.388 6.673 23.881c21.433-8.233 27.918 23.761 27.918 23.761s31.605-8.768 33.96 13.976c15.405-21.66 24.42-4.913 24.42-4.913s1.668-18.875 15.769-9.933ZM738.697 565.959c-8.772-13.266-27.393-25.354-27.393-25.354-12.446.91-22.456 2.463-27.34 2.155 1.103-1.941 4.063-7.51 3.834-10.99-3.686 6.653-4.978 5.448-4.978 5.448s-1.668-.602 2.61-6.881c-3.229 1.366-6.875 6.533-8.113 8.38-2.489-4.19-5.651-13.774-10.481-25.22 0 0-19.28-11.03-35.143-12.77 14.41 8.446-1.736 18.46-1.736 18.46s19.092.388 6.674 23.881c21.433-8.233 27.918 23.761 27.918 23.761s31.605-8.768 33.959 13.975c15.406-21.659 24.42-4.912 24.42-4.912s1.669-18.875 15.769-9.933ZM805.151 314.679c-14.437-6.76-43.687-.388-43.687-.388-8.046 6.987-22.187 23.038-22.187 23.038-.081-2.222-.484-8.514-2.516-11.365.35 7.59-1.386 7.228-1.386 7.228s-1.735.362-1.386-7.228c-2.031 2.851-2.435 9.143-2.516 11.365-4.319-2.289-12.055-8.808-22.186-16.051 0 0-29.251 7.604-43.687 14.364 16.724-.294 18.042 11.057 18.042 11.057s20.693-13.092 22.456 13.4c13.952-18.165 29.264 7.845 29.264 7.845s13.912-28.795 27.864-10.629c1.763-26.479 19.644-17.59 19.644-17.59s5.557-25.341 22.281-25.046Z"/><path d="M734.095 510.228c-9.836-4.605-29.749-.268-29.749-.268-5.476 4.752-15.109 15.689-15.109 15.689-.054-1.513-.323-5.796-1.709-7.737.242 5.167-.942 4.926-.942 4.926s-1.184.241-.942-4.926c-1.385 1.941-1.654 6.224-1.708 7.737-2.947-1.553-8.208-5.997-15.11-10.937 0 0-19.913 5.181-29.748 9.786 11.383-.201 12.284 7.523 12.284 7.523s14.087-8.915 15.285 9.116c9.499-12.369 19.926 5.341 19.926 5.341s9.472-19.611 18.971-7.242c1.197-18.031 13.374-11.981 13.374-11.981s3.794-17.228 15.177-17.027Z"/><path d="M657.876 512.784c-11.301-5.287-34.201-.308-34.201-.308-6.31 5.462-17.37 18.045-17.37 18.045-.067-1.74-.377-6.666-1.964-8.902.282 5.944-1.09 5.663-1.09 5.663s-1.359.281-1.09-5.663c-1.588 2.236-1.911 7.162-1.965 8.902-3.39-1.78-9.431-6.894-17.369-12.57 0 0-22.9 5.957-34.202 11.245 13.091-.228 14.127 8.661 14.127 8.661s16.2-10.241 17.572 10.495c10.925-14.216 22.913 6.144 22.913 6.144s10.899-22.542 21.824-8.326c1.372-20.736 15.378-13.775 15.378-13.775s4.346-19.838 17.437-19.611Z"/><path d="M692.87 501.888c-11.356-8.34-37.821-7.858-37.821-7.858-8.194 4.672-23.236 16.171-23.236 16.171.323-1.941 1.063-7.47-.202-10.294-1.009 6.639-2.462 6.037-2.462 6.037s-1.574.013.054-6.506c-2.261 2.115-3.7 7.51-4.158 9.424-3.35-2.717-8.92-9.705-16.441-17.737 0 0-26.681 1.566-40.391 4.94 14.558 2.623 13.737 12.69 13.737 12.69s20.222-7.791 17.141 15.475c15.258-13.347 24.017 11.833 24.017 11.833s17.074-22.583 26.007-4.431c6.136-22.663 20.088-11.873 20.088-11.873s9.217-21.004 23.667-17.871Z"/><path d="M601.432 525.942c-11.355-8.339-37.821-7.857-37.821-7.857-8.193 4.671-23.236 16.17-23.236 16.17.323-1.941 1.063-7.469-.202-10.294-1.009 6.64-2.462 6.038-2.462 6.038s-1.574.013.054-6.506c-2.26 2.115-3.7 7.51-4.157 9.424-3.351-2.718-8.921-9.705-16.442-17.737 0 0-26.68 1.566-40.391 4.939 14.558 2.624 13.738 12.691 13.738 12.691s20.222-7.791 17.141 15.474c15.257-13.346 24.016 11.834 24.016 11.834s17.074-22.583 26.008-4.431c6.135-22.663 20.088-11.874 20.088-11.874s9.216-21.003 23.666-17.871Z"/><path d="M591.572 516.955c-15.54-7.269-46.997-.428-46.997-.428-8.664 7.509-23.855 24.778-23.855 24.778-.08-2.383-.511-9.156-2.704-12.222.377 8.166-1.494 7.778-1.494 7.778s-1.87.388-1.493-7.778c-2.18 3.066-2.61 9.839-2.704 12.222-4.656-2.45-12.957-9.478-23.855-17.269 0 0-31.457 8.18-46.997 15.448 17.988-.321 19.415 11.888 19.415 11.888s22.254-14.07 24.151 14.403c15.002-19.53 31.483 8.434 31.483 8.434s14.962-30.976 29.977-11.446c1.897-28.486 21.124-18.915 21.124-18.915s5.96-27.214 23.949-26.893Z"/><path d="M498.667 513.038c-17.437-8.152-52.742-.469-52.742-.469-9.714 8.434-26.775 27.817-26.775 27.817-.094-2.677-.578-10.28-3.027-13.721.43 9.157-1.668 8.728-1.668 8.728s-2.099.429-1.669-8.728c-2.449 3.441-2.933 11.044-3.027 13.721-5.22-2.757-14.544-10.628-26.775-19.383 0 0-35.305 9.183-52.742 17.335 20.182-.361 21.783 13.347 21.783 13.347s24.972-15.796 27.098 16.171c16.845-21.927 35.332 9.464 35.332 9.464s16.791-34.765 33.636-12.838c2.126-31.967 23.707-21.231 23.707-21.231s6.674-30.561 26.869-30.213ZM823.477 567.804c-7.71-11.659-24.071-22.288-24.071-22.288-10.938.803-19.737 2.155-24.029 1.887.968-1.7 3.578-6.599 3.363-9.665-3.229 5.85-4.373 4.779-4.373 4.779s-1.466-.522 2.301-6.051c-2.839 1.205-6.041 5.743-7.131 7.363-2.179-3.681-4.965-12.101-9.203-22.168 0 0-16.939-9.692-30.878-11.231 12.661 7.416-1.52 16.224-1.52 16.224s16.777.335 5.866 20.99c18.836-7.229 24.541 20.883 24.541 20.883s27.77-7.711 29.842 12.275c13.549-19.035 21.46-4.323 21.46-4.323s1.44-16.533 13.832-8.675ZM686.966 308.495c-4.83-2.263-14.598-.134-14.598-.134-2.691 2.329-7.414 7.697-7.414 7.697-.027-.736-.161-2.851-.834-3.802.121 2.53-.457 2.41-.457 2.41s-.579.12-.458-2.41c-.672.951-.807 3.052-.834 3.802-1.44-.763-4.023-2.945-7.413-5.368 0 0-9.768 2.543-14.599 4.792 5.584-.093 6.028 3.695 6.028 3.695s6.916-4.377 7.494 4.471c4.656-6.064 9.782 2.624 9.782 2.624s4.642-9.625 9.31-3.548c.592-8.848 6.566-5.876 6.566-5.876s1.843-8.447 7.427-8.353ZM696.934 168.253c-4.063-1.874-12.27-.053-12.27-.053-2.247 1.968-6.203 6.492-6.203 6.492-.027-.629-.148-2.396-.727-3.186.108 2.129-.376 2.035-.376 2.035s-.485.107-.404-2.021c-.565.803-.673 2.57-.686 3.199-1.211-.629-3.391-2.45-6.243-4.485 0 0-8.207 2.169-12.244 4.097 4.696-.107 5.086 3.079 5.086 3.079s5.786-3.695 6.324 3.734c3.888-5.113 8.234 2.169 8.234 2.169s3.861-8.099 7.804-3.025c.457-7.443 5.489-4.967 5.489-4.967s1.521-7.121 6.216-7.068ZM1044.34 521.38c-11.35-8.34-37.82-7.858-37.82-7.858-8.19 4.672-23.233 16.171-23.233 16.171.323-1.941 1.063-7.47-.201-10.294-1.009 6.639-2.463 6.037-2.463 6.037s-1.574.013.054-6.506c-2.26 2.115-3.7 7.51-4.157 9.424-3.35-2.717-8.921-9.705-16.442-17.737 0 0-26.68 1.566-40.39 4.94 14.557 2.624 13.737 12.69 13.737 12.69s20.222-7.791 17.141 15.475c15.257-13.346 24.016 11.834 24.016 11.834s17.074-22.583 26.008-4.431c6.14-22.664 20.09-11.874 20.09-11.874s9.21-21.004 23.66-17.871ZM-43.569 447.042s9.688-18.005 26.264 5.288c2.53-24.458 36.53-15.033 36.53-15.033s6.982-34.417 30.03-25.569c-13.347-25.273 7.185-25.688 7.185-25.688s-17.37-10.776-1.87-19.852c-17.061 1.887-37.795 13.734-37.795 13.734-5.193 12.316-8.597 22.61-11.275 27.121-1.332-1.995-5.247-7.537-8.718-9.022 4.615 6.76 2.812 7.402 2.812 7.402s-1.4 1.299-5.355-5.85c-.256 3.749 2.933 9.746 4.117 11.821-5.26.321-16.024-1.339-29.412-2.316 0 0-20.034 12.998-29.452 27.268 15.164-9.585 16.94 10.696 16.94 10.696Z"/><path d="M-64.973 495.339s9.688-18.005 26.264 5.287c2.53-24.457 36.529-15.033 36.529-15.033s6.983-34.416 30.03-25.568c-13.346-25.274 7.185-25.688 7.185-25.688s-17.37-10.777-1.87-19.853c-17.06 1.888-37.794 13.735-37.794 13.735-5.193 12.315-8.597 22.61-11.275 27.121-1.332-1.995-5.247-7.537-8.718-9.023 4.614 6.761 2.812 7.403 2.812 7.403s-1.4 1.299-5.355-5.85c-.256 3.748 2.933 9.746 4.117 11.821-5.261.321-16.025-1.339-29.412-2.316 0 0-20.034 12.998-29.452 27.268 15.163-9.585 16.94 10.696 16.94 10.696ZM-59.118 539.251s13.965-10.79 20.087 11.874c8.947-18.152 26.008 4.431 26.008 4.431s8.759-25.18 24.017-11.834c-3.082-23.266 17.14-15.475 17.14-15.475s-.82-10.066 13.738-12.69c-13.697-3.374-40.39-4.94-40.39-4.94-7.522 8.032-13.092 15.02-16.442 17.737-.458-1.914-1.898-7.309-4.158-9.424 1.628 6.519.054 6.506.054 6.506s-1.453.602-2.462-6.037c-1.265 2.824-.525 8.353-.202 10.294 0 0-15.042-11.499-23.236-16.171 0 0-26.466-.482-37.821 7.858 14.463-3.133 23.666 17.871 23.666 17.871ZM896.67 511.885c-15.54-7.269-46.997-.429-46.997-.429-8.665 7.51-23.855 24.779-23.855 24.779-.081-2.383-.511-9.157-2.704-12.222.376 8.152-1.494 7.777-1.494 7.777s-1.87.388-1.493-7.777c-2.18 3.065-2.611 9.839-2.705 12.222-4.655-2.45-12.957-9.478-23.855-17.269 0 0-31.457 8.179-46.997 15.448 17.989-.321 19.415 11.887 19.415 11.887s22.254-14.069 24.151 14.404c15.002-19.531 31.484 8.434 31.484 8.434s14.962-30.977 29.977-11.446c1.897-28.486 21.124-18.915 21.124-18.915s5.96-27.201 23.949-26.893ZM783.958 442.451c-12.15-.215-27.784 6.251-27.784 6.251-4.763 8.179-8.086 15.1-10.373 18.032-.754-1.513-3.001-5.77-5.302-7.109 2.624 5.154 1.306 5.449 1.306 5.449s-1.104.789-3.23-4.592c-.524 2.61 1.171 7.108 1.817 8.675-3.714-.241-11.127-2.383-20.438-4.271 0 0-15.244 7.336-23.155 16.506 11.517-5.395 10.925 9.009 10.925 9.009s8.436-11.78 17.962 6.077c3.996-16.947 27.003-7.268 27.003-7.268s8.019-23.534 23.398-15.248c-7.077-18.942 7.373-17.389 7.373-17.389s-11.208-9.143.498-14.122Z"/><path d="M858.996 458.486c-15.54-7.269-46.997-.428-46.997-.428-8.665 7.51-23.855 24.778-23.855 24.778-.081-2.383-.511-9.156-2.704-12.222.376 8.166-1.494 7.778-1.494 7.778s-1.87.388-1.493-7.778c-2.18 3.066-2.61 9.839-2.705 12.222-4.655-2.45-12.956-9.477-23.855-17.268 0 0-31.456 8.179-46.997 15.448 17.989-.322 19.415 11.887 19.415 11.887s22.254-14.069 24.152 14.404c15.001-19.531 31.483 8.433 31.483 8.433s14.962-30.976 29.977-11.445c1.897-28.487 21.124-18.915 21.124-18.915s5.974-27.215 23.949-26.894Z"/><path d="M910.727 502.427c-11.355-8.34-37.821-7.858-37.821-7.858-8.194 4.672-23.236 16.171-23.236 16.171.323-1.941 1.063-7.47-.202-10.294-1.009 6.639-2.462 6.037-2.462 6.037s-1.574.013.054-6.506c-2.26 2.115-3.7 7.51-4.157 9.424-3.351-2.717-8.921-9.705-16.442-17.737 0 0-26.68 1.566-40.391 4.94 14.558 2.623 13.737 12.69 13.737 12.69s20.223-7.791 17.142 15.475c15.257-13.346 24.016 11.833 24.016 11.833s17.074-22.583 26.008-4.43c6.135-22.664 20.088-11.874 20.088-11.874s9.216-21.004 23.666-17.871Z"/></g><defs><clipPath id="a"><path fill="#fff" d="M0 0h990v524H0z"/></clipPath></defs></svg>