<svg width="376" height="359" fill="none" xmlns="http://www.w3.org/2000/svg"><g opacity=".8" clip-path="url(#a)" fill="#131212"><path d="M30.977 336.907v-.11c-.01.074 0 .11 0 .11ZM52.193 291.094c-20.432 10.675-20.45 29.348-20.45 29.348s-.028-5.365-1.862-7.933c.258 5.594-1.024 7.905-1.024 7.905s-1.281-2.311-1.023-7.905c-1.835 2.568-1.863 7.933-1.863 7.933s-.018-18.664-20.45-29.348c14.264 12.179 3.172 16.673 3.172 16.673s8.879 4.494 5.615 13.225c11.995 5.971 12.42 14.711 12.429 15.802a5.014 5.014 0 0 1 2.12-3.833 5.003 5.003 0 0 1 2.12 3.833c.01-1.091.434-9.831 12.43-15.802-3.265-8.731 5.614-13.225 5.614-13.225s-11.091-4.494 3.172-16.673ZM164.141 288.618v-.11a.337.337 0 0 0 0 .11ZM185.357 242.805c-20.431 10.675-20.45 29.348-20.45 29.348s-.028-5.365-1.862-7.933c.258 5.585-1.024 7.905-1.024 7.905s-1.281-2.311-1.023-7.905c-1.835 2.568-1.863 7.933-1.863 7.933s-.018-18.664-20.449-29.348c14.263 12.179 3.171 16.673 3.171 16.673s8.879 4.494 5.615 13.225c11.995 5.971 12.419 14.711 12.429 15.802a5.014 5.014 0 0 1 2.12-3.833 5.004 5.004 0 0 1 2.121 3.833c.009-1.091.433-9.831 12.428-15.802-3.264-8.731 5.615-13.225 5.615-13.225s-11.091-4.503 3.172-16.673ZM80.008 283.929l.028-.101a4.312 4.312 0 0 0-.028.101ZM112.039 248.669c-21.39 3.88-26.682 20.663-26.682 20.663s1.484-4.824.562-7.658c-1.346 5.099-3.153 6.814-3.153 6.814s-.498-2.439 1.318-7.392c-2.378 1.798-3.918 6.613-3.918 6.613s5.264-16.784-10.087-32.1c9.377 14.94-1.862 15.876-1.862 15.876s6.712 6.53 1.309 13.463c9.09 8.731 7.007 16.701 6.703 17.682a4.713 4.713 0 0 1 2.987-2.852 4.708 4.708 0 0 1 .82 4.036c.314-.982 3.172-8.713 15.638-10.731-.461-8.758 8.786-10.317 8.786-10.317s-8.685-7.145 7.579-14.097ZM76.201 282.742s.01-.037.037-.101a.727.727 0 0 0-.037.101ZM219.351 281.109c-20.431 10.676-20.45 29.348-20.45 29.348s-.027-5.365-1.862-7.933c.258 5.586-1.024 7.906-1.024 7.906s-1.281-2.311-1.023-7.906c-1.835 2.568-1.862 7.933-1.862 7.933s-.019-18.663-20.45-29.348c14.263 12.18 3.171 16.674 3.171 16.674s8.879 4.494 5.615 13.225c11.995 5.97 12.42 14.71 12.429 15.802a5.017 5.017 0 0 1 2.12-3.834 5.007 5.007 0 0 1 2.121 3.834c.009-1.092.433-9.832 12.428-15.802-3.263-8.731 5.615-13.225 5.615-13.225s-11.091-4.503 3.172-16.674ZM114.623 328.623l.028-.092c-.019.056-.028.092-.028.092Z"/><path d="M142.301 298.171c-18.477 3.357-23.05 17.848-23.05 17.848s1.282-4.173.489-6.613c-1.162 4.402-2.72 5.888-2.72 5.888s-.433-2.109 1.134-6.383c-2.056 1.55-3.384 5.714-3.384 5.714s4.546-14.5-8.713-27.734c8.105 12.904-1.604 13.72-1.604 13.72s5.799 5.64 1.134 11.629c7.856 7.539 6.058 14.426 5.79 15.279a4.066 4.066 0 0 1 2.582-2.467c1.152 1.523.82 3.1.71 3.485.267-.843 2.738-7.529 13.516-9.272-.405-7.566 7.597-8.914 7.597-8.914s-7.532-6.173 6.519-12.18ZM111.34 327.6l.028-.092-.028.092ZM139.819 168.883v-.102a.248.248 0 0 0 0 .102Z"/><path d="M157.696 128.742c-17.647 9.557-17.426 25.799-17.426 25.799s-.092-4.668-1.724-6.878c.295 4.86-.784 6.887-.784 6.887s-1.143-1.999-.986-6.86c-1.568 2.265-1.521 6.924-1.521 6.924s-.249-16.251-18.173-25.285c12.567 10.419 2.978 14.472 2.978 14.472s7.791 3.797 5.062 11.446c10.52 5.044 10.999 12.647 11.018 13.601a4.326 4.326 0 0 1 1.788-3.357 4.328 4.328 0 0 1 1.89 3.311c-.009-.954.249-8.556 10.613-13.913-2.951-7.557 4.72-11.583 4.72-11.583s-9.718-3.788 2.545-14.564Z"/><path d="M136.131 168.937v-.101a.295.295 0 0 0 0 .101ZM10.106 246.797c-19.002 9.923-19.011 27.285-19.011 27.285s-.028-4.98-1.734-7.374c.24 5.2-.95 7.346-.95 7.346s-1.189-2.146-.95-7.346c-1.705 2.394-1.732 7.374-1.732 7.374s-.01-17.353-19.012-27.285c13.258 11.327 2.95 15.499 2.95 15.499s8.252 4.183 5.228 12.299c11.147 5.558 11.543 13.674 11.553 14.692a4.64 4.64 0 0 1 1.964-3.558c1.779 1.266 1.954 3.109 1.963 3.558.01-1.018.406-9.134 11.553-14.692-3.033-8.116 5.228-12.299 5.228-12.299s-10.308-4.182 2.95-15.499ZM47.417 152.891s-.018-.018-.046-.055c.037.037.046.055.046.055Z"/><path d="M40.807 122.844c-5.993 12.665.894 21.754.894 21.754s-1.991-2.595-3.835-3.173c2.194 2.623 2.425 4.219 2.425 4.219s-1.476-.652-3.421-3.467c.055 1.926 2.028 4.54 2.028 4.54s-6.905-9.08-20.79-6.796c11.441.706 7.707 6.951 7.707 6.951s5.984-1.063 7.625 4.384c8.04-1.476 11.479 2.614 11.885 3.146a3.052 3.052 0 0 1-.388-2.641 3.036 3.036 0 0 1 2.444 1.091c-.397-.532-3.42-4.943.203-12.234-4.813-3.054-2.158-8.493-2.158-8.493s-7.053 1.853-4.62-9.281Z"/><path d="M45.36 154.438s-.018-.018-.045-.055a.511.511 0 0 0 .046.055ZM188.398 147.046s.01-.018.019-.046c-.019.028-.019.046-.019.046ZM203.105 132.307c-9.413 1.257-12.069 8.475-12.069 8.475s.747-2.073.406-3.329c-.692 2.201-1.512 2.907-1.512 2.907s-.166-1.073.728-3.201c-1.078.734-1.844 2.806-1.844 2.806s2.646-7.217-3.743-14.215c3.78 6.713-1.143 6.888-1.143 6.888s2.793 2.989.295 5.906c3.789 3.999 2.71 7.429 2.563 7.86a2.052 2.052 0 0 1 1.364-1.183 2.06 2.06 0 0 1 .277 1.779c.157-.422 1.567-3.742 7.044-4.366-.018-3.833 4.048-4.329 4.048-4.329s-3.661-3.292 3.586-5.998ZM186.758 146.453s.009-.019.018-.047a.425.425 0 0 1-.018.047ZM144.043 96.46c-9.828 5.513-9.561 14.629-9.561 14.629s-.092-2.623-1.023-3.852c.212 2.724-.388 3.88-.388 3.88s-.663-1.11-.617-3.843c-.858 1.284-.793 3.898-.793 3.898s-.277-9.117-10.419-14.042c7.146 5.742 1.789 8.099 1.789 8.099s4.407 2.072 2.941 6.383c5.947 2.742 6.279 7.007 6.297 7.539 0-.239.065-1.211.978-1.899a2.422 2.422 0 0 1 1.088 1.844c-.01-.532.064-4.806 5.845-7.897-1.724-4.219 2.554-6.539 2.554-6.539s-5.486-2.045 1.309-8.2ZM52.812 248.548s0-.037-.01-.11c0 .064.01.11.01.11ZM70.653 204.461c-18.735 10.987-17.887 28.55-17.887 28.55s-.276-5.044-2.12-7.374c.507 5.246-.59 7.484-.59 7.484s-1.31-2.118-1.328-7.392c-1.604 2.504-1.392 7.548-1.392 7.548s-.876-17.563-20.598-26.67c13.987 10.804 3.762 15.545 3.762 15.545s8.565 3.825 5.9 12.189c11.563 5.072 12.365 13.271 12.43 14.298a4.702 4.702 0 0 1 1.816-3.705 4.701 4.701 0 0 1 2.166 3.503c-.046-1.027-.046-9.263 10.963-15.435-3.476-8.062 4.674-12.702 4.674-12.702s-10.649-3.724 2.204-15.839Z"/><path d="M48.83 248.736v-.111a.363.363 0 0 0 0 .111ZM134.472 323.172c-20.431 10.675-20.45 29.348-20.45 29.348s-.027-5.365-1.862-7.933c.258 5.594-1.024 7.905-1.024 7.905s-1.281-2.311-1.023-7.905c-1.835 2.568-1.862 7.933-1.862 7.933s-.019-18.664-20.45-29.348c14.263 12.179 3.171 16.673 3.171 16.673s8.88 4.494 5.615 13.225c11.996 5.971 12.42 14.711 12.429 15.802a5.014 5.014 0 0 1 2.12-3.833 5 5 0 0 1 2.121 3.833c.009-1.091.433-9.831 12.429-15.802-3.264-8.731 5.614-13.225 5.614-13.225s-11.091-4.494 3.172-16.673ZM6.002 346.25c-24.341 12.711-24.35 34.952-24.35 34.952s-.037-6.383-2.222-9.447c.313 6.659-1.217 9.41-1.217 9.41s-1.53-2.751-1.217-9.41c-2.185 3.064-2.222 9.447-2.222 9.447s-.019-22.231-24.35-34.952c16.983 14.5 3.78 19.856 3.78 19.856s10.575 5.356 6.694 15.756c14.281 7.117 14.788 17.517 14.798 18.82a5.94 5.94 0 0 1 2.517-4.559 5.921 5.921 0 0 1 2.517 4.559c.009-1.303.516-11.703 14.798-18.82-3.882-10.4 6.693-15.756 6.693-15.756s-13.203-5.347 3.78-19.856ZM182.646 309.133c-20.431 10.675-20.45 29.348-20.45 29.348s-.028-5.365-1.862-7.933c.258 5.594-1.024 7.905-1.024 7.905s-1.281-2.311-1.023-7.905c-1.835 2.568-1.863 7.933-1.863 7.933s-.018-18.664-20.449-29.348c14.263 12.179 3.171 16.673 3.171 16.673s8.879 4.494 5.615 13.225c11.995 5.971 12.419 14.711 12.429 15.802a5.014 5.014 0 0 1 2.12-3.833 5.004 5.004 0 0 1 2.121 3.833c.009-1.091.433-9.831 12.428-15.802-3.264-8.731 5.615-13.225 5.615-13.225s-11.091-4.494 3.172-16.673Z"/><path d="M160.748 337.377c-17.325 1.559-22.755 14.555-22.755 14.555s1.54-3.742 1.005-6.062c-1.438 3.971-3.006 5.209-3.006 5.209s-.221-1.981 1.586-5.796c-2.028 1.265-3.605 4.989-3.605 4.989s5.412-12.996-5.716-26.303c6.389 12.574-2.628 12.519-2.628 12.519s4.877 5.677.074 10.822c6.61 7.603 4.379 13.812 4.066 14.573.156-.34.857-1.66 2.581-2.055a3.746 3.746 0 0 1 .36 3.275c.323-.762 3.153-6.714 13.24-7.429.267-7.016 7.754-7.594 7.754-7.594s-6.417-6.328 7.044-10.703ZM182.773 354.574s.01-.027.037-.082a1.003 1.003 0 0 0-.037.082Z"/><path d="M210.849 328.776c-17.324 1.559-22.755 14.554-22.755 14.554s1.54-3.741 1.005-6.062c-1.438 3.971-3.005 5.209-3.005 5.209s-.222-1.981 1.586-5.796c-2.029 1.266-3.605 4.989-3.605 4.989s5.412-12.995-5.717-26.303c6.39 12.574-2.628 12.519-2.628 12.519s4.878 5.677.074 10.822c6.611 7.603 4.38 13.812 4.066 14.573a3.776 3.776 0 0 1 2.582-2.054 3.746 3.746 0 0 1 .359 3.274c.323-.761 3.154-6.713 13.24-7.429.268-7.016 7.754-7.594 7.754-7.594s-6.426-6.319 7.044-10.702ZM179.824 353.356s.009-.028.037-.083a.643.643 0 0 0-.037.083ZM29.91 326.766C9.478 337.441 9.46 356.114 9.46 356.114s-.028-5.365-1.863-7.933c.259 5.594-1.023 7.905-1.023 7.905s-1.282-2.311-1.023-7.905c-1.835 2.568-1.863 7.933-1.863 7.933s-.018-18.664-20.45-29.348c14.264 12.179 3.172 16.673 3.172 16.673s8.879 4.494 5.615 13.225c11.995 5.97 12.42 14.711 12.428 15.802a5.017 5.017 0 0 1 2.121-3.834 5.005 5.005 0 0 1 2.12 3.834c.01-1.091.434-9.832 12.429-15.802-3.264-8.731 5.615-13.225 5.615-13.225s-11.092-4.494 3.172-16.673Z"/><path d="M8.011 353.283c-17.324 1.56-22.754 14.555-22.754 14.555s1.54-3.742 1.005-6.062c-1.439 3.971-3.006 5.209-3.006 5.209s-.221-1.981 1.586-5.796c-2.029 1.266-3.605 4.989-3.605 4.989s5.412-12.995-5.717-26.303c6.39 12.574-2.627 12.519-2.627 12.519s4.877 5.677.073 10.822c6.611 7.603 4.38 13.812 4.066 14.573a3.774 3.774 0 0 1 2.582-2.054 3.745 3.745 0 0 1 .36 3.274c.322-.761 3.153-6.714 13.24-7.429.267-7.016 7.753-7.594 7.753-7.594s-6.426-6.319 7.044-10.703ZM58.103 349.001c-17.324 1.559-22.755 14.555-22.755 14.555s1.54-3.742 1.005-6.053c-1.438 3.971-3.005 5.209-3.005 5.209s-.222-1.981 1.585-5.796c-2.028 1.265-3.605 4.989-3.605 4.989s5.412-12.996-5.716-26.303c6.39 12.573-2.628 12.518-2.628 12.518s4.878 5.677.074 10.822c6.61 7.603 4.38 13.812 4.066 14.574.157-.34.858-1.66 2.582-2.055a3.745 3.745 0 0 1 .36 3.274c.322-.761 3.152-6.713 13.24-7.428.267-7.016 7.753-7.594 7.753-7.594s-6.417-6.328 7.044-10.712Z"/><path d="M43.61 349.387s.009-.027.036-.082c-.027.055-.037.082-.037.082Z"/><path d="M71.675 323.587c-17.324 1.559-22.754 14.555-22.754 14.555s1.54-3.742 1.005-6.053c-1.439 3.971-3.006 5.209-3.006 5.209s-.221-1.981 1.586-5.796c-2.029 1.265-3.605 4.989-3.605 4.989s5.412-12.996-5.717-26.303c6.39 12.573-2.627 12.518-2.627 12.518s4.877 5.677.073 10.822c6.611 7.603 4.38 13.812 4.066 14.574.157-.34.858-1.66 2.582-2.055a3.745 3.745 0 0 1 .36 3.274c.322-.761 3.153-6.713 13.24-7.428.267-7.016 7.753-7.594 7.753-7.594s-6.417-6.328 7.044-10.712Z"/><path d="M40.66 348.161s.01-.028.037-.083a.686.686 0 0 0-.037.083ZM419.699 291.094c-20.432 10.675-20.45 29.348-20.45 29.348s-.028-5.365-1.863-7.933c.259 5.594-1.023 7.905-1.023 7.905s-1.282-2.311-1.023-7.905c-1.835 2.568-1.863 7.933-1.863 7.933s-.018-18.664-20.45-29.348c14.264 12.179 3.172 16.673 3.172 16.673s8.879 4.494 5.615 13.225c11.995 5.971 12.419 14.711 12.428 15.802a5.016 5.016 0 0 1 2.121-3.833 5.004 5.004 0 0 1 2.121 3.833c.009-1.091.433-9.831 12.428-15.802-3.264-8.731 5.615-13.225 5.615-13.225s-11.092-4.494 3.172-16.673ZM266.65 304.805c-22.478 11.748-22.497 32.283-22.497 32.283s-.037-5.898-2.056-8.731c.286 6.153-1.125 8.694-1.125 8.694s-1.41-2.541-1.124-8.694c-2.02 2.824-2.056 8.731-2.056 8.731s-.019-20.535-22.497-32.283c15.692 13.399 3.494 18.342 3.494 18.342s9.773 4.944 6.178 14.555c13.193 6.576 13.664 16.187 13.673 17.389a5.474 5.474 0 0 1 2.332-4.21 5.485 5.485 0 0 1 2.333 4.21c.009-1.202.48-10.813 13.673-17.389-3.586-9.602 6.178-14.555 6.178-14.555s-12.198-4.952 3.494-18.342Z"/><path d="M238.649 355.215v-.129a.429.429 0 0 0 0 .129ZM223.559 311.17s.009-.027.027-.092c-.018.055-.027.092-.027.092ZM251.227 280.703c-18.477 3.356-23.05 17.847-23.05 17.847s1.291-4.173.489-6.613c-1.162 4.403-2.72 5.888-2.72 5.888s-.434-2.109 1.134-6.383c-2.056 1.55-3.384 5.714-3.384 5.714s4.545-14.5-8.713-27.734c8.104 12.904-1.604 13.72-1.604 13.72s5.799 5.64 1.134 11.629c7.855 7.539 6.057 14.427 5.79 15.28a4.066 4.066 0 0 1 2.582-2.467 4.051 4.051 0 0 1 .71 3.485c.267-.844 2.738-7.53 13.516-9.273-.406-7.566 7.597-8.914 7.597-8.914s-7.532-6.163 6.519-12.179ZM220.266 310.139l.027-.092c-.018.055-.027.092-.027.092ZM309.302 294.047c-20.431 10.675-20.45 29.348-20.45 29.348s-.027-5.365-1.862-7.933c.258 5.585-1.023 7.905-1.023 7.905s-1.282-2.311-1.024-7.905c-1.835 2.568-1.862 7.933-1.862 7.933s-.019-18.664-20.45-29.348c14.263 12.179 3.172 16.673 3.172 16.673s8.878 4.494 5.614 13.225c11.996 5.971 12.42 14.711 12.429 15.802a5.013 5.013 0 0 1 2.121-3.833 5.002 5.002 0 0 1 2.12 3.833c.009-1.091.433-9.831 12.429-15.802-3.264-8.731 5.615-13.225 5.615-13.225s-11.092-4.494 3.171-16.673ZM299.361 343.562c-16.697 8.722-16.706 23.974-16.706 23.974s-.028-4.384-1.521-6.484c.212 4.567-.83 6.457-.83 6.457s-1.051-1.89-.83-6.457c-1.503 2.1-1.521 6.484-1.521 6.484s-.01-15.252-16.707-23.974c11.654 9.951 2.591 13.62 2.591 13.62s7.256 3.678 4.591 10.804c9.801 4.879 10.152 12.023 10.152 12.913a4.054 4.054 0 0 1 1.733-3.128 4.096 4.096 0 0 1 1.733 3.128c.009-.89.351-8.034 10.151-12.913-2.664-7.136 4.592-10.804 4.592-10.804s-9.072-3.669 2.572-13.62ZM292.16 245.922c-19.786 10.336-19.795 28.412-19.795 28.412s-.028-5.19-1.807-7.676c.249 5.411-.987 7.649-.987 7.649s-1.244-2.238-.986-7.649c-1.78 2.486-1.807 7.676-1.807 7.676s-.019-18.076-19.796-28.412c13.812 11.794 3.071 16.141 3.071 16.141s8.602 4.357 5.439 12.803c11.608 5.787 12.023 14.243 12.032 15.298a4.838 4.838 0 0 1 2.047-3.705c1.853 1.321 2.038 3.237 2.047 3.705.009-1.055.424-9.52 12.032-15.298-3.162-8.456 5.44-12.803 5.44-12.803s-10.741-4.347 3.07-16.141ZM267.516 290.29v-.11a.34.34 0 0 0 0 .11ZM357.889 289.392v-.111a.345.345 0 0 0 0 .111ZM377.612 246.797c-19.002 9.923-19.012 27.285-19.012 27.285s-.027-4.98-1.733-7.374c.24 5.2-.95 7.346-.95 7.346s-1.189-2.146-.949-7.346c-1.706 2.394-1.734 7.374-1.734 7.374s-.018-17.353-19.011-27.285c13.258 11.327 2.95 15.499 2.95 15.499s8.252 4.183 5.228 12.299c11.147 5.558 11.543 13.674 11.553 14.692a4.637 4.637 0 0 1 1.963-3.558c1.78 1.266 1.955 3.109 1.964 3.558.009-1.018.406-9.134 11.553-14.692-3.033-8.116 5.228-12.299 5.228-12.299s-10.308-4.182 2.95-15.499ZM330.353 211.578s-.019-.037-.046-.101c.027.064.046.101.046.101Z"/><path d="M331.689 164.07c-13.728 16.775-6.804 32.953-6.804 32.953s-2.019-4.632-4.564-6.182c2.305 4.751 2.056 7.218 2.056 7.218s-1.973-1.532-3.826-6.466c-.636 2.908 1.337 7.557 1.337 7.557s-6.961-16.169-28.628-17.893c16.881 5.301 8.952 13.28 8.952 13.28s9.368.624 9.792 9.392c12.613.761 16.236 8.171 16.642 9.116a4.696 4.696 0 0 1 .406-4.1 4.705 4.705 0 0 1 3.254 2.541c-.396-.945-3.282-8.676 4.887-18.26-6.076-6.365-.056-13.528-.056-13.528s-11.266.174-3.448-15.628Z"/><path d="M326.683 213.14s-.009-.036-.046-.101c.027.065.046.101.046.101ZM193.766 42.386s0-.01.009-.019c-.009.01-.009.02-.009.02ZM201.207 35.127c-5.588.725-6.473 4.22-6.473 4.22s.249-1.01-.083-1.606c-.203 1.064-.627 1.413-.627 1.413s-.212-.514.12-1.541c-.581.367-.839 1.366-.839 1.366s.885-3.494-3.688-6.768c2.969 3.173 0 3.32 0 3.32s1.992 1.394.765 2.825c2.693 1.861 2.388 3.53 2.342 3.732.028-.091.166-.449.71-.587.415.377.36.753.341.853.056-.201.572-1.816 3.836-2.182-.397-1.835 2.028-2.128 2.028-2.128s-2.554-1.523 1.568-2.917ZM192.707 42.128s0-.01.009-.019c0 .01-.009.02-.009.02ZM128.873 221.504s-.01-.027-.037-.082c.027.055.037.082.037.082ZM129.796 180.648c-11.728 14.491-5.689 28.367-5.689 28.367s-1.76-3.971-3.955-5.301c2.01 4.072 1.798 6.2 1.798 6.2s-1.706-1.302-3.319-5.549c-.535 2.504 1.18 6.494 1.18 6.494s-6.057-13.867-24.71-15.252c14.55 4.475 7.764 11.372 7.764 11.372s8.058.495 8.464 8.025c10.852.596 13.996 6.952 14.355 7.759a4.006 4.006 0 0 1 .332-3.522 4.049 4.049 0 0 1 2.812 2.165c-.35-.817-2.858-7.448 4.112-15.729-5.255-5.439-.11-11.629-.11-11.629s-9.681.229-3.034-13.4ZM125.728 222.864s-.009-.028-.037-.083a.423.423 0 0 0 .037.083ZM287.173 78.661l-.028-.028a.77.77 0 0 0 .028.028ZM281.28 61.64c-2.628 7.769 2.001 12.584 2.001 12.584s-1.337-1.376-2.443-1.587c1.456 1.376 1.696 2.293 1.696 2.293s-.904-.285-2.222-1.789c.166 1.11 1.484 2.504 1.484 2.504s-4.628-4.815-12.548-2.55c6.703-.357 4.951 3.522 4.951 3.522s3.402-1.018 4.73 2.036c4.573-1.403 6.85.752 7.127 1.027a1.765 1.765 0 0 1-.406-1.504c.83-.119 1.374.349 1.494.468-.267-.284-2.323-2.641-.71-7.126-3.006-1.449-1.825-4.787-1.825-4.787s-3.983 1.55-3.329-5.09ZM286.075 79.708l-.028-.028c.019.01.028.028.028.028ZM282.38 159.954s0-.019-.009-.056c.009.037.009.056.009.056ZM290.807 136.766c-9.506 6.043-8.74 15.132-8.74 15.132s-.24-2.614-1.236-3.788c.36 2.715-.166 3.889-.166 3.889s-.719-1.073-.829-3.806c-.784 1.33-.581 3.944-.581 3.944s-.784-9.089-11.175-13.455c7.45 5.347 2.241 7.989 2.241 7.989s4.508 1.825 3.282 6.209c6.085 2.421 6.657 6.658 6.712 7.19a2.432 2.432 0 0 1 .876-1.954 2.451 2.451 0 0 1 1.189 1.78c-.046-.532-.193-4.806 5.394-8.209-1.955-4.118 2.185-6.676 2.185-6.676s-5.587-1.734.848-8.245ZM202.377 253.203s.009-.037.028-.101a2.333 2.333 0 0 0-.028.101ZM234.408 217.935c-21.39 3.879-26.682 20.663-26.682 20.663s1.484-4.824.562-7.649c-1.346 5.099-3.153 6.814-3.153 6.814s-.498-2.439 1.318-7.392c-2.378 1.798-3.918 6.613-3.918 6.613s5.265-16.784-10.087-32.109c9.377 14.94-1.862 15.875-1.862 15.875s6.712 6.53 1.309 13.464c9.091 8.731 7.007 16.701 6.703 17.682a4.714 4.714 0 0 1 2.987-2.852 4.705 4.705 0 0 1 .821 4.035c.313-.981 3.172-8.713 15.637-10.73-.461-8.759 8.787-10.318 8.787-10.318s-8.695-7.135 7.578-14.096ZM198.57 252.008s.01-.037.037-.102c-.027.065-.037.102-.037.102ZM161.857 244.681s0-.037-.009-.111a.897.897 0 0 1 .009.111Z"/><path d="M179.698 200.594c-18.735 10.987-17.887 28.55-17.887 28.55s-.276-5.044-2.12-7.374c.507 5.246-.591 7.484-.591 7.484s-1.309-2.119-1.327-7.392c-1.605 2.504-1.392 7.548-1.392 7.548s-.876-17.563-20.598-26.67c13.987 10.804 3.762 15.545 3.762 15.545s8.565 3.825 5.901 12.189c11.562 5.071 12.364 13.271 12.428 14.298a4.703 4.703 0 0 1 1.817-3.705 4.7 4.7 0 0 1 2.166 3.503c-.046-1.027-.046-9.263 10.963-15.435-3.476-8.062 4.674-12.702 4.674-12.702s-10.649-3.724 2.204-15.839Z"/><path d="M157.875 244.868v-.11a.365.365 0 0 0 0 .11ZM263.357 349.684s.01-.028.037-.082a.84.84 0 0 0-.037.082Z"/><path d="M291.433 323.885c-17.324 1.559-22.755 14.555-22.755 14.555s1.54-3.742 1.005-6.062c-1.438 3.971-3.005 5.209-3.005 5.209s-.222-1.981 1.586-5.796c-2.029 1.265-3.606 4.989-3.606 4.989s5.413-12.996-5.716-26.303c6.39 12.573-2.628 12.518-2.628 12.518s4.878 5.677.074 10.822c6.611 7.603 4.38 13.812 4.066 14.574.157-.34.858-1.66 2.582-2.055a3.746 3.746 0 0 1 .359 3.274c.323-.761 3.154-6.713 13.24-7.428.268-7.016 7.754-7.594 7.754-7.594s-6.426-6.319 7.044-10.703ZM260.408 348.481s.009-.028.037-.083a.643.643 0 0 0-.037.083ZM309.43 342.082s.009-.027.036-.082c-.027.055-.036.082-.036.082Z"/><path d="M337.506 316.276c-17.325 1.559-22.755 14.554-22.755 14.554s1.539-3.741 1.005-6.062c-1.439 3.971-3.006 5.209-3.006 5.209s-.221-1.981 1.586-5.796c-2.029 1.266-3.605 4.989-3.605 4.989s5.412-12.995-5.717-26.303c6.39 12.574-2.627 12.519-2.627 12.519s4.877 5.677.073 10.822c6.611 7.603 4.38 13.812 4.067 14.573a3.771 3.771 0 0 1 2.581-2.054 3.744 3.744 0 0 1 .36 3.274c.322-.761 3.153-6.713 13.24-7.429.267-7.016 7.753-7.594 7.753-7.594s-6.426-6.319 7.045-10.702ZM306.48 340.871s.01-.027.037-.082c-.027.055-.037.082-.037.082ZM209.33 344.657s.019-.036.046-.11c-.037.074-.046.11-.046.11ZM246.687 310.33c-23.059 2.082-30.278 19.37-30.278 19.37s2.047-4.98 1.337-8.062c-1.918 5.283-4.002 6.934-4.002 6.934s-.295-2.632 2.112-7.713c-2.693 1.678-4.795 6.64-4.795 6.64s7.201-17.297-7.606-35.007c8.51 16.738-3.504 16.655-3.504 16.655s6.491 7.557.092 14.399c8.805 10.116 5.827 18.379 5.403 19.388a5.019 5.019 0 0 1 3.439-2.742 4.963 4.963 0 0 1 .48 4.356c.424-1.009 4.195-8.942 17.619-9.886.35-9.337 10.317-10.107 10.317-10.107s-8.538-8.401 9.386-14.225ZM205.398 343.048s.019-.037.047-.11c-.028.073-.047.11-.047.11ZM366.539 350.625c-20.432 10.675-20.45 29.348-20.45 29.348s-.028-5.365-1.863-7.933c.258 5.585-1.023 7.906-1.023 7.906s-1.282-2.312-1.024-7.906c-1.834 2.568-1.862 7.933-1.862 7.933s-.018-18.663-20.45-29.348c14.263 12.179 3.172 16.673 3.172 16.673s8.879 4.494 5.615 13.225c11.995 5.971 12.419 14.711 12.428 15.802a5.016 5.016 0 0 1 2.121-3.833 4.998 4.998 0 0 1 2.12 3.833c.01-1.091.434-9.831 12.429-15.802-3.264-8.731 5.615-13.225 5.615-13.225s-11.092-4.494 3.172-16.673Z"/><path d="M397.415 326.766c-20.431 10.675-20.449 29.348-20.449 29.348s-.028-5.365-1.863-7.933c.258 5.594-1.023 7.905-1.023 7.905s-1.282-2.311-1.024-7.905c-1.834 2.568-1.862 7.933-1.862 7.933s-.018-18.664-20.45-29.348c14.263 12.179 3.172 16.673 3.172 16.673s8.879 4.494 5.615 13.225c11.995 5.97 12.419 14.711 12.428 15.802a5.019 5.019 0 0 1 2.121-3.834 5.001 5.001 0 0 1 2.12 3.834c.01-1.091.434-9.832 12.429-15.802-3.264-8.731 5.615-13.225 5.615-13.225s-11.092-4.494 3.171-16.673Z"/><path d="M375.521 353.283c-17.324 1.56-22.755 14.555-22.755 14.555s1.54-3.742 1.005-6.062c-1.438 3.971-3.005 5.209-3.005 5.209s-.222-1.981 1.585-5.796c-2.028 1.266-3.605 4.989-3.605 4.989s5.412-12.995-5.716-26.303c6.389 12.574-2.628 12.519-2.628 12.519s4.878 5.677.074 10.822c6.611 7.603 4.38 13.812 4.066 14.573a3.776 3.776 0 0 1 2.582-2.054 3.746 3.746 0 0 1 .359 3.274c.323-.761 3.153-6.714 13.24-7.429.267-7.016 7.754-7.594 7.754-7.594s-6.417-6.319 7.044-10.703Z"/><path d="M367.71 315.961c-20.431 10.675-20.449 29.348-20.449 29.348s-.028-5.365-1.863-7.933c.258 5.585-1.023 7.905-1.023 7.905s-1.282-2.311-1.024-7.905c-1.834 2.568-1.862 7.933-1.862 7.933s-.019-18.664-20.45-29.348c14.263 12.179 3.172 16.673 3.172 16.673s8.878 4.494 5.615 13.225c11.995 5.971 12.419 14.711 12.428 15.802a5.016 5.016 0 0 1 2.121-3.833 5.002 5.002 0 0 1 2.12 3.833c.01-1.091.434-9.831 12.429-15.802-3.264-8.731 5.615-13.225 5.615-13.225s-11.092-4.494 3.171-16.673ZM12.152 286.527c-8.325-.147-19.039 4.283-19.039 4.283-3.264 5.603-5.541 10.345-7.108 12.353-.517-1.036-2.057-3.952-3.633-4.87 1.798 3.531.894 3.733.894 3.733s-.756.541-2.212-3.146c-.36 1.789.802 4.87 1.244 5.943-2.544-.165-7.625-1.632-14.005-2.925 0 0-10.446 5.026-15.867 11.308 7.892-3.696 7.486 6.172 7.486 6.172s5.781-8.07 12.309 4.164c2.738-11.611 18.504-4.98 18.504-4.98s5.495-16.123 16.034-10.446c-4.85-12.977 5.052-11.914 5.052-11.914s-7.68-6.264.341-9.675ZM120.469 315.615c-8.095-7.805-22.801-13.298-22.801-13.298-8.437 2.531-15.103 5.126-18.523 5.668.46-1.505 1.641-5.797.94-8.163-1.512 5.145-2.59 4.512-2.59 4.512s-1.245-.155.737-5.145c-2.01 1.44-3.734 5.558-4.296 7.016-2.36-2.513-6.021-8.63-11.12-15.783 0 0-14.991-4.65-26.203-3.44 11.24 3.614 1.66 12.996 1.66 12.996s13.221-2.65 8.289 15.445c13.507-8.952 22.92 12.115 22.92 12.115s20.441-10.877 25.576 4.439c7.284-17.288 16.08-7.126 16.08-7.126s-1.779-13.253 9.331-9.236Z"/><path d="M78.535 272.378c-10.649-4.98-32.205-.293-32.205-.293-5.938 5.145-16.347 16.976-16.347 16.976-.055-1.633-.35-6.274-1.853-8.374.258 5.595-1.023 5.329-1.023 5.329s-1.282.266-1.024-5.329c-1.493 2.1-1.788 6.741-1.853 8.374-3.19-1.679-8.879-6.494-16.347-11.831 0 0-21.556 5.603-32.205 10.583 12.327-.22 13.304 8.144 13.304 8.144s15.25-9.639 16.55 9.869c10.28-13.381 21.575 5.778 21.575 5.778s10.252-21.223 20.542-7.842c1.3-19.516 14.475-12.959 14.475-12.959s4.094-18.645 16.411-18.425ZM115.858 276.363c-8.326-.147-19.04 4.283-19.04 4.283-3.263 5.604-5.54 10.345-7.108 12.354-.516-1.037-2.056-3.953-3.633-4.87 1.798 3.531.895 3.732.895 3.732s-.756.541-2.213-3.145c-.36 1.788.802 4.87 1.245 5.943-2.545-.165-7.625-1.633-14.006-2.926 0 0-10.446 5.026-15.867 11.308 7.892-3.696 7.486 6.172 7.486 6.172s5.781-8.07 12.31 4.164c2.737-11.611 18.503-4.98 18.503-4.98s5.496-16.123 16.034-10.446c-4.85-12.977 5.053-11.913 5.053-11.913s-7.681-6.264.341-9.676ZM215.221 265.66c-8.326-.147-19.039 4.283-19.039 4.283-3.264 5.603-5.541 10.345-7.109 12.353-.516-1.036-2.056-3.952-3.632-4.869 1.797 3.53.894 3.732.894 3.732s-.756.541-2.213-3.145c-.359 1.788.802 4.869 1.245 5.942-2.545-.165-7.625-1.632-14.005-2.925 0 0-10.447 5.026-15.868 11.308 7.892-3.696 7.487 6.172 7.487 6.172s5.781-8.07 12.308 4.164c2.739-11.611 18.505-4.98 18.505-4.98s5.495-16.123 16.033-10.446c-4.849-12.977 5.053-11.914 5.053-11.914s-7.68-6.263.341-9.675Z"/><path d="M178.757 298.965c-6.463-9.777-20.183-18.682-20.183-18.682-9.173.67-16.549 1.807-20.154 1.587.811-1.422 2.996-5.54 2.821-8.098-2.711 4.897-3.67 4.007-3.67 4.007s-1.235-.44 1.927-5.071c-2.378 1.009-5.071 4.815-5.974 6.181-1.835-3.091-4.168-10.152-7.726-18.581 0 0-14.208-8.126-25.9-9.41 10.622 6.219-1.28 13.601-1.28 13.601s14.069.285 4.923 17.6c15.793-6.062 20.579 17.517 20.579 17.517s23.289-6.456 25.032 10.3c11.359-15.968 17.997-3.623 17.997-3.623s1.217-13.913 11.608-7.328ZM143.942 242.576c-4.195-8.328-19.998-15.949-19.998-15.949-6.26.312-18.624 2.614-18.624 2.614.774-1.055 2.886-4.1 2.987-6.145-2.6 3.623-3.273 2.834-3.273 2.834s-.931-.468 2.001-3.834c-1.973.578-4.454 3.339-5.302 4.329-1.161-2.614-2.342-8.41-4.37-15.398 0 0-16.255-7.044-25.382-9.144 7.818 5.897 4.287 11.611 4.287 11.611s14.31 1.43 5.467 14.279c13.056-3.338 10.63 14.179 10.63 14.179s16.91-8.254 16.726 5.154c10.464-11.574 15.471-1.018 15.471-1.018s11.774-9.685 19.38-3.512ZM96.053 162.924c-6.002-1.009-16.097 4.311-16.097 4.311-2.24 3.384-5.781 10.73-5.781 10.73-.258-.807-1.051-3.081-2.093-3.916.913 2.751.24 2.797.24 2.797s-.6.312-1.255-2.513c-.451 1.257.047 3.605.25 4.43-1.826-.394-5.339-2.009-9.81-3.641 0 0-9.967 5.778-14.577 9.74 6.112-1.816 7.772 2.219 7.772 2.219s6.251-6.915 9.635 2.632c3.255-8.098 11.571-.1 11.571-.1s2.148-12.006 9.146-6.75c-2.084-9.915 5.403-8.466 5.403-8.466s-.572-9.868 5.597-11.473ZM33.855 85.257c-3.19-3.522-11.977-5.136-11.977-5.136-3.024.99-8.787 3.788-8.787 3.788.24-.624.858-2.403.627-3.412-.783 2.127-1.226 1.825-1.226 1.825s-.516-.101.461-2.146c-.894.55-1.733 2.238-2.01 2.834-.922-1.128-2.286-3.806-4.232-6.97 0 0-8.934-1.275-13.691-1.083 4.637 1.844 3.678 5.118 3.678 5.118s7.22-1.22 4.62 6.273c5.956-3.393 7.145 5.53 7.145 5.53s7.182-6.319 8.906.285c3.569-7.08 7.45-2.578 7.45-2.578s4.472-6.337 9.036-4.328ZM26.739 128.321c-1.623-1.045-5.247-.752-5.247-.752-1.078.706-3.042 2.412-3.042 2.412.028-.266.083-1.027-.12-1.403-.083.917-.286.844-.286.844s-.212.018-.046-.89c-.295.312-.442 1.064-.489 1.321-.479-.349-1.309-1.257-2.406-2.284 0 0-3.642.44-5.486 1.018 2.01.239 1.992 1.624 1.992 1.624s2.701-1.239 2.48 1.971c1.973-1.953 3.393 1.413 3.393 1.413s2.139-3.238 3.522-.826c.645-3.155 2.646-1.797 2.646-1.797s1.088-2.953 3.089-2.651ZM97.234 158.068c-1.319-2.146-5.735-3.852-5.735-3.852-1.678.221-4.951 1.11-4.951 1.11.184-.303.682-1.165.664-1.715-.618 1.036-.821.835-.821.835s-.258-.101.452-1.073c-.517.201-1.125.999-1.328 1.284-.369-.679-.82-2.211-1.521-4.054 0 0-4.536-1.541-7.035-1.908 2.231 1.413 1.41 3.027 1.41 3.027s3.882.073 1.79 3.723c3.438-1.183 3.18 3.586 3.18 3.586s4.37-2.595 4.62 1.018c2.563-3.347 4.14-.614 4.14-.614s2.959-2.852 5.135-1.367ZM3.854 319.691c-10.65-4.98-32.206-.294-32.206-.294-5.937 5.145-16.346 16.976-16.346 16.976-.056-1.632-.35-6.273-1.854-8.373.258 5.585-1.023 5.328-1.023 5.328s-1.282.266-1.023-5.328c-1.494 2.1-1.79 6.741-1.854 8.373-3.19-1.678-8.879-6.493-16.347-11.831 0 0-21.556 5.604-32.205 10.584 12.327-.22 13.305 8.144 13.305 8.144s15.25-9.639 16.55 9.868c10.28-13.381 21.574 5.778 21.574 5.778s10.253-21.222 20.542-7.841c1.3-19.517 14.475-12.959 14.475-12.959s4.085-18.646 16.412-18.425ZM149.85 311.215c-8.326-.147-19.039 4.283-19.039 4.283-3.264 5.603-5.542 10.345-7.109 12.353-.516-1.036-2.056-3.953-3.633-4.87 1.798 3.531.895 3.733.895 3.733s-.756.541-2.213-3.146c-.36 1.789.802 4.87 1.245 5.943-2.545-.165-7.625-1.632-14.005-2.925 0 0-10.447 5.025-15.868 11.308 7.892-3.696 7.487 6.172 7.487 6.172s5.781-8.071 12.308 4.164c2.739-11.611 18.505-4.98 18.505-4.98s5.495-16.123 16.033-10.446c-4.85-12.978 5.053-11.914 5.053-11.914s-7.681-6.264.341-9.675Z"/><path d="M118.1 336.006c-8.096-7.805-22.801-13.299-22.801-13.299-8.437 2.532-15.103 5.127-18.523 5.668.46-1.504 1.64-5.796.94-8.162-1.512 5.145-2.59 4.512-2.59 4.512s-1.245-.156.737-5.145c-2.01 1.44-3.734 5.558-4.296 7.016-2.36-2.513-6.021-8.63-11.12-15.784 0 0-14.991-4.65-26.203-3.439 11.24 3.613 1.66 12.996 1.66 12.996s13.221-2.651 8.288 15.444c13.508-8.951 22.921 12.115 22.921 12.115s20.44-10.877 25.576 4.439c7.284-17.288 16.08-7.126 16.08-7.126s-1.779-13.243 9.331-9.235ZM212.749 331.223c-6.463-9.777-20.182-18.682-20.182-18.682-9.174.67-16.55 1.807-20.155 1.587.811-1.422 2.996-5.54 2.821-8.099-2.71 4.898-3.669 4.008-3.669 4.008s-1.236-.44 1.927-5.071c-2.379 1.008-5.071 4.814-5.975 6.181-1.835-3.091-4.167-10.153-7.726-18.581 0 0-14.208-8.126-25.899-9.41 10.621 6.218-1.282 13.601-1.282 13.601s14.07.285 4.924 17.6c15.794-6.062 20.579 17.517 20.579 17.517s23.289-6.457 25.032 10.299c11.359-15.967 17.997-3.622 17.997-3.622s1.217-13.913 11.608-7.328ZM8.472 146.376c-3.66-.037-8.362 1.953-8.362 1.953-1.42 2.476-2.397 4.576-3.08 5.457-.23-.459-.922-1.733-1.613-2.128.802 1.55.406 1.642.406 1.642s-.332.238-.987-1.376c-.148.789.369 2.137.572 2.614-1.125-.064-3.366-.688-6.169-1.238 0 0-4.573 2.247-6.942 5.035 3.457-1.651 3.319 2.687 3.319 2.687s2.517-3.568 5.43 1.788c1.162-5.117 8.123-2.256 8.123-2.256s2.36-7.117 7.017-4.659C4 150.2 8.362 150.631 8.362 150.631s-3.412-2.724.11-4.255ZM30.104 196.939c-5.569-5.365-15.674-9.144-15.674-9.144-5.8 1.743-10.382 3.522-12.733 3.898.314-1.036 1.134-3.99.646-5.613-1.042 3.54-1.78 3.1-1.78 3.1s-.857-.11.507-3.54c-1.383.99-2.563 3.815-2.95 4.824-1.623-1.724-4.14-5.934-7.643-10.85 0 0-10.308-3.2-18.016-2.366 7.726 2.486 1.134 8.933 1.134 8.933s9.09-1.825 5.698 10.62c9.284-6.154 15.757 8.328 15.757 8.328s14.051-7.475 17.582 3.054c5.007-11.886 11.055-4.898 11.055-4.898s-1.217-9.107 6.417-6.346ZM72.643 265.563C65.119 258.3 51.446 253.2 51.446 253.2c-7.846 2.357-14.042 4.769-17.223 5.265.424-1.394 1.53-5.393.876-7.594-1.401 4.787-2.406 4.2-2.406 4.2s-1.162-.146.691-4.787c-1.872 1.339-3.467 5.163-3.992 6.53-2.194-2.339-5.597-8.025-10.336-14.674 0 0-13.94-4.329-24.359-3.192 10.446 3.366 1.54 12.079 1.54 12.079s12.29-2.467 7.708 14.362c12.557-8.318 21.316 11.262 21.316 11.262s19.003-10.106 23.779 4.127c6.767-16.077 14.945-6.621 14.945-6.621s-1.669-12.326 8.658-8.594Z"/><path d="M30.104 215.591c-9.893-4.632-29.937-.266-29.937-.266-5.514 4.787-15.204 15.783-15.204 15.783-.055-1.522-.332-5.832-1.724-7.786.24 5.2-.95 4.953-.95 4.953s-1.19.247-.95-4.953c-1.392 1.954-1.668 6.264-1.723 7.786-2.96-1.568-8.262-6.034-15.204-10.996 0 0-20.044 5.209-29.937 9.841 11.46-.202 12.364 7.575 12.364 7.575s14.18-8.969 15.388 9.181c9.56-12.446 20.053 5.374 20.053 5.374s9.533-19.727 19.095-7.282c1.207-18.141 13.46-12.051 13.46-12.051s3.808-17.361 15.269-17.159ZM244.707 334.769c-10.649-4.98-32.205-.294-32.205-.294-5.938 5.145-16.347 16.976-16.347 16.976-.055-1.632-.35-6.273-1.853-8.373.258 5.585-1.024 5.328-1.024 5.328s-1.281.266-1.023-5.328c-1.494 2.1-1.789 6.741-1.853 8.373-3.19-1.678-8.879-6.493-16.347-11.831 0 0-21.556 5.604-32.205 10.584 12.327-.22 13.304 8.144 13.304 8.144s15.25-9.639 16.55 9.868c10.28-13.381 21.574 5.778 21.574 5.778s10.253-21.222 20.542-7.841c1.3-19.517 14.476-12.959 14.476-12.959s4.093-18.645 16.411-18.425ZM232.71 139.682c-6.002-1.009-16.098 4.31-16.098 4.31-2.241 3.385-5.781 10.731-5.781 10.731-.258-.807-1.051-3.082-2.093-3.916.913 2.751.24 2.797.24 2.797s-.6.312-1.254-2.513c-.452 1.256.046 3.604.249 4.43-1.826-.395-5.339-2.009-9.81-3.641 0 0-9.967 5.778-14.577 9.74 6.113-1.816 7.772 2.219 7.772 2.219s6.251-6.915 9.635 2.632c3.255-8.098 11.571-.101 11.571-.101s2.148-12.005 9.146-6.75c-2.083-9.914 5.403-8.465 5.403-8.465s-.581-9.877 5.597-11.473ZM244.107 125.458c-1.982-2.329-7.606-3.558-7.606-3.558-1.973.577-5.735 2.256-5.735 2.256.166-.395.599-1.532.479-2.183-.553 1.357-.82 1.156-.82 1.156s-.332-.074.341-1.376c-.581.339-1.162 1.403-1.355 1.788-.572-.743-1.402-2.503-2.582-4.576 0 0-5.726-1-8.796-.972 2.951 1.284 2.268 3.375 2.268 3.375s4.675-.633 2.849 4.136c3.9-2.064 4.49 3.705 4.49 3.705s4.758-3.925 5.735.367c2.443-4.494 4.85-1.504 4.85-1.504s2.987-4.008 5.882-2.614Z"/><path d="M194.015 357.202c-7.782-5.714-25.918-5.384-25.918-5.384-5.615 3.201-15.923 11.079-15.923 11.079.222-1.33.729-5.117-.138-7.053-.691 4.549-1.687 4.137-1.687 4.137s-1.079.009.037-4.458c-1.549 1.45-2.536 5.146-2.849 6.457-2.296-1.862-6.113-6.649-11.267-12.152 0 0-18.283 1.073-27.678 3.384 9.976 1.798 9.413 8.695 9.413 8.695s13.858-5.338 11.747 10.602c10.455-9.144 16.457 8.107 16.457 8.107s11.7-15.472 17.822-3.036c4.205-15.527 13.766-8.135 13.766-8.135s6.315-14.389 16.218-12.243ZM91.971 351.55c-10.65-4.98-32.205-.294-32.205-.294-5.938 5.145-16.347 16.976-16.347 16.976-.056-1.632-.35-6.273-1.853-8.373.258 5.595-1.024 5.329-1.024 5.329s-1.282.266-1.023-5.329c-1.494 2.1-1.789 6.741-1.853 8.373-3.19-1.678-8.88-6.493-16.347-11.831 0 0-21.557 5.604-32.206 10.584 12.327-.22 13.305 8.144 13.305 8.144s15.25-9.639 16.55 9.869c10.28-13.381 21.574 5.777 21.574 5.777s10.253-21.222 20.542-7.841c1.3-19.516 14.475-12.959 14.475-12.959s4.085-18.645 16.412-18.425ZM15.574 303.129c-8.325-.147-19.039 4.283-19.039 4.283-3.264 5.603-5.54 10.345-7.108 12.353-.517-1.036-2.056-3.953-3.633-4.87 1.798 3.531.894 3.733.894 3.733s-.756.541-2.212-3.146c-.36 1.789.802 4.87 1.244 5.943-2.544-.165-7.625-1.632-14.005-2.925 0 0-10.446 5.025-15.867 11.308 7.892-3.696 7.486 6.172 7.486 6.172s5.781-8.071 12.309 4.164c2.738-11.611 18.504-4.98 18.504-4.98s5.495-16.123 16.034-10.446c-4.85-12.978 5.052-11.914 5.052-11.914s-7.67-6.264.341-9.675Z"/><path d="M67 314.12c-10.649-4.98-32.205-.293-32.205-.293-5.938 5.145-16.347 16.976-16.347 16.976-.055-1.633-.35-6.273-1.853-8.374.258 5.595-1.024 5.329-1.024 5.329s-1.281.266-1.023-5.329c-1.494 2.101-1.789 6.741-1.853 8.374-3.19-1.679-8.879-6.494-16.347-11.831 0 0-21.556 5.603-32.205 10.583 12.327-.22 13.304 8.145 13.304 8.145s15.25-9.639 16.55 9.868c10.28-13.381 21.574 5.778 21.574 5.778s10.253-21.223 20.542-7.842c1.3-19.516 14.476-12.959 14.476-12.959S54.673 313.9 67 314.12Z"/><path d="M102.45 344.217c-7.782-5.713-25.917-5.383-25.917-5.383-5.615 3.201-15.923 11.079-15.923 11.079.221-1.33.728-5.118-.138-7.053-.692 4.549-1.688 4.136-1.688 4.136s-1.078.01.037-4.457c-1.549 1.449-2.535 5.145-2.849 6.457-2.295-1.862-6.113-6.649-11.266-12.152 0 0-18.284 1.073-27.679 3.384 9.976 1.798 9.414 8.694 9.414 8.694s13.857-5.337 11.746 10.602c10.456-9.143 16.458 8.108 16.458 8.108s11.7-15.472 17.822-3.036c4.204-15.527 13.765-8.135 13.765-8.135s6.316-14.39 16.218-12.244ZM282.821 298.168c-8.326-.147-19.04 4.283-19.04 4.283-3.264 5.603-5.541 10.345-7.108 12.353-.517-1.036-2.056-3.953-3.633-4.87 1.798 3.531.894 3.733.894 3.733s-.756.541-2.212-3.146c-.36 1.789.802 4.87 1.244 5.943-2.544-.165-7.625-1.632-14.005-2.925 0 0-10.446 5.026-15.867 11.308 7.892-3.696 7.486 6.172 7.486 6.172s5.781-8.071 12.309 4.164c2.738-11.611 18.504-4.98 18.504-4.98s5.496-16.123 16.034-10.446c-4.85-12.978 5.052-11.914 5.052-11.914s-7.68-6.264.342-9.675ZM379.658 286.527c-8.325-.147-19.039 4.283-19.039 4.283-3.264 5.603-5.541 10.345-7.109 12.353-.516-1.036-2.056-3.952-3.632-4.87 1.798 3.531.894 3.733.894 3.733s-.756.541-2.213-3.146c-.359 1.789.802 4.87 1.245 5.943-2.545-.165-7.625-1.632-14.005-2.925 0 0-10.446 5.026-15.868 11.308 7.893-3.696 7.487 6.172 7.487 6.172s5.781-8.07 12.309 4.164c2.738-11.611 18.504-4.98 18.504-4.98s5.495-16.123 16.034-10.446c-4.85-12.977 5.052-11.914 5.052-11.914s-7.671-6.264.341-9.675Z"/><path d="M343.202 319.848c-6.463-9.777-20.182-18.682-20.182-18.682-9.174.67-16.55 1.807-20.155 1.587.811-1.422 2.996-5.54 2.821-8.099-2.71 4.898-3.669 4.008-3.669 4.008s-1.236-.44 1.927-5.071c-2.379 1.008-5.071 4.814-5.975 6.181-1.835-3.091-4.167-10.153-7.726-18.581 0 0-14.208-8.126-25.899-9.41 10.621 6.218-1.282 13.601-1.282 13.601s14.07.285 4.924 17.6c15.794-6.062 20.579 17.517 20.579 17.517s23.289-6.457 25.032 10.299c11.359-15.967 17.997-3.622 17.997-3.622s1.217-13.922 11.608-7.328ZM446.051 272.378c-10.649-4.98-32.205-.293-32.205-.293-5.938 5.145-16.347 16.976-16.347 16.976-.055-1.633-.351-6.274-1.853-8.374.258 5.595-1.024 5.329-1.024 5.329s-1.281.266-1.023-5.329c-1.494 2.1-1.789 6.741-1.853 8.374-3.19-1.679-8.879-6.494-16.347-11.831 0 0-21.557 5.603-32.206 10.583 12.327-.22 13.305 8.144 13.305 8.144s15.25-9.639 16.55 9.869c10.28-13.381 21.574 5.778 21.574 5.778s10.253-21.223 20.542-7.842c1.3-19.516 14.476-12.959 14.476-12.959s4.084-18.645 16.411-18.425ZM232.122 252.188c-8.16-1.633-19.5.807-19.5.807-4.223 4.925-7.321 9.189-9.23 10.877-.313-1.119-1.309-4.256-2.692-5.448 1.134 3.797.203 3.834.203 3.834s-.839.394-1.604-3.485c-.673 1.696-.083 4.934.147 6.071-2.48-.624-7.21-2.962-13.249-5.384 0 0-11.184 3.073-17.656 8.282 8.436-2.219 6.251 7.41 6.251 7.41s7.146-6.896 11.35 6.292c4.794-10.923 19.104-1.587 19.104-1.587s8.325-14.875 17.665-7.41c-2.425-13.629 7.127-10.813 7.127-10.813s-6.426-7.52 2.084-9.446ZM113.773 349.784c-7.237-.128-16.559 3.724-16.559 3.724-2.84 4.87-4.822 8.997-6.177 10.749-.452-.908-1.789-3.44-3.163-4.237 1.568 3.072.775 3.246.775 3.246s-.655.468-1.927-2.733c-.313 1.55.7 4.237 1.088 5.164-2.213-.147-6.63-1.413-12.18-2.541 0 0-9.081 4.366-13.802 9.832 6.869-3.21 6.51 5.365 6.51 5.365s5.024-7.016 10.704 3.613c2.379-10.097 16.098-4.328 16.098-4.328s4.776-14.023 13.95-9.089c-4.223-11.281 4.388-10.364 4.388-10.364s-6.684-5.429.295-8.401ZM296.504 204.9c-3.79-7.52-18.071-14.408-18.071-14.408-5.652.285-16.836 2.367-16.836 2.367.701-.954 2.609-3.706 2.701-5.549-2.351 3.274-2.959 2.559-2.959 2.559s-.839-.422 1.807-3.467c-1.789.523-4.029 3.017-4.794 3.916-1.051-2.357-2.121-7.594-3.956-13.922 0 0-14.696-6.365-22.939-8.263 7.063 5.328 3.882 10.492 3.882 10.492s12.935 1.293 4.941 12.904c11.802-3.018 9.608 12.812 9.608 12.812s15.286-7.456 15.111 4.659c9.46-10.455 13.978-.917 13.978-.917s10.658-8.759 17.527-3.183ZM401.363 85.257c-3.191-3.522-11.977-5.136-11.977-5.136-3.024.99-8.787 3.788-8.787 3.788.24-.624.858-2.403.627-3.412-.784 2.127-1.226 1.825-1.226 1.825s-.516-.101.461-2.146c-.894.55-1.733 2.238-2.01 2.834-.922-1.128-2.287-3.806-4.232-6.97 0 0-8.934-1.275-13.692-1.083 4.638 1.844 3.679 5.118 3.679 5.118s7.219-1.22 4.619 6.273c5.956-3.393 7.146 5.53 7.146 5.53s7.182-6.319 8.906.285c3.568-7.08 7.45-2.578 7.45-2.578s4.472-6.337 9.036-4.328ZM209.828 87.648c-1.558.193-3.66 2.247-3.66 2.247-.305 1-.637 3.082-.637 3.082-.119-.184-.488-.688-.811-.816.433.614.268.678.268.678s-.13.12-.498-.532c-.019.34.276.89.387 1.083-.48.036-1.466-.101-2.692-.184 0 0-2.038 2.156-2.886 3.476 1.374-.899 2.084-.018 2.084-.018s1.032-2.174 2.581-.055c.203-2.238 2.849-.871 2.849-.871s-.359-3.128 1.761-2.34c-1.245-2.301.71-2.494.71-2.494s-.867-2.412.544-3.256ZM61.396 83.54c-1.558.192-3.66 2.246-3.66 2.246-.304 1-.636 3.082-.636 3.082-.12-.184-.489-.688-.812-.817.434.615.268.679.268.679s-.13.12-.498-.532c-.018.34.277.89.387 1.082-.48.037-1.466-.1-2.692-.183 0 0-2.038 2.164-2.886 3.476 1.374-.899 2.084-.019 2.084-.019s1.033-2.173 2.581-.055c.203-2.237 2.85-.87 2.85-.87s-.36-3.128 1.76-2.34c-1.244-2.302.71-2.494.71-2.494s-.866-2.412.544-3.256ZM128.573 67.086c-1.18-1.523-4.693-2.45-4.693-2.45-1.254.313-3.678 1.257-3.678 1.257.12-.247.424-.944.359-1.366-.387.834-.553.706-.553.706s-.212-.055.258-.853c-.378.193-.774.853-.903 1.092-.342-.487-.812-1.615-1.494-2.954 0 0-3.577-.788-5.514-.862 1.817.89 1.328 2.192 1.328 2.192s2.96-.266 1.678 2.687c2.517-1.192 2.72 2.458 2.72 2.458s3.107-2.338 3.596.395c1.669-2.76 3.098-.817 3.098-.817s2.01-2.44 3.798-1.485ZM319.139 132.961c-5.873 1.605-12.779 10.657-12.779 10.657-.599 4.008-.691 12.152-.691 12.152-.572-.624-2.259-2.357-3.559-2.678 1.992 2.109 1.402 2.439 1.402 2.439s-.415.532-2.204-1.751c.12 1.33 1.577 3.256 2.102 3.916-1.825.403-5.689.413-10.437.816 0 0-6.592 9.419-9.1 14.94 4.776-4.21 7.994-1.247 7.994-1.247s2.738-8.896 9.847-1.651c-.48-8.713 10.446-4.943 10.446-4.943s-3.135-11.785 5.44-9.96c-6.086-8.117 1.318-9.942 1.318-9.942s-4.711-8.713.221-12.748Z"/><path d="M371.362 319.691c-10.649-4.98-32.206-.294-32.206-.294-5.937 5.145-16.347 16.976-16.347 16.976-.055-1.632-.35-6.273-1.853-8.373.258 5.585-1.023 5.328-1.023 5.328s-1.282.266-1.024-5.328c-1.493 2.1-1.788 6.741-1.853 8.373-3.19-1.678-8.879-6.493-16.347-11.831 0 0-21.556 5.604-32.205 10.584 12.327-.22 13.304 8.144 13.304 8.144s15.25-9.639 16.55 9.868c10.28-13.381 21.575 5.778 21.575 5.778s10.252-21.222 20.542-7.841c1.3-19.517 14.475-12.959 14.475-12.959s4.094-18.646 16.412-18.425ZM269.138 281.673c-8.989-2.009-24.681 5.218-24.681 5.218-3.661 4.944-9.608 15.747-9.608 15.747-.322-1.238-1.336-4.741-2.849-6.089 1.153 4.228.13 4.246.13 4.246s-.941.422-1.688-3.907c-.783 1.862-.221 5.457.01 6.723-2.73-.752-7.902-3.467-14.522-6.292 0 0-15.535 7.924-22.828 13.537 9.385-2.247 11.561 3.989 11.561 3.989s10.022-9.95 14.347 4.76c5.587-11.968 17.49.78 17.49.78s4.223-17.967 14.374-9.465c-2.333-15.151 8.86-12.363 8.86-12.363s-.064-14.967 9.404-16.884ZM375.98 146.376c-3.66-.037-8.362 1.953-8.362 1.953-1.42 2.476-2.398 4.576-3.08 5.457-.23-.459-.922-1.733-1.613-2.128.802 1.55.405 1.642.405 1.642s-.332.238-.986-1.376c-.148.789.369 2.137.571 2.614-1.124-.064-3.365-.688-6.168-1.238 0 0-4.573 2.247-6.942 5.035 3.457-1.651 3.319 2.687 3.319 2.687s2.517-3.568 5.43 1.788c1.162-5.117 8.123-2.256 8.123-2.256s2.36-7.117 7.017-4.659c-2.186-5.695 2.175-5.264 2.175-5.264s-3.402-2.724.111-4.255ZM397.61 196.939c-5.569-5.365-15.674-9.144-15.674-9.144-5.799 1.743-10.382 3.522-12.733 3.898.314-1.036 1.134-3.99.646-5.613-1.042 3.54-1.78 3.1-1.78 3.1s-.857-.11.507-3.54c-1.383.99-2.563 3.815-2.95 4.824-1.623-1.724-4.14-5.934-7.643-10.85 0 0-10.308-3.2-18.016-2.366 7.726 2.486 1.134 8.933 1.134 8.933s9.091-1.825 5.698 10.62c9.284-6.154 15.757 8.328 15.757 8.328s14.051-7.475 17.582 3.054c5.007-11.886 11.055-4.898 11.055-4.898s-1.217-9.107 6.417-6.346ZM289.303 389.003c-5.283-7.988-16.495-15.27-16.495-15.27-7.495.551-13.525 1.477-16.466 1.293.663-1.164 2.452-4.521 2.305-6.621-2.213 4.008-2.997 3.274-2.997 3.274s-1.005-.358 1.577-4.146c-1.946.826-4.14 3.935-4.887 5.045-1.503-2.522-3.402-8.291-6.306-15.188 0 0-11.608-6.64-21.16-7.695 8.676 5.081-1.042 11.116-1.042 11.116s11.497.229 4.02 14.38c12.908-4.952 16.817 14.308 16.817 14.308s19.03-5.283 20.45 8.41c9.284-13.042 14.706-2.963 14.706-2.963s.986-11.326 9.478-5.943ZM275.16 217.416c-9.11-.733-23.511 8.521-23.511 8.521-2.905 5.356-7.238 16.783-7.238 16.783-.489-1.174-1.973-4.466-3.642-5.595 1.724 3.999.719 4.155.719 4.155s-.857.541-2.203-3.595c-.517 1.935.544 5.393.949 6.594-2.775-.358-8.242-2.311-15.139-4.173 0 0-14.152 9.923-20.533 16.435 8.907-3.503 11.913 2.32 11.913 2.32s8.454-11.152 14.742 2.697c3.817-12.528 17.279-1.642 17.279-1.642s1.65-18.223 12.797-11.271c-4.407-14.555 6.979-13.354 6.979-13.354s-2.139-14.692 6.888-17.875ZM356.396 273.582c-9.082-.156-20.763 4.677-20.763 4.677-3.559 6.108-6.039 11.29-7.754 13.473-.563-1.137-2.241-4.311-3.965-5.32 1.964 3.852.978 4.072.978 4.072s-.821.587-2.416-3.43c-.387 1.945.876 5.311 1.355 6.485-2.775-.184-8.316-1.78-15.277-3.192 0 0-11.387 5.475-17.306 12.335 8.611-4.026 8.169 6.732 8.169 6.732s6.306-8.795 13.424 4.54c2.987-12.657 20.183-5.43 20.183-5.43s5.993-17.581 17.49-11.4c-5.292-14.151 5.504-12.995 5.504-12.995s-8.372-6.824.378-10.547ZM440.149 265.563c-7.524-7.263-21.197-12.363-21.197-12.363-7.846 2.357-14.042 4.769-17.223 5.265.424-1.394 1.531-5.393.876-7.594-1.402 4.787-2.406 4.2-2.406 4.2s-1.162-.146.691-4.787c-1.872 1.339-3.467 5.163-3.992 6.53-2.195-2.339-5.597-8.025-10.336-14.674 0 0-13.94-4.329-24.359-3.192 10.446 3.366 1.54 12.079 1.54 12.079s12.29-2.467 7.708 14.362c12.557-8.318 21.316 11.262 21.316 11.262s19.003-10.106 23.778 4.127c6.768-16.077 14.946-6.621 14.946-6.621s-1.669-12.326 8.658-8.594ZM222.974 193.004c-5.762-5.567-16.245-9.474-16.245-9.474-6.012 1.806-10.76 3.65-13.194 4.035.323-1.073 1.171-4.136.673-5.815-1.079 3.669-1.844 3.22-1.844 3.22s-.885-.111.526-3.669c-1.439 1.027-2.656 3.953-3.061 4.998-1.688-1.788-4.288-6.154-7.92-11.244 0 0-10.686-3.32-18.671-2.448 8.012 2.577 1.18 9.253 1.18 9.253s9.423-1.889 5.91 11.006c9.626-6.374 16.338 8.63 16.338 8.63s14.558-7.75 18.219 3.164c5.191-12.317 11.451-5.071 11.451-5.071s-1.282-9.447 6.638-6.585ZM111.257 118.106c-3.799-1.559-9.524-1.44-9.524-1.44-2.517 1.99-4.417 3.77-5.505 4.412-.046-.569-.23-2.183-.792-2.889.184 1.944-.268 1.88-.268 1.88s-.442.11-.452-1.844c-.488.761-.507 2.385-.497 2.953-1.144-.532-3.209-2.109-5.91-3.852 0 0-5.708.441-9.34 2.358 4.296-.285 2.323 4.172 2.323 4.172s4.112-2.678 4.905 4.118c3.356-4.851 9.414 1.018 9.414 1.018s5.44-6.429 9.266-1.935c.12-6.832 4.481-4.576 4.481-4.576s-2.407-4.237 1.899-4.375Z"/><path d="M347.26 277.988c-6.012-9.088-18.772-17.37-18.772-17.37-8.529.624-15.388 1.688-18.735 1.477.756-1.33 2.784-5.145 2.628-7.53-2.527 4.558-3.412 3.733-3.412 3.733s-1.143-.413 1.789-4.714c-2.213.935-4.711 4.475-5.56 5.741-1.705-2.871-3.872-9.437-7.182-17.279 0 0-13.212-7.557-24.083-8.749 9.875 5.787-1.189 12.647-1.189 12.647s13.083.266 4.573 16.362c14.688-5.641 19.132 16.279 19.132 16.279s21.657-6.008 23.271 9.574c10.557-14.839 16.734-3.365 16.734-3.365s1.143-12.932 10.806-6.806ZM352.072 387.746c-6.011-9.088-18.772-17.37-18.772-17.37-8.528.624-15.388 1.687-18.734 1.477.756-1.33 2.784-5.146 2.627-7.53-2.526 4.558-3.411 3.733-3.411 3.733s-1.143-.413 1.788-4.714c-2.212.935-4.711 4.475-5.559 5.741-1.706-2.871-3.873-9.437-7.182-17.279 0 0-13.213-7.557-24.083-8.749 9.875 5.787-1.189 12.647-1.189 12.647s13.083.266 4.573 16.361c14.687-5.64 19.131 16.279 19.131 16.279s21.658-6.007 23.271 9.575c10.557-14.839 16.734-3.366 16.734-3.366s1.144-12.931 10.806-6.805ZM397.612 215.591c-9.893-4.632-29.937-.266-29.937-.266-5.514 4.787-15.204 15.783-15.204 15.783-.055-1.522-.332-5.832-1.724-7.786.239 5.2-.95 4.953-.95 4.953s-1.189.247-.95-4.953c-1.392 1.954-1.668 6.264-1.724 7.786-2.959-1.568-8.261-6.034-15.203-10.996 0 0-20.045 5.209-29.938 9.841 11.461-.202 12.364 7.575 12.364 7.575s14.181-8.969 15.388 9.181c9.562-12.446 20.054 5.374 20.054 5.374s9.533-19.727 19.094-7.282c1.208-18.141 13.461-12.051 13.461-12.051s3.808-17.361 15.269-17.159Z"/><path d="M348.918 349.569c-6.74-3.155-20.385-.184-20.385-.184-3.753 3.256-10.354 10.749-10.354 10.749-.037-1.036-.222-3.971-1.171-5.301.166 3.54-.646 3.375-.646 3.375s-.811.165-.645-3.375c-.95 1.33-1.134 4.265-1.171 5.301-2.019-1.064-5.624-4.109-10.354-7.493 0 0-13.646 3.549-20.385 6.704 7.8-.137 8.417 5.154 8.417 5.154s9.654-6.108 10.474 6.246c6.51-8.474 13.655 3.659 13.655 3.659s6.491-13.436 13-4.961c.821-12.354 9.165-8.209 9.165-8.209s2.6-11.803 10.4-11.665Z"/><path d="M296.688 351.315c-7.745-3.623-23.437-.211-23.437-.211-4.324 3.742-11.903 12.363-11.903 12.363-.046-1.192-.258-4.567-1.346-6.099.194 4.072-.747 3.88-.747 3.88s-.931.192-.747-3.88c-1.088 1.532-1.309 4.907-1.346 6.099-2.323-1.22-6.463-4.723-11.903-8.612 0 0-15.692 4.081-23.437 7.704 8.971-.156 9.681 5.934 9.681 5.934s11.101-7.016 12.041 7.19c7.487-9.74 15.702 4.21 15.702 4.21s7.468-15.445 14.955-5.705c.94-14.206 10.538-9.437 10.538-9.437s2.978-13.592 11.949-13.436Z"/><path d="M320.669 343.85c-7.782-5.713-25.917-5.383-25.917-5.383-5.615 3.2-15.923 11.079-15.923 11.079.221-1.33.728-5.118-.139-7.053-.691 4.549-1.687 4.136-1.687 4.136s-1.079.009.037-4.457c-1.549 1.449-2.535 5.145-2.849 6.456-2.296-1.861-6.113-6.649-11.267-12.151 0 0-18.283 1.073-27.678 3.384 9.976 1.797 9.414 8.694 9.414 8.694s13.857-5.338 11.746 10.602c10.455-9.144 16.457 8.108 16.457 8.108s11.701-15.472 17.823-3.036c4.204-15.527 13.765-8.135 13.765-8.135s6.316-14.39 16.218-12.244Z"/><path d="M258.011 360.335c-7.782-5.714-25.918-5.384-25.918-5.384-5.615 3.201-15.922 11.079-15.922 11.079.221-1.33.728-5.118-.139-7.053-.691 4.549-1.687 4.137-1.687 4.137s-1.079.009.037-4.458c-1.549 1.449-2.536 5.145-2.849 6.457-2.296-1.862-6.113-6.649-11.267-12.152 0 0-18.283 1.073-27.678 3.384 9.976 1.798 9.413 8.694 9.413 8.694s13.858-5.337 11.747 10.602c10.455-9.143 16.457 8.108 16.457 8.108s11.7-15.472 17.822-3.036c4.205-15.527 13.766-8.135 13.766-8.135s6.315-14.389 16.218-12.243Z"/><path d="M251.252 354.175c-10.649-4.98-32.205-.294-32.205-.294-5.938 5.145-16.347 16.976-16.347 16.976-.055-1.632-.35-6.273-1.853-8.373.258 5.595-1.024 5.329-1.024 5.329s-1.281.266-1.023-5.329c-1.494 2.1-1.789 6.741-1.853 8.373-3.19-1.678-8.879-6.493-16.347-11.831 0 0-21.556 5.604-32.205 10.584 12.327-.22 13.304 8.144 13.304 8.144s15.25-9.639 16.55 9.869c10.28-13.381 21.574 5.777 21.574 5.777s10.253-21.222 20.542-7.841c1.3-19.516 14.476-12.959 14.476-12.959s4.084-18.645 16.411-18.425Z"/><path d="M187.589 351.49c-11.949-5.585-36.142-.321-36.142-.321-6.657 5.778-18.348 19.058-18.348 19.058-.064-1.834-.396-7.043-2.074-9.4.295 6.273-1.144 5.979-1.144 5.979s-1.438.294-1.143-5.979c-1.678 2.357-2.01 7.566-2.074 9.4-3.578-1.889-9.967-7.282-18.348-13.28 0 0-24.193 6.292-36.142 11.877 13.83-.248 14.927 9.144 14.927 9.144s17.112-10.822 18.569 11.079c11.543-15.023 24.211 6.484 24.211 6.484s11.507-23.818 23.05-8.796c1.457-21.901 16.246-14.545 16.246-14.545s4.573-20.938 18.412-20.7ZM410.168 389.003c-5.283-7.988-16.494-15.27-16.494-15.27-7.496.551-13.526 1.477-16.467 1.293.664-1.164 2.452-4.521 2.305-6.621-2.213 4.008-2.997 3.274-2.997 3.274s-1.005-.358 1.577-4.146c-1.945.826-4.14 3.935-4.887 5.045-1.493-2.522-3.402-8.291-6.306-15.188 0 0-11.608-6.64-21.16-7.695 8.676 5.081-1.042 11.116-1.042 11.116s11.498.229 4.02 14.38c12.908-4.952 16.817 14.308 16.817 14.308s19.03-5.283 20.45 8.41c9.285-13.042 14.706-2.963 14.706-2.963s.987-11.326 9.478-5.943ZM316.621 211.354c-3.31-1.55-10.003-.092-10.003-.092-1.844 1.596-5.08 5.274-5.08 5.274-.019-.505-.111-1.954-.572-2.605.083 1.734-.313 1.651-.313 1.651s-.397.083-.314-1.651c-.461.651-.553 2.091-.572 2.605-.986-.523-2.756-2.018-5.08-3.678 0 0-6.693 1.743-10.003 3.283 3.826-.064 4.13 2.532 4.13 2.532s4.739-2.999 5.136 3.063c3.19-4.155 6.703 1.798 6.703 1.798s3.18-6.595 6.38-2.431c.405-6.062 4.499-4.026 4.499-4.026s1.263-5.787 5.089-5.723ZM323.453 115.276c-2.784-1.284-8.408-.037-8.408-.037-1.54 1.348-4.251 4.448-4.251 4.448-.018-.431-.101-1.642-.498-2.183.074 1.458-.258 1.394-.258 1.394s-.332.074-.277-1.385c-.387.551-.46 1.761-.47 2.192-.829-.431-2.323-1.678-4.278-3.072 0 0-5.624 1.486-8.39 2.806 3.218-.073 3.485 2.11 3.485 2.11s3.965-2.531 4.334 2.559c2.664-3.504 5.642 1.485 5.642 1.485s2.646-5.548 5.348-2.072c.313-5.1 3.762-3.403 3.762-3.403s1.041-4.879 4.259-4.842Z"/><path d="M460.324 350.706c-10.649-4.98-32.205-.293-32.205-.293-5.937 5.145-16.347 16.976-16.347 16.976-.055-1.633-.35-6.273-1.853-8.374.258 5.586-1.023 5.329-1.023 5.329s-1.282.266-1.024-5.329c-1.493 2.101-1.788 6.741-1.853 8.374-3.19-1.679-8.879-6.494-16.347-11.831 0 0-21.556 5.603-32.205 10.583 12.327-.22 13.304 8.144 13.304 8.144s15.25-9.639 16.55 9.869c10.28-13.381 21.575 5.778 21.575 5.778s10.252-21.223 20.542-7.842c1.3-19.516 14.475-12.959 14.475-12.959s4.084-18.636 16.411-18.425ZM383.088 303.129c-8.325-.147-19.039 4.283-19.039 4.283-3.264 5.603-5.541 10.345-7.109 12.353-.516-1.036-2.056-3.953-3.632-4.87 1.798 3.531.894 3.733.894 3.733s-.756.541-2.213-3.146c-.359 1.789.802 4.87 1.245 5.943-2.545-.165-7.625-1.632-14.005-2.925 0 0-10.446 5.025-15.868 11.308 7.893-3.696 7.487 6.172 7.487 6.172s5.781-8.071 12.309 4.164c2.738-11.611 18.504-4.98 18.504-4.98s5.495-16.123 16.034-10.446c-4.85-12.978 5.052-11.914 5.052-11.914s-7.68-6.264.341-9.675Z"/><path d="M434.508 314.12c-10.649-4.98-32.205-.293-32.205-.293-5.938 5.145-16.347 16.976-16.347 16.976-.055-1.633-.351-6.273-1.853-8.374.258 5.595-1.024 5.329-1.024 5.329s-1.281.266-1.023-5.329c-1.494 2.101-1.789 6.741-1.853 8.374-3.191-1.679-8.879-6.494-16.347-11.831 0 0-21.557 5.603-32.206 10.583 12.327-.22 13.305 8.145 13.305 8.145s15.25-9.639 16.55 9.868c10.28-13.381 21.574 5.778 21.574 5.778s10.253-21.223 20.542-7.842c1.3-19.516 14.476-12.959 14.476-12.959s4.093-18.645 16.411-18.425Z"/></g><defs><clipPath id="a"><path fill="#fff" d="M.5 0h375v359H.5z"/></clipPath></defs></svg>