<svg width="1440" height="636" fill="none" xmlns="http://www.w3.org/2000/svg"><g opacity=".8" clip-path="url(#a)" fill="#131212"><path d="M442.304 596.875v-.195a.6.6 0 0 0 0 .195ZM479.703 515.703c-36.019 18.912-36.051 51.993-36.051 51.993s-.049-9.505-3.283-14.054c.455 9.911-1.805 14.005-1.805 14.005s-2.259-4.094-1.804-14.005c-3.234 4.549-3.283 14.054-3.283 14.054s-.033-33.064-36.051-51.993c25.145 21.577 5.591 29.538 5.591 29.538s15.653 7.962 9.899 23.43c21.146 10.577 21.894 26.061 21.91 27.994.033-.861.358-4.37 3.738-6.791a8.88 8.88 0 0 1 3.739 6.791c.016-1.933.764-17.417 21.91-27.994-5.754-15.468 9.899-23.43 9.899-23.43s-19.554-7.961 5.591-29.538ZM207.238 544.039c-36.019 18.912-36.051 51.993-36.051 51.993s-.049-9.505-3.283-14.055c.455 9.895-1.804 14.006-1.804 14.006s-2.26-4.094-1.805-14.006c-3.234 4.55-3.283 14.055-3.283 14.055s-.032-33.064-36.051-51.993c25.145 21.577 5.591 29.538 5.591 29.538s15.653 7.962 9.899 23.43c21.146 10.577 21.894 26.061 21.91 27.994.033-.861.358-4.37 3.739-6.791a8.882 8.882 0 0 1 3.738 6.791c.016-1.933.764-17.417 21.91-27.994-5.754-15.468 9.899-23.43 9.899-23.43s-19.554-7.961 5.591-29.538Z"/><path d="M171.855 554.373s.017-.048.049-.162a2.983 2.983 0 0 0-.049.162ZM220.632 500.399c-32.572 5.946-40.634 31.618-40.634 31.618s2.275-7.393.861-11.715c-2.048 7.799-4.795 10.431-4.795 10.431s-.764-3.737 1.999-11.308c-3.624 2.746-5.965 10.122-5.965 10.122s8.013-25.687-15.36-49.133c14.287 22.861-2.828 24.307-2.828 24.307s10.224 9.992 1.999 20.602c13.849 13.355 10.679 25.557 10.208 27.068.227-.666 1.333-3.314 4.551-4.37 2.032 2.697 1.447 5.492 1.251 6.174.472-1.495 4.828-13.339 23.829-16.426-.715-13.405 13.393-15.793 13.393-15.793s-13.28-10.919 11.491-21.577ZM166.051 552.553s.016-.049.049-.162c-.033.113-.049.162-.049.162ZM677.058 511.297v-.195a.6.6 0 0 0 0 .195ZM714.457 430.141c-36.019 18.912-36.051 51.992-36.051 51.992s-.049-9.505-3.284-14.054c.456 9.895-1.804 14.006-1.804 14.006s-2.259-4.095-1.804-14.006c-3.234 4.549-3.283 14.054-3.283 14.054s-.033-33.064-36.051-51.992c25.144 21.577 5.591 29.538 5.591 29.538s15.653 7.961 9.899 23.429c21.146 10.577 21.894 26.062 21.91 27.995.032-.861.358-4.371 3.738-6.792a8.882 8.882 0 0 1 3.739 6.792c.016-1.933.764-17.418 21.91-27.995-5.754-15.468 9.899-23.429 9.899-23.429s-19.554-7.978 5.591-29.538Z"/><path d="M285.078 520.938c-36.019 18.912-36.051 51.992-36.051 51.992s-.049-9.505-3.283-14.054c.455 9.895-1.805 14.005-1.805 14.005s-2.259-4.094-1.804-14.005c-3.234 4.549-3.283 14.054-3.283 14.054s-.033-33.064-36.051-51.992c25.145 21.576 5.591 29.538 5.591 29.538s15.653 7.961 9.899 23.429c21.146 10.577 21.894 26.061 21.91 27.995.032-.861.358-4.371 3.738-6.792a8.88 8.88 0 0 1 3.739 6.792c.016-1.934.764-17.418 21.91-27.995-5.754-15.468 9.899-23.429 9.899-23.429s-19.554-7.962 5.591-29.538ZM528.742 502.999s.016-.065.049-.179a5.112 5.112 0 0 0-.049.179ZM585.208 440.543c-37.709 6.873-47.039 36.606-47.039 36.606s2.617-8.546.992-13.567c-2.373 9.034-5.559 12.072-5.559 12.072s-.878-4.322 2.324-13.095c-4.193 3.184-6.908 11.714-6.908 11.714s9.281-29.733-17.782-56.867c16.531 26.468-3.283 28.125-3.283 28.125s11.833 11.568 2.308 23.852c16.027 15.468 12.353 29.587 11.817 31.325.276-.78 1.544-3.834 5.266-5.053 2.357 3.12 1.658 6.369 1.447 7.149.552-1.738 5.591-15.435 27.566-19.01-.812-15.516 15.49-18.278 15.49-18.278s-15.311-12.657 13.361-24.973ZM522.027 500.905s.017-.065.065-.178a1.448 1.448 0 0 0-.065.178ZM774.387 498.008C738.368 516.92 738.335 550 738.335 550s-.048-9.504-3.283-14.054c.455 9.895-1.804 14.006-1.804 14.006s-2.259-4.095-1.804-14.006c-3.235 4.55-3.284 14.054-3.284 14.054s-.032-33.064-36.051-51.992c25.145 21.577 5.592 29.538 5.592 29.538s15.652 7.961 9.898 23.429c21.147 10.578 21.894 26.062 21.911 27.995.032-.861.357-4.37 3.738-6.791a8.875 8.875 0 0 1 3.738 6.791c.017-1.933.764-17.417 21.911-27.995-5.754-15.468 9.898-23.429 9.898-23.429s-19.553-7.977 5.592-29.538ZM589.762 582.186s.016-.049.048-.163a2.534 2.534 0 0 0-.048.163ZM638.554 528.227c-32.573 5.947-40.634 31.618-40.634 31.618s2.259-7.393.861-11.715c-2.048 7.799-4.795 10.431-4.795 10.431s-.764-3.737 1.999-11.308c-3.624 2.746-5.965 10.122-5.965 10.122s8.013-25.687-15.36-49.133c14.287 22.861-2.828 24.307-2.828 24.307s10.224 9.992 1.999 20.602c13.849 13.356 10.679 25.557 10.208 27.069.227-.667 1.333-3.315 4.551-4.371 2.032 2.697 1.446 5.492 1.251 6.174.472-1.495 4.828-13.339 23.829-16.426-.716-13.405 13.393-15.793 13.393-15.793s-13.28-10.935 11.491-21.577ZM583.973 580.366s.016-.049.048-.163c-.032.114-.048.163-.048.163ZM634.179 299.187v-.179a.475.475 0 0 0 0 .179Z"/><path d="M665.696 228.07c-31.11 16.93-30.72 45.705-30.72 45.705s-.162-8.27-3.039-12.186c.52 8.612-1.382 12.202-1.382 12.202s-2.015-3.542-1.739-12.153c-2.763 4.013-2.682 12.267-2.682 12.267s-.439-28.791-32.036-44.795c22.154 18.458 5.25 25.639 5.25 25.639s13.734 6.727 8.923 20.277c18.546 8.936 19.391 22.406 19.423 24.096a7.68 7.68 0 0 1 3.154-5.947 7.687 7.687 0 0 1 3.332 5.865c-.017-1.689.439-15.159 18.708-24.647-5.201-13.389 8.322-20.521 8.322-20.521s-17.132-6.711 4.486-25.802Z"/><path d="M627.679 299.28v-.178a.515.515 0 0 0 0 .178ZM267.557 608.656c-29.436 15.452-29.452 42.472-29.452 42.472s-.049-7.767-2.682-11.487c.374 8.091-1.463 11.438-1.463 11.438s-1.853-3.347-1.463-11.438c-2.649 3.72-2.682 11.487-2.682 11.487s-.016-27.02-29.452-42.472c20.545 17.629 4.568 24.128 4.568 24.128s12.791 6.515 8.094 19.14c17.278 8.644 17.896 21.301 17.896 22.877.016-.715.292-3.575 3.055-5.541 2.763 1.966 3.024 4.842 3.056 5.541 0-1.576.618-14.233 17.896-22.877-4.698-12.641 8.094-19.14 8.094-19.14s-16.01-6.499 4.535-24.128ZM253.272 438.805c-33.499 17.58-33.515 48.337-33.515 48.337s-.049-8.823-3.056-13.064c.422 9.213-1.674 13.015-1.674 13.015s-2.097-3.802-1.675-13.015c-3.006 4.241-3.055 13.064-3.055 13.064s-.016-30.741-33.516-48.337c23.373 20.066 5.202 27.458 5.202 27.458s14.547 7.409 9.215 21.788c19.651 9.847 20.35 24.226 20.367 26.029.032-.812.325-4.062 3.462-6.304 3.137 2.242 3.445 5.508 3.462 6.304.016-1.803.715-16.182 20.366-26.029-5.348-14.379 9.216-21.788 9.216-21.788s-18.172-7.392 5.201-27.458ZM405.506 437.227c-33.499 17.58-33.515 48.337-33.515 48.337s-.049-8.823-3.056-13.064c.423 9.213-1.674 13.015-1.674 13.015s-2.097-3.802-1.674-13.015c-3.007 4.241-3.056 13.064-3.056 13.064s-.016-30.741-33.515-48.337c23.373 20.065 5.201 27.458 5.201 27.458s14.547 7.409 9.216 21.788c19.651 9.846 20.35 24.226 20.366 26.029.032-.812.325-4.062 3.462-6.304 3.137 2.242 3.446 5.508 3.462 6.304.016-1.803.715-16.183 20.366-26.029-5.347-14.379 9.216-21.788 9.216-21.788s-18.172-7.409 5.201-27.458ZM322.187 374.835s-.033-.065-.082-.179c.049.114.082.179.082.179Z"/><path d="M324.543 290.672c-24.202 29.717-11.996 58.378-11.996 58.378s-3.559-8.205-8.045-10.951c4.063 8.416 3.624 12.787 3.624 12.787s-3.478-2.713-6.745-11.455c-1.121 5.151 2.357 13.388 2.357 13.388s-12.256-28.644-50.468-31.699c29.76 9.391 15.782 23.527 15.782 23.527s16.514 1.105 17.262 16.637c22.235 1.349 28.623 14.477 29.338 16.151-.293-.764-1.317-3.916.715-7.263 3.82.845 5.396 3.753 5.738 4.501-.699-1.674-5.787-15.371 8.614-32.35-10.711-11.276-.097-23.965-.097-23.965s-19.879.309-6.079-27.686Z"/><path d="M315.718 377.601s-.016-.065-.081-.179c.048.114.081.179.081.179ZM471.284 270.855s-.032-.032-.081-.097a.459.459 0 0 1 .081.097Z"/><path d="M459.63 217.625c-10.565 22.438 1.577 38.54 1.577 38.54s-3.511-4.599-6.762-5.622c3.869 4.647 4.275 7.474 4.275 7.474s-2.6-1.154-6.03-6.142c.097 3.412 3.576 8.043 3.576 8.043s-12.174-16.085-36.653-12.04c20.171 1.251 13.589 12.316 13.589 12.316s10.548-1.885 13.442 7.766c14.173-2.615 20.236 4.631 20.951 5.573a5.426 5.426 0 0 1-.683-4.679c2.536-.065 3.982 1.511 4.307 1.934-.699-.943-6.03-8.758.358-21.675-8.485-5.41-3.803-15.045-3.803-15.045s-12.435 3.282-8.144-16.443Z"/><path d="M467.659 273.597s-.032-.032-.081-.097c.049.065.081.097.081.097ZM286.297 115.198s.001-.033-.016-.065c.017.049.016.065.016.065Z"/><path d="M289.598 83.484c-9.996 10.529-6.193 21.707-6.193 21.707s-1.105-3.2-2.73-4.37c1.3 3.298 1.008 4.939 1.008 4.939s-1.236-1.121-2.211-4.517c-.569 1.917.504 5.118.504 5.118s-3.82-11.178-18.156-13.42c10.972 4.403 5.283 9.342 5.283 9.342s6.209.894 6.046 6.775c8.355 1.154 10.403 6.288 10.614 6.938a3.08 3.08 0 0 1 .488-2.713c1.414.422 1.934 1.576 2.048 1.868-.212-.65-1.739-5.963 4.177-11.974-3.722-4.566.65-9.05.65-9.05s-7.542-.472-1.528-10.643Z"/><path d="M283.778 116.057s0-.016-.016-.065c0 .033.016.065.016.065ZM1257.03 159.731s-.02-.049-.05-.114c.03.081.05.114.05.114Z"/><path d="M1262.81 104.242c-17.48 18.425-10.84 37.971-10.84 37.971s-1.93-5.605-4.76-7.636c2.26 5.768 1.76 8.627 1.76 8.627s-2.17-1.966-3.89-7.912c-.99 3.347.88 8.968.88 8.968s-6.66-19.546-31.76-23.478c19.2 7.702 9.25 16.329 9.25 16.329s10.86 1.56 10.56 11.861c14.63 1.999 18.19 11 18.58 12.137a5.5 5.5 0 0 1 .85-4.76 5.501 5.501 0 0 1 3.57 3.265c-.39-1.137-3.05-10.447 7.32-20.943-6.52-7.978 1.13-15.841 1.13-15.841s-13.16-.78-2.65-18.588ZM1252.62 161.239s-.01-.049-.03-.114c.02.065.03.114.03.114ZM217.953 242.238s.016-.032.033-.097c-.017.065-.033.097-.033.097ZM248.738 211.24c-19.716 2.648-25.275 17.823-25.275 17.823s1.576-4.37.845-7.002c-1.447 4.63-3.17 6.125-3.17 6.125s-.357-2.258 1.528-6.727c-2.243 1.544-3.868 5.898-3.868 5.898s5.542-15.191-7.834-29.912c7.915 14.12-2.39 14.493-2.39 14.493s5.852 6.288.618 12.414c7.932 8.4 5.672 15.63 5.364 16.523.162-.389.894-1.949 2.844-2.485 1.154 1.673.715 3.33.569 3.737.325-.894 3.267-7.864 14.758-9.18-.048-8.059 8.485-9.099 8.485-9.099s-7.623-6.922 7.526-12.608ZM214.523 240.988s.017-.032.033-.097l-.033.097ZM719.82 260.502s.016-.032.032-.08c-.032.048-.032.08-.032.08ZM745.746 234.391c-16.596 2.225-21.277 15.012-21.277 15.012s1.317-3.672.715-5.897c-1.219 3.899-2.665 5.15-2.665 5.15s-.293-1.901 1.284-5.67c-1.902 1.299-3.251 4.971-3.251 4.971s4.665-12.787-6.599-25.184c6.664 11.894-2.015 12.202-2.015 12.202s4.924 5.297.52 10.464c6.68 7.084 4.778 13.161 4.518 13.924a3.63 3.63 0 0 1 2.406-2.096 3.665 3.665 0 0 1 .487 3.152c.277-.747 2.764-6.629 12.418-7.734-.032-6.791 7.136-7.668 7.136-7.668s-6.453-5.833 6.323-10.626ZM716.926 259.448s.016-.033.032-.081c-.016.048-.032.081-.032.081ZM1294.15 230.346s.02-.032.03-.08c-.03.048-.03.08-.03.08Z"/><path d="M1320.08 204.25c-16.6 2.226-21.28 15.013-21.28 15.013s1.32-3.672.72-5.898c-1.22 3.899-2.67 5.15-2.67 5.15s-.29-1.901 1.28-5.67c-1.9 1.3-3.25 4.972-3.25 4.972s4.67-12.787-6.6-25.184c6.67 11.893-2.01 12.202-2.01 12.202s4.92 5.297.52 10.463c6.68 7.084 4.78 13.161 4.52 13.925.13-.325.75-1.641 2.4-2.096.96 1.413.61 2.811.49 3.152.28-.748 2.76-6.629 12.42-7.734-.03-6.792 7.13-7.669 7.13-7.669s-6.45-5.833 6.33-10.626ZM1291.26 229.284s.01-.033.03-.081c-.02.048-.03.081-.03.081ZM641.626 170.875c-17.327 9.765-16.856 25.915-16.856 25.915s-.162-4.647-1.804-6.824c.374 4.826-.683 6.873-.683 6.873s-1.17-1.966-1.089-6.808c-1.511 2.275-1.397 6.905-1.397 6.905s-.488-16.15-18.367-24.875c12.596 10.171 3.153 14.347 3.153 14.347s7.769 3.672 5.185 11.308c10.484 4.858 11.069 12.413 11.101 13.356a4.32 4.32 0 0 1 1.723-3.363c1.691 1.137 1.902 2.843 1.918 3.265-.016-.942.114-8.513 10.305-13.989-3.039-7.474 4.502-11.585 4.502-11.585s-9.671-3.623 2.309-14.525ZM480.794 440.312s0-.065-.017-.195c0 .114.017.195.017.195Z"/><path d="M512.245 362.211c-33.028 19.465-31.532 50.579-31.532 50.579s-.488-8.936-3.739-13.063c.894 9.294-1.04 13.258-1.04 13.258s-2.308-3.753-2.34-13.096c-2.829 4.436-2.455 13.372-2.455 13.372s-1.544-31.114-36.311-47.248c24.657 19.14 6.632 27.54 6.632 27.54s15.1 6.775 10.402 21.593c20.383 8.985 21.797 23.51 21.91 25.33-.016-.812.13-4.127 3.202-6.564a8.335 8.335 0 0 1 3.82 6.207c-.081-1.82-.081-16.41 19.326-27.345-6.128-14.282 8.241-22.503 8.241-22.503s-18.774-6.597 3.884-28.06Z"/><path d="M473.773 440.656v-.195a.644.644 0 0 0 0 .195ZM204.07 619.49s.017-.049.065-.146a.647.647 0 0 1-.065.146Z"/><path d="M253.563 573.785c-30.541 2.763-40.114 25.786-40.114 25.786s2.714-6.63 1.771-10.74c-2.535 7.035-5.298 9.228-5.298 9.228s-.39-3.509 2.795-10.268c-3.575 2.242-6.355 8.839-6.355 8.839s9.541-23.023-10.077-46.599c11.264 22.276-4.633 22.178-4.633 22.178s8.599 10.058.13 19.173c11.654 13.469 7.721 24.469 7.168 25.817.277-.601 1.512-2.941 4.551-3.639 1.658 2.648.862 5.183.634 5.8.569-1.348 5.559-11.893 23.341-13.16.471-12.43 13.669-13.454 13.669-13.454s-11.312-11.194 12.418-18.961ZM198.887 617.349s.016-.048.065-.146c-.049.098-.065.146-.065.146ZM285.305 606.037s.016-.049.065-.146c-.049.097-.065.146-.065.146ZM334.782 560.317c-30.541 2.762-40.114 25.785-40.114 25.785s2.714-6.629 1.771-10.74c-2.535 7.035-5.299 9.229-5.299 9.229s-.39-3.51 2.796-10.269c-3.576 2.242-6.355 8.839-6.355 8.839s9.541-23.023-10.078-46.599c11.264 22.276-4.632 22.179-4.632 22.179s8.598 10.057.13 19.172c11.654 13.469 7.721 24.469 7.168 25.818.276-.602 1.512-2.941 4.551-3.64 1.658 2.648.862 5.183.634 5.801.569-1.349 5.559-11.894 23.341-13.161.471-12.43 13.669-13.453 13.669-13.453s-11.313-11.195 12.418-18.961ZM280.105 603.881s.017-.049.065-.147c-.048.098-.065.147-.065.147ZM624.754 572.523c-36.019 18.913-36.051 51.993-36.051 51.993s-.049-9.505-3.284-14.054c.455 9.911-1.804 14.005-1.804 14.005s-2.259-4.094-1.804-14.005c-3.235 4.549-3.283 14.054-3.283 14.054s-.033-33.064-36.051-51.993c25.144 21.577 5.591 29.539 5.591 29.539s15.652 7.961 9.899 23.429c21.146 10.577 21.893 26.061 21.91 27.995.032-.861.357-4.371 3.738-6.792a8.88 8.88 0 0 1 3.739 6.792c.016-1.934.763-17.418 21.91-27.995-5.754-15.468 9.898-23.429 9.898-23.429s-19.553-7.962 5.592-29.539ZM398.271 613.414c-42.91 22.519-42.926 61.92-42.926 61.92s-.065-11.308-3.917-16.735c.552 11.796-2.146 16.67-2.146 16.67s-2.698-4.874-2.145-16.67c-3.852 5.427-3.918 16.735-3.918 16.735s-.032-39.384-42.926-61.92c29.94 25.688 6.664 35.176 6.664 35.176s18.643 9.489 11.8 27.914c25.178 12.608 26.072 31.033 26.088 33.34.032-1.04.422-5.199 4.437-8.075 4.031 2.876 4.405 7.052 4.437 8.075.017-2.307.911-20.732 26.088-33.34-6.843-18.425 11.8-27.914 11.8-27.914s-23.275-9.472 6.664-35.176ZM1258.43 599.852c-42.91 22.519-42.93 61.92-42.93 61.92s-.06-11.309-3.92-16.736c.56 11.796-2.14 16.671-2.14 16.671s-2.7-4.875-2.15-16.671c-3.85 5.427-3.91 16.736-3.91 16.736s-.04-39.385-42.93-61.92c29.94 25.687 6.66 35.176 6.66 35.176s18.65 9.488 11.8 27.913c25.18 12.609 26.07 31.034 26.09 33.341.03-1.04.42-5.2 4.44-8.075 4.03 2.875 4.4 7.051 4.44 8.075.01-2.307.91-20.732 26.08-33.341-6.84-18.425 11.8-27.913 11.8-27.913s-23.27-9.489 6.67-35.176ZM709.68 547.648c-36.019 18.913-36.052 51.993-36.052 51.993s-.048-9.505-3.283-14.054c.455 9.911-1.804 14.005-1.804 14.005s-2.259-4.094-1.804-14.005c-3.235 4.549-3.284 14.054-3.284 14.054s-.032-33.064-36.051-51.993c25.145 21.577 5.592 29.539 5.592 29.539s15.652 7.961 9.898 23.429c21.147 10.577 21.894 26.061 21.911 27.995.032-.861.357-4.371 3.738-6.792a8.875 8.875 0 0 1 3.738 6.792c.017-1.934.764-17.418 21.911-27.995-5.754-15.468 9.898-23.429 9.898-23.429s-19.553-7.962 5.592-29.539Z"/><path d="M671.075 597.692c-30.541 2.762-40.115 25.785-40.115 25.785s2.715-6.629 1.772-10.74c-2.535 7.035-5.299 9.229-5.299 9.229s-.39-3.51 2.796-10.269c-3.576 2.242-6.355 8.839-6.355 8.839s9.541-23.023-10.078-46.598c11.264 22.275-4.632 22.178-4.632 22.178s8.598 10.057.13 19.172c11.654 13.469 7.721 24.469 7.168 25.818.276-.602 1.512-2.941 4.551-3.64 1.658 2.648.862 5.183.634 5.801.569-1.349 5.559-11.894 23.341-13.161.471-12.43 13.669-13.453 13.669-13.453s-11.313-11.211 12.418-18.961ZM709.906 628.154s.016-.048.065-.146c-.049.098-.065.146-.065.146Z"/><path d="M759.399 582.45c-30.541 2.762-40.114 25.785-40.114 25.785s2.714-6.629 1.771-10.74c-2.535 7.035-5.298 9.229-5.298 9.229s-.39-3.51 2.795-10.269c-3.576 2.242-6.355 8.839-6.355 8.839s9.541-23.023-10.077-46.599c11.264 22.276-4.633 22.178-4.633 22.178s8.599 10.058.13 19.173c11.654 13.469 7.721 24.469 7.168 25.817.277-.601 1.512-2.94 4.551-3.639 1.658 2.648.862 5.183.634 5.8.569-1.348 5.559-11.893 23.341-13.16.471-12.43 13.669-13.453 13.669-13.453s-11.329-11.195 12.418-18.961ZM704.703 625.99s.016-.049.065-.146c-.049.097-.065.146-.065.146ZM440.418 578.891c-36.019 18.912-36.051 51.992-36.051 51.992s-.049-9.505-3.284-14.054c.455 9.911-1.804 14.006-1.804 14.006s-2.259-4.095-1.804-14.006c-3.234 4.549-3.283 14.054-3.283 14.054s-.033-33.064-36.051-51.992c25.144 21.577 5.591 29.538 5.591 29.538s15.652 7.961 9.899 23.429c21.146 10.577 21.894 26.061 21.91 27.995.032-.861.357-4.371 3.738-6.792a8.882 8.882 0 0 1 3.739 6.792c.016-1.934.764-17.418 21.91-27.995-5.754-15.468 9.898-23.429 9.898-23.429s-19.553-7.961 5.592-29.538Z"/><path d="M401.813 625.864c-30.541 2.762-40.114 25.785-40.114 25.785s2.714-6.629 1.771-10.74c-2.535 7.035-5.298 9.229-5.298 9.229s-.39-3.51 2.795-10.269c-3.575 2.242-6.355 8.839-6.355 8.839s9.541-23.023-10.077-46.599c11.264 22.276-4.633 22.179-4.633 22.179s8.599 10.057.13 19.172c11.654 13.469 7.721 24.469 7.168 25.817.277-.601 1.512-2.94 4.551-3.639 1.658 2.648.862 5.183.634 5.8.569-1.348 5.559-11.893 23.341-13.16.471-12.43 13.669-13.453 13.669-13.453s-11.329-11.195 12.418-18.961ZM490.122 618.293c-30.541 2.762-40.115 25.785-40.115 25.785s2.715-6.629 1.772-10.724c-2.536 7.035-5.299 9.229-5.299 9.229s-.39-3.51 2.796-10.269c-3.576 2.243-6.355 8.839-6.355 8.839s9.541-23.023-10.078-46.598c11.264 22.275-4.632 22.178-4.632 22.178s8.598 10.057.13 19.172c11.654 13.469 7.721 24.469 7.168 25.818.276-.601 1.512-2.941 4.551-3.64 1.658 2.649.861 5.183.634 5.801.569-1.349 5.559-11.894 23.341-13.161.471-12.429 13.669-13.453 13.669-13.453s-11.313-11.211 12.418-18.977Z"/><path d="M388.031 559.75c-36.019 18.912-36.051 51.993-36.051 51.993s-.049-9.505-3.283-14.055c.455 9.895-1.805 14.006-1.805 14.006s-2.259-4.095-1.804-14.006c-3.234 4.55-3.283 14.055-3.283 14.055s-.032-33.064-36.051-51.993c25.145 21.577 5.591 29.538 5.591 29.538s15.653 7.962 9.899 23.43c21.146 10.577 21.894 26.061 21.91 27.994.033-.861.358-4.37 3.738-6.791a8.88 8.88 0 0 1 3.739 6.791c.016-1.933.764-17.417 21.91-27.994-5.754-15.468 9.899-23.43 9.899-23.43s-19.537-7.961 5.591-29.538ZM464.57 618.974s.017-.048.065-.146c-.048.098-.065.146-.065.146Z"/><path d="M514.048 573.269c-30.541 2.762-40.115 25.785-40.115 25.785s2.715-6.629 1.772-10.723c-2.536 7.035-5.299 9.228-5.299 9.228s-.39-3.509 2.796-10.268c-3.576 2.242-6.355 8.839-6.355 8.839s9.541-23.023-10.078-46.599c11.264 22.276-4.632 22.178-4.632 22.178s8.598 10.058.13 19.173c11.654 13.469 7.72 24.469 7.168 25.817.276-.601 1.511-2.941 4.551-3.639 1.658 2.648.861 5.183.634 5.8.569-1.348 5.559-11.893 23.34-13.16.472-12.43 13.67-13.454 13.67-13.454s-11.313-11.21 12.418-18.977Z"/><path d="M459.371 616.81s.016-.048.065-.146c-.049.098-.065.146-.065.146ZM1127.58 515.703c-36.02 18.912-36.05 51.993-36.05 51.993s-.05-9.505-3.28-14.054c.45 9.911-1.81 14.005-1.81 14.005s-2.26-4.094-1.8-14.005c-3.24 4.549-3.28 14.054-3.28 14.054s-.04-33.064-36.06-51.993c25.15 21.577 5.6 29.538 5.6 29.538s15.65 7.962 9.89 23.43c21.15 10.577 21.9 26.061 21.91 27.994.04-.861.36-4.37 3.74-6.791a8.876 8.876 0 0 1 3.74 6.791c.02-1.933.77-17.417 21.91-27.994-5.75-15.468 9.9-23.43 9.9-23.43s-19.55-7.961 5.59-29.538ZM1082.72 596.875v-.195c-.01.13 0 .195 0 .195ZM857.769 539.977c-39.627 20.813-39.66 57.192-39.66 57.192s-.065-10.448-3.625-15.468c.504 10.902-1.983 15.403-1.983 15.403s-2.486-4.501-1.983-15.403c-3.559 5.004-3.624 15.468-3.624 15.468s-.033-36.379-39.66-57.192c27.664 23.737 6.161 32.495 6.161 32.495s17.229 8.757 10.89 25.785c23.259 11.65 24.088 28.677 24.104 30.806.033-.959.39-4.81 4.112-7.458 3.723 2.648 4.08 6.515 4.113 7.458.016-2.129.845-19.156 24.104-30.806-6.323-17.011 10.89-25.785 10.89-25.785s-21.504-8.774 6.161-32.495Z"/><path d="M808.406 629.274v-.227a.78.78 0 0 0 0 .227ZM781.801 551.256s.016-.049.049-.162c-.033.097-.049.162-.049.162ZM830.578 497.282c-32.573 5.946-40.635 31.618-40.635 31.618s2.276-7.393.861-11.715c-2.048 7.799-4.794 10.431-4.794 10.431s-.764-3.737 1.999-11.308c-3.625 2.745-5.965 10.122-5.965 10.122s8.013-25.688-15.36-49.133c14.287 22.86-2.829 24.306-2.829 24.306s10.224 9.993 2 20.603c13.848 13.355 10.679 25.557 10.207 27.068.228-.666 1.333-3.314 4.551-4.37 2.032 2.697 1.447 5.491 1.252 6.174.471-1.495 4.827-13.34 23.828-16.427-.715-13.404 13.393-15.793 13.393-15.793s-13.279-10.918 11.492-21.576ZM775.996 549.436s.016-.049.049-.163c-.033.098-.049.163-.049.163ZM1362.34 430.141c-36.02 18.912-36.05 51.992-36.05 51.992s-.05-9.505-3.28-14.054c.45 9.895-1.81 14.006-1.81 14.006s-2.26-4.095-1.8-14.006c-3.24 4.549-3.29 14.054-3.29 14.054s-.03-33.064-36.05-51.992c25.15 21.577 5.59 29.538 5.59 29.538s15.66 7.961 9.9 23.429c21.15 10.577 21.9 26.062 21.91 27.995.04-.861.36-4.371 3.74-6.792a8.878 8.878 0 0 1 3.74 6.792c.02-1.933.76-17.418 21.91-27.995-5.75-15.468 9.9-23.429 9.9-23.429s-19.56-7.978 5.59-29.538Z"/><path d="M1317.48 511.297v-.195c-.02.13 0 .195 0 .195ZM932.961 520.938c-36.019 18.912-36.051 51.992-36.051 51.992s-.049-9.505-3.284-14.054c.456 9.895-1.804 14.005-1.804 14.005s-2.259-4.094-1.804-14.005c-3.235 4.549-3.283 14.054-3.283 14.054s-.033-33.064-36.051-51.992c25.144 21.576 5.591 29.538 5.591 29.538s15.652 7.961 9.899 23.429c21.146 10.577 21.894 26.061 21.91 27.995.032-.861.357-4.371 3.738-6.792a8.88 8.88 0 0 1 3.739 6.792c.016-1.934.764-17.418 21.91-27.995-5.754-15.468 9.898-23.429 9.898-23.429s-19.553-7.962 5.592-29.538ZM1176.62 502.999s.02-.065.05-.179c-.03.114-.05.179-.05.179ZM1233.09 440.543c-37.71 6.873-47.04 36.606-47.04 36.606s2.61-8.546.99-13.567c-2.37 9.034-5.56 12.072-5.56 12.072s-.88-4.322 2.32-13.095c-4.19 3.184-6.9 11.714-6.9 11.714s9.28-29.733-17.78-56.867c16.53 26.468-3.29 28.125-3.29 28.125s11.83 11.568 2.31 23.852c16.03 15.468 12.35 29.587 11.82 31.325a8.303 8.303 0 0 1 5.26-5.053c2.36 3.12 1.66 6.369 1.45 7.149.55-1.738 5.59-15.435 27.57-19.01-.82-15.516 15.49-18.278 15.49-18.278s-15.32-12.657 13.36-24.973ZM1169.91 500.905s.01-.065.06-.178a.794.794 0 0 0-.06.178ZM1237.66 582.186s.01-.049.05-.163a.803.803 0 0 0-.05.163ZM1286.43 528.227c-32.57 5.947-40.63 31.618-40.63 31.618s2.27-7.393.86-11.715c-2.05 7.799-4.8 10.431-4.8 10.431s-.76-3.737 2-11.308c-3.62 2.746-5.96 10.122-5.96 10.122s8.01-25.687-15.36-49.133c14.29 22.861-2.83 24.307-2.83 24.307s10.22 9.992 2 20.602c13.85 13.356 10.68 25.557 10.21 27.069a7.187 7.187 0 0 1 4.55-4.371c2.03 2.697 1.45 5.492 1.25 6.174.47-1.495 4.83-13.339 23.83-16.426-.72-13.405 13.39-15.793 13.39-15.793s-13.28-10.935 11.49-21.577ZM1231.85 580.366s.02-.049.05-.163c-.03.114-.05.163-.05.163ZM1215.08 305.858s.03-.065.06-.163c-.05.114-.06.163-.06.163ZM1270.73 251.496c-35.17 4.192-45.48 31.065-45.48 31.065s2.91-7.734 1.69-12.445c-2.69 8.188-5.81 10.821-5.81 10.821s-.57-4.03 2.89-11.942c-4.05 2.697-7.04 10.398-7.04 10.398s10.26-26.89-13.15-53.471c13.74 25.363-4.63 25.752-4.63 25.752s10.26 11.341.76 22.13c13.9 15.175 9.71 27.995 9.11 29.571a7.67 7.67 0 0 1 5.13-4.355c2 3.006 1.17 5.963.93 6.678.62-1.576 6.03-13.924 26.52-15.955.13-14.363 15.35-15.972 15.35-15.972s-13.41-12.543 13.73-22.275ZM1209.02 303.553s.01-.049.06-.162a.59.59 0 0 0-.06.162ZM86 291.077s.016-.065.065-.163c-.032.098-.065.163-.065.163ZM141.67 236.715c-35.173 4.191-45.478 31.065-45.478 31.065s2.91-7.734 1.69-12.446c-2.698 8.189-5.819 10.821-5.819 10.821s-.569-4.029 2.893-11.942c-4.047 2.697-7.038 10.399-7.038 10.399s10.257-26.89-13.149-53.471c13.735 25.362-4.632 25.752-4.632 25.752s10.256 11.341.764 22.13c13.897 15.175 9.703 27.994 9.102 29.57a7.682 7.682 0 0 1 5.152-4.354c2 3.006 1.17 5.963.927 6.678.601-1.576 6.03-13.924 26.526-15.955.13-14.363 15.344-15.972 15.344-15.972s-13.442-12.559 13.718-22.275ZM79.938 288.756s.016-.049.064-.162a2.348 2.348 0 0 0-.064.162ZM915.436 608.656c-29.436 15.452-29.452 42.472-29.452 42.472s-.049-7.767-2.682-11.487c.374 8.091-1.463 11.438-1.463 11.438s-1.853-3.347-1.463-11.438c-2.649 3.72-2.682 11.487-2.682 11.487s-.016-27.02-29.452-42.472c20.545 17.629 4.568 24.128 4.568 24.128s12.791 6.515 8.094 19.14c17.278 8.644 17.896 21.301 17.896 22.877.016-.715.292-3.575 3.055-5.541 2.763 1.966 3.023 4.842 3.056 5.541.016-1.576.618-14.233 17.895-22.877-4.697-12.641 8.095-19.14 8.095-19.14s-15.994-6.499 4.535-24.128ZM902.742 435.68c-34.881 18.311-34.897 50.335-34.897 50.335s-.049-9.196-3.186-13.599c.439 9.586-1.739 13.55-1.739 13.55s-2.195-3.964-1.739-13.55c-3.137 4.403-3.186 13.599-3.186 13.599s-.033-32.024-34.897-50.335c24.348 20.894 5.412 28.596 5.412 28.596s15.165 7.717 9.59 22.681c20.464 10.253 21.195 25.233 21.211 27.102.033-.845.342-4.225 3.609-6.564 3.267 2.339 3.592 5.735 3.608 6.564.016-1.869.748-16.865 21.211-27.102-5.575-14.98 9.59-22.681 9.59-22.681s-18.936-7.702 5.413-28.596ZM859.296 514.273v-.195a.6.6 0 0 0 0 .195ZM1018.62 512.679v-.195c-.02.13 0 .195 0 .195ZM1053.39 437.227c-33.5 17.58-33.52 48.337-33.52 48.337s-.05-8.823-3.06-13.064c.43 9.213-1.67 13.015-1.67 13.015s-2.1-3.802-1.67-13.015c-3.01 4.241-3.06 13.064-3.06 13.064s-.03-30.741-33.515-48.337c23.375 20.065 5.201 27.458 5.201 27.458s14.547 7.409 9.216 21.788c19.648 9.846 20.348 24.226 20.368 26.029.03-.812.32-4.062 3.46-6.304 3.14 2.242 3.45 5.508 3.46 6.304.02-1.803.72-16.183 20.37-26.029-5.35-14.379 9.21-21.788 9.21-21.788s-18.17-7.409 5.21-27.458ZM970.07 374.835s-.033-.065-.082-.179c.049.114.082.179.082.179Z"/><path d="M972.426 290.672c-24.202 29.717-11.996 58.378-11.996 58.378s-3.559-8.205-8.045-10.951c4.063 8.416 3.624 12.787 3.624 12.787s-3.478-2.713-6.745-11.455c-1.122 5.151 2.357 13.388 2.357 13.388s-12.272-28.644-50.469-31.699c29.761 9.391 15.783 23.527 15.783 23.527s16.514 1.105 17.261 16.637c22.236 1.349 28.623 14.477 29.339 16.151-.293-.764-1.317-3.916.715-7.263 3.82.845 5.396 3.753 5.738 4.501-.699-1.674-5.787-15.371 8.614-32.35-10.711-11.276-.097-23.965-.097-23.965s-19.863.309-6.079-27.686Z"/><path d="M963.601 377.601s-.016-.065-.081-.179c.048.114.081.179.081.179ZM1119.18 270.855s-.03-.032-.08-.097c.05.065.08.097.08.097Z"/><path d="M1107.52 217.625c-10.56 22.438 1.58 38.54 1.58 38.54s-3.51-4.599-6.76-5.622c3.87 4.647 4.27 7.474 4.27 7.474s-2.6-1.154-6.03-6.142c.1 3.412 3.58 8.043 3.58 8.043s-12.17-16.085-36.65-12.04c20.17 1.251 13.59 12.316 13.59 12.316s10.54-1.885 13.44 7.766c14.17-2.615 20.23 4.631 20.95 5.573a5.418 5.418 0 0 1-.68-4.679c2.53-.065 3.98 1.511 4.3 1.934-.7-.943-6.03-8.758.36-21.675-8.48-5.41-3.8-15.045-3.8-15.045s-12.45 3.282-8.15-16.443Z"/><path d="M1115.54 273.597s-.03-.032-.08-.097c.05.065.08.097.08.097ZM729.281 75.095s0-.016.016-.032c-.016.016-.016.032-.016.032ZM742.4 62.23c-9.85 1.283-11.41 7.473-11.41 7.473s.438-1.787-.147-2.843c-.357 1.885-1.105 2.502-1.105 2.502s-.374-.91.211-2.73c-1.024.65-1.479 2.421-1.479 2.421s1.561-6.19-6.501-11.99c5.234 5.621 0 5.881 0 5.881s3.511 2.47 1.349 5.004c4.746 3.299 4.21 6.256 4.128 6.613.049-.162.293-.796 1.252-1.04.731.667.634 1.333.601 1.511.098-.357 1.008-3.217 6.762-3.867-.699-3.249 3.576-3.769 3.576-3.769s-4.503-2.697 2.763-5.167ZM727.414 74.626s0-.016.016-.032c0 .016-.016.032-.016.032ZM614.885 392.412s-.016-.049-.065-.146c.049.097.065.146.065.146ZM616.511 320.031c-20.675 25.672-10.029 50.254-10.029 50.254s-3.104-7.035-6.973-9.391c3.544 7.214 3.17 10.984 3.17 10.984s-3.007-2.307-5.851-9.83c-.943 4.435 2.08 11.503 2.08 11.503s-10.679-24.566-43.56-27.02c25.648 7.929 13.685 20.147 13.685 20.147s14.206.878 14.922 14.217c19.13 1.056 24.673 12.316 25.307 13.746a7.127 7.127 0 0 1 .585-6.239c3.283.698 4.665 3.2 4.957 3.834-.617-1.446-5.038-13.193 7.25-27.865-9.265-9.635-.195-20.602-.195-20.602s-17.067.406-5.348-23.738ZM609.342 394.818s-.016-.049-.065-.146a.708.708 0 0 0 .065.146ZM1334.53 423.865s-.02-.049-.07-.146c.05.097.07.146.07.146ZM1336.15 351.5c-20.67 25.671-10.03 50.254-10.03 50.254s-3.1-7.035-6.97-9.391c3.54 7.214 3.17 10.983 3.17 10.983s-3.01-2.307-5.85-9.829c-.94 4.435 2.08 11.503 2.08 11.503s-10.68-24.567-43.56-27.02c25.65 7.929 13.68 20.147 13.68 20.147s14.21.878 14.93 14.217c19.13 1.056 24.67 12.316 25.3 13.746a7.133 7.133 0 0 1 .59-6.24c3.28.699 4.66 3.201 4.95 3.835-.61-1.446-5.05-13.193 7.25-27.865-9.26-9.635-.19-20.602-.19-20.602s-17.07.39-5.35-23.738ZM1328.98 426.271s-.01-.049-.06-.146c.03.097.06.146.06.146ZM893.95 139.361l-.048-.049.048.049ZM883.563 109.203c-4.632 13.762 3.527 22.292 3.527 22.292s-2.357-2.437-4.307-2.811c2.568 2.437 2.99 4.062 2.99 4.062s-1.592-.504-3.917-3.168c.293 1.966 2.617 4.435 2.617 4.435s-8.159-8.53-22.121-4.516c11.816-.634 8.728 6.239 8.728 6.239s5.998-1.804 8.338 3.607c8.062-2.486 12.077 1.332 12.564 1.819a3.134 3.134 0 0 1-.715-2.664 3.16 3.16 0 0 1 2.633.828c-.471-.503-4.096-4.679-1.251-12.624-5.299-2.567-3.218-8.481-3.218-8.481s-7.022 2.745-5.868-9.018ZM892.013 141.212l-.048-.048a.12.12 0 0 1 .048.048ZM885.501 283.363s0-.032-.017-.097a.435.435 0 0 1 .017.097Z"/><path d="M900.355 242.289c-16.758 10.707-15.409 26.809-15.409 26.809s-.422-4.631-2.178-6.711c.634 4.81-.292 6.89-.292 6.89s-1.268-1.901-1.463-6.743c-1.382 2.356-1.024 6.986-1.024 6.986s-1.382-16.101-19.7-23.835c13.133 9.472 3.95 14.152 3.95 14.152s7.948 3.233 5.786 10.999c10.728 4.29 11.735 11.796 11.833 12.739a4.318 4.318 0 0 1 1.544-3.461 4.349 4.349 0 0 1 2.097 3.152c-.081-.943-.342-8.514 9.508-14.542-3.445-7.295 3.853-11.828 3.853-11.828s-9.85-3.071 1.495-14.607ZM1128.67 440.312s0-.065-.01-.195c.01.114.01.195.01.195Z"/><path d="M1160.12 362.211c-33.02 19.465-31.53 50.579-31.53 50.579s-.49-8.936-3.74-13.063c.9 9.294-1.04 13.258-1.04 13.258s-2.3-3.753-2.34-13.096c-2.83 4.436-2.45 13.372-2.45 13.372s-1.55-31.114-36.31-47.248c24.65 19.14 6.63 27.54 6.63 27.54s15.1 6.775 10.4 21.593c20.38 8.985 21.8 23.51 21.91 25.33a8.376 8.376 0 0 1 3.2-6.564c3.29 2.112 3.76 5.394 3.82 6.207-.08-1.82-.08-16.41 19.33-27.345-6.13-14.282 8.24-22.503 8.24-22.503s-18.77-6.597 3.88-28.06ZM744.465 448.569s.016-.065.049-.178c-.033.113-.049.178-.049.178ZM800.931 386.098c-37.71 6.872-47.039 36.606-47.039 36.606s2.617-8.547.991-13.551c-2.373 9.034-5.559 12.072-5.559 12.072s-.877-4.322 2.325-13.095c-4.194 3.184-6.908 11.714-6.908 11.714s9.281-29.733-17.782-56.883c16.53 26.467-3.283 28.125-3.283 28.125s11.833 11.568 2.308 23.851c16.026 15.468 12.353 29.587 11.816 31.326.277-.78 1.545-3.835 5.267-5.053 2.356 3.119 1.658 6.369 1.446 7.149.553-1.739 5.592-15.435 27.567-19.01-.813-15.516 15.49-18.279 15.49-18.279s-15.328-12.64 13.361-24.972ZM737.75 446.46s.016-.065.065-.179a1.291 1.291 0 0 0-.065.179ZM673.028 433.468s0-.065-.016-.195c.016.114.016.195.016.195Z"/><path d="M704.48 355.367c-33.028 19.465-31.533 50.579-31.533 50.579s-.487-8.936-3.738-13.063c.894 9.294-1.04 13.258-1.04 13.258s-2.308-3.753-2.341-13.095c-2.828 4.435-2.454 13.371-2.454 13.371s-1.544-31.114-36.312-47.248c24.658 19.14 6.632 27.54 6.632 27.54s15.1 6.775 10.403 21.593c20.382 8.985 21.796 23.511 21.91 25.33-.016-.812.13-4.126 3.202-6.564a8.34 8.34 0 0 1 3.819 6.207c-.081-1.82-.081-16.41 19.326-27.345-6.127-14.282 8.241-22.503 8.241-22.503s-18.773-6.597 3.885-28.06Z"/><path d="M666.007 433.812v-.195a.644.644 0 0 0 0 .195ZM851.965 619.49s.016-.049.065-.146c-.049.097-.065.146-.065.146Z"/><path d="M901.458 573.785c-30.541 2.763-40.115 25.786-40.115 25.786s2.715-6.63 1.772-10.74c-2.536 7.035-5.299 9.228-5.299 9.228s-.39-3.509 2.796-10.268c-3.576 2.242-6.355 8.839-6.355 8.839s9.541-23.023-10.078-46.599c11.264 22.276-4.632 22.178-4.632 22.178s8.598 10.058.13 19.173c11.654 13.469 7.72 24.469 7.168 25.817.276-.601 1.511-2.941 4.551-3.639 1.658 2.648.861 5.183.634 5.8.569-1.348 5.559-11.893 23.34-13.16.472-12.43 13.67-13.454 13.67-13.454s-11.329-11.194 12.418-18.961ZM846.762 617.349s.016-.048.065-.146a1.28 1.28 0 0 0-.065.146ZM933.188 606.037s.016-.049.065-.146c-.049.097-.065.146-.065.146Z"/><path d="M982.681 560.317c-30.541 2.762-40.115 25.785-40.115 25.785s2.714-6.629 1.772-10.74c-2.536 7.035-5.299 9.229-5.299 9.229s-.39-3.51 2.796-10.269c-3.576 2.242-6.356 8.839-6.356 8.839s9.541-23.023-10.077-46.599c11.264 22.276-4.632 22.179-4.632 22.179s8.598 10.057.13 19.172c11.654 13.469 7.72 24.469 7.168 25.818.276-.602 1.511-2.941 4.551-3.64 1.658 2.648.861 5.183.634 5.801.568-1.349 5.558-11.894 23.34-13.161.472-12.43 13.67-13.453 13.67-13.453s-11.329-11.195 12.418-18.961ZM927.984 603.881s.017-.049.065-.147c-.048.098-.065.147-.065.147ZM756.719 610.586s.032-.065.081-.195c-.065.13-.081.195-.081.195ZM822.578 549.774c-40.651 3.688-53.377 34.315-53.377 34.315s3.608-8.823 2.356-14.282c-3.38 9.359-7.054 12.283-7.054 12.283s-.52-4.663 3.722-13.664c-4.746 2.973-8.452 11.763-8.452 11.763s12.695-30.643-13.409-62.017c15.002 29.652-6.176 29.506-6.176 29.506s11.442 13.388.162 25.509c15.523 17.921 10.272 32.56 9.525 34.347.357-.796 1.999-3.915 6.063-4.858a8.832 8.832 0 0 1 .845 7.718c.747-1.787 7.395-15.842 31.061-17.515.618-16.54 18.188-17.905 18.188-17.905s-15.051-14.883 16.546-25.2ZM749.793 607.726s.032-.065.081-.195c-.049.13-.081.195-.081.195ZM1272.63 572.523c-36.02 18.913-36.05 51.993-36.05 51.993s-.05-9.505-3.28-14.054c.45 9.911-1.81 14.005-1.81 14.005s-2.26-4.094-1.8-14.005c-3.23 4.549-3.28 14.054-3.28 14.054s-.04-33.064-36.05-51.993c25.14 21.577 5.59 29.539 5.59 29.539s15.65 7.961 9.9 23.429c21.14 10.577 21.89 26.061 21.91 27.995.03-.861.35-4.371 3.73-6.792a8.876 8.876 0 0 1 3.74 6.792c.02-1.934.77-17.418 21.91-27.995-5.75-15.468 9.9-23.429 9.9-23.429s-19.55-7.962 5.59-29.539ZM1033.86 621.164c-36.016 18.912-36.048 51.993-36.048 51.993s-.049-9.505-3.283-14.055c.455 9.895-1.804 14.006-1.804 14.006s-2.26-4.094-1.805-14.006c-3.234 4.55-3.283 14.055-3.283 14.055s-.032-33.064-36.051-51.993c25.145 21.577 5.591 29.538 5.591 29.538s15.653 7.962 9.899 23.43c21.146 10.577 21.894 26.061 21.91 27.994.033-.861.358-4.37 3.739-6.791a8.882 8.882 0 0 1 3.738 6.791c.016-1.933.764-17.417 21.907-27.994-5.75-15.468 9.9-23.43 9.9-23.43s-19.55-7.961 5.59-29.538ZM1357.56 547.648c-36.02 18.913-36.05 51.993-36.05 51.993s-.05-9.505-3.29-14.054c.46 9.911-1.8 14.005-1.8 14.005s-2.26-4.094-1.8-14.005c-3.24 4.549-3.29 14.054-3.29 14.054s-.03-33.064-36.05-51.993c25.15 21.577 5.59 29.539 5.59 29.539s15.66 7.961 9.9 23.429c21.15 10.577 21.9 26.061 21.91 27.995a8.9 8.9 0 0 1 3.74-6.792 8.876 8.876 0 0 1 3.74 6.792c.01-1.934.76-17.418 21.91-27.995-5.76-15.468 9.9-23.429 9.9-23.429s-19.54-7.962 5.59-29.539ZM68.64 511.297v-.195c.017.13 0 .195 0 .195ZM31.242 430.141c36.019 18.912 36.051 51.992 36.051 51.992s.05-9.505 3.284-14.054c-.456 9.895 1.804 14.006 1.804 14.006s2.26-4.095 1.804-14.006c3.234 4.549 3.283 14.054 3.283 14.054s.033-33.064 36.051-51.992c-25.144 21.577-5.591 29.538-5.591 29.538s-15.653 7.961-9.899 23.429c-21.146 10.577-21.894 26.062-21.91 27.995-.032-.861-.357-4.371-3.738-6.792a8.88 8.88 0 0 0-3.739 6.792c-.016-1.933-.764-17.418-21.91-27.995 5.754-15.468-9.898-23.429-9.898-23.429s19.553-7.978-5.592-29.538ZM124.248 625.406l-.049-.195c.033.114.049.195.049.195ZM66.773 556.956c39.741 8.757 48.486 40.652 48.486 40.652s-2.455-9.18-.537-14.428c2.162 9.667 5.429 13.03 5.429 13.03s1.105-4.549-1.95-13.973c4.323 3.542 6.875 12.69 6.875 12.69s-8.696-31.911 21.081-59.646c-18.561 27.427 2.39 29.961 2.39 29.961s-13.003 11.812-3.381 25.217c-17.603 15.776-14.255 30.903-13.751 32.771-.26-.828-1.495-4.127-5.396-5.556-2.617 3.217-2.016 6.677-1.804 7.522-.52-1.868-5.332-16.589-28.51-21.236 1.463-16.442-15.733-20-15.733-20s16.741-12.82-13.198-27.004ZM131.447 623.445l-.049-.195c.033.114.049.195.049.195Z"/><path d="M1318.96 597.692c-30.54 2.762-40.12 25.785-40.12 25.785s2.72-6.629 1.78-10.74c-2.54 7.035-5.3 9.229-5.3 9.229s-.39-3.51 2.79-10.269c-3.57 2.242-6.35 8.839-6.35 8.839s9.54-23.023-10.08-46.598c11.26 22.275-4.63 22.178-4.63 22.178s8.6 10.057.13 19.172c11.65 13.469 7.72 24.469 7.16 25.818.28-.602 1.52-2.941 4.56-3.64 1.65 2.648.86 5.183.63 5.801.57-1.349 5.56-11.894 23.34-13.161.47-12.43 13.67-13.453 13.67-13.453s-11.31-11.211 12.42-18.961ZM1088.3 578.891c-36.02 18.912-36.05 51.992-36.05 51.992s-.05-9.505-3.29-14.054c.46 9.911-1.8 14.006-1.8 14.006s-2.26-4.095-1.81-14.006c-3.23 4.549-3.28 14.054-3.28 14.054s-.03-33.064-36.05-51.992c25.14 21.577 5.59 29.538 5.59 29.538s15.65 7.961 9.9 23.429c21.15 10.577 21.89 26.061 21.91 27.995a8.9 8.9 0 0 1 3.74-6.792c3.38 2.421 3.7 5.915 3.74 6.792.01-1.934.76-17.418 21.91-27.995-5.76-15.468 9.9-23.429 9.9-23.429s-19.56-7.961 5.59-29.538Z"/><path d="M1049.7 625.864c-30.54 2.762-40.12 25.785-40.12 25.785s2.72-6.629 1.77-10.74c-2.53 7.035-5.3 9.229-5.3 9.229s-.39-3.51 2.8-10.269c-3.58 2.242-6.36 8.839-6.36 8.839s9.55-23.023-10.073-46.599c11.263 22.276-4.632 22.179-4.632 22.179s8.598 10.057.13 19.172c11.654 13.469 7.721 24.469 7.168 25.817.276-.601 1.512-2.94 4.551-3.639 1.656 2.648.866 5.183.636 5.8.57-1.348 5.56-11.893 23.34-13.16.47-12.43 13.67-13.453 13.67-13.453s-11.31-11.195 12.42-18.961ZM1138.02 618.293c-30.54 2.762-40.12 25.785-40.12 25.785s2.72-6.629 1.77-10.724c-2.53 7.035-5.3 9.229-5.3 9.229s-.39-3.51 2.8-10.269c-3.58 2.243-6.35 8.839-6.35 8.839s9.54-23.023-10.08-46.598c11.26 22.275-4.63 22.178-4.63 22.178s8.59 10.057.13 19.172c11.65 13.469 7.72 24.469 7.16 25.818.28-.601 1.52-2.941 4.55-3.64 1.66 2.649.87 5.183.64 5.801.57-1.349 5.56-11.894 23.34-13.161.47-12.429 13.67-13.453 13.67-13.453s-11.33-11.211 12.42-18.977Z"/><path d="M1035.93 559.75c-36.019 18.912-36.052 51.993-36.052 51.993s-.048-9.505-3.283-14.055c.455 9.895-1.804 14.006-1.804 14.006s-2.259-4.095-1.804-14.006c-3.235 4.55-3.284 14.055-3.284 14.055s-.032-33.064-36.051-51.993c25.145 21.577 5.592 29.538 5.592 29.538s15.652 7.962 9.898 23.43c21.147 10.577 21.894 26.061 21.911 27.994.032-.861.357-4.37 3.738-6.791a8.875 8.875 0 0 1 3.738 6.791c.017-1.933.764-17.417 21.911-27.994-5.75-15.468 9.9-23.43 9.9-23.43s-19.56-7.961 5.59-29.538ZM1112.45 618.974l.06-.146-.06.146ZM1161.94 573.269c-30.54 2.762-40.11 25.785-40.11 25.785s2.71-6.629 1.77-10.723c-2.54 7.035-5.3 9.228-5.3 9.228s-.39-3.509 2.8-10.268c-3.58 2.242-6.36 8.839-6.36 8.839s9.54-23.023-10.08-46.599c11.27 22.276-4.63 22.178-4.63 22.178s8.6 10.058.13 19.173c11.66 13.469 7.72 24.469 7.17 25.817.28-.601 1.51-2.941 4.55-3.639 1.66 2.648.86 5.183.63 5.8.57-1.348 5.56-11.893 23.34-13.16.48-12.43 13.67-13.454 13.67-13.454s-11.31-11.21 12.42-18.977ZM1107.25 616.81s.01-.048.06-.146c-.03.098-.06.146-.06.146ZM233.945 526.569c-14.677-.26-33.564 7.588-33.564 7.588-5.754 9.927-9.769 18.327-12.532 21.885-.91-1.836-3.625-7.003-6.404-8.627 3.169 6.255 1.577 6.612 1.577 6.612s-1.333.959-3.901-5.573c-.634 3.169 1.414 8.628 2.194 10.529-4.486-.292-13.442-2.892-24.69-5.183 0 0-18.415 8.904-27.973 20.033 13.914-6.547 13.199 10.935 13.199 10.935s10.191-14.298 21.698 7.377c4.828-20.57 32.622-8.823 32.622-8.823s9.687-28.563 28.266-18.506c-8.55-22.991 8.907-21.106 8.907-21.106s-13.54-11.081.601-17.141ZM409.113 507.608c-14.677-.26-33.564 7.588-33.564 7.588-5.754 9.927-9.769 18.327-12.532 21.885-.91-1.836-3.625-7.003-6.404-8.627 3.169 6.255 1.577 6.613 1.577 6.613s-1.333.958-3.901-5.573c-.634 3.168 1.414 8.627 2.194 10.528-4.486-.292-13.442-2.892-24.69-5.183 0 0-18.415 8.904-27.973 20.033 13.914-6.547 13.198 10.935 13.198 10.935s10.192-14.298 21.699 7.377c4.828-20.57 32.622-8.823 32.622-8.823s9.687-28.563 28.265-18.506c-8.549-22.991 8.908-21.106 8.908-21.106s-13.54-11.097.601-17.141ZM600.064 559.136c-14.271-13.826-40.196-23.559-40.196-23.559-14.873 4.485-26.624 9.083-32.654 10.041.812-2.664 2.893-10.268 1.657-14.46-2.665 9.115-4.567 7.994-4.567 7.994s-2.194-.277 1.3-9.115c-3.543 2.551-6.582 9.846-7.574 12.429-4.161-4.452-10.614-15.289-19.602-27.962 0 0-26.429-8.238-46.194-6.093 19.814 6.402 2.926 23.023 2.926 23.023s23.308-4.696 14.612 27.361c23.812-15.858 40.407 21.463 40.407 21.463s36.035-19.269 45.089 7.864c12.84-30.627 28.347-12.624 28.347-12.624s-3.137-23.478 16.449-16.362Z"/><path d="M344.83 566.639c-11.394-17.32-35.58-33.097-35.58-33.097-16.173 1.186-29.176 3.201-35.531 2.811 1.43-2.519 5.282-9.814 4.974-14.347-4.779 8.676-6.47 7.1-6.47 7.1s-2.178-.779 3.398-8.985c-4.194 1.788-8.94 8.53-10.533 10.951-3.235-5.475-7.347-17.986-13.621-32.917 0 0-25.047-14.396-45.657-16.671 18.725 11.016-2.259 24.096-2.259 24.096s24.803.503 8.679 31.179c27.843-10.74 36.279 31.033 36.279 31.033s41.057-11.438 44.129 18.246c20.025-28.287 31.728-6.417 31.728-6.417s2.145-24.664 20.464-12.982ZM526.141 482.545c-18.773-8.823-56.775-.52-56.775-.52-10.467 9.115-28.818 30.075-28.818 30.075-.098-2.893-.618-11.114-3.267-14.835.455 9.911-1.804 9.44-1.804 9.44s-2.26.471-1.804-9.44c-2.634 3.721-3.154 11.942-3.268 14.835-5.623-2.974-15.652-11.504-28.818-20.96 0 0-38.001 9.927-56.775 18.75 21.732-.39 23.455 14.428 23.455 14.428s26.884-17.077 29.176 17.482c18.123-23.705 38.034 10.236 38.034 10.236s18.074-37.597 36.213-13.891c2.292-34.575 25.519-22.958 25.519-22.958s7.217-33.032 28.932-32.642ZM591.937 489.592c-14.677-.26-33.564 7.588-33.564 7.588-5.754 9.927-9.769 18.327-12.532 21.886-.91-1.836-3.624-7.003-6.404-8.628 3.17 6.255 1.577 6.613 1.577 6.613s-1.333.959-3.901-5.573c-.634 3.168 1.414 8.627 2.194 10.528-4.486-.292-13.442-2.892-24.69-5.183 0 0-18.415 8.904-27.972 20.034 13.913-6.548 13.198 10.935 13.198 10.935s10.191-14.298 21.699 7.376c4.827-20.57 32.621-8.822 32.621-8.822s9.687-28.564 28.266-18.507c-8.55-22.99 8.907-21.105 8.907-21.105s-13.54-11.098.601-17.142ZM767.105 470.631c-14.677-.26-33.564 7.588-33.564 7.588-5.754 9.927-9.769 18.327-12.532 21.886-.91-1.836-3.624-7.003-6.404-8.628 3.17 6.255 1.577 6.613 1.577 6.613s-1.333.959-3.901-5.573c-.634 3.168 1.414 8.627 2.194 10.528-4.486-.292-13.442-2.892-24.69-5.183 0 0-18.415 8.904-27.973 20.034 13.914-6.548 13.199 10.935 13.199 10.935s10.191-14.298 21.699 7.376c4.827-20.57 32.621-8.822 32.621-8.822s9.687-28.564 28.266-18.507c-8.55-22.99 8.907-21.105 8.907-21.105s-13.54-11.098.601-17.142ZM182.731 599.982c-12.76-.227-29.192 6.597-29.192 6.597-5.007 8.627-8.501 15.939-10.89 19.042-.797-1.609-3.154-6.093-5.576-7.506 2.764 5.443 1.366 5.751 1.366 5.751s-1.154.829-3.397-4.842c-.553 2.746 1.235 7.507 1.918 9.148-3.901-.26-11.687-2.502-21.472-4.501 0 0-16.01 7.734-24.332 17.418 12.109-5.687 11.475 9.505 11.475 9.505s8.859-12.43 18.871 6.401c4.194-17.888 28.38-7.669 28.38-7.669s8.419-24.842 24.592-16.101c-7.445-19.985 7.737-18.36 7.737-18.36s-11.768-9.619.52-14.883Z"/><path d="M702.822 529.646c-11.394-17.32-35.58-33.096-35.58-33.096-16.173 1.186-29.176 3.201-35.531 2.811 1.43-2.519 5.283-9.814 4.974-14.347-4.779 8.676-6.469 7.1-6.469 7.1s-2.178-.78 3.397-8.985c-4.194 1.787-8.94 8.53-10.533 10.951-3.234-5.475-7.347-17.986-13.621-32.918 0 0-25.047-14.395-45.657-16.67 18.725 11.016-2.259 24.096-2.259 24.096s24.803.503 8.68 31.179c27.842-10.74 36.278 31.033 36.278 31.033s41.058-11.438 44.13 18.246c20.024-28.287 31.727-6.418 31.727-6.418s2.146-24.647 20.464-12.982ZM641.448 429.74c-7.396-14.753-35.255-28.255-35.255-28.255-11.037.552-32.833 4.63-32.833 4.63 1.365-1.868 5.087-7.262 5.266-10.886-4.583 6.418-5.77 5.021-5.77 5.021s-1.642-.829 3.527-6.792c-3.478 1.024-7.85 5.915-9.346 7.669-2.048-4.63-4.128-14.899-7.704-27.28 0 0-28.656-12.478-44.747-16.199 13.783 10.448 7.558 20.57 7.558 20.57s25.226 2.535 9.639 25.298c23.015-5.914 18.74 25.119 18.74 25.119s29.81-14.623 29.485 9.131c18.448-20.505 27.274-1.804 27.274-1.804s20.756-17.157 34.166-6.222ZM262.519 363.004c-6.681-13.323-31.858-25.525-31.858-25.525-9.963.504-29.679 4.192-29.679 4.192 1.235-1.69 4.599-6.564 4.762-9.83-4.145 5.801-5.217 4.533-5.217 4.533s-1.48-.747 3.185-6.141c-3.153.926-7.103 5.345-8.452 6.937-1.853-4.175-3.738-13.453-6.973-24.664 0 0-25.908-11.276-40.439-14.639 12.45 9.44 6.843 18.588 6.843 18.588s22.804 2.29 8.712 22.86c20.805-5.345 16.936 22.698 16.936 22.698s26.949-13.209 26.64 8.254c16.677-18.522 24.641-1.625 24.641-1.625s18.79-15.516 30.899-5.638ZM557.023 288.64c-10.582-1.788-28.38 7.636-28.38 7.636-3.949 5.995-10.191 19.01-10.191 19.01-.455-1.43-1.853-5.459-3.69-6.938 1.61 4.874.423 4.956.423 4.956s-1.056.552-2.21-4.452c-.797 2.226.081 6.385.438 7.847-3.218-.698-9.411-3.558-17.294-6.45 0 0-17.57 10.236-25.697 17.255 10.776-3.217 13.702 3.932 13.702 3.932s11.02-12.251 16.985 4.663c5.738-14.347 20.399-.179 20.399-.179s3.787-21.268 16.124-11.958c-3.674-17.564 9.524-14.997 9.524-14.997s-1.007-17.482 9.867-20.325ZM447.375 151.039c-5.624-6.239-21.114-9.099-21.114-9.099-5.331 1.755-15.49 6.711-15.49 6.711.423-1.105 1.512-4.257 1.106-6.044-1.382 3.769-2.162 3.233-2.162 3.233s-.91-.179.813-3.802c-1.577.975-3.056 3.964-3.544 5.02-1.625-1.998-4.031-6.742-7.46-12.348 0 0-15.75-2.258-24.137-1.917 8.175 3.266 6.485 9.066 6.485 9.066s12.727-2.161 8.143 11.114c10.5-6.012 12.597 9.797 12.597 9.797s12.662-11.195 15.701.504c6.29-12.544 13.133-4.566 13.133-4.566s7.884-11.227 15.929-7.669ZM180.372 127.888c-2.633-.845-7.525.893-7.525.893-1.236 1.382-3.316 4.469-3.316 4.469-.065-.39-.276-1.463-.683-1.918.228 1.3-.081 1.284-.081 1.284s-.293.097-.39-1.219c-.293.537-.211 1.641-.179 2.015-.796-.292-2.276-1.267-4.177-2.291 0 0-4.876 1.966-7.201 3.445 2.877-.423 3.349 1.511 3.349 1.511s3.267-2.714 4.161 1.819c1.999-3.444 5.217.715 5.217.715s1.756-5.28 4.567-2.453c-.276-4.614 2.991-3.477 2.991-3.477s.374-4.468 3.267-4.793ZM434.828 227.321c-2.861-1.852-9.248-1.332-9.248-1.332-1.902 1.251-5.364 4.273-5.364 4.273.049-.471.146-1.819-.212-2.486-.146 1.625-.503 1.495-.503 1.495s-.374.033-.082-1.576c-.52.553-.78 1.885-.861 2.34-.845-.618-2.308-2.226-4.242-4.046 0 0-6.421.78-9.671 1.804 3.543.422 3.51 2.875 3.51 2.875s4.763-2.193 4.373 3.494c3.478-3.461 5.981 2.502 5.981 2.502s3.771-5.736 6.209-1.462c1.138-5.59 4.665-3.185 4.665-3.185s1.918-5.232 5.445-4.696ZM559.106 280.027c-2.325-3.802-10.11-6.824-10.11-6.824-2.959.39-8.729 1.966-8.729 1.966.325-.536 1.203-2.063 1.171-3.038-1.089 1.836-1.447 1.478-1.447 1.478s-.455-.179.796-1.901c-.91.358-1.983 1.771-2.34 2.275-.65-1.202-1.447-3.916-2.682-7.182 0 0-7.997-2.729-12.402-3.379 3.934 2.502 2.487 5.362 2.487 5.362s6.843.13 3.153 6.596c6.063-2.096 5.608 6.353 5.608 6.353s7.704-4.598 8.143 1.804c4.519-5.931 7.298-1.089 7.298-1.089s5.218-5.053 9.054-2.421ZM140.711 337.66c-2.324-3.802-10.11-6.824-10.11-6.824-2.958.39-8.728 1.966-8.728 1.966.325-.536 1.203-2.064 1.17-3.039-1.089 1.836-1.447 1.479-1.447 1.479s-.455-.179.797-1.901c-.91.357-1.983 1.771-2.341 2.275-.65-1.203-1.446-3.916-2.682-7.182 0 0-7.996-2.729-12.401-3.379 3.933 2.502 2.487 5.361 2.487 5.361s6.842.13 3.153 6.597c6.063-2.096 5.607 6.353 5.607 6.353s7.705-4.598 8.144 1.803c4.518-5.93 7.298-1.088 7.298-1.088s5.217-5.07 9.053-2.421ZM296.862 226.155c-10.581-1.787-28.379 7.637-28.379 7.637-3.95 5.995-10.191 19.009-10.191 19.009-.455-1.429-1.853-5.459-3.69-6.937 1.609 4.874.423 4.955.423 4.955s-1.057.553-2.211-4.452c-.796 2.226.082 6.386.439 7.848-3.218-.699-9.411-3.558-17.294-6.45 0 0-17.57 10.236-25.697 17.255 10.776-3.217 13.702 3.932 13.702 3.932s11.02-12.251 16.985 4.663c5.738-14.347 20.399-.179 20.399-.179s3.787-21.268 16.124-11.958c-3.674-17.564 9.524-14.997 9.524-14.997s-1.007-17.499 9.866-20.326ZM394.485 566.365c-18.774-8.822-56.775-.52-56.775-.52-10.468 9.115-28.818 30.075-28.818 30.075-.098-2.892-.618-11.114-3.267-14.834.455 9.895-1.805 9.44-1.805 9.44s-2.259.471-1.804-9.44c-2.633 3.72-3.153 11.942-3.267 14.834-5.624-2.973-15.652-11.503-28.818-20.96 0 0-38.002 9.928-56.775 18.75 21.732-.39 23.455 14.428 23.455 14.428s26.884-17.076 29.175 17.483c18.123-23.706 38.034 10.236 38.034 10.236s18.075-37.597 36.214-13.892c2.292-34.575 25.519-22.958 25.519-22.958s7.2-33.032 28.932-32.642ZM651.863 551.334c-14.677-.26-33.564 7.588-33.564 7.588-5.754 9.928-9.769 18.328-12.532 21.886-.91-1.836-3.625-7.003-6.404-8.628 3.169 6.256 1.577 6.613 1.577 6.613s-1.333.959-3.901-5.573c-.634 3.168 1.414 8.628 2.194 10.529-4.486-.293-13.442-2.892-24.69-5.183 0 0-18.415 8.903-27.973 20.033 13.914-6.548 13.198 10.935 13.198 10.935s10.192-14.298 21.699 7.376c4.828-20.569 32.622-8.822 32.622-8.822s9.687-28.564 28.265-18.506c-8.549-22.991 8.908-21.106 8.908-21.106s-13.54-11.097.601-17.142Z"/><path d="M595.888 595.269c-14.271-13.827-40.196-23.559-40.196-23.559-14.872 4.484-26.624 9.082-32.654 10.041.812-2.665 2.893-10.268 1.658-14.46-2.666 9.115-4.568 7.994-4.568 7.994s-2.194-.277 1.301-9.115c-3.544 2.55-6.583 9.846-7.575 12.429-4.161-4.452-10.613-15.289-19.602-27.962 0 0-26.429-8.238-46.193-6.093 19.813 6.401 2.925 23.023 2.925 23.023s23.308-4.696 14.613 27.361c23.812-15.858 40.407 21.463 40.407 21.463s36.035-19.27 45.088 7.864c12.841-30.627 28.347-12.624 28.347-12.624s-3.137-23.462 16.449-16.362ZM762.748 586.787c-11.394-17.32-35.58-33.097-35.58-33.097-16.173 1.187-29.176 3.201-35.531 2.811 1.43-2.518 5.282-9.813 4.973-14.346-4.778 8.676-6.469 7.1-6.469 7.1s-2.178-.78 3.397-8.985c-4.193 1.787-8.939 8.53-10.532 10.951-3.235-5.476-7.347-17.986-13.621-32.918 0 0-25.047-14.396-45.657-16.67 18.725 11.016-2.259 24.095-2.259 24.095s24.803.504 8.679 31.18c27.843-10.74 36.279 31.033 36.279 31.033s41.057-11.439 44.129 18.246c20.025-28.287 31.728-6.418 31.728-6.418s2.145-24.648 20.464-12.982ZM402.629 259.313c-6.453-.065-14.742 3.461-14.742 3.461-2.503 4.387-4.226 8.108-5.429 9.668-.406-.813-1.625-3.071-2.844-3.77 1.414 2.746.715 2.908.715 2.908s-.585.423-1.739-2.437c-.26 1.398.65 3.786 1.007 4.631-1.983-.114-5.932-1.219-10.873-2.194 0 0-8.062 3.981-12.24 8.92 6.096-2.924 5.852 4.761 5.852 4.761s4.437-6.32 9.573 3.168c2.048-9.066 14.32-3.997 14.32-3.997s4.161-12.608 12.369-8.254c-3.852-10.089 3.836-9.326 3.836-9.326s-6.014-4.825.195-7.539ZM440.76 348.903c-9.817-9.505-27.632-16.199-27.632-16.199-10.223 3.087-18.302 6.239-22.446 6.906.552-1.836 1.999-7.068 1.137-9.944-1.836 6.272-3.137 5.492-3.137 5.492s-1.511-.195.894-6.272c-2.438 1.755-4.518 6.759-5.201 8.546-2.861-3.054-7.298-10.512-13.474-19.221 0 0-18.172-5.67-31.76-4.192 13.62 4.404 1.999 15.826 1.999 15.826s16.026-3.234 10.045 18.815c16.367-10.903 27.778 14.752 27.778 14.752s24.771-13.241 30.996 5.411c8.826-21.057 19.488-8.676 19.488-8.676s-2.145-16.134 11.313-11.244ZM249.809 689.161c-9.313-14.152-29.078-27.052-29.078-27.052-13.214.975-23.844 2.616-29.029 2.291 1.17-2.064 4.323-8.01 4.063-11.731-3.901 7.1-5.282 5.8-5.282 5.8s-1.772-.633 2.779-7.344c-3.429 1.463-7.298 6.971-8.614 8.936-2.633-4.468-5.998-14.687-11.118-26.906 0 0-20.464-11.763-37.303-13.632 15.295 9.002-1.836 19.693-1.836 19.693s20.268.406 7.086 25.476c22.756-8.774 29.647 25.347 29.647 25.347s33.548-9.359 36.052 14.899c16.367-23.105 25.924-5.248 25.924-5.248s1.74-20.066 16.709-10.529ZM211.547 383.675c-16.059-1.3-41.448 15.094-41.448 15.094-5.12 9.489-12.775 29.733-12.775 29.733-.862-2.079-3.479-7.912-6.421-9.911 3.04 7.084 1.268 7.361 1.268 7.361s-1.512.958-3.885-6.37c-.91 3.429.959 9.554 1.675 11.682-4.893-.633-14.531-4.094-26.689-7.392 0 0-24.95 17.58-36.198 29.116 15.701-6.207 21 4.11 21 4.11s14.905-19.757 25.99 4.777c6.729-22.194 30.46-2.908 30.46-2.908s2.909-32.284 22.56-19.969c-7.769-25.785 12.305-23.656 12.305-23.656s-3.755-26.013 12.158-31.667ZM368.088 484.671c-16.01-.277-36.604 8.286-36.604 8.286-6.274 10.821-10.646 20.001-13.669 23.868-.992-2.015-3.95-7.637-6.989-9.424 3.462 6.824 1.723 7.214 1.723 7.214s-1.447 1.04-4.259-6.077c-.682 3.445 1.544 9.408 2.39 11.488-4.893-.325-14.661-3.152-26.933-5.655 0 0-20.074 9.7-30.509 21.854 15.181-7.133 14.401 11.925 14.401 11.925s11.118-15.581 23.666 8.043c5.266-22.422 35.58-9.619 35.58-9.619s10.565-31.146 30.833-20.195c-9.329-25.071 9.704-23.024 9.704-23.024s-14.742-12.088.666-18.684ZM515.754 470.473c-13.263-12.869-37.368-21.902-37.368-21.902-13.832 4.175-24.754 8.448-30.362 9.326.748-2.47 2.698-9.554 1.544-13.453-2.47 8.481-4.242 7.441-4.242 7.441s-2.048-.26 1.219-8.481c-3.299 2.372-6.111 9.147-7.038 11.568-3.868-4.143-9.866-14.217-18.221-25.996 0 0-24.575-7.669-42.942-5.654 18.415 5.963 2.714 21.398 2.714 21.398s21.667-4.371 13.588 25.444c22.138-14.737 37.579 19.952 37.579 19.952s33.5-17.905 41.919 7.311c11.931-28.482 26.348-11.73 26.348-11.73s-2.942-21.837 15.262-15.224Z"/><path d="M351.981 492.472c-10.597-16.101-33.093-30.773-33.093-30.773-15.035 1.105-27.128 2.989-33.028 2.616 1.333-2.356 4.909-9.115 4.633-13.34-4.454 8.075-6.014 6.613-6.014 6.613s-2.016-.731 3.153-8.351c-3.901 1.657-8.306 7.929-9.801 10.171-3.007-5.086-6.827-16.719-12.662-30.611 0 0-23.292-13.388-42.455-15.5 17.408 10.252-2.097 22.405-2.097 22.405s23.064.472 8.062 28.986c25.893-9.992 33.727 28.84 33.727 28.84s38.18-10.642 41.025 16.963c18.61-26.289 29.501-5.963 29.501-5.963s2.015-22.909 19.049-12.056ZM351.346 685.885c-9.898-15.046-30.915-28.759-30.915-28.759-14.043 1.04-25.356 2.795-30.866 2.437 1.236-2.193 4.584-8.514 4.324-12.478-4.161 7.539-5.624 6.174-5.624 6.174s-1.885-.682 2.958-7.815c-3.641 1.56-7.769 7.409-9.151 9.505-2.812-4.761-6.371-15.614-11.833-28.612 0 0-21.763-12.511-39.675-14.493 16.27 9.57-1.951 20.943-1.951 20.943s21.553.439 7.542 27.085c24.202-9.326 31.516 26.955 31.516 26.955s35.678-9.944 38.343 15.841c17.392-24.566 27.567-5.573 27.567-5.573s1.853-21.349 17.765-11.21ZM440.761 381.937c-17.44-8.205-52.776-.471-52.776-.471-9.72 8.481-26.803 27.962-26.803 27.962-.097-2.697-.585-10.333-3.039-13.794.422 9.212-1.675 8.774-1.675 8.774s-2.096.438-1.674-8.774c-2.454 3.461-2.942 11.097-3.039 13.794-5.218-2.778-14.564-10.691-26.803-19.481 0 0-35.336 9.229-52.776 17.434 20.203-.357 21.796 13.421 21.796 13.421s24.999-15.891 27.128 16.264c16.855-22.049 35.352 9.521 35.352 9.521s16.807-34.949 33.662-12.901c2.129-32.138 23.731-21.349 23.731-21.349s6.713-30.757 26.916-30.4Z"/><path d="M354.922 619.282c-11.882-5.589-35.938-.325-35.938-.325-6.615 5.768-18.253 19.043-18.253 19.043-.065-1.836-.39-7.036-2.064-9.392.293 6.272-1.138 5.98-1.138 5.98s-1.43.292-1.138-5.98c-1.674 2.356-1.999 7.556-2.064 9.392-3.559-1.885-9.915-7.279-18.253-13.275 0 0-24.056 6.288-35.937 11.877 13.751-.243 14.84 9.131 14.84 9.131s17.017-10.821 18.464 11.065c11.475-15.013 24.072 6.483 24.072 6.483s11.443-23.803 22.918-8.79c1.447-21.886 16.156-14.542 16.156-14.542s4.584-20.911 18.335-20.667Z"/><path d="M262.842 622.382c-13.653-6.418-41.333-.373-41.333-.373-7.624 6.629-20.984 21.902-20.984 21.902-.081-2.113-.455-8.092-2.373-10.805.341 7.214-1.317 6.873-1.317 6.873s-1.641.341-1.316-6.873c-1.918 2.713-2.308 8.692-2.373 10.805-4.096-2.161-11.394-8.368-20.984-15.257 0 0-27.664 7.23-41.334 13.648 15.815-.276 17.067 10.512 17.067 10.512s19.569-12.429 21.227 12.738c13.198-17.255 27.681 7.458 27.681 7.458s13.165-27.361 26.363-10.106c1.658-25.168 18.579-16.719 18.579-16.719s5.282-24.079 21.097-23.803Z"/><path d="M305.104 609.157c-13.718-10.122-45.69-9.538-45.69-9.538-9.898 5.671-28.07 19.628-28.07 19.628.39-2.356 1.284-9.066-.244-12.495-1.219 8.059-2.974 7.328-2.974 7.328s-1.902.016.065-7.896c-2.731 2.567-4.47 9.115-5.023 11.438-4.047-3.298-10.776-11.78-19.862-21.528 0 0-32.232 1.901-48.794 5.995 17.586 3.185 16.595 15.403 16.595 15.403s24.43-9.456 20.707 18.782c18.432-16.199 29.014 14.363 29.014 14.363s20.626-27.41 31.418-5.378c7.412-27.507 24.267-14.411 24.267-14.411s11.134-25.493 28.591-21.691ZM116.494 599.018c-14.71-8.627-46.437-4.679-46.437-4.679-9.249 6.678-25.844 22.471-25.844 22.471.13-2.389.325-9.148-1.56-12.397-.358 8.14-2.178 7.587-2.178 7.587s-1.886.212-.764-7.864c-2.438 2.844-3.479 9.538-3.787 11.91-4.373-2.86-11.963-10.577-22.024-19.318 0 0-31.858 5.28-47.884 11.097 17.814 1.316 18.123 13.567 18.123 13.567S7.43 609.417 6.715 637.899c16.628-18.051 30.363 11.227 30.363 11.227s17.619-29.424 30.687-8.66c4.47-28.141 22.61-16.881 22.61-16.881s8.354-26.516 26.119-24.567ZM819.086 593.076c-18.773-8.822-56.775-.52-56.775-.52-10.467 9.115-28.818 30.075-28.818 30.075-.097-2.892-.617-11.114-3.267-14.834.455 9.894-1.804 9.44-1.804 9.44s-2.259.471-1.804-9.44c-2.633 3.72-3.153 11.942-3.267 14.834-5.624-2.974-15.653-11.504-28.818-20.96 0 0-38.002 9.928-56.775 18.75 21.731-.39 23.454 14.428 23.454 14.428s26.884-17.076 29.176 17.483c18.123-23.706 38.034 10.236 38.034 10.236s18.074-37.598 36.214-13.892c2.291-34.575 25.518-22.958 25.518-22.958s7.217-33.032 28.932-32.642ZM297.983 374.428c-5.835-2.746-17.635-.162-17.635-.162-3.251 2.827-8.956 9.342-8.956 9.342-.033-.894-.195-3.461-1.008-4.614.146 3.07-.553 2.924-.553 2.924s-.699.146-.552-2.924c-.813 1.153-.975 3.704-1.008 4.614-1.739-.926-4.86-3.575-8.956-6.515 0 0-11.8 3.087-17.635 5.816 6.745-.113 7.281 4.485 7.281 4.485s8.355-5.313 9.054 5.426c5.624-7.36 11.816 3.185 11.816 3.185s5.608-11.682 11.248-4.306c.715-10.739 7.932-7.132 7.932-7.132s2.227-10.253 8.972-10.139ZM1330.58 285.764c-5.84-2.746-17.64-.163-17.64-.163-3.25 2.828-8.95 9.343-8.95 9.343-.04-.894-.2-3.461-1.01-4.614.14 3.07-.55 2.924-.55 2.924s-.7.146-.56-2.924c-.81 1.153-.97 3.704-1.01 4.614-1.73-.926-4.86-3.575-8.95-6.515 0 0-11.8 3.087-17.64 5.816 6.75-.113 7.29 4.485 7.29 4.485s8.35-5.313 9.05 5.426c5.62-7.36 11.82 3.185 11.82 3.185s5.6-11.682 11.24-4.306c.72-10.739 7.93-7.132 7.93-7.132s2.23-10.253 8.98-10.139ZM316.97 200.953c-3.495-4.127-13.41-6.304-13.41-6.304-3.478 1.024-10.109 3.997-10.109 3.997.292-.699 1.056-2.713.845-3.867-.976 2.405-1.447 2.047-1.447 2.047s-.585-.13.602-2.437c-1.024.601-2.048 2.486-2.39 3.168-1.008-1.316-2.47-4.435-4.551-8.107 0 0-10.094-1.771-15.506-1.722 5.201 2.274 3.998 5.979 3.998 5.979s8.241-1.121 5.023 7.327c6.875-3.655 7.915 6.564 7.915 6.564s8.387-6.954 10.094.65c4.307-7.945 8.55-2.664 8.55-2.664s5.282-7.084 10.386-4.631ZM1160.5 171.771c-4.62-1.495-13.18 1.56-13.18 1.56-2.17 2.421-5.79 7.831-5.79 7.831-.11-.666-.47-2.567-1.2-3.347.4 2.275-.15 2.243-.15 2.243s-.5.178-.7-2.129c-.5.943-.37 2.86-.32 3.542-1.4-.52-3.97-2.21-7.3-4.013 0 0-8.52 3.428-12.61 6.028 5.02-.731 5.86 2.648 5.86 2.648s5.73-4.76 7.29 3.201c3.51-6.028 9.11 1.251 9.11 1.251s3.09-9.245 7.98-4.289c-.48-8.092 5.24-6.077 5.24-6.077s.71-7.896 5.77-8.449ZM1305.01 346.223c-9.77-7.279-32.64-6.971-32.64-6.971-7.1 4.014-20.13 13.941-20.13 13.941.27-1.69.94-6.483-.13-8.936-.9 5.751-2.15 5.231-2.15 5.231s-1.35 0 .08-5.654c-1.95 1.836-3.22 6.499-3.62 8.157-2.9-2.373-7.68-8.465-14.13-15.452 0 0-23.06 1.251-34.9 4.127 12.57 2.34 11.82 11.065 11.82 11.065s17.49-6.678 14.74 13.502c13.23-11.52 20.69 10.366 20.69 10.366s14.84-19.53 22.48-3.737c5.38-19.644 17.41-10.22 17.41-10.22s8.01-18.198 20.48-15.419ZM797.937 247.452c-10.582-1.787-28.38 7.636-28.38 7.636-3.949 5.996-10.191 19.01-10.191 19.01-.455-1.43-1.853-5.459-3.689-6.937 1.609 4.874.422 4.955.422 4.955s-1.056.553-2.21-4.452c-.797 2.226.081 6.386.438 7.848-3.218-.699-9.411-3.558-17.294-6.45 0 0-17.57 10.236-25.697 17.255 10.776-3.217 13.702 3.932 13.702 3.932s11.02-12.251 16.985 4.663c5.738-14.347 20.399-.179 20.399-.179s3.787-21.268 16.124-11.958c-3.674-17.564 9.525-14.997 9.525-14.997s-1.024-17.499 9.866-20.326ZM818.028 222.266c-3.494-4.127-13.409-6.304-13.409-6.304-3.478 1.023-10.11 3.997-10.11 3.997.293-.699 1.057-2.714.845-3.867-.975 2.404-1.446 2.047-1.446 2.047s-.585-.13.601-2.437c-1.024.601-2.048 2.486-2.389 3.168-1.008-1.316-2.471-4.436-4.551-8.108 0 0-10.094-1.771-15.507-1.722 5.202 2.275 3.999 5.979 3.999 5.979s8.241-1.121 5.022 7.328c6.876-3.656 7.916 6.564 7.916 6.564s8.387-6.954 10.11.65c4.307-7.961 8.55-2.665 8.55-2.665s5.266-7.1 10.369-4.63Z"/><path d="M729.721 632.813c-13.718-10.122-45.689-9.537-45.689-9.537-9.899 5.67-28.071 19.627-28.071 19.627.39-2.356 1.284-9.066-.244-12.495-1.219 8.059-2.974 7.328-2.974 7.328s-1.902.016.065-7.896c-2.731 2.567-4.47 9.115-5.023 11.438-4.047-3.298-10.776-11.779-19.862-21.528 0 0-32.231 1.901-48.794 5.995 17.587 3.185 16.595 15.403 16.595 15.403s24.43-9.456 20.708 18.783c18.432-16.199 29.013 14.363 29.013 14.363s20.626-27.41 31.419-5.378c7.411-27.508 24.267-14.412 24.267-14.412s11.133-25.493 28.59-21.691ZM549.824 622.795c-18.773-8.823-56.774-.52-56.774-.52-10.468 9.115-28.819 30.075-28.819 30.075-.097-2.893-.617-11.114-3.267-14.835.456 9.912-1.804 9.44-1.804 9.44s-2.259.472-1.804-9.44c-2.633 3.721-3.153 11.942-3.267 14.835-5.624-2.974-15.652-11.504-28.818-20.96 0 0-38.002 9.927-56.775 18.75 21.732-.39 23.454 14.428 23.454 14.428s26.884-17.076 29.176 17.482c18.123-23.705 38.034 10.236 38.034 10.236s18.075-37.597 36.214-13.891c2.292-34.575 25.519-22.958 25.519-22.958s7.2-33.032 28.931-32.642ZM415.144 537.022c-14.677-.26-33.564 7.588-33.564 7.588-5.754 9.927-9.769 18.327-12.532 21.885-.91-1.836-3.624-7.002-6.404-8.627 3.17 6.255 1.577 6.613 1.577 6.613s-1.333.958-3.901-5.573c-.634 3.168 1.414 8.627 2.194 10.528-4.486-.292-13.442-2.892-24.69-5.183 0 0-18.415 8.904-27.972 20.034 13.913-6.548 13.198 10.934 13.198 10.934s10.191-14.298 21.699 7.377c4.827-20.57 32.621-8.823 32.621-8.823s9.688-28.563 28.266-18.506c-8.55-22.99 8.907-21.106 8.907-21.106s-13.523-11.097.601-17.141Z"/><path d="M505.809 556.482c-18.773-8.822-56.775-.519-56.775-.519-10.468 9.115-28.818 30.074-28.818 30.074-.098-2.892-.618-11.113-3.267-14.834.455 9.911-1.804 9.44-1.804 9.44s-2.26.471-1.805-9.44c-2.633 3.721-3.153 11.942-3.267 14.834-5.623-2.973-15.652-11.503-28.818-20.959 0 0-38.001 9.927-56.775 18.749 21.732-.39 23.455 14.428 23.455 14.428s26.884-17.076 29.176 17.483c18.123-23.706 38.034 10.236 38.034 10.236s18.074-37.597 36.213-13.892c2.292-34.575 25.519-22.958 25.519-22.958s7.2-33.031 28.932-32.642Z"/><path d="M568.303 609.813c-13.718-10.122-45.689-9.537-45.689-9.537-9.899 5.67-28.071 19.627-28.071 19.627.39-2.356 1.284-9.066-.244-12.495-1.219 8.059-2.974 7.328-2.974 7.328s-1.902.016.065-7.896c-2.731 2.567-4.47 9.115-5.023 11.438-4.047-3.298-10.776-11.779-19.862-21.528 0 0-32.231 1.901-48.794 5.995 17.587 3.185 16.595 15.403 16.595 15.403s24.43-9.456 20.708 18.783c18.431-16.199 29.013 14.363 29.013 14.363s20.626-27.41 31.419-5.378c7.411-27.508 24.267-14.412 24.267-14.412s11.134-25.493 28.59-21.691ZM886.277 528.217c-14.677-.26-33.564 7.588-33.564 7.588-5.754 9.927-9.769 18.327-12.532 21.886-.91-1.836-3.625-7.003-6.404-8.628 3.17 6.255 1.577 6.613 1.577 6.613s-1.333.959-3.901-5.573c-.634 3.168 1.414 8.627 2.194 10.528-4.486-.292-13.442-2.892-24.69-5.183 0 0-18.415 8.904-27.973 20.034 13.914-6.548 13.199 10.935 13.199 10.935s10.191-14.298 21.698 7.376c4.828-20.57 32.622-8.822 32.622-8.822s9.687-28.564 28.266-18.507c-8.55-22.99 8.907-21.105 8.907-21.105s-13.54-11.098.601-17.142ZM1056.99 507.608c-14.68-.26-33.56 7.588-33.56 7.588-5.76 9.927-9.77 18.327-12.53 21.885-.91-1.836-3.63-7.003-6.41-8.627 3.17 6.255 1.58 6.613 1.58 6.613s-1.33.958-3.9-5.573c-.64 3.168 1.41 8.627 2.19 10.528-4.484-.292-13.44-2.892-24.688-5.183 0 0-18.415 8.904-27.973 20.033 13.914-6.547 13.198 10.935 13.198 10.935s10.192-14.298 21.699 7.377c4.828-20.57 32.624-8.823 32.624-8.823s9.69-28.563 28.26-18.506c-8.55-22.991 8.91-21.106 8.91-21.106s-13.52-11.097.6-17.141ZM1247.94 559.136c-14.27-13.826-40.19-23.559-40.19-23.559-14.88 4.485-26.63 9.083-32.66 10.041.82-2.664 2.9-10.268 1.66-14.46-2.67 9.115-4.57 7.994-4.57 7.994s-2.19-.277 1.3-9.115c-3.54 2.551-6.58 9.846-7.57 12.429-4.16-4.452-10.61-15.289-19.6-27.962 0 0-26.43-8.238-46.2-6.093 19.82 6.402 2.93 23.023 2.93 23.023s23.31-4.696 14.61 27.361c23.81-15.858 40.41 21.463 40.41 21.463s36.03-19.269 45.09 7.864c12.84-30.627 28.34-12.624 28.34-12.624s-3.12-23.478 16.45-16.362Z"/><path d="M992.724 566.639c-11.394-17.32-35.58-33.097-35.58-33.097-16.172 1.186-29.175 3.201-35.531 2.811 1.431-2.519 5.283-9.814 4.974-14.347-4.779 8.676-6.469 7.1-6.469 7.1s-2.178-.779 3.397-8.985c-4.194 1.788-8.94 8.53-10.532 10.951-3.235-5.475-7.347-17.986-13.621-32.917 0 0-25.047-14.396-45.657-16.671 18.724 11.016-2.26 24.096-2.26 24.096s24.804.503 8.68 31.179c27.843-10.74 36.279 31.033 36.279 31.033s41.057-11.438 44.129 18.246c20.025-28.287 31.727-6.417 31.727-6.417s2.146-24.664 20.464-12.982ZM1174.04 482.545c-18.78-8.823-56.78-.52-56.78-.52-10.47 9.115-28.82 30.075-28.82 30.075-.1-2.893-.62-11.114-3.26-14.835.45 9.911-1.81 9.44-1.81 9.44s-2.26.471-1.8-9.44c-2.64 3.721-3.16 11.942-3.27 14.835-5.62-2.974-15.65-11.504-28.82-20.96 0 0-38 9.927-56.773 18.75 21.733-.39 23.453 14.428 23.453 14.428s26.89-17.077 29.18 17.482c18.12-23.705 38.03 10.236 38.03 10.236s18.08-37.597 36.21-13.891c2.3-34.575 25.52-22.958 25.52-22.958s7.2-33.032 28.94-32.642ZM1239.82 489.592c-14.68-.26-33.57 7.588-33.57 7.588-5.75 9.927-9.77 18.327-12.53 21.886-.91-1.836-3.62-7.003-6.4-8.628 3.17 6.255 1.57 6.613 1.57 6.613s-1.33.959-3.9-5.573c-.63 3.168 1.42 8.627 2.2 10.528-4.49-.292-13.45-2.892-24.69-5.183 0 0-18.42 8.904-27.98 20.034 13.92-6.548 13.2 10.935 13.2 10.935s10.19-14.298 21.7 7.376c4.83-20.57 32.62-8.822 32.62-8.822s9.69-28.564 28.27-18.507c-8.55-22.99 8.9-21.105 8.9-21.105s-13.53-11.098.61-17.142ZM796.899 446.762c-14.384-2.892-34.377 1.43-34.377 1.43-7.444 8.725-12.905 16.28-16.27 19.27-.552-1.982-2.308-7.539-4.746-9.651 1.999 6.726.358 6.791.358 6.791s-1.479.699-2.829-6.174c-1.186 3.006-.146 8.741.261 10.756-4.373-1.105-12.711-5.248-23.357-9.537 0 0-19.716 5.443-31.127 14.671 14.873-3.932 11.021 13.129 11.021 13.129s12.596-12.219 20.008 11.146c8.452-19.352 33.678-2.811 33.678-2.811s14.677-26.354 31.143-13.128c-4.275-24.145 12.564-19.157 12.564-19.157s-11.329-13.323 3.673-16.735ZM588.262 619.67c-12.759-.228-29.192 6.596-29.192 6.596-5.006 8.628-8.501 15.939-10.89 19.043-.797-1.609-3.153-6.093-5.575-7.507 2.763 5.443 1.365 5.752 1.365 5.752s-1.154.828-3.397-4.842c-.553 2.746 1.235 7.506 1.918 9.147-3.901-.26-11.687-2.502-21.471-4.5 0 0-16.011 7.734-24.332 17.417 12.109-5.686 11.475 9.505 11.475 9.505s8.858-12.429 18.871 6.402c4.193-17.889 28.379-7.669 28.379-7.669s8.419-24.843 24.592-16.102c-7.444-19.984 7.737-18.36 7.737-18.36s-11.784-9.618.52-14.882Z"/><path d="M1350.7 529.646c-11.39-17.32-35.58-33.096-35.58-33.096-16.17 1.186-29.17 3.201-35.53 2.811 1.43-2.519 5.28-9.814 4.97-14.347-4.78 8.676-6.47 7.1-6.47 7.1s-2.17-.78 3.4-8.985c-4.19 1.787-8.94 8.53-10.53 10.951-3.24-5.475-7.35-17.986-13.62-32.918 0 0-25.05-14.395-45.66-16.67 18.73 11.016-2.26 24.096-2.26 24.096s24.81.503 8.68 31.179c27.84-10.74 36.28 31.033 36.28 31.033s41.06-11.438 44.13 18.246c20.02-28.287 31.73-6.418 31.73-6.418s2.14-24.647 20.46-12.982ZM1289.33 429.74c-7.4-14.753-35.26-28.255-35.26-28.255-11.03.552-32.83 4.63-32.83 4.63 1.36-1.868 5.09-7.262 5.27-10.886-4.59 6.418-5.77 5.021-5.77 5.021s-1.65-.829 3.52-6.792c-3.48 1.024-7.85 5.915-9.34 7.669-2.05-4.63-4.13-14.899-7.71-27.28 0 0-28.65-12.478-44.75-16.199 13.79 10.448 7.56 20.57 7.56 20.57s25.23 2.535 9.64 25.298c23.02-5.914 18.74 25.119 18.74 25.119s29.81-14.623 29.49 9.131c18.44-20.505 27.27-1.804 27.27-1.804s20.77-17.157 34.17-6.222ZM910.398 363.004c-6.681-13.323-31.858-25.525-31.858-25.525-9.964.504-29.68 4.192-29.68 4.192 1.236-1.69 4.6-6.564 4.763-9.83-4.145 5.801-5.218 4.533-5.218 4.533s-1.479-.747 3.186-6.141c-3.153.926-7.103 5.345-8.452 6.937-1.853-4.175-3.738-13.453-6.973-24.664 0 0-25.908-11.276-40.439-14.639 12.45 9.44 6.842 18.588 6.842 18.588s22.805 2.29 8.712 22.86c20.805-5.345 16.937 22.698 16.937 22.698s26.949-13.209 26.64 8.254c16.677-18.522 24.641-1.625 24.641-1.625s18.79-15.516 30.899-5.638ZM1203.44 288.64c-10.58-1.788-28.38 7.636-28.38 7.636-3.95 5.995-10.19 19.01-10.19 19.01-.45-1.43-1.85-5.459-3.69-6.938 1.61 4.874.42 4.956.42 4.956s-1.05.552-2.21-4.452c-.79 2.226.08 6.385.44 7.847-3.22-.698-9.41-3.558-17.29-6.45 0 0-17.57 10.236-25.7 17.255 10.78-3.217 13.7 3.932 13.7 3.932s11.02-12.251 16.99 4.663c5.73-14.347 20.4-.179 20.4-.179s3.78-21.268 16.12-11.958c-3.67-17.564 9.52-14.997 9.52-14.997s-1.02-17.482 9.87-20.325ZM178.601 381.645c-9.768-7.279-32.637-6.971-32.637-6.971-7.103 4.014-20.139 13.941-20.139 13.941.276-1.69.943-6.483-.13-8.936-.894 5.751-2.146 5.231-2.146 5.231s-1.349 0 .082-5.654c-1.951 1.836-3.219 6.499-3.625 8.157-2.893-2.373-7.672-8.466-14.125-15.452 0 0-23.064 1.251-34.897 4.127 12.565 2.34 11.817 11.065 11.817 11.065s17.489-6.678 14.742 13.501c13.231-11.519 20.691 10.366 20.691 10.366s14.84-19.529 22.48-3.737c5.38-19.643 17.407-10.219 17.407-10.219s8.014-18.182 20.48-15.419ZM1095.25 151.039c-5.62-6.239-21.11-9.099-21.11-9.099-5.33 1.755-15.49 6.711-15.49 6.711.42-1.105 1.51-4.257 1.11-6.044-1.39 3.769-2.17 3.233-2.17 3.233s-.91-.179.82-3.802c-1.58.975-3.06 3.964-3.55 5.021-1.62-1.999-4.03-6.743-7.46-12.349 0 0-15.75-2.258-24.13-1.917 8.17 3.266 6.48 9.066 6.48 9.066s12.73-2.161 8.14 11.114c10.5-6.012 12.6 9.797 12.6 9.797s12.66-11.195 15.7.504c6.29-12.543 13.14-4.566 13.14-4.566s7.88-11.227 15.92-7.669ZM1119.46 111.555c-2.75.341-6.46 3.98-6.46 3.98-.53 1.771-1.12 5.46-1.12 5.46-.21-.325-.86-1.219-1.43-1.446.77 1.088.47 1.202.47 1.202s-.22.211-.87-.942c-.04.601.48 1.576.68 1.917-.85.065-2.59-.179-4.75-.325 0 0-3.59 3.818-5.09 6.158 2.43-1.593 3.68-.033 3.68-.033s1.82-3.851 4.55-.097c.36-3.965 5.02-1.544 5.02-1.544s-.63-5.54 3.11-4.143c-2.2-4.078 1.25-4.419 1.25-4.419s-1.53-4.257.96-5.768ZM757.597 155.266c-2.747.341-6.453 3.98-6.453 3.98-.536 1.771-1.121 5.46-1.121 5.46-.212-.325-.862-1.219-1.431-1.446.764 1.088.472 1.202.472 1.202s-.228.211-.878-.943c-.032.602.488 1.576.683 1.918-.845.065-2.585-.179-4.746-.325 0 0-3.592 3.818-5.088 6.158 2.422-1.593 3.674-.033 3.674-.033s1.82-3.851 4.551-.097c.357-3.965 5.022-1.544 5.022-1.544s-.634-5.54 3.105-4.143c-2.195-4.078 1.251-4.419 1.251-4.419s-1.528-4.274.959-5.768ZM495.925 148c-2.747.341-6.453 3.981-6.453 3.981-.536 1.771-1.121 5.459-1.121 5.459-.211-.325-.862-1.219-1.43-1.446.764 1.088.471 1.202.471 1.202s-.228.211-.878-.942c-.032.601.488 1.576.683 1.917-.845.065-2.584-.179-4.746-.325 0 0-3.592 3.835-5.088 6.158 2.422-1.592 3.674-.032 3.674-.032s1.82-3.851 4.551-.098c.357-3.964 5.022-1.544 5.022-1.544s-.634-5.54 3.105-4.143c-2.195-4.078 1.251-4.419 1.251-4.419s-1.528-4.273.959-5.768ZM1082.72 227.321c-2.86-1.852-9.25-1.332-9.25-1.332-1.9 1.251-5.36 4.273-5.36 4.273.05-.471.15-1.819-.21-2.486-.15 1.625-.5 1.495-.5 1.495s-.38.033-.09-1.576c-.52.553-.78 1.885-.86 2.34-.84-.618-2.31-2.226-4.24-4.046 0 0-6.42.78-9.67 1.804 3.54.422 3.51 2.875 3.51 2.875s4.76-2.193 4.37 3.494c3.48-3.461 5.98 2.502 5.98 2.502s3.77-5.736 6.21-1.462c1.14-5.59 4.67-3.185 4.67-3.185s1.9-5.232 5.44-4.696ZM614.352 118.853c-2.08-2.697-8.273-4.338-8.273-4.338-2.21.552-6.485 2.226-6.485 2.226.211-.439.747-1.674.634-2.421-.683 1.478-.976 1.251-.976 1.251s-.373-.098.456-1.511c-.667.341-1.366 1.511-1.593 1.933-.602-.861-1.431-2.859-2.633-5.231 0 0-6.307-1.398-9.72-1.528 3.202 1.576 2.34 3.884 2.34 3.884s5.218-.472 2.959 4.76c4.437-2.112 4.794 4.355 4.794 4.355s5.478-4.144 6.339.698c2.942-4.89 5.462-1.446 5.462-1.446s3.543-4.322 6.696-2.632ZM950.304 235.547c-10.354 2.843-22.528 18.88-22.528 18.88-1.057 7.1-1.219 21.528-1.219 21.528-1.008-1.105-3.982-4.176-6.274-4.744 3.511 3.737 2.471 4.321 2.471 4.321s-.732.943-3.885-3.103c.211 2.356 2.779 5.768 3.706 6.938-3.218.715-10.029.731-18.4 1.446 0 0-11.621 16.686-16.042 26.468 8.419-7.458 14.092-2.21 14.092-2.21s4.827-15.76 17.359-2.925c-.845-15.435 18.416-8.757 18.416-8.757s-5.527-20.879 9.589-17.645c-10.727-14.38 2.325-17.613 2.325-17.613s-8.306-15.435.39-22.584ZM1042.36 566.365c-18.77-8.822-56.771-.52-56.771-.52-10.468 9.115-28.818 30.075-28.818 30.075-.098-2.892-.618-11.114-3.267-14.834.455 9.895-1.805 9.44-1.805 9.44s-2.259.471-1.804-9.44c-2.633 3.72-3.153 11.942-3.267 14.834-5.624-2.973-15.652-11.503-28.818-20.96 0 0-38.002 9.928-56.775 18.75 21.732-.39 23.455 14.428 23.455 14.428s26.883-17.076 29.175 17.483c18.123-23.706 38.034 10.236 38.034 10.236s18.075-37.597 36.214-13.892c2.292-34.575 25.517-22.958 25.517-22.958s7.22-33.032 28.93-32.642ZM862.159 499c-15.847-3.559-43.512 9.245-43.512 9.245-6.452 8.757-16.936 27.897-16.936 27.897-.569-2.193-2.357-8.4-5.023-10.789 2.032 7.491.228 7.523.228 7.523s-1.658.748-2.974-6.921c-1.382 3.298-.391 9.667.016 11.909-4.811-1.332-13.93-6.141-25.6-11.146 0 0-27.388 14.038-40.245 23.982 16.547-3.981 20.383 7.068 20.383 7.068s17.668-17.629 25.291 8.432c9.85-21.203 30.833 1.381 30.833 1.381s7.445-31.829 25.34-16.767c-4.112-26.842 15.62-21.902 15.62-21.902s-.114-26.517 16.579-29.912ZM1299.75 551.334c-14.68-.26-33.57 7.588-33.57 7.588-5.75 9.928-9.77 18.328-12.53 21.886-.91-1.836-3.62-7.003-6.4-8.628 3.17 6.256 1.57 6.613 1.57 6.613s-1.33.959-3.9-5.573c-.63 3.168 1.42 8.628 2.2 10.529-4.49-.293-13.45-2.892-24.69-5.183 0 0-18.42 8.903-27.98 20.033 13.92-6.548 13.2 10.935 13.2 10.935s10.19-14.298 21.7 7.376c4.83-20.569 32.62-8.822 32.62-8.822s9.69-28.564 28.27-18.506c-8.55-22.991 8.9-21.106 8.9-21.106s-13.54-11.097.61-17.142Z"/><path d="M1243.77 595.269c-14.27-13.827-40.2-23.559-40.2-23.559-14.87 4.484-26.62 9.082-32.65 10.041.81-2.665 2.89-10.268 1.65-14.46-2.66 9.115-4.56 7.994-4.56 7.994s-2.2-.277 1.3-9.115c-3.55 2.55-6.59 9.846-7.58 12.429-4.16-4.452-10.61-15.289-19.6-27.962 0 0-26.43-8.238-46.19-6.093 19.81 6.401 2.92 23.023 2.92 23.023s23.31-4.696 14.62 27.361c23.81-15.858 40.4 21.463 40.4 21.463s36.04-19.27 45.09 7.864c12.84-30.627 28.35-12.624 28.35-12.624s-3.12-23.462 16.45-16.362ZM1410.65 586.787c-11.4-17.32-35.58-33.097-35.58-33.097-16.18 1.187-29.18 3.201-35.53 2.811 1.43-2.518 5.28-9.813 4.97-14.346-4.78 8.676-6.47 7.1-6.47 7.1s-2.18-.78 3.4-8.985c-4.2 1.787-8.94 8.53-10.54 10.951-3.23-5.476-7.34-17.986-13.62-32.918 0 0-25.04-14.396-45.65-16.67 18.72 11.016-2.26 24.095-2.26 24.095s24.8.504 8.68 31.18c27.84-10.74 36.28 31.033 36.28 31.033s41.05-11.439 44.12 18.246c20.03-28.287 31.73-6.418 31.73-6.418s2.13-24.648 20.47-12.982ZM1050.51 259.313c-6.45-.065-14.74 3.461-14.74 3.461-2.51 4.387-4.23 8.108-5.43 9.668-.41-.813-1.63-3.071-2.85-3.77 1.42 2.746.72 2.908.72 2.908s-.59.423-1.74-2.437c-.26 1.398.65 3.786 1.01 4.631-1.99-.114-5.94-1.219-10.88-2.194 0 0-8.06 3.981-12.24 8.92 6.1-2.924 5.85 4.761 5.85 4.761s4.44-6.32 9.58 3.168c2.05-9.066 14.32-3.997 14.32-3.997s4.16-12.608 12.37-8.254c-3.86-10.089 3.83-9.326 3.83-9.326s-5.99-4.825.2-7.539ZM1088.64 348.903c-9.82-9.505-27.63-16.199-27.63-16.199-10.23 3.087-18.3 6.239-22.45 6.906.55-1.836 2-7.068 1.14-9.944-1.84 6.272-3.14 5.492-3.14 5.492s-1.51-.195.9-6.272c-2.44 1.755-4.52 6.759-5.21 8.546-2.86-3.054-7.29-10.512-13.47-19.221 0 0-18.17-5.67-31.76-4.192 13.62 4.404 1.999 15.826 1.999 15.826s16.031-3.234 10.045 18.815c16.366-10.903 27.776 14.752 27.776 14.752s24.77-13.241 31 5.411c8.82-21.057 19.49-8.676 19.49-8.676s-2.15-16.134 11.31-11.244ZM897.704 689.161c-9.313-14.152-29.078-27.052-29.078-27.052-13.215.975-23.845 2.616-29.03 2.291 1.171-2.064 4.324-8.01 4.064-11.731-3.901 7.1-5.283 5.8-5.283 5.8s-1.771-.633 2.78-7.344c-3.43 1.463-7.298 6.971-8.615 8.936-2.649-4.468-5.998-14.687-11.118-26.906 0 0-20.463-11.763-37.302-13.632 15.295 9.002-1.837 19.693-1.837 19.693s20.269.406 7.087 25.476c22.755-8.774 29.647 25.347 29.647 25.347s33.548-9.359 36.051 14.899c16.368-23.105 25.925-5.248 25.925-5.248s1.739-20.066 16.709-10.529ZM872.772 385.167c-16.058-1.3-41.447 15.094-41.447 15.094-5.12 9.489-12.759 29.734-12.759 29.734-.862-2.08-3.479-7.913-6.421-9.912 3.04 7.084 1.268 7.361 1.268 7.361s-1.511.958-3.884-6.369c-.911 3.428.959 9.553 1.674 11.682-4.893-.634-14.531-4.095-26.689-7.393 0 0-24.95 17.58-36.198 29.116 15.702-6.207 21 4.111 21 4.111s14.905-19.758 25.99 4.776c6.73-22.194 30.46-2.908 30.46-2.908s2.91-32.284 22.561-19.968c-7.77-25.786 12.304-23.657 12.304-23.657s-3.771-26.029 12.141-31.667ZM1015.98 484.671c-16.007-.277-36.601 8.286-36.601 8.286-6.274 10.821-10.646 20.001-13.67 23.868-.991-2.015-3.949-7.637-6.989-9.424 3.462 6.824 1.723 7.214 1.723 7.214s-1.446 1.04-4.258-6.077c-.683 3.445 1.544 9.408 2.389 11.488-4.892-.325-14.661-3.152-26.933-5.655 0 0-20.073 9.7-30.508 21.854 15.181-7.133 14.401 11.925 14.401 11.925s11.117-15.581 23.665 8.043c5.267-22.422 35.58-9.619 35.58-9.619s10.565-31.146 30.831-20.195c-9.327-25.071 9.71-23.024 9.71-23.024s-14.76-12.088.66-18.684ZM1163.63 470.473c-13.26-12.869-37.36-21.902-37.36-21.902-13.84 4.175-24.76 8.448-30.37 9.326.75-2.47 2.7-9.554 1.55-13.453-2.47 8.481-4.25 7.441-4.25 7.441s-2.04-.26 1.22-8.481c-3.3 2.372-6.11 9.147-7.03 11.568-3.87-4.143-9.87-14.217-18.22-25.996 0 0-24.58-7.669-42.95-5.654 18.42 5.963 2.72 21.398 2.72 21.398s21.66-4.371 13.59 25.444c22.13-14.737 37.57 19.952 37.57 19.952s33.5-17.905 41.92 7.311c11.93-28.482 26.35-11.73 26.35-11.73s-2.94-21.837 15.26-15.224ZM780.774 341.917c-10.159-9.863-28.64-16.784-28.64-16.784-10.597 3.2-18.968 6.466-23.259 7.149.569-1.901 2.064-7.328 1.187-10.301-1.902 6.499-3.251 5.703-3.251 5.703s-1.56-.195.926-6.5c-2.535 1.82-4.681 7.003-5.396 8.855-2.974-3.168-7.558-10.902-13.962-19.919 0 0-18.838-5.882-32.914-4.338 14.124 4.565 2.08 16.394 2.08 16.394s16.612-3.347 10.419 19.497c16.969-11.292 28.802 15.289 28.802 15.289s25.665-13.729 32.118 5.605c9.151-21.82 20.187-8.985 20.187-8.985s-2.259-16.735 11.703-11.665ZM583.827 209.242c-6.696-2.762-16.79-2.551-16.79-2.551-4.437 3.526-7.786 6.678-9.703 7.815-.082-1.007-.407-3.867-1.398-5.118.325 3.445-.472 3.331-.472 3.331s-.78.195-.796-3.266c-.862 1.349-.894 4.225-.878 5.232-2.015-.942-5.656-3.737-10.419-6.824 0 0-10.061.78-16.465 4.176 7.575-.504 4.096 7.392 4.096 7.392s7.249-4.744 8.647 7.296c5.917-8.595 16.596 1.803 16.596 1.803s9.589-11.39 16.335-3.428c.211-12.105 7.899-8.108 7.899-8.108s-4.242-7.506 3.348-7.75Z"/><path d="M999.876 492.472c-10.598-16.101-33.093-30.773-33.093-30.773-15.035 1.105-27.128 2.989-33.028 2.616 1.333-2.356 4.908-9.115 4.632-13.34-4.453 8.075-6.014 6.613-6.014 6.613s-2.015-.731 3.153-8.351c-3.9 1.657-8.305 7.929-9.801 10.171-3.007-5.086-6.826-16.719-12.661-30.611 0 0-23.292-13.388-42.456-15.5 17.408 10.252-2.096 22.405-2.096 22.405s23.064.472 8.062 28.986c25.892-9.992 33.726 28.84 33.726 28.84s38.181-10.642 41.025 16.963c18.611-26.289 29.501-5.963 29.501-5.963s2.016-22.909 19.05-12.056ZM1008.36 686.925c-10.598-16.101-33.093-30.773-33.093-30.773-15.035 1.105-27.128 2.99-33.028 2.616 1.333-2.356 4.909-9.115 4.633-13.34-4.454 8.076-6.014 6.613-6.014 6.613s-2.016-.731 3.153-8.351c-3.901 1.657-8.306 7.929-9.801 10.171-3.007-5.086-6.827-16.719-12.662-30.611 0 0-23.292-13.388-42.455-15.5 17.408 10.252-2.097 22.406-2.097 22.406s23.064.471 8.062 28.986c25.892-9.993 33.727 28.839 33.727 28.839s38.18-10.642 41.025 16.963c18.61-26.289 29.501-5.963 29.501-5.963s2.015-22.909 19.049-12.056ZM1088.64 381.937c-17.44-8.205-52.78-.471-52.78-.471-9.72 8.481-26.8 27.962-26.8 27.962-.1-2.697-.58-10.333-3.04-13.794.42 9.212-1.67 8.774-1.67 8.774s-2.1.438-1.68-8.774c-2.45 3.461-2.939 11.097-3.036 13.794-5.218-2.778-14.564-10.691-26.803-19.481 0 0-35.336 9.229-52.776 17.434 20.203-.357 21.796 13.421 21.796 13.421s24.999-15.891 27.128 16.264c16.855-22.049 35.351 9.521 35.351 9.521s16.81-34.949 33.66-12.901c2.13-32.138 23.73-21.349 23.73-21.349s6.72-30.757 26.92-30.4Z"/><path d="M1002.8 619.282c-11.881-5.589-35.937-.325-35.937-.325C960.248 624.725 948.61 638 948.61 638c-.065-1.836-.39-7.036-2.064-9.392.292 6.272-1.138 5.98-1.138 5.98s-1.43.292-1.138-5.98c-1.674 2.356-1.999 7.556-2.064 9.392-3.56-1.885-9.915-7.279-18.253-13.275 0 0-24.056 6.288-35.937 11.877 13.75-.243 14.839 9.131 14.839 9.131s17.018-10.821 18.465 11.065c11.475-15.013 24.072 6.483 24.072 6.483s11.443-23.803 22.918-8.79c1.446-21.886 16.156-14.542 16.156-14.542s4.584-20.911 18.334-20.667Z"/><path d="M910.724 622.382c-13.654-6.418-41.318-.373-41.318-.373-7.623 6.629-20.983 21.902-20.983 21.902-.082-2.113-.456-8.092-2.373-10.805.341 7.214-1.317 6.873-1.317 6.873s-1.642.341-1.317-6.873c-1.918 2.713-2.308 8.692-2.373 10.805-4.096-2.161-11.394-8.368-20.983-15.257 0 0-27.665 7.23-41.318 13.648 15.815-.276 17.067 10.512 17.067 10.512s19.569-12.429 21.227 12.738c13.199-17.255 27.681 7.458 27.681 7.458s13.165-27.361 26.364-10.106c1.657-25.168 18.578-16.719 18.578-16.719s5.25-24.079 21.065-23.803Z"/><path d="M952.998 609.157c-13.718-10.122-45.689-9.538-45.689-9.538-9.899 5.671-28.071 19.628-28.071 19.628.39-2.356 1.284-9.066-.243-12.495-1.219 8.059-2.975 7.328-2.975 7.328s-1.902.016.065-7.896c-2.731 2.567-4.47 9.115-5.022 11.438-4.048-3.298-10.777-11.78-19.863-21.528 0 0-32.231 1.901-48.794 5.995 17.587 3.185 16.595 15.403 16.595 15.403s24.43-9.456 20.708 18.782c18.432-16.199 29.013 14.363 29.013 14.363s20.626-27.41 31.419-5.378c7.412-27.507 24.267-14.411 24.267-14.411s11.134-25.493 28.59-21.691Z"/><path d="M842.538 638.36c-13.719-10.122-45.69-9.537-45.69-9.537-9.899 5.67-28.071 19.627-28.071 19.627.391-2.356 1.284-9.066-.243-12.495-1.219 8.059-2.975 7.328-2.975 7.328s-1.902.016.065-7.896c-2.73 2.567-4.47 9.115-5.022 11.438-4.048-3.298-10.777-11.779-19.863-21.528 0 0-32.231 1.901-48.794 5.995 17.587 3.185 16.596 15.403 16.596 15.403s24.429-9.456 20.707 18.782c18.432-16.199 29.013 14.363 29.013 14.363s20.626-27.409 31.419-5.378c7.412-27.507 24.267-14.411 24.267-14.411s11.134-25.493 28.591-21.691Z"/><path d="M830.625 627.451c-18.773-8.822-56.775-.52-56.775-.52-10.467 9.115-28.818 30.075-28.818 30.075-.097-2.892-.617-11.114-3.267-14.834.455 9.911-1.804 9.44-1.804 9.44s-2.259.471-1.804-9.44c-2.633 3.72-3.153 11.942-3.267 14.834-5.624-2.974-15.653-11.504-28.818-20.96 0 0-38.002 9.928-56.775 18.75 21.731-.39 23.454 14.428 23.454 14.428s26.884-17.076 29.176 17.483c18.123-23.706 38.034 10.236 38.034 10.236s18.074-37.598 36.214-13.892c2.292-34.575 25.518-22.958 25.518-22.958s7.201-33.032 28.932-32.642Z"/><path d="M718.392 622.691c-21.065-9.895-63.715-.569-63.715-.569-11.736 10.236-32.346 33.763-32.346 33.763-.113-3.25-.698-12.478-3.657-16.654.52 11.113-2.015 10.593-2.015 10.593s-2.536.52-2.016-10.593c-2.958 4.176-3.543 13.404-3.657 16.654-6.306-3.347-17.57-12.901-32.345-23.527 0 0-42.65 11.146-63.715 21.041 24.381-.439 26.315 16.199 26.315 16.199s30.167-19.172 32.735 19.627c20.35-26.614 42.683 11.487 42.683 11.487s20.285-42.195 40.635-15.581c2.568-38.8 28.639-25.769 28.639-25.769s8.062-37.094 32.459-36.671ZM1110.78 689.161c-9.32-14.152-29.08-27.052-29.08-27.052-13.21.975-23.84 2.616-29.03 2.291 1.17-2.064 4.32-8.01 4.06-11.731-3.9 7.1-5.28 5.8-5.28 5.8s-1.77-.633 2.78-7.344c-3.43 1.463-7.3 6.971-8.61 8.936-2.64-4.468-6-14.687-11.12-26.906 0 0-20.46-11.763-37.304-13.632 15.294 9.002-1.837 19.693-1.837 19.693s20.271.406 7.091 25.476c22.75-8.774 29.64 25.347 29.64 25.347s33.55-9.359 36.05 14.899c16.37-23.105 25.93-5.248 25.93-5.248s1.74-20.066 16.71-10.529ZM945.866 374.428c-5.835-2.746-17.636-.162-17.636-.162-3.25 2.827-8.955 9.342-8.955 9.342-.033-.894-.195-3.461-1.008-4.614.146 3.07-.553 2.924-.553 2.924s-.699.146-.552-2.924c-.813 1.153-.976 3.704-1.008 4.614-1.739-.926-4.86-3.575-8.956-6.515 0 0-11.8 3.087-17.636 5.816 6.746-.113 7.282 4.485 7.282 4.485s8.355-5.313 9.054 5.426c5.623-7.36 11.816 3.185 11.816 3.185s5.608-11.682 11.248-4.306c.715-10.739 7.932-7.132 7.932-7.132s2.227-10.253 8.972-10.139ZM957.908 204.216c-4.908-2.275-14.823-.065-14.823-.065-2.715 2.388-7.493 7.88-7.493 7.88-.033-.764-.179-2.909-.878-3.867.13 2.583-.455 2.469-.455 2.469s-.585.13-.488-2.453c-.683.975-.812 3.12-.829 3.883-1.463-.763-4.096-2.973-7.542-5.443 0 0-9.914 2.632-14.791 4.972 5.673-.13 6.144 3.737 6.144 3.737s6.99-4.484 7.64 4.533c4.697-6.206 9.947 2.632 9.947 2.632s4.665-9.83 9.427-3.672c.553-9.033 6.632-6.028 6.632-6.028s1.837-8.643 7.509-8.578ZM1377.6 632.813c-13.72-10.122-45.69-9.537-45.69-9.537-9.9 5.67-28.07 19.627-28.07 19.627.39-2.356 1.28-9.066-.24-12.495-1.22 8.059-2.98 7.328-2.98 7.328s-1.9.016.07-7.896c-2.73 2.567-4.47 9.115-5.03 11.438-4.04-3.298-10.77-11.779-19.86-21.528 0 0-32.23 1.901-48.79 5.995 17.58 3.185 16.59 15.403 16.59 15.403s24.43-9.456 20.71 18.783c18.43-16.199 29.01 14.363 29.01 14.363s20.63-27.41 31.42-5.378c7.41-27.508 24.27-14.412 24.27-14.412s11.13-25.493 28.59-21.691ZM63.343 542.589s11.702-21.853 31.727 6.418c3.056-29.684 44.129-18.246 44.129-18.246s8.436-41.773 36.279-31.033c-16.124-30.676 8.68-31.179 8.68-31.179s-20.984-13.08-2.26-24.096c-20.61 2.291-45.657 16.67-45.657 16.67-6.274 14.948-10.386 27.443-13.621 32.918-1.609-2.421-6.339-9.147-10.532-10.951 5.575 8.205 3.397 8.985 3.397 8.985s-1.69 1.576-6.469-7.1c-.309 4.549 3.543 11.828 4.974 14.347-6.356.39-19.359-1.625-35.531-2.811 0 0-24.202 15.776-35.58 33.096 18.318-11.633 20.464 12.982 20.464 12.982Z"/><path d="M37.483 601.214s11.703-21.853 31.728 6.418c3.055-29.684 44.129-18.246 44.129-18.246s8.436-41.773 36.279-31.033c-16.124-30.676 8.679-31.18 8.679-31.18s-20.983-13.079-2.259-24.095c-20.61 2.291-45.657 16.67-45.657 16.67-6.274 14.948-10.386 27.443-13.62 32.918-1.61-2.421-6.34-9.147-10.533-10.951 5.575 8.205 3.397 8.985 3.397 8.985s-1.69 1.576-6.47-7.1c-.308 4.549 3.544 11.828 4.974 14.347-6.355.39-19.358-1.625-35.53-2.811 0 0-24.203 15.776-35.58 33.096 18.318-11.633 20.463 12.982 20.463 12.982ZM44.555 654.504s16.872-13.096 24.268 14.412c10.808-22.032 31.418 5.378 31.418 5.378s10.582-30.562 29.013-14.363c-3.722-28.239 20.708-18.783 20.708-18.783s-.992-12.218 16.595-15.403c-16.546-4.094-48.794-5.995-48.794-5.995-9.086 9.749-15.815 18.23-19.862 21.528-.553-2.323-2.292-8.871-5.023-11.438 1.967 7.912.065 7.896.065 7.896s-1.755.731-2.974-7.328c-1.528 3.429-.634 10.139-.244 12.495 0 0-18.172-13.957-28.07-19.627 0 0-31.972-.585-45.69 9.537 17.473-3.802 28.59 21.691 28.59 21.691ZM1199.2 621.295c-18.77-8.823-56.78-.52-56.78-.52-10.46 9.115-28.81 30.075-28.81 30.075-.1-2.893-.62-11.114-3.27-14.835.45 9.895-1.8 9.44-1.8 9.44s-2.26.472-1.81-9.44c-2.63 3.721-3.15 11.942-3.27 14.835-5.62-2.974-15.65-11.504-28.81-20.96 0 0-38.01 9.927-56.78 18.75 21.73-.39 23.46 14.428 23.46 14.428s26.88-17.077 29.17 17.482c18.12-23.705 38.04 10.236 38.04 10.236s18.07-37.597 36.21-13.891c2.29-34.576 25.52-22.958 25.52-22.958s7.2-33.016 28.93-32.642ZM1063.04 537.022c-14.68-.26-33.57 7.588-33.57 7.588-5.75 9.927-9.76 18.327-12.53 21.885-.91-1.836-3.62-7.002-6.4-8.627 3.17 6.255 1.58 6.613 1.58 6.613s-1.34.958-3.91-5.573c-.63 3.168 1.42 8.627 2.2 10.528-4.49-.292-13.443-2.892-24.691-5.183 0 0-18.416 8.904-27.973 20.034 13.913-6.548 13.198 10.934 13.198 10.934s10.191-14.298 21.699 7.377c4.828-20.57 32.617-8.823 32.617-8.823s9.69-28.563 28.27-18.506c-8.55-22.99 8.91-21.106 8.91-21.106s-13.54-11.097.6-17.141Z"/><path d="M1153.69 556.482c-18.78-8.822-56.78-.519-56.78-.519-10.46 9.115-28.82 30.074-28.82 30.074-.09-2.892-.61-11.113-3.26-14.834.45 9.911-1.81 9.44-1.81 9.44s-2.26.471-1.8-9.44c-2.63 3.721-3.15 11.942-3.27 14.834-5.62-2.973-15.65-11.503-28.82-20.959 0 0-37.997 9.927-56.771 18.749 21.732-.39 23.455 14.428 23.455 14.428s26.886-17.076 29.176 17.483c18.12-23.706 38.03 10.236 38.03 10.236s18.08-37.597 36.22-13.892c2.29-34.575 25.52-22.958 25.52-22.958s7.21-33.031 28.93-32.642Z"/><path d="M1216.18 609.813c-13.72-10.122-45.69-9.537-45.69-9.537-9.9 5.67-28.07 19.627-28.07 19.627.39-2.356 1.29-9.066-.24-12.495-1.22 8.059-2.98 7.328-2.98 7.328s-1.9.016.07-7.896c-2.73 2.567-4.47 9.115-5.02 11.438-4.05-3.298-10.78-11.779-19.87-21.528 0 0-32.23 1.901-48.79 5.995 17.59 3.185 16.59 15.403 16.59 15.403s24.43-9.456 20.71 18.783c18.43-16.199 29.02 14.363 29.02 14.363s20.62-27.41 31.41-5.378c7.42-27.508 24.27-14.412 24.27-14.412s11.14-25.493 28.59-21.691Z"/></g><defs><clipPath id="a"><path fill="#fff" d="M0 0h1440v636H0z"/></clipPath></defs></svg>